<?xml version="1.0" standalone="no"?>
<!DOCTYPE svg PUBLIC "-//W3C//DTD SVG 20010904//EN"
 "http://www.w3.org/TR/2001/REC-SVG-20010904/DTD/svg10.dtd">
<svg version="1.0" xmlns="http://www.w3.org/2000/svg"
 width="2147.000000pt" height="1029.000000pt" viewBox="0 0 2147.000000 1029.000000"
 preserveAspectRatio="xMidYMid meet">

<g transform="translate(0.000000,1029.000000) scale(0.100000,-0.100000)"
fill="#000000" stroke="none">
<path d="M14526 9663 c24 -93 64 -244 88 -338 181 -693 216 -821 216 -794 0
20 80 542 84 546 2 3 141 -40 308 -95 167 -55 304 -99 305 -98 2 2 -106 101
-239 222 -134 120 -368 333 -520 472 -153 138 -280 252 -282 252 -2 0 16 -75
40 -167z"/>
<path d="M17875 9810 c-660 -103 -1076 -773 -889 -1429 100 -350 377 -640 714
-749 575 -186 1194 154 1364 749 175 613 -178 1249 -779 1405 -112 29 -305 40
-410 24z m370 -190 c197 -51 371 -168 495 -332 412 -546 154 -1332 -495 -1510
-65 -17 -107 -21 -220 -21 -113 0 -155 4 -220 21 -357 98 -615 386 -680 761
-64 364 95 746 395 951 110 75 220 120 353 146 97 18 269 11 372 -16z"/>
<path d="M17333 9080 c-25 -10 -38 -48 -28 -80 10 -30 44 -40 146 -40 l89 0 0
-279 c0 -177 4 -290 11 -310 19 -53 67 -66 113 -30 l26 20 0 300 0 299 100 0
c94 0 103 2 125 25 14 13 25 31 25 40 0 9 -11 27 -25 40 l-24 25 -268 -1
c-147 0 -278 -4 -290 -9z"/>
<path d="M18065 9079 c-11 -7 -23 -17 -27 -23 -4 -6 -8 -165 -8 -353 0 -330 1
-344 20 -363 11 -11 31 -20 45 -20 14 0 34 9 45 20 19 19 20 33 20 297 0 160
4 273 9 268 5 -6 37 -127 72 -270 54 -225 66 -264 90 -287 31 -32 72 -36 106
-13 27 19 42 68 114 359 l54 218 5 -277 c5 -276 5 -277 29 -296 31 -26 57 -24
86 6 l25 24 0 334 c0 398 5 379 -107 385 -82 5 -109 -6 -128 -51 -7 -18 -37
-124 -66 -237 -28 -113 -55 -208 -59 -213 -3 -4 -34 99 -68 230 -34 130 -69
244 -77 252 -20 20 -151 27 -180 10z"/>
<path d="M14960 9005 c233 -400 349 -663 455 -1030 113 -394 163 -755 169
-1205 9 -718 -114 -1313 -399 -1930 -360 -780 -1061 -1540 -1839 -1994 -147
-86 -402 -209 -566 -273 -149 -57 -180 -73 -144 -73 29 0 136 -67 191 -120 87
-85 136 -183 169 -341 15 -71 18 -148 20 -494 3 -442 6 -513 28 -590 8 -27 26
-90 41 -140 19 -64 25 -106 22 -147 -4 -66 -19 -69 138 25 931 559 1738 1412
2216 2342 267 519 431 1007 524 1557 128 756 109 1620 -51 2328 -103 455 -225
801 -429 1215 -149 301 -295 543 -493 815 -66 91 -83 109 -52 55z"/>
<path d="M3199 2535 c-139 -22 -208 -43 -316 -96 -181 -89 -295 -222 -322
-376 -20 -110 18 -192 111 -236 43 -20 151 -23 188 -4 14 7 57 60 97 117 121
176 198 230 358 251 156 20 326 -2 389 -52 54 -43 96 -147 110 -275 l6 -52
-113 -31 c-146 -40 -268 -68 -566 -131 -135 -29 -270 -61 -300 -72 -126 -48
-230 -129 -294 -230 -45 -71 -62 -118 -78 -209 -10 -65 -10 -88 4 -164 23
-127 64 -204 156 -296 158 -158 368 -215 640 -175 179 27 326 89 495 211 42
30 80 55 84 55 4 0 27 -30 51 -66 93 -138 188 -214 266 -214 80 0 186 64 219
134 24 51 20 92 -26 264 l-42 157 -6 475 c-8 498 -10 525 -58 662 -88 249
-356 370 -817 367 -82 -1 -189 -7 -236 -14z m617 -1161 c-7 -126 -31 -247 -62
-305 -9 -18 -36 -54 -61 -80 -99 -105 -230 -159 -390 -159 -121 0 -175 16
-238 72 -56 49 -83 99 -91 170 -10 83 9 134 70 194 65 63 110 81 327 129 206
45 399 94 418 105 30 16 34 -3 27 -126z"/>
<path d="M5388 2540 c-121 -15 -211 -40 -308 -87 -230 -113 -365 -339 -331
-555 21 -129 60 -200 158 -287 115 -103 305 -180 668 -271 298 -75 396 -153
383 -305 -11 -128 -154 -215 -354 -215 -95 0 -218 29 -280 65 -56 33 -139 117
-172 175 -45 79 -93 140 -123 155 -33 18 -145 20 -186 4 -67 -25 -122 -109
-123 -186 0 -56 31 -153 70 -213 92 -144 291 -262 515 -306 111 -22 401 -24
520 -5 201 33 346 100 457 211 124 124 174 258 166 448 -3 83 -8 107 -35 164
-50 107 -150 201 -288 270 -86 44 -221 87 -464 149 -259 66 -337 97 -398 155
-104 99 -49 240 113 294 57 19 82 22 183 18 105 -4 121 -7 171 -33 30 -17 79
-57 110 -89 168 -180 183 -193 244 -207 102 -23 203 16 247 96 30 52 30 141 1
208 -29 65 -111 150 -202 209 -170 110 -482 168 -742 138z"/>
<path d="M7665 2543 c-99 -12 -229 -39 -283 -59 -251 -94 -430 -262 -531 -500
-119 -279 -118 -662 2 -929 128 -287 361 -473 678 -541 113 -24 350 -25 471
-1 322 64 577 272 688 560 67 172 75 221 74 452 0 197 -2 216 -27 309 -60 216
-165 381 -321 502 -80 63 -244 147 -331 169 -134 35 -314 51 -420 38z m230
-388 c171 -45 288 -176 347 -392 31 -112 30 -372 0 -486 -72 -264 -240 -408
-477 -407 -191 1 -332 91 -415 264 -61 129 -74 197 -75 381 0 191 16 275 78
398 64 129 169 217 294 246 61 14 184 12 248 -4z"/>
<path d="M9736 2540 c-176 -22 -299 -67 -421 -155 -75 -53 -124 -112 -169
-202 -94 -188 -69 -386 68 -531 106 -113 273 -195 561 -272 273 -74 329 -92
395 -125 125 -63 172 -173 119 -283 -42 -86 -152 -141 -300 -149 -232 -14
-394 71 -506 262 -23 39 -58 86 -78 105 -34 33 -41 35 -114 38 -86 4 -120 -7
-167 -56 -37 -39 -54 -83 -54 -145 0 -232 243 -445 585 -513 121 -24 411 -25
541 -1 191 36 324 98 431 203 120 117 180 276 170 454 -11 223 -150 371 -456
487 -36 14 -178 54 -316 89 -137 36 -275 76 -305 90 -111 51 -160 107 -160
184 0 56 25 99 82 140 66 48 132 63 262 58 159 -6 180 -17 341 -183 151 -155
172 -166 284 -147 72 12 122 45 153 102 26 47 21 157 -11 218 -80 156 -301
283 -561 322 -104 15 -291 21 -374 10z"/>
<path d="M11855 2515 c-293 -40 -507 -167 -600 -357 -68 -139 -58 -257 27
-321 48 -35 102 -50 169 -45 72 5 82 13 170 145 72 106 139 171 214 204 97 43
341 50 454 13 106 -35 162 -128 177 -293 l7 -67 -74 -22 c-125 -36 -231 -61
-503 -118 -360 -75 -377 -79 -469 -126 -61 -30 -101 -59 -153 -112 -113 -115
-161 -240 -151 -396 12 -211 130 -385 322 -476 110 -53 171 -64 336 -64 122 0
162 4 242 24 124 32 235 85 372 177 l111 75 44 -65 c61 -88 143 -175 184 -195
50 -23 147 -21 198 5 76 39 128 113 128 182 0 27 -40 186 -75 297 -4 14 -11
241 -15 505 -7 437 -9 488 -28 568 -68 283 -234 416 -578 462 -139 18 -381 18
-509 0z m612 -1167 c-10 -268 -75 -388 -255 -478 -100 -49 -163 -63 -281 -58
-101 3 -110 5 -165 38 -88 53 -136 134 -136 229 0 171 85 229 451 311 185 41
280 65 388 99 2 0 1 -63 -2 -141z"/>
</g>
</svg>
