<?xml version="1.0" encoding="utf-8"?>
<!-- Generator: Adobe Illustrator 18.0.0, SVG Export Plug-In . SVG Version: 6.00 Build 0)  -->
<!DOCTYPE svg PUBLIC "-//W3C//DTD SVG 1.1//EN" "http://www.w3.org/Graphics/SVG/1.1/DTD/svg11.dtd">
<svg version="1.1"
	 id="svg2" inkscape:version="0.91 r13725" sodipodi:docname="ajax_logo.svg" xmlns:svg="http://www.w3.org/2000/svg" xmlns:sodipodi="http://sodipodi.sourceforge.net/DTD/sodipodi-0.dtd" xmlns:inkscape="http://www.inkscape.org/namespaces/inkscape" xmlns:dc="http://purl.org/dc/elements/1.1/" xmlns:cc="http://creativecommons.org/ns#" xmlns:rdf="http://www.w3.org/1999/02/22-rdf-syntax-ns#"
	 xmlns="http://www.w3.org/2000/svg" xmlns:xlink="http://www.w3.org/1999/xlink" x="0px" y="0px" width="110px" height="80px"
	 viewBox="0 0 110 80" enable-background="new 0 0 110 80" xml:space="preserve">
<sodipodi:namedview  inkscape:cx="155.83262" borderopacity="1" inkscape:cy="35.915286" guidetolerance="10" showguides="true" inkscape:zoom="1.9117941" showgrid="false" bordercolor="#666666" objecttolerance="10" gridtolerance="10" id="namedview4" pagecolor="#ffffff" inkscape:snap-bbox-edge-midpoints="true" inkscape:pageopacity="0" inkscape:pageshadow="2" inkscape:window-width="1855" inkscape:window-height="1056" inkscape:guide-bbox="true" inkscape:snap-bbox="true" inkscape:bbox-paths="true" inkscape:bbox-nodes="true" inkscape:window-maximized="1" inkscape:snap-bbox-midpoints="true" inkscape:current-layer="svg2" inkscape:window-x="65" inkscape:snap-global="false" inkscape:window-y="24">
	</sodipodi:namedview>
<g>
	<g id="g4204" transform="translate(0,2)">
		<path id="path4206" inkscape:connector-curvature="0" fill="#969696" d="M8.1,36.2L0,54.1h5.3l1.6-3.8H15l1.6,3.8h5.3l-8.1-18
			C13.6,36.2,8.1,36.2,8.1,36.2z M10.9,40.5l1.4,3.4l1.4,3.4H11H8.2l1.4-3.4L10.9,40.5L10.9,40.5z"/>
		<path id="path4208" inkscape:connector-curvature="0" fill="#969696" d="M46.8,36.2l-8.1,18h5.3l1.6-3.8h8.1l1.6,3.8h5.2l-8.1-18
			H46.8z M49.7,40.5l1.4,3.4l1.4,3.4h-2.7H47l1.4-3.4L49.7,40.5L49.7,40.5z"/>
		<path id="path4210" inkscape:connector-curvature="0" fill="#969696" d="M61.8,36.2h6l3.8,5.6l4.1-5.6h5.9l-7,8.8l7.5,9.4h-6
			l-4.3-6.1l-4.3,6.1h-6.3l7.7-9.2L61.8,36.2z"/>
		<path id="path4212" inkscape:connector-curvature="0" fill="#969696" d="M36.6,28.6l-7.2,7l2.4,2.2l2.4-2.4h0.4v13.3
			c0,1.8-1.4,3.1-3.1,3.1h-2.4c-1.8,0-3.1-1.4-3.1-3.1v-1.4h-4.8v1.8c0,3.1,2.4,5.4,5.4,5.4h6.3c3.1,0,5.4-2.4,5.4-5.4V35.6h0.2
			l2.7,2.4l2-2.2L36.6,28.6L36.6,28.6z"/>
		<path id="path4214" inkscape:connector-curvature="0" fill="#969696" d="M23.7,46l7.2-7l-2.4-2.3l-2.4,2.4h-0.4V25.7
			c0-1.8,1.4-3.1,3.1-3.1h2.4c1.8,0,3.1,1.4,3.1,3.1v1.4h4.8v-1.8c0-3.1-2.4-5.4-5.4-5.4h-6.4c-3.1,0-5.4,2.4-5.4,5.4v13.8h-0.2
			l-2.7-2.4L16.6,39L23.7,46L23.7,46z"/>
	</g>
	
		<linearGradient id="path3338_1_" gradientUnits="userSpaceOnUse" x1="40.8723" y1="-537.1594" x2="40.8723" y2="-572.2029" gradientTransform="matrix(1 0 0 -1 0 -516)">
		<stop  offset="0" style="stop-color:#A6A6A6"/>
		<stop  offset="0.5" style="stop-color:#707070"/>
		<stop  offset="1" style="stop-color:#8B8B8B"/>
	</linearGradient>
	<path id="path3338" fill="url(#path3338_1_)" stroke="#404040" stroke-width="0.1" d="M27.2,21.4c-3.1,0-5.4,2.4-5.4,5.4v13.8h-0.2
		l-2.7-2.4l-2,2.2l7,7l7.2-7l-2.5-2.3l-2.5,2.5h-0.4V27.2c0-1.8,1.4-3.1,3.1-3.1h2.4c1.8,0,3.1,1.4,3.1,3.1v1.4h4.8v-1.8
		c0-3.1-2.4-5.4-5.4-5.4H27.2z M36.6,30.2l-7.2,7l2.4,2.2l2.4-2.4h0.4v13.3c0,1.8-1.4,3.1-3.1,3.1h-2.4c-1.8,0-3.1-1.4-3.1-3.1v-1.4
		h-4.8v1.8c0,3.1,2.4,5.4,5.4,5.4h6.3c3.1,0,5.4-2.4,5.4-5.4V37h0.2l2.7,2.4l2-2.2L36.6,30.2z M61.8,37.8l6.8,8.8l-7.7,9.2h6.3
		l4.3-6.1l4.3,6.1h6l-7.5-9.4l7-8.8h-5.8l-4.1,5.6l-3.8-5.6h-5.8C61.8,37.6,61.8,37.8,61.8,37.8z M8.1,37.8L0,55.8h5.3L6.9,52H15
		l1.6,3.8h5.3l-8.1-18C13.8,37.8,8.1,37.8,8.1,37.8z M46.8,37.8l-8.1,18h5.3l1.6-3.8h8.1l1.6,3.8h5.2l-8.1-18H46.8z M10.9,42.1
		l1.4,3.4l1.4,3.4H11H8.2l1.4-3.4L10.9,42.1z M49.7,42.1l1.4,3.4l1.4,3.4h-2.7H47l1.4-3.4L49.7,42.1z"/>
</g>
</svg>
