<?xml version="1.0" encoding="utf-8"?>
<!-- Generator: Adobe Illustrator 18.0.0, SVG Export Plug-In . SVG Version: 6.00 Build 0)  -->
<!DOCTYPE svg PUBLIC "-//W3C//DTD SVG 1.1//EN" "http://www.w3.org/Graphics/SVG/1.1/DTD/svg11.dtd">
<svg version="1.1" id="Layer_1" xmlns="http://www.w3.org/2000/svg" xmlns:xlink="http://www.w3.org/1999/xlink" x="0px" y="0px"
	 width="110px" height="80px" viewBox="0 0 110 80" enable-background="new 0 0 110 80" xml:space="preserve">
<title>android</title>
<path fill="#383838" d="M7.3,31.8H7.2v20.1c0,1.7,1.4,3.1,3,3.1h2.6v7c0,1.7,1.4,3.1,3,3.1c1.7,0,3-1.4,3-3v-7h4.2v7
	c0,1.7,1.4,3.1,3,3.1c1.7,0,3-1.4,3-3.1v-7h2.6c1.7,0,3.1-1.4,3.1-3.1V31.8L7.3,31.8L7.3,31.8z M3,31.2c-1.7,0-3,1.4-3,3.1v12.8
	c0,1.7,1.4,3.1,3,3.1c1.7,0,3-1.4,3-3.1V34.3C6.1,32.6,4.7,31.2,3,31.2z M39,31.2c-1.7,0-3,1.4-3.1,3.1v12.8c0,1.7,1.4,3.1,3.1,3.1
	c1.7,0,3.1-1.4,3.1-3.1V34.3C42,32.6,40.6,31.2,39,31.2L39,31.2z M34.8,30.7v-1.5c0-0.4-0.1-0.8-0.2-1.2c-0.8-3.6-3.3-6.6-6.7-8.4
	l2.1-3.9c0.1-0.2,0-0.5-0.2-0.7c-0.2-0.1-0.5,0-0.7,0.2L27,19.2c-1.8-0.8-3.8-1.2-6-1.2c-2.2,0-4.2,0.4-6,1.2l-2.1-3.9
	c-0.1-0.2-0.4-0.3-0.7-0.2c-0.2,0.1-0.3,0.4-0.2,0.7l2.1,3.9c-3.3,1.7-5.7,4.5-6.5,7.9c-0.2,0.9-0.3,1.8-0.3,2.7c0,0.1,0,0.3,0,0.4
	C7.2,30.7,34.8,30.7,34.8,30.7z M27.3,23.2c0.7,0,1.3,0.6,1.3,1.3c0,0.7-0.6,1.3-1.3,1.3c-0.7,0-1.3-0.6-1.3-1.3
	C26,23.8,26.6,23.2,27.3,23.2L27.3,23.2z M14.7,23.2c0.7,0,1.3,0.6,1.3,1.3c0,0.7-0.6,1.3-1.3,1.3c-0.7,0-1.3-0.6-1.3-1.3
	C13.4,23.8,14,23.2,14.7,23.2L14.7,23.2z"/>
</svg>
