<svg xmlns="http://www.w3.org/2000/svg" width="110" height="80" viewBox="0 0 110 80"><path fill="#383838" fill-rule="evenodd" d="M37.963 34.755h-5.736L30.94 38.19H29.87l4.757-12.31h.97l4.717 12.31h-1.063l-1.29-3.435zm-5.39-.903h5.055l-2.494-6.662h-.048l-2.512 6.662zm10.29-4.81l.097 1.597c.296-.566.698-1 1.206-1.308.505-.306 1.106-.46 1.8-.46 1.012 0 1.777.303 2.304.91.53.606.792 1.55.792 2.835v5.573H48.03v-5.576c0-1.05-.198-1.793-.598-2.226-.4-.435-.963-.652-1.7-.652-.718 0-1.308.184-1.764.562-.456.376-.783.876-.985 1.496v6.396H41.95v-9.148h.914zm8.488 4.65c0-1.463.315-2.626.944-3.506.624-.875 1.5-1.314 2.623-1.314.65 0 1.21.136 1.69.407.472.267.867.652 1.185 1.146V25h1.024v13.19h-.914l-.085-1.33c-.31.486-.706.858-1.192 1.118-.488.257-1.064.386-1.722.386-1.11 0-1.984-.404-2.608-1.22-.63-.813-.943-1.905-.943-3.275v-.18zm1.03.177c0 1.11.226 1.994.677 2.65.45.655 1.125.983 2.033.983.664 0 1.217-.146 1.662-.44.446-.297.792-.704 1.036-1.225v-4.313c-.234-.53-.566-.963-.996-1.294-.43-.33-.99-.497-1.685-.497-.907 0-1.586.366-2.04 1.102-.456.732-.686 1.684-.686 2.856v.18zm13.456-3.96l-.763-.05c-.65 0-1.18.178-1.596.538-.417.355-.713.85-.89 1.475v6.316h-1.03V29.04h.903l.126 1.52v.1c.27-.56.634-1 1.085-1.317.453-.318.992-.474 1.618-.474.13 0 .258.01.383.032.123.02.226.04.303.063l-.137.945zm.964 3.568c0-1.346.375-2.452 1.127-3.312.747-.863 1.743-1.294 2.983-1.294 1.243 0 2.24.432 2.992 1.294.747.86 1.125 1.966 1.125 3.312v.28c0 1.352-.375 2.462-1.122 3.32-.75.857-1.74 1.29-2.977 1.29-1.25 0-2.252-.433-3-1.29-.753-.858-1.128-1.968-1.128-3.32v-.28zm1.032.276c0 1.06.27 1.95.816 2.67.547.72 1.306 1.08 2.28 1.08.957 0 1.71-.36 2.256-1.08.55-.72.82-1.61.82-2.67v-.28c0-1.038-.274-1.925-.827-2.65-.55-.725-1.306-1.088-2.27-1.088-.96 0-1.717.364-2.26 1.09-.544.724-.815 1.61-.815 2.65v.278zm9.473-7.335h1.025V25h-1.025v1.42zm0 11.77h1.025v-9.15h-1.025v9.15zm3.465-4.5c0-1.46.314-2.624.943-3.504.624-.875 1.5-1.314 2.627-1.314.647 0 1.207.136 1.685.407.477.267.872.652 1.187 1.146V25h1.023v13.19h-.91l-.09-1.33c-.305.486-.704.858-1.19 1.118-.488.257-1.062.386-1.723.386-1.11 0-1.98-.404-2.608-1.22-.63-.813-.943-1.905-.943-3.275v-.18zm1.71 2.83c.447.655 1.125.983 2.03.983.668 0 1.222-.146 1.664-.44.444-.297.79-.704 1.04-1.225v-4.313c-.24-.53-.57-.963-1.002-1.294-.426-.33-.988-.497-1.683-.497-.905 0-1.587.366-2.043 1.102-.455.732-.684 1.684-.684 2.856v.18c.002 1.11.224 1.994.676 2.65zM38.83 49.855c0-.77-.286-1.388-.866-1.85-.576-.463-1.57-.885-2.994-1.27-1.427-.374-2.472-.808-3.133-1.288-.666-.482-.996-1.187-.996-2.11 0-.918.393-1.65 1.168-2.198.78-.544 1.777-.82 2.984-.82 1.22 0 2.217.335 2.995 1.01.774.67 1.15 1.53 1.124 2.586l-.017.05H38.7c0-.918-.34-1.68-1.03-2.282-.69-.604-1.58-.906-2.674-.906-1.133 0-2.034.25-2.695.75-.662.498-.99 1.098-.99 1.795 0 .697.27 1.28.82 1.74.547.464 1.535.877 2.968 1.234 1.388.363 2.438.804 3.143 1.324.71.524 1.065 1.263 1.065 2.222 0 .973-.407 1.74-1.214 2.302-.81.562-1.818.844-3.034.844-1.256 0-2.334-.29-3.242-.868-.907-.576-1.345-1.486-1.317-2.725l.017-.052h.39c0 1.116.417 1.926 1.253 2.43.837.506 1.805.758 2.9.758 1.102 0 2.006-.248 2.71-.742.712-.5 1.065-1.14 1.065-1.932zm3.722-8.663v2.466h2.29v.466h-2.29v6.323c0 .748.13 1.282.39 1.6.256.32.595.477 1.022.477.154 0 .29-.004.41-.014.125-.013.286-.032.502-.06l.084.412c-.145.045-.292.076-.45.094-.15.016-.327.023-.52.023-.626 0-1.1-.2-1.423-.6-.325-.398-.488-1.046-.488-1.935v-6.324h-1.718v-.467h1.718V41.19l.472.003zm10.73 9.974c-.292.583-.71 1.03-1.252 1.347-.54.313-1.198.47-1.97.47-.962 0-1.71-.33-2.25-1-.54-.666-.813-1.702-.813-3.108v-5.213h.46v5.23c0 1.243.235 2.157.7 2.75.463.593 1.09.89 1.882.89.968 0 1.713-.235 2.23-.7.52-.47.85-1.09.995-1.864v-6.307h.473v9.148h-.39l-.065-1.643zm2.958-2.944c0-1.447.31-2.598.928-3.452.622-.85 1.48-1.28 2.582-1.28.726 0 1.356.16 1.885.482.53.32.953.76 1.268 1.318v-5.67h.467v13.187h-.45l-.017-1.42c-.31.492-.734.88-1.28 1.17-.54.285-1.17.428-1.892.428-1.095 0-1.953-.41-2.568-1.234-.617-.822-.924-1.934-.924-3.347l.002-.18zm.48.18c0 1.266.254 2.266.762 3.012.506.743 1.254 1.113 2.24 1.113.808 0 1.48-.177 2.015-.54.536-.36.924-.84 1.164-1.445v-4.286c-.222-.655-.586-1.203-1.084-1.645-.498-.44-1.19-.664-2.08-.664-.984 0-1.734.398-2.248 1.19-.513.792-.77 1.82-.77 3.09v.174zm9.702-7.62h.46V39.62h-.46v1.164zm0 12.024h.46v-9.144h-.46v9.144zm2.784-4.75c0-1.34.375-2.44 1.13-3.29.753-.85 1.73-1.276 2.934-1.276 1.21 0 2.194.427 2.946 1.276.752.85 1.13 1.95 1.13 3.29v.355c0 1.348-.375 2.448-1.13 3.298-.752.85-1.73 1.276-2.928 1.276-1.208 0-2.193-.425-2.948-1.276-.755-.85-1.134-1.95-1.134-3.297v-.354zm.463.354c0 1.153.33 2.126.98 2.922.656.798 1.535 1.196 2.64 1.196 1.088 0 1.96-.398 2.614-1.2.653-.8.98-1.772.98-2.917v-.354c0-1.123-.33-2.086-.99-2.894-.66-.81-1.53-1.215-2.622-1.215-1.094 0-1.967.405-2.62 1.215-.657.808-.982 1.77-.982 2.894v.355zM2.827 52.19c-.06.107-.094.215-.11.338l-.17 2.235c-.013.084.036.157.11.206.075.05.16.034.233-.014l1.88-1.25c.1-.073.184-.156.245-.253l1.87-3.183c-.74-.412-1.444-.892-2.09-1.427l-1.97 3.346zm21.365.01l-1.998-3.41c-.64.534-1.332 1.01-2.062 1.426l1.896 3.226c.06.107.148.192.244.25l1.885 1.264c.075.05.16.05.234.014.072-.05.108-.123.108-.206l-.2-2.227c-.01-.12-.044-.23-.107-.336zM9.985 38.7c-.16-.157-.23-.286-.22-.408h-.01V35.15c0-.757.636-1.38 1.406-1.38h.795v-2.48h3.122v2.48h.783c.77 0 1.405.623 1.405 1.38v3.142h-.01c0 .108-.06.25-.223.407l-.487.48 2.42 4.116c1.09-1.25 1.75-2.863 1.75-4.622h2.51c0 2.686-1.135 5.117-2.948 6.85l1.915 3.265c2.892-2.428 4.728-6.042 4.728-10.073 0-7.31-6.028-13.238-13.458-13.238C6.025 25.48 0 31.407 0 38.716c0 4.063 1.863 7.697 4.796 10.124l5.678-9.656-.49-.485zm3.538 9.53c-1.713 0-3.33-.446-4.724-1.216L6.89 50.268c1.943 1.07 4.185 1.684 6.572 1.684 2.426 0 4.7-.635 6.668-1.736l-1.885-3.203c-1.395.77-3.01 1.218-4.723 1.218zm.686-6.762c-.185.193-.442.29-.7.29l-.01-.013v.013c-.244 0-.502-.097-.696-.29l-.48-.47-2.273 3.875c1.01.554 2.2.878 3.46.878 1.26 0 2.45-.313 3.454-.864l-2.278-3.89-.478.472zm-.7-2.78h.014c1.03-.014 1.87-.83 1.87-1.85 0-1.028-.843-1.843-1.87-1.858l-.014-.024v.024c-1.038 0-1.87.82-1.87 1.857-.002 1.02.843 1.852 1.87 1.852z"/></svg>