<svg width="110" height="80" viewBox="0 0 110 80" xmlns="http://www.w3.org/2000/svg"><title>android_studio</title><path d="M49.42 35.78h-5.2l-1.17 3.09h-.966l4.313-11.08h.88l4.277 11.08h-.964l-1.17-3.09zm-4.887-.813h4.583l-2.26-5.996h-.045l-2.277 5.997zm9.33-4.33l.087 1.438c.268-.51.633-.9 1.094-1.176.458-.277 1.003-.415 1.633-.415.916 0 1.61.272 2.088.82.48.545.718 1.395.718 2.55v5.016h-.937v-5.017c0-.946-.18-1.614-.54-2.003-.363-.393-.874-.588-1.54-.588-.654 0-1.19.166-1.602.506-.413.338-.71.79-.893 1.346v5.757h-.934V30.64h.828zm7.695 4.185c0-1.316.285-2.363.855-3.155.566-.787 1.36-1.182 2.378-1.182.59 0 1.1.122 1.533.366.43.242.787.59 1.075 1.034V27h.93v11.87h-.83l-.077-1.195c-.28.436-.64.772-1.08 1.005-.443.23-.965.348-1.56.348-1.01 0-1.8-.364-2.366-1.1-.57-.73-.855-1.713-.855-2.946v-.16h-.002zm.934.16c0 1 .204 1.796.613 2.385.41.59 1.02.885 1.843.885.602 0 1.104-.13 1.507-.396.405-.266.718-.633.94-1.102v-3.88c-.213-.478-.513-.868-.904-1.166-.39-.298-.898-.448-1.526-.448-.823 0-1.438.33-1.85.99-.414.66-.622 1.517-.622 2.572v.16zm12.2-3.563l-.693-.045c-.59 0-1.07.16-1.448.483-.378.32-.646.766-.807 1.328v5.684h-.934v-8.232h.82l.115 1.368v.09c.243-.503.574-.9.983-1.186.41-.286.9-.426 1.466-.426.12 0 .235.01.347.027.112.02.205.037.276.058l-.125.85zm.873 3.21c0-1.21.34-2.206 1.022-2.98.678-.777 1.58-1.166 2.705-1.166 1.126 0 2.03.39 2.712 1.165.678.775 1.02 1.77 1.02 2.98v.252c0 1.217-.34 2.216-1.017 2.988-.68.77-1.58 1.16-2.7 1.16-1.133 0-2.04-.39-2.72-1.16-.682-.772-1.022-1.77-1.022-2.988v-.25zm.936.25c0 .953.247 1.754.74 2.4.496.65 1.185.973 2.068.973.868 0 1.55-.323 2.045-.972.498-.646.744-1.446.744-2.4v-.252c0-.936-.25-1.734-.75-2.386-.498-.653-1.184-.98-2.058-.98-.872 0-1.558.328-2.05.98-.493.653-.74 1.45-.74 2.386v.25zm8.59-6.603h.93V27h-.93v1.277zm0 10.594h.93v-8.233h-.93v8.234zm3.142-4.048c0-1.316.284-2.363.854-3.155.566-.787 1.36-1.182 2.382-1.182.587 0 1.094.122 1.528.366.432.242.79.59 1.076 1.034V27H95v11.87h-.826l-.08-1.195c-.278.436-.64.772-1.08 1.005-.442.23-.962.348-1.562.348-1.007 0-1.796-.364-2.365-1.1-.57-.73-.854-1.713-.854-2.946v-.16zm1.55 2.545c.405.59 1.02.885 1.84.885.606 0 1.108-.13 1.51-.396.402-.266.716-.633.94-1.102v-3.88c-.214-.478-.515-.868-.906-1.166-.386-.298-.896-.448-1.527-.448-.82 0-1.44.33-1.852.99-.412.66-.62 1.517-.62 2.572v.16c.002 1 .203 1.796.613 2.385zM50.206 49.37c0-.694-.258-1.25-.784-1.664-.523-.417-1.425-.797-2.715-1.142-1.294-.34-2.242-.73-2.84-1.16-.603-.435-.903-1.07-.903-1.9 0-.826.356-1.486 1.06-1.978.706-.49 1.61-.737 2.705-.737 1.107 0 2.01.3 2.715.906.7.603 1.04 1.377 1.02 2.328l-.017.044h-.36c0-.825-.31-1.51-.935-2.053-.624-.543-1.43-.815-2.423-.815-1.028 0-1.844.225-2.444.674-.6.45-.9.99-.9 1.617 0 .628.248 1.153.745 1.567.497.417 1.393.79 2.692 1.11 1.258.327 2.21.724 2.85 1.192.644.47.965 1.135.965 1.998 0 .875-.37 1.566-1.1 2.07-.736.507-1.65.76-2.753.76-1.14 0-2.116-.26-2.94-.78-.822-.52-1.22-1.337-1.194-2.452l.016-.047h.353c0 1.003.378 1.732 1.136 2.186.76.455 1.636.68 2.628.68 1 0 1.82-.222 2.46-.667.643-.45.963-1.027.963-1.74zm3.375-7.797v2.22h2.075v.42h-2.075v5.69c0 .675.12 1.156.353 1.442.233.288.54.43.928.43.14 0 .262-.004.372-.013.113-.012.258-.03.455-.054l.076.37c-.132.04-.266.07-.407.085-.14.015-.3.02-.475.02-.566 0-.995-.178-1.29-.538-.293-.36-.44-.942-.44-1.742v-5.69h-1.558v-.422h1.557v-2.22l.428.003zm9.73 8.978c-.266.525-.644.927-1.137 1.212-.49.283-1.086.424-1.787.424-.87 0-1.55-.298-2.04-.9-.49-.6-.736-1.533-.736-2.797v-4.694h.42v4.708c0 1.118.212 1.94.633 2.475.42.532.99.8 1.706.8.88 0 1.555-.212 2.025-.63.47-.422.77-.98.9-1.678v-5.676h.43v8.234h-.353l-.06-1.48zm2.68-2.65c0-1.3.282-2.338.842-3.106.564-.766 1.342-1.152 2.34-1.152.66 0 1.23.144 1.71.433.48.288.864.683 1.15 1.186V40.16h.423v11.868h-.407l-.016-1.277c-.282.44-.666.79-1.16 1.05-.49.258-1.062.386-1.716.386-.993 0-1.77-.37-2.328-1.11-.56-.74-.84-1.742-.84-3.014l.002-.16zm.436.16c0 1.142.23 2.042.69 2.713.46.67 1.138 1.002 2.03 1.002.734 0 1.342-.16 1.83-.487.486-.323.838-.756 1.055-1.3v-3.857c-.2-.588-.53-1.08-.983-1.48-.45-.395-1.08-.596-1.885-.596-.893 0-1.573.357-2.04 1.07-.464.713-.697 1.638-.697 2.78v.157zm8.796-6.855h.418v-1.048h-.418v1.048zm0 10.82h.418v-8.23h-.418v8.23zm2.525-4.274c0-1.205.34-2.195 1.024-2.96.68-.765 1.568-1.148 2.66-1.148 1.098 0 1.988.383 2.67 1.148.682.765 1.025 1.755 1.025 2.96v.32c0 1.212-.34 2.202-1.026 2.967-.682.766-1.568 1.15-2.654 1.15-1.096 0-1.988-.384-2.673-1.15-.685-.765-1.028-1.755-1.028-2.967v-.32zm.418.32c0 1.037.298 1.912.89 2.63.593.717 1.39 1.075 2.392 1.075.986 0 1.776-.358 2.37-1.08.592-.72.89-1.594.89-2.625v-.32c0-1.01-.302-1.877-.898-2.604-.6-.73-1.39-1.094-2.38-1.094s-1.782.365-2.375 1.094c-.595.727-.89 1.594-.89 2.605v.32zm-60.606 3.4c-.054.097-.085.194-.098.305l-.155 2.012c-.013.075.03.14.098.185.068.045.144.03.212-.012l1.706-1.124c.09-.066.166-.14.22-.23l1.697-2.863c-.672-.37-1.31-.802-1.895-1.285l-1.786 3.012zm19.37.01l-1.81-3.07c-.58.48-1.21.91-1.87 1.284l1.718 2.904c.055.096.135.173.22.226l1.71 1.136c.068.044.146.044.213.013.066-.045.098-.11.098-.186l-.18-2.004c-.008-.108-.04-.205-.097-.303zm-12.88-12.15c-.145-.14-.208-.258-.198-.367h-.01v-2.828c0-.68.576-1.243 1.274-1.243h.72V32.66h2.832v2.232h.71c.698 0 1.274.562 1.274 1.243v2.828h-.01c0 .097-.054.226-.2.366l-.443.433 2.196 3.704c.988-1.127 1.586-2.577 1.586-4.16h2.276c0 2.417-1.03 4.605-2.673 6.165l1.735 2.938c2.623-2.185 4.287-5.437 4.287-9.065 0-6.578-5.465-11.914-12.2-11.914C20.46 27.43 15 32.768 15 39.346c0 3.657 1.69 6.928 4.348 9.112l5.15-8.69-.446-.438zm3.208 8.578c-1.553 0-3.02-.402-4.284-1.095l-1.73 2.928c1.763.965 3.795 1.517 5.96 1.517 2.2 0 4.262-.572 6.045-1.563l-1.708-2.882c-1.265.694-2.728 1.096-4.282 1.096zm.622-6.087c-.167.175-.4.262-.635.262l-.01-.012v.012c-.22 0-.454-.087-.63-.26l-.435-.424-2.06 3.488c.917.498 1.994.79 3.136.79 1.143 0 2.222-.282 3.132-.778l-2.065-3.5-.433.423zm-.635-2.5h.013c.932-.013 1.697-.747 1.697-1.667 0-.924-.766-1.658-1.697-1.67l-.013-.022v.022c-.94 0-1.696.738-1.696 1.67 0 .92.766 1.668 1.697 1.668z" fill="#383838" fill-rule="evenodd"/></svg>