<svg xmlns="http://www.w3.org/2000/svg" width="110" height="80" viewBox="0 0 110 80"><path fill="#383838" fill-rule="evenodd" d="M83.263 45.186v-1.1c.972.344 2.02.518 3.15.518 1.592 0 2.39-.584 2.39-1.75 0-.992-.59-1.49-1.763-1.49h-1.193c-1.938 0-2.908-.84-2.908-2.526 0-1.77 1.24-2.656 3.725-2.656 1.08 0 2.083.13 3.01.39v1.1c-.928-.345-1.93-.518-3.01-.518-1.685 0-2.527.562-2.527 1.685 0 .99.57 1.488 1.71 1.488h1.192c1.972 0 2.96.842 2.96 2.526 0 1.814-1.196 2.72-3.59 2.72-1.126 0-2.175-.13-3.147-.388zM10.696 29L0 32.807 1.69 46.98l9.017 5.012 9.063-5.08 1.69-14.172L10.696 29zm.004 1.533l-9.167 3.3 1.45 12.283 7.727 4.344 7.77-4.403 1.447-12.283-9.227-3.24zm.17 12.01l3.136.003 1.47 3.4 2.385.046-6.995-14.924-6.688 14.88L6.67 45.9l1.342-3.354h2.853l.006-.003zm2.44-1.9l-2.427-4.805-1.99 4.723h1.972l2.445.083zm67.816-4.396v6.595c0 1.78-1.047 2.668-3.14 2.668v-.97c1.294 0 1.942-.568 1.942-1.698v-6.595h1.198zm-11.68 9.263v-9.262H73.4c1.76 0 2.64.74 2.64 2.222 0 1.204-.86 2.096-2.583 2.674l3.18 4.366h-1.58l-2.947-4.164v-.784c1.77-.282 2.656-.96 2.656-2.04 0-.856-.493-1.283-1.478-1.283h-2.642v8.27h-1.2zm-9.23 0h-1.242l4.605-10.485 4.604 10.485h-1.328l-1.198-2.915h-3.064l.33-.97h2.332l-1.73-4.2-3.31 8.085zm-6.573-9.263v8.292h4.845v.97h-6.043v-9.263h1.198zM42.6 41.935v-5.688h1.197v5.688c0 1.78.885 2.67 2.656 2.67 1.77 0 2.656-.892 2.656-2.67v-5.688h1.197v5.688c0 2.427-1.285 3.64-3.854 3.64-2.57 0-3.854-1.213-3.854-3.64zm-1.912 3.213c-.746.285-1.552.427-2.415.427-3.355 0-5.033-1.608-5.033-4.825 0-3.045 1.62-4.567 4.858-4.567.928 0 1.792.13 2.59.39v1.035c-.798-.302-1.62-.453-2.46-.453-2.527 0-3.79 1.198-3.79 3.595 0 2.57 1.244 3.854 3.73 3.854.398 0 .84-.052 1.323-.156V41.3h1.2l-.002 3.848zm-17.196.362v-9.262h1.198l5.667 7.462v-7.462h1.134v9.262h-1.197l-5.668-7.527v7.527h-1.133z"/></svg>