<svg xmlns="http://www.w3.org/2000/svg" width="110" height="80" viewBox="0 0 110 80"><path fill="#383838" fill-rule="evenodd" d="M0 31.983l1.714 14.77L11.17 52l9.61-5.317 1.852-14.77L11.17 28 0 31.983zM18.442 46.32l-2.476-.05-1.524-3.534H8.227l-1.404 3.498-2.597.052 6.96-15.48 7.256 15.515zm-7.135-5.627h2.252l-2.356-4.918-2.06 4.918H11.307zm22.84 2.978l-6.666-8.777H26.08V45.8h1.333v-8.865L34.08 45.8h1.403V34.894h-1.333v8.778zm3.43-3.48c0 3.793 1.973 5.68 5.92 5.68 1.006 0 1.958-.173 2.842-.5v-4.52h-1.404v3.653c-.57.122-1.09.19-1.56.19-2.925 0-4.397-1.506-4.397-4.536 0-2.806 1.488-4.226 4.467-4.226.986 0 1.956.175 2.892.538v-1.21c-.937-.296-1.96-.45-3.05-.45-3.81-.003-5.714 1.798-5.714 5.383zm18.683 1.403c0 2.096-1.056 3.152-3.134 3.152-2.095 0-3.134-1.056-3.134-3.152v-6.7H48.59v6.7c0 2.858 1.506 4.295 4.536 4.295 3.03 0 4.537-1.437 4.537-4.295v-6.7H56.26v6.7zm5.316-6.7h-1.402V45.8h7.117V44.66h-5.714v-9.765zm6.27 10.908h1.47l3.897-9.505 2.044 4.934h-2.754l-.382 1.142h3.604l1.402 3.43h1.558l-5.42-12.347-5.42 12.346zm17.072-5.142c2.026-.675 3.047-1.73 3.047-3.15 0-1.75-1.038-2.616-3.116-2.616h-4.66v10.91h1.438v-9.733h3.117c1.16 0 1.732.5 1.732 1.506 0 1.28-1.056 2.078-3.134 2.407v.918l3.462 4.9h1.853l-3.74-5.142z"/></svg>