<svg xmlns="http://www.w3.org/2000/svg" width="110" height="80" viewBox="0 0 110 80"><path fill="#383838" fill-rule="evenodd" d="M18 22C8.075 22 0 30.075 0 40c0 9.924 8.075 18 18 18s18-8.076 18-18c0-9.925-8.075-18-18-18zm0 34C9.177 56 2 48.824 2 40c0-8.822 7.177-16 16-16s16 7.178 16 16c0 8.823-7.18 16-16 16zm1.44-26.297c-.21-.507-.626-.774-1.132-.774-.508-.002-.954.266-1.163.773L9.13 48.98h2.742l3.172-7.948 9.468 7.65c.38.307.656.446 1.014.446.715 0 1.34-.537 1.34-1.31 0-.126-.045-.327-.126-.54l-7.3-17.575zm-3.556 9.226l2.423-6.07 4.747 11.718-7.17-5.65z"/></svg>