<svg xmlns="http://www.w3.org/2000/svg" width="110" height="80" viewBox="0 0 110 80"><path fill="#383838" fill-rule="evenodd" d="M29.072 33H25.32l-2.937 4.09-2.91-4.09h-3.625l4.69 6.416L14.717 47h3.754l3.91-5.223L26.163 47h3.692l-5.628-7.584L29.072 33zm-17.75 1.513C10.133 33.565 8.626 33 6.988 33 3.13 33 0 36.135 0 40s3.13 7 6.987 7c1.638 0 3.145-.57 4.336-1.516V47h2.795V33h-2.795v1.513zm-4.335 9.684c-2.317 0-4.192-1.88-4.192-4.197 0-2.32 1.875-4.2 4.192-4.2 2.314 0 4.19 1.88 4.19 4.2 0 2.318-1.876 4.197-4.19 4.197zm31.83-3.423c0 .805-.03 1.74-.59 2.45-.428.548-1.185.937-2.102.937-.92 0-1.678-.388-2.106-.935-.56-.707-.59-1.643-.59-2.45V33h-3.22v7.87c0 1.743.196 3.194 1.476 4.452 1.25 1.26 2.96 1.678 4.37 1.678.935 0 1.923-.17 2.837-.565V47h3.142V33h-3.218v7.774zM51.79 33.27c-.24-.025-.482-.037-.73-.037-1.073 0-2.298.35-3 1.205V33h-3.14v14h3.142v-9.442c.738-.827 1.808-1.348 3-1.348.247 0 .493.022.728.065V33.27zm10.253 8.364h3.095c.127-.525.195-1.072.195-1.634 0-3.865-3.13-7-6.987-7-3.858 0-6.986 3.135-6.986 7s3.128 7 6.986 7c2.378 0 4.48-1.194 5.74-3.015l-3.24-.838c-.687.547-1.554.875-2.5.875-1.66 0-3.083-.95-3.693-2.39h7.377c.003.005.006.01.013.002zm-3.697-5.66c1.66 0 3.083 1.012 3.698 2.45h-7.39c.61-1.438 2.033-2.45 3.692-2.45z"/></svg>