<svg xmlns="http://www.w3.org/2000/svg" width="110" height="80" viewBox="0 0 110 80"><path fill="#383838" fill-rule="evenodd" d="M49.15 47.847c-.6 1.043-1.742 1.69-2.985 1.69H30.11c-1.24 0-2.385-.647-2.983-1.69L19.1 33.84c-.56-.98-.56-2.163 0-3.14l8.027-14.008C27.725 15.648 28.87 15 30.11 15h16.055c1.243 0 2.386.648 2.984 1.692L57.175 30.7c.56.977.56 2.16 0 3.14L49.15 47.846zm-5.544-11.133l3.003 3.004-1.033 1.032-3.002-3.004c-1.213.986-2.76 1.577-4.444 1.577-3.893 0-7.05-3.158-7.05-7.054 0-3.896 3.157-7.054 7.05-7.054 3.895 0 7.052 3.158 7.052 7.053 0 1.684-.59 3.23-1.576 4.444zm-5.475.906c2.955 0 5.35-2.395 5.35-5.35 0-2.956-2.395-5.352-5.35-5.352-2.953 0-5.348 2.396-5.348 5.35 0 2.957 2.395 5.352 5.35 5.352zm1.946-1.98c.61-.353 1.117-.868 1.46-1.485v-2.86h-1.46v4.345zm-1.215.453c-.236.044-.48.068-.73.068-.248 0-.492-.023-.728-.067V30.08h1.46v6.013zm-4.133-1.938c.343.617.848 1.132 1.46 1.485v-4.344h-1.46v2.86zm.74 21.85h2.316c.66 0 1.17.16 1.532.482.36.32.542.733.542 1.237 0 .722-.414 1.2-1.242 1.43.417.068.753.254 1.008.56.256.305.383.656.383 1.055 0 .49-.19.9-.574 1.223-.383.323-.895.485-1.537.485h-2.428v-6.472zm.85 5.8h1.532c.41 0 .732-.102.965-.307.234-.206.35-.488.35-.846s-.125-.64-.378-.845c-.252-.206-.586-.308-1.004-.308h-1.466v2.306zm5.296-5.276c-.162 0-.298-.057-.407-.17-.11-.112-.163-.25-.163-.41 0-.162.056-.3.168-.41.113-.113.25-.17.407-.17.16 0 .295.057.407.17.112.11.168.248.168.41 0 .16-.056.298-.168.41-.112.113-.25.17-.41.17zm-.43 5.948V57.35h.85v5.128h-.85zm2.615-.668c-.467-.5-.7-1.142-.7-1.924 0-.78.232-1.413.696-1.896.463-.482 1.047-.723 1.75-.723.437 0 .818.102 1.145.308.326.205.573.473.742.803V57.35h.86v5.26c0 .703-.228 1.277-.683 1.722-.456.445-1.032.668-1.73.668-.696 0-1.274-.162-1.73-.486-.46-.323-.72-.747-.78-1.27h.83c.08.293.27.536.57.73.298.192.67.288 1.11.288.443 0 .812-.145 1.108-.434.296-.29.444-.696.444-1.22v-1.176c-.17.336-.416.61-.743.817-.328.208-.71.312-1.145.312-.698 0-1.28-.25-1.747-.752zm3.634-1.89c0-.58-.17-1.044-.51-1.393-.34-.348-.747-.523-1.223-.523-.477 0-.885.168-1.225.505-.34.335-.51.793-.51 1.372 0 .58.173 1.05.515 1.41.343.36.75.542 1.224.542.473 0 .88-.175 1.218-.523.34-.348.51-.812.51-1.39zm2.876 1.685c-.635-.626-.952-1.417-.952-2.372 0-.956.317-1.744.952-2.363.635-.62 1.417-.93 2.345-.93.927 0 1.707.31 2.34.93.63.62.947 1.408.947 2.367 0 .617-.137 1.17-.41 1.663-.275.492-.65.88-1.13 1.167l1.652 1.635h-1.12l-1.308-1.3c-.3.095-.623.142-.97.142-.93 0-1.71-.313-2.346-.94zm-.093-2.368c0 .766.23 1.383.69 1.85.462.467 1.044.7 1.748.7.703 0 1.282-.233 1.737-.7.454-.467.682-1.084.682-1.85s-.228-1.38-.682-1.844c-.455-.464-1.035-.696-1.742-.696-.707 0-1.29.232-1.747.696-.456.463-.685 1.078-.685 1.844zm10.423-1.886h.85v5.128h-.85v-.822c-.342.604-.9.906-1.672.906-.566 0-1.04-.188-1.42-.565-.38-.377-.57-.91-.57-1.602V57.35h.842v2.905c0 .51.126.902.378 1.172.252.27.596.407 1.032.407.436 0 .78-.136 1.032-.407.252-.27.378-.66.378-1.172V57.35zm4.4 5.212c-.735 0-1.333-.243-1.794-.728-.46-.486-.69-1.127-.69-1.924 0-.797.232-1.437.7-1.92.466-.482 1.072-.723 1.816-.723s1.342.228 1.793.686c.452.458.677 1.04.677 1.75 0 .182-.012.35-.037.506h-4.08c.023.51.184.912.48 1.208.295.296.674.444 1.134.444.35 0 .643-.078.883-.234.24-.155.416-.36.528-.616h.915c-.162.448-.44.82-.836 1.11-.395.294-.892.44-1.49.44zm1.148-4.15c-.305-.297-.683-.445-1.135-.445-.45 0-.825.145-1.124.434-.3.29-.464.688-.495 1.192h3.223c-.006-.492-.162-.886-.467-1.18zm3.26-1.06v.867c.305-.636.825-.953 1.56-.953v.887h-.225c-.434 0-.766.113-.993.34-.228.228-.34.622-.34 1.182v2.802h-.85V57.35h.85zm4.025 5.042l-2.025-5.043h.934l1.568 4.148 1.597-4.147h.878l-3.092 7.53h-.877l1.018-2.486zm-47.553-.273h-1.11v-7.425h1.11v7.426zm3.055-.482c-.57 0-.97-.262-1.23-.763l3.39-1.398-.11-.284c-.21-.57-.857-1.608-2.17-1.608-1.306 0-2.395 1.024-2.395 2.528 0 1.413 1.074 2.527 2.515 2.527 1.163 0 1.83-.71 2.116-1.12l-.863-.577c-.293.42-.683.695-1.253.695zM0 58.77c0-2.168 1.824-3.926 4-3.926 1.2 0 2.057.472 2.703 1.085l-.766.754c-.458-.434-1.08-.77-1.937-.77-1.583 0-2.822 1.27-2.822 2.85 0 1.577 1.24 2.848 2.822 2.848 1.03 0 1.614-.41 1.99-.785.307-.306.51-.748.585-1.346H4v-1.068h3.626c.037.194.06.418.06.673 0 .807-.218 1.802-.93 2.505-.7.718-1.585 1.1-2.756 1.1-2.176 0-4-1.758-4-3.92zm10.605-1.185c-1.403 0-2.544 1.062-2.544 2.528 0 1.458 1.142 2.527 2.545 2.527 1.404 0 2.545-1.07 2.545-2.527 0-1.466-1.14-2.528-2.545-2.528zm5.555 0c-1.404 0-2.545 1.062-2.545 2.528 0 1.458 1.14 2.527 2.545 2.527 1.403 0 2.544-1.07 2.544-2.527 0-1.466-1.14-2.528-2.544-2.528zm6.815.157v.41h-.038c-.248-.298-.728-.567-1.336-.567-1.267 0-2.43 1.107-2.43 2.535 0 1.414 1.163 2.52 2.43 2.52.61 0 1.09-.27 1.337-.576h.038v.367c0 .966-.518 1.482-1.35 1.482-.684 0-1.105-.486-1.277-.898l-.97.404c.28.673 1.022 1.496 2.253 1.496 1.307 0 2.41-.763 2.41-2.633v-4.538h-1.065zm-12.37 3.844c-.765 0-1.433-.628-1.433-1.533 0-.912.66-1.533 1.433-1.533.766 0 1.434.62 1.434 1.533 0 .905-.67 1.533-1.435 1.533zm25.712-4.9v2.13h1.43c.39 0 .698-.094.92-.284.22-.19.33-.448.33-.775s-.11-.587-.33-.78c-.222-.193-.53-.29-.92-.29h-1.43zm-20.157 4.9c-.766 0-1.434-.628-1.434-1.533 0-.912.66-1.533 1.434-1.533.773 0 1.433.62 1.433 1.533 0 .905-.668 1.533-1.433 1.533zm5.54 0c-.767 0-1.412-.643-1.412-1.526 0-.89.645-1.54 1.41-1.54.76 0 1.352.65 1.352 1.54.007.89-.593 1.526-1.35 1.526zm7.19-3.117c.442 0 .817.215.937.537l-2.266.935c-.03-.972.76-1.473 1.33-1.473z"/></svg>