<svg xmlns="http://www.w3.org/2000/svg" width="110" height="80" viewBox="0 0 110 80"><path fill="#383838" fill-rule="evenodd" d="M0 26c0-3.314 2.687-6 6-6h28c3.314 0 6 2.687 6 6v28c0 3.314-2.687 6-6 6H6c-3.314 0-6-2.687-6-6V26zm26.55 13.145c1.39.4 2.47 1.134 3.232 2.208.764 1.073 1.145 2.39 1.145 3.95 0 2.39-.82 4.17-2.458 5.343-1.64 1.173-4.132 1.76-7.478 1.76h-10.76V27.628h9.733c3.49 0 6.017.52 7.578 1.56 1.57 1.04 2.357 2.705 2.357 4.995 0 1.206-.286 2.235-.86 3.087-.57.84-1.402 1.466-2.49 1.875zm-6.03 8.912c1.303 0 2.28-.27 2.93-.813.663-.542.994-1.36.994-2.456 0-1.073-.325-1.875-.976-2.406-.65-.543-1.634-.814-2.947-.814h-3.805v6.49h3.806zm-.218-10.837c1.022 0 1.796-.22 2.324-.664.527-.442.79-1.095.79-1.958 0-.852-.263-1.5-.79-1.942-.528-.453-1.302-.68-2.324-.68h-3.587v5.244h3.587z"/></svg>