<svg xmlns="http://www.w3.org/2000/svg" width="110" height="80" viewBox="0 0 110 80"><path fill="#383838" fill-rule="evenodd" d="M45.628 42.628c-1.874-1.797-11.208-2.92-14.154-3.246.144-.337.265-.69.367-1.047.4-.176.835-.343 1.284-.48.055.165.313.783.46 1.078 5.928.163 6.233-4.415 6.474-5.67.234-1.225.225-2.41 2.258-4.58-3.03-.88-7.386 1.37-8.844 4.73-.55-.203-1.103-.355-1.645-.45-.39-1.577-2.42-5.963-7.743-5.963-3.444 0-6.92 1.427-9.54 3.914-1.407 1.34-2.51 2.93-3.283 4.732C10.425 37.59 10 39.726 10 42c0 7.932 5.4 14.878 8.45 14.878 1.333 0 2.483-1 2.75-1.895.227.614.92 2.527 1.147 3.01.335.72 1.886 1.34 2.57.594.872.49 2.477.778 3.35-.52 1.686.356 3.174-.648 3.205-1.852.826-.04 1.233-1.205 1.05-2.132-.132-.68-1.552-3.128-2.108-3.97 1.098.897 3.877 1.147 4.214 0 1.77 1.39 4.53.662 4.746-.473 2.15.56 4.617-.67 4.21-2.157 3.458-.237 3.014-3.92 2.044-4.855zm-2.02 2.627c-.452.737-1.482 1.263-3.03.9.836 1.142-.792 2.518-3.06 1.76.5 1.123-1.517 2.133-3.813.964.032 1.123-2.843 1.253-3.983.01.024.146.16.432.217.553-.366 3.285-3.048 5.32-5.794 5.32-6.73 0-12.586-5.477-12.586-12.76 0-7.7 5.678-13.443 12.528-13.443 3.924 0 5.696 3.097 6.062 4.27-2.366 2.404-1.434 5.446-.57 6.823-1.228 2.045-3.64 3.442-6.44 4.08 3.146 0 4.996-.812 6.07-1.604.69-.51 1.06-1.008 1.252-1.287 4.66.3 12.044 1.806 12.766 2.295.288.194.586.625.63 1.04-3.502-.49-9.82-1.01-11.476-1.094 1.177.166 9.74 1.794 11.226 2.17zm-6.966-8.726c-.913-.36-2.065-.585-2.87-.585-1.147 0-1.848.648-2.927.648-.228 0-.77.003-1.203-.153.288.302.64.46 1.328.46.41 0 1.227-.21 1.884-.406.007.14.024.276.045.415-1.236.294-2.534 1.08-2.91 1.287-.834-1.85-.116-3.595.545-4.396 2.97.008 5.37 2.05 6.107 2.73zm3.94-7.032c-1.812 1.65-1.13 4.94-2.66 6.892l-.455-.426c-.468-.438-.95-.83-1.45-1.185.746-1.478 1.678-3.096 2.856-4.09-1.297.522-2.58 2.088-3.338 3.767-.387-.245-.783-.465-1.177-.656 1.06-2.264 3.52-4.156 6.225-4.302zm-6.388 8.434c-.197-.436-.4-1.155-.376-1.58.336-.006.983.12 1.085.143-.042.2-.06.634-.06.693.063-.11.242-.49.314-.643.647.126 1.498.333 1.996.565-.587.38-1.58.79-2.96.822zm-8.26-2.715c0-1.05-.845-1.9-1.89-1.9-1.046 0-1.894.855-1.894 1.9 0 1.047.847 1.9 1.895 1.9 1.047 0 1.89-.85 1.89-1.9z"/></svg>