<svg xmlns="http://www.w3.org/2000/svg" width="110" height="80" viewBox="0 0 110 80"><path fill="#383838" fill-rule="evenodd" d="M0 35.183h4.072c1.096 0 1.946.266 2.55.8.605.532.907 1.208.907 2.027 0 1.2-.693 1.987-2.075 2.366.696.113 1.257.423 1.682.93.425.507.638 1.088.638 1.744 0 .82-.318 1.493-.953 2.02-.635.528-1.485.792-2.55.792H0v-10.68zm1.752 1.368v3.166h2.166c.574 0 1.022-.14 1.344-.415.323-.276.484-.662.484-1.16 0-.496-.16-.885-.484-1.167-.322-.282-.77-.422-1.344-.422H1.752zm0 7.944h2.366c.594 0 1.06-.148 1.398-.445.338-.298.507-.71.507-1.238s-.18-.948-.538-1.26c-.358-.313-.835-.47-1.43-.47H1.753v3.412zm13.843-7.098h1.752v8.466h-1.752v-1.337c-.553.973-1.454 1.46-2.704 1.46-.95 0-1.738-.315-2.357-.945-.62-.63-.93-1.514-.93-2.65v-4.994h1.736v4.732c0 .758.19 1.34.568 1.744.38.405.896.607 1.552.607.655 0 1.175-.203 1.56-.608.383-.405.575-.986.575-1.744v-4.732zm8.16 1.43h-2.06v4.685c0 .318.075.546.223.685.15.138.402.207.76.207h1.076v1.46H22.37c-1.627 0-2.442-.784-2.442-2.35v-4.687h-.998v-1.43h.998v-2.104h1.767v2.106h2.06v1.43zm5.715 0h-2.06v4.685c0 .318.075.546.224.685.148.138.402.207.76.207h1.076v1.46h-1.383c-1.63 0-2.443-.784-2.443-2.35v-4.687h-1v-1.43h1v-2.104h1.767v2.106h2.06v1.43zM34.648 46c-1.23 0-2.228-.4-2.996-1.198-.77-.8-1.153-1.86-1.153-3.18 0-1.322.39-2.38 1.167-3.174.78-.794 1.785-1.19 3.02-1.19 1.234 0 2.235.38 3.003 1.144.768.763 1.153 1.76 1.153 2.99 0 .296-.02.572-.062.828h-6.483c.04.707.28 1.268.715 1.683.435.415.98.622 1.636.622.953 0 1.623-.394 2.013-1.183h1.89c-.256.778-.722 1.416-1.398 1.913-.676.497-1.51.745-2.504.745zm1.675-6.645c-.45-.415-1-.623-1.644-.623-.647 0-1.187.208-1.622.623-.436.415-.684.97-.746 1.667h4.702c-.01-.697-.24-1.252-.69-1.667zm5.992-1.96v1.476c.543-1.075 1.388-1.613 2.535-1.613v1.813h-.445c-.687 0-1.207.175-1.56.523-.353.348-.53.952-.53 1.813v4.456h-1.752v-8.466h1.752zm10.51 8.467h-1.752v-10.68h1.752v4.872l4.148-4.87h2.29l-4.825 5.36 4.824 5.318h-2.304l-4.133-4.78v4.78zm9.726-8.466v1.336c.564-.983 1.465-1.475 2.705-1.475.952 0 1.74.318 2.358.953.62.635.93 1.52.93 2.658v4.994h-1.736V41.13c0-.76-.19-1.34-.57-1.745-.378-.404-.895-.607-1.55-.607-.656 0-1.176.203-1.56.607-.384.405-.576.986-.576 1.744v4.732H60.8v-8.466h1.75zm9.896-1.445c-.216.216-.48.324-.792.324-.312 0-.576-.108-.79-.323-.216-.214-.324-.48-.324-.798 0-.317.108-.583.323-.8.215-.214.48-.32.79-.32.314 0 .577.106.793.32.215.217.322.483.322.8 0 .318-.107.584-.322.8zm-1.675 9.912v-8.466h1.752v8.466h-1.75zm7.606-8.466v1.43H76.81v7.036H75.04v-7.037h-.998v-1.43h.998v-.6c0-.972.26-1.68.776-2.127.517-.445 1.33-.668 2.436-.668v1.46c-.533 0-.907.1-1.122.3-.215.2-.323.545-.323 1.036v.6h1.566zM83.493 46c-1.23 0-2.228-.4-2.996-1.198-.768-.8-1.153-1.86-1.153-3.18 0-1.322.39-2.38 1.168-3.174.78-.794 1.785-1.19 3.02-1.19 1.234 0 2.235.38 3.003 1.144.768.763 1.153 1.76 1.153 2.99 0 .296-.02.572-.062.828h-6.484c.04.707.28 1.268.715 1.683.435.415.98.622 1.636.622.953 0 1.624-.394 2.013-1.183h1.89c-.256.778-.723 1.416-1.4 1.913-.675.497-1.51.745-2.503.745zm1.675-6.608c-.45-.415-1-.622-1.644-.622-.646 0-1.186.207-1.62.622-.437.415-.685.97-.747 1.667h4.702c-.01-.697-.242-1.253-.692-1.668z"/></svg>