<?xml version="1.0" encoding="utf-8"?>
<!-- Generator: Adobe Illustrator 18.0.0, SVG Export Plug-In . SVG Version: 6.00 Build 0)  -->
<!DOCTYPE svg PUBLIC "-//W3C//DTD SVG 1.1//EN" "http://www.w3.org/Graphics/SVG/1.1/DTD/svg11.dtd">
<svg version="1.1" id="Layer_1" xmlns="http://www.w3.org/2000/svg" xmlns:xlink="http://www.w3.org/1999/xlink" x="0px" y="0px"
	 width="110px" height="80px" viewBox="0 0 110 80" enable-background="new 0 0 110 80" xml:space="preserve">
<title>butter_knife</title>
<path fill="#383838" d="M0,35.2h4.2c1.1,0,2,0.3,2.6,0.8c0.6,0.5,0.9,1.2,0.9,2.1c0,1.2-0.7,2-2.1,2.4c0.7,0.1,1.3,0.4,1.7,1
	C7.8,42,8,42.6,8,43.3c0,0.8-0.3,1.5-1,2.1s-1.5,0.8-2.6,0.8H0V35.2z M1.8,36.6v3.2H4c0.6,0,1.1-0.1,1.4-0.4
	c0.3-0.3,0.5-0.7,0.5-1.2s-0.2-0.9-0.5-1.2c-0.3-0.3-0.8-0.4-1.4-0.4L1.8,36.6L1.8,36.6z M1.8,44.8h2.4c0.6,0,1.1-0.2,1.4-0.5
	C6,44,6.2,43.6,6.2,43c0-0.5-0.2-1-0.6-1.3c-0.4-0.3-0.9-0.5-1.5-0.5H1.8L1.8,44.8L1.8,44.8z M16,37.5h1.8v8.7H16v-1.4
	c-0.6,1-1.5,1.5-2.8,1.5c-1,0-1.8-0.3-2.4-1c-0.6-0.6-1-1.6-1-2.7v-5.1h1.8v4.9c0,0.8,0.2,1.4,0.6,1.8c0.4,0.4,0.9,0.6,1.6,0.6
	c0.7,0,1.2-0.2,1.6-0.6c0.4-0.4,0.6-1,0.6-1.8V37.5L16,37.5z M24.4,39h-2.1v4.8c0,0.3,0.1,0.6,0.2,0.7c0.2,0.1,0.4,0.2,0.8,0.2h1.1
	v1.5H23c-1.7,0-2.5-0.8-2.5-2.4V39h-1v-1.5h1v-2.2h1.8v2.2h2.1V39z M30.2,39h-2.1v4.8c0,0.3,0.1,0.6,0.2,0.7
	c0.2,0.1,0.4,0.2,0.8,0.2h1.1v1.5h-1.4c-1.7,0-2.5-0.8-2.5-2.4V39h-1v-1.5h1v-2.2h1.8v2.2h2.1V39z M35.6,46.3
	c-1.3,0-2.3-0.4-3.1-1.2c-0.8-0.8-1.2-1.9-1.2-3.3s0.4-2.4,1.2-3.3c0.8-0.8,1.8-1.2,3.1-1.2c1.3,0,2.3,0.4,3.1,1.2
	c0.8,0.8,1.2,1.8,1.2,3.1c0,0.3,0,0.6-0.1,0.9h-6.7c0,0.7,0.3,1.3,0.7,1.7c0.4,0.4,1,0.6,1.7,0.6c1,0,1.7-0.4,2.1-1.2h1.9
	c-0.3,0.8-0.7,1.5-1.4,2C37.4,46.1,36.6,46.3,35.6,46.3L35.6,46.3z M37.3,39.5c-0.5-0.4-1-0.6-1.7-0.6c-0.7,0-1.2,0.2-1.7,0.6
	s-0.7,1-0.8,1.7H38C38,40.5,37.7,39.9,37.3,39.5L37.3,39.5z M43.4,37.5V39c0.6-1.1,1.4-1.7,2.6-1.7v1.9h-0.5c-0.7,0-1.2,0.2-1.6,0.5
	c-0.4,0.4-0.5,1-0.5,1.9v4.6h-1.8v-8.7L43.4,37.5L43.4,37.5z M54.2,46.2h-1.8v-11h1.8v5l4.3-5h2.3l-5,5.5l5,5.5h-2.4l-4.2-4.9
	L54.2,46.2L54.2,46.2z M64.2,37.5v1.4c0.6-1,1.5-1.5,2.8-1.5c1,0,1.8,0.3,2.4,1c0.6,0.7,1,1.6,1,2.7v5.1h-1.8v-4.9
	c0-0.8-0.2-1.4-0.6-1.8c-0.4-0.4-0.9-0.6-1.6-0.6c-0.7,0-1.2,0.2-1.6,0.6c-0.4,0.4-0.6,1-0.6,1.8v4.9h-1.8v-8.7L64.2,37.5L64.2,37.5
	z M74.4,36c-0.2,0.2-0.5,0.3-0.8,0.3c-0.3,0-0.6-0.1-0.8-0.3c-0.2-0.2-0.3-0.5-0.3-0.8s0.1-0.6,0.3-0.8s0.5-0.3,0.8-0.3
	c0.3,0,0.6,0.1,0.8,0.3c0.2,0.2,0.3,0.5,0.3,0.8S74.6,35.8,74.4,36z M72.6,46.2v-8.7h1.8v8.7H72.6z M80.4,37.5V39h-1.6v7.2H77V39h-1
	v-1.5h1v-0.6c0-1,0.3-1.7,0.8-2.2c0.5-0.5,1.4-0.7,2.5-0.7v1.5c-0.5,0-0.9,0.1-1.2,0.3c-0.2,0.2-0.3,0.6-0.3,1.1v0.6
	C78.8,37.5,80.4,37.5,80.4,37.5z M85.7,46.3c-1.3,0-2.3-0.4-3.1-1.2c-0.8-0.8-1.2-1.9-1.2-3.3s0.4-2.4,1.2-3.3
	c0.8-0.8,1.8-1.2,3.1-1.2c1.3,0,2.3,0.4,3.1,1.2c0.8,0.8,1.2,1.8,1.2,3.1c0,0.3,0,0.6-0.1,0.9h-6.7c0,0.7,0.3,1.3,0.7,1.7
	c0.4,0.4,1,0.6,1.7,0.6c1,0,1.7-0.4,2.1-1.2h1.9c-0.3,0.8-0.7,1.5-1.4,2C87.6,46.1,86.7,46.3,85.7,46.3L85.7,46.3z M87.4,39.5
	c-0.5-0.4-1-0.6-1.7-0.6c-0.7,0-1.2,0.2-1.7,0.6c-0.4,0.4-0.7,1-0.8,1.7h4.8C88.1,40.5,87.9,39.9,87.4,39.5L87.4,39.5z"/>
</svg>
