<svg xmlns="http://www.w3.org/2000/svg" width="110" height="80" viewBox="0 0 110 80"><path fill="#383838" fill-rule="evenodd" d="M19.883 67.52c-.08-.076-.134-.163-.15-.274-.065-.313-.012-.62.04-.928.092-.592.277-1.172.248-1.78-.01-.24-.045-.46-.288-.575-.26-.128-.45.01-.63.174-.348.32-.65.684-.944 1.05-.295.365-.59.737-.885 1.102-.047.057-.098.167-.19.12-.076-.034-.047-.133-.036-.208.023-.267.058-.528.087-.795.035-.348.08-.696.023-1.044-.075-.418-.376-.534-.712-.273-.08.064-.156.145-.225.22-.272.308-.498.65-.718 1-.544.84-1.04 1.716-1.695 2.482-.122.145-.25.284-.36.44-.115.175-.16.372-.05.558.097.162.265.22.45.21.197-.013.3-.158.405-.297.504-.685 1.007-1.375 1.51-2.06.03-.035.04-.104.128-.08-.012.086-.023.18-.03.266-.022.33-.092.66-.022.997.08.382.382.54.735.365.185-.093.34-.226.492-.365.283-.273.55-.563.798-.876.272-.348.55-.7.84-1.08.086.29.05.553.04.814-.03.452-.116.905-.03 1.363.06.284.22.453.452.47.237.017.47-.035.67-.168.302-.193.33-.576.048-.83zm20.848.11c-.143-.007-.254-.076-.363-.17-.336-.277-.614-.608-.874-.956-.214-.29-.226-.29.063-.488.608-.417.822-1.01.776-1.717-.035-.53-.318-.836-.816-.918-.41-.07-.74.105-1.047.35-.07.05-.11.115-.227.04-.255-.175-.498-.13-.712.092-.12.128-.207.28-.248.453-.3 1.218-.607 2.43-.896 3.655-.1.406.115.615.538.55.38-.057.572-.278.636-.77.064-.477.127-.946.266-1.44.36.453.7.876 1.042 1.3.336.412.7.777 1.192.998.347.156.648.064.92-.18.15-.133.19-.307.133-.5-.052-.19-.185-.295-.382-.3zm-1.463-2.832c-.035.116-.093.226-.168.32-.313.388-.707.65-1.2.852.06-.377.123-.714.268-1.027.15-.325.393-.54.758-.574.283-.024.422.155.34.428zM13.68 63.48c-.163-.063-.342-.074-.417.14-.047.122-.127.105-.22.093-.62-.093-1.163.093-1.603.528-.914.894-1.383 1.968-1.33 3.273.034.865.532 1.282 1.37 1.09 1.66-.388 2.952-2.018 3.02-3.822.02-.463-.404-1.137-.82-1.3zm-.232 1.887c-.087.707-.376 1.433-1.018 1.978-.226.192-.487.308-.782.337-.364.03-.642-.198-.607-.563.07-.76.28-1.48.782-2.078.324-.39.81-.494 1.28-.308.265.105.358.238.346.633zm20.768-.47c.18-.058.393-.018.59-.023.515-.012 1.03-.018 1.527-.18.186-.064.353-.146.463-.314.168-.26.105-.435-.196-.446-.66-.03-1.32-.082-1.98 0-.393.046-.77.156-.914.597-.006.024-.034.06-.057.065-.453.116-.61.487-.73.865-.255.835-.48 1.682-.718 2.517-.058.203.023.337.19.44.134.083.267.077.417.036.78-.19 1.562-.4 2.378-.342.11.007.208-.022.306-.07.19-.097.32-.353.284-.58-.035-.22-.208-.283-.394-.312-.144-.023-.283-.035-.428-.04-.497-.012-.995.057-1.493.127.076-.55.116-.586.637-.586.388 0 .775-.024 1.14-.175.243-.105.4-.273.422-.546.017-.186-.058-.296-.25-.302-.15-.006-.3-.006-.456.006-.353.03-.706.063-1.093.098.057-.127.086-.243.15-.33.104-.15-.017-.43.203-.505zM9.67 63.857c-.296-.167-.602-.277-.828-.277-.642.03-1.088.237-1.476.574-.833.73-1.32 1.677-1.556 2.75-.093.406-.035.807.18 1.166.167.284.38.39.705.325.73-.15 1.435-.377 2.095-.737.202-.11.388-.238.544-.406.127-.14.202-.296.202-.493 0-.18-.08-.245-.248-.25-.168-.006-.313.058-.463.11-.498.18-.984.4-1.5.534-.254.063-.34.005-.392-.256-.018-.098-.012-.197.01-.296.1-.406.238-.8.452-1.166.157-.267.33-.51.59-.684.336-.215.683-.33 1.065-.1.128.077.25.042.365-.028.185-.11.29-.284.36-.487.04-.122.004-.215-.105-.28zm22.335.268c-.665-.55-1.626-.493-2.233.122-.376.39-.44.783-.203 1.27.178.366.427.68.67 1.004.174.227.36.454.52.692.117.168.06.3-.138.365-.116.04-.226.03-.335-.01-.342-.123-.643-.315-.903-.558-.087-.083-.174-.18-.197-.303-.03-.18-.127-.26-.3-.28-.197-.016-.377-.016-.493.193-.19.336-.138.638.21.95.664.593 1.457.854 2.25.918.723.012 1.168-.644.93-1.26-.103-.277-.282-.52-.456-.76-.29-.382-.59-.753-.862-1.148-.214-.3-.116-.522.237-.638.324-.104.602-.012.868.192.314.243.58.115.65-.28.04-.208-.07-.347-.215-.47zm10.167-31.55c.336-.116.665-.26 1.007-.366.19-.06.242-.17.253-.343.11-1.462.22-2.93.336-4.392.016-.203-.018-.243-.227-.18-1.093.348-2.187.68-3.286 1.02-.336.106-.342.106-.492-.225-.556-1.253-.99-2.553-1.447-3.84-.098-.273-.098-.517.017-.767.163-.452.058-.91.047-1.37-.006-.022-.012-.045-.012-.068-.115-1.26-.283-2.513-.613-3.742-.284-1.068-.69-2.095-1.204-3.07-.55-1.044-1.14-2.077-1.776-3.08-.272-.43-.56-.818-1.047-1.033-.174-.075-.348-.1-.533-.116-.214-.023-.336.058-.474.226-.238.29-.324.702-.168 1.04.457.99.874 2.006 1.273 3.02.023.048.052.094.092.164-.092-.006-.12-.052-.15-.105-.718-.75-1.562-1.347-2.407-1.944-1.14-.812-2.384-1.456-3.622-2.106-.167-.087-.335-.14-.514-.157-.307-.035-.62-.064-.926-.098-.486-.06-.857.22-.857.707 0 .26-.11.32-.324.337-.192.01-.452.277-.475.463-.07.592.116 1.09.55 1.497 1.07 1.004 2.106 2.042 3.142 3.08l.034.018c.03.023.053.052.07.093-.017.007-.034.007-.046.007-.034-.006-.063-.024-.086-.053-.006-.006-.012-.01-.012-.017-.15-.087-.307-.168-.45-.267-.725-.482-1.436-.975-2.16-1.444-.335-.22-.688-.383-1.11-.412-.394-.03-.678.075-.944.348-.18.18-.243.365-.214.61.04.353.278.573.538.753 1.21.818 2.292 1.775 3.293 2.837.085.093.178.192.276.273.284.232.458.54.63.858.082.145.053.18-.103.18-1.03 0-2.014.285-3.003.493-.405.088-.804.227-.95.68-.155.504-.23.788.39.945 1.23.308 2.423.744 3.586 1.248.104.047.197.11.284.186.29.25.555.528.873.73.915.6 1.858 1.156 2.94 1.41.127.03.243.094.364.123.122.034.203.104.226.226.07.43.336.673.735.795.052.017.093.052.145.07.127.04.185.133.225.26.162.58.33 1.155.51 1.73.063.19.005.243-.168.295-.897.26-1.788.534-2.68.807-.318.098-.323.104-.16.394l2.186 3.95c.307.558.318.558.88.268.057-.03.138-.127.19-.035.053.087.145.215.058.314-.272.314-.457.68-.688 1.016-.076.11-.076.18-.012.284.243.4.486.807.723 1.213.03.046.08.104.07.14-.093.295-.197.59-.295.887-.162-.644-.44-1.2-.764-1.73-.434-.695-.99-1.31-1.493-1.96-.08-.1-.174-.186-.266-.28-.482-.497-1.1-.8-1.685-1.153-.26-.157-.527-.25-.822-.308-.902-.192-1.8-.268-2.696.01-.185.06-.284.012-.394-.144-.22-.308-.4-.66-.694-.9-.724-.58-1.488-1.107-2.38-1.41-.676-.23-1.365-.382-2.082-.405-.37-.01-.747.012-1.117.04-.954.077-1.903.18-2.748.71-.167.104-.358.162-.532.26-.868.47-1.724.934-2.448 1.642-.746.737-1.493 1.474-2.164 2.28-.775.928-1.36 1.98-1.886 3.064-.035.075-.052.168-.168.232-.098-.615-.197-1.207-.29-1.8-.017-.11.053-.103.128-.092.214.023.422.035.636.064.162.023.25-.012.29-.19.052-.25.11-.5.162-.756.197-.957.48-1.885.73-2.825.045-.18.016-.245-.17-.29-.92-.222-1.84-.465-2.76-.686-.173-.04-.254-.104-.202-.29.21-.72.3-1.474.585-2.176.03-.075.058-.15.133-.208.237-.186.41-.4.388-.73-.018-.25.098-.408.335-.518.44-.21.86-.452 1.278-.696.33-.192.602-.458.787-.807.775-1.463 1.423-3 2.36-4.375.082-.122.145-.255.244-.36.606-.638 1.173-1.317 1.856-1.885.214-.18.272-.424.278-.69 0-.308-.18-.523-.364-.738-.18-.208-.365-.388-.672-.353-.07.004-.14-.025-.214-.036.047-.093.122-.116.185-.157.815-.528 1.63-1.056 2.447-1.59.99-.638 1.973-1.282 2.97-1.92.126-.08.184-.145.045-.267-.035-.03-.058-.07-.087-.104-.203-.238-.203-.238-.48-.07-2.766 1.723-5.532 3.452-8.298 5.175-.243.152-.243.152-.365-.12-.272-.633-.428-1.3-.63-1.956-.047-.15-.006-.238.11-.33.694-.557 1.33-1.184 1.973-1.793.26-.25.405-.545.45-.893.053-.412-.22-.626-.59-.476-.184.077-.364.158-.53.257-1.64.905-3.386 1.526-5.18 2.048-.104.03-.197.064-.284-.047-.178-.22-.444-.342-.67-.504-.046-.035-.093-.047-.15-.035-.244.063-.492.132-.643.353-.382.563-.862 1.06-1.22 1.647-.412.68-.805 1.358-1.268 2.002-.088.122-.122.14-.203-.006-.51-.9-1.025-1.798-1.534-2.697-.162-.286-.336-.56-.538-.82-.226-.284-.503-.423-.862-.383-.064.006-.145-.01-.168.087-.052.267-.174.546-.14.8.082.657.198 1.312.36 1.95.278 1.11.59 2.205.92 3.296.318 1.073.677 2.13 1.024 3.197.028.093.08.174-.047.25-.162.092-.423.14-.452.3-.027.17.123.366.192.546.006.012.012.03.018.04.058.14.087.35.19.4.14.07.267-.12.394-.196.116-.07.156-.052.21.07.3.707.606 1.41.913 2.117.046.11.058.22.017.33-.214.564-.353 1.15-.463 1.74-.028.17-.09.17-.22.135-.67-.175-1.335-.343-2.007-.512-.295-.075-.295-.075-.33.227v.023c-.144 1.607-.29 3.214-.44 4.82-.01.146.007.204.163.222.47.058.93.133 1.394.203.087.01.162.017.14.145-.105.545-.186 1.096-.302 1.636-.034.162-.01.273.08.394.163.21.32.424.482.64.11.15.19.347.092.503-.063.1-.08.187-.08.286.017 1.003.017 2.007.063 3.01.023.488.017.975.03 1.463.022 1.292.097 2.58.144 3.874.022.633-.088 1.26-.06 1.892.006.156.04.243.203.296.382.12.752.278 1.14.4.208.064.353.18.446.377.08.173.103.347.09.527-.005.174.06.28.198.377.596.43 1.186.87 1.782 1.31 1.568 1.162 3.137 2.328 4.71 3.482.145.11.18.198.093.354-.08.15-.133.325-.214.476-.07.14-.06.226.074.325.197.14.388.297.567.454.157.133.163.342.117.504-.035.116-.208.012-.318 0-.077-.006-.152-.023-.227-.035-.747-.12-1.487-.313-2.245-.377-1.21-.098-2.42-.203-3.64-.168-.064 0-.162-.058-.18.07-.017.104-.04.214.076.284.058.035.122.064.185.087.682.237 1.318.58 1.943.94.406.23.805.492 1.25.65.08.028.162.092.26.004-.67-.533-1.336-1.067-2.007-1.607.092-.07.168-.04.237-.034.804.063 1.603.174 2.384.36 1.72.41 3.426.875 5.115 1.386.556.167 1.146.248 1.644.585.12.08.19.162.18.313.028.035.063.08.022.11-.046.03-.087-.03-.12-.058-.395-.034-.788-.063-1.176-.104-1.117-.11-2.228-.267-3.356-.232-.845.023-1.69-.035-2.53.023-1.19.08-2.383.238-3.57.366-.057.005-.15-.006-.15.063 0 .088.035.186.145.21.088.017.18.028.273.028.602.024 1.198.018 1.8.03 1.493.034 2.99-.03 4.484.098.538.046 1.082.023 1.61.122 2.48.464 4.952.95 7.417 1.49.29.065.584.11.868.25-.133.122-.307.157-.382.33-.527 1.225-.874 2.513-1.28 3.778-.068.215.077.464.29.522.394.11.782-.133.85-.534.047-.26.094-.522.128-.79.012-.086.04-.132.128-.16.318-.13.63-.262.95-.39.468-.19.907-.43 1.272-.783.324-.307.596-.66.602-1.137 0-.145.034-.238.15-.325.532-.412 1.007-.882 1.47-1.364.445-.47.943-.88 1.446-1.286.058-.047.105-.117.197-.082.434.174.862.343 1.348.534-.9.55-1.758 1.08-2.608 1.596-.04.023-.087.034-.128.046-.312.093-.584.26-.816.487-.902.9-1.365 1.967-1.313 3.26.035.87.532 1.283 1.377 1.086 1.482-.347 2.75-1.77 2.97-3.33.056-.435.126-.864-.187-1.24-.133-.163-.272-.32-.428-.47.046-.03.07-.047.093-.065 1.875-1.12 3.917-1.88 5.966-2.587 2.505-.865 5.063-1.555 7.626-2.217-.058-.01-.12-.028-.18-.04-.167.018-.33.036-.497.047-.706.064-1.412.14-2.1.325-.012.006-.023.012-.04.018-.065.028-.14.034-.226.034-.036 0-.07 0-.117.006.156-.15.607-.638.73-.603l.005-.012h.01c0-.017.047-.052.047-.052.04-.07.1-.116.18-.122.133-.185.29-.335.474-.45.12-.077.248-.152.387-.21H40.4c.388 0 .77-.47 1.174-.632-.004-.015-.022-.026-.033-.04-.577.08-1.144.173-1.7.38-1.186.442-2.413.785-3.57 1.295-1.788.784-3.57 1.567-5.29 2.5-.05.03-.103.053-.184.088-.047-.417-.087-.817-.133-1.217-.012-.082.03-.116.098-.15 1.523-.808 3.05-1.608 4.642-2.27 1.308-.545 2.604-1.137 3.917-1.67.005-.012.01-.024.022-.024h.012c.006 0 .006.005.01.005.02.03.007.046-.01.064-.006.005-.012.005-.023.01h-.005c-.347.5-.666 1.02-.897 1.596.093.023.127-.006.162-.04.272-.29.544-.575.81-.865.515-.568 1.06-1.107 1.696-1.548.04-.03.11-.053.08-.116-.034-.07-.11-.035-.16-.024-.597.122-1.193.233-1.784.372-.196.046-.185-.023-.19-.163-.006-.475.063-.94.08-1.414.006-.21.052-.407.14-.598.237-.545.474-1.085.717-1.63.12-.273.19-.563.236-.853.075-.464.133-.934.18-1.404.075-.72.33-1.397.45-2.11.157-.906.284-1.817.62-2.68.3-.767.59-1.533.897-2.293.422-1.033.96-2.013 1.215-3.116.087-.382.185-.73.012-1.107-.1-.203-.128-.435-.197-.655-.052-.163-.064-.325-.03-.494.117-.59.17-1.177-.15-1.73-.086-.15.018-.242.105-.335.214-.222.225-.32.04-.558-.214-.267-.422-.54-.654-.79-.19-.202-.37-.422-.56-.63-.134-.083-.123-.135.028-.187zM26.602 67.35c-.227.192-.488.308-.783.332-.354.03-.63-.198-.597-.552.07-.777.278-1.508.8-2.117.317-.366.78-.465 1.243-.29.272.11.365.243.36.65-.094.707-.383 1.433-1.025 1.978zM2.858 32.837c-.175.012-.37-.006-.522.14-.446.43-.434 1.2.03 1.606.26.232.64.232.913 0 .354-.307.44-.76.233-1.293-.128-.332-.3-.454-.654-.454zm31.506-5.587c-.058-.164-.127-.25-.307-.21-.215.052-.33-.04-.423-.232-.15-.307-.272-.68-.52-.87-.25-.192-.643-.198-.973-.28-.25-.063-.498-.138-.752-.18-.55-.092-1.024-.33-1.476-.66-.73-.54-1.48-1.04-2.25-1.514-.25-.018-.487-.087-.73-.145-.67-.14-1.336-.286-2.008-.413-.162-.03-.19-.15-.202-.26-.018-.135.017-.268.156-.35.214-.127.457-.15.7-.19 1.07-.17 2.153-.297 3.24-.314.267-.006.504.093.753.156.15.04.266.023.4-.07.52-.348 1.046-.68 1.567-1.02.08-.054.232-.088.168-.228-.012-.023-.023-.04-.035-.052-.03-.023-.063-.03-.104-.03-.04 0-.08.007-.12.007h-.018c-.59-.017-1.117.168-1.608.48-.19.123-.625.048-.747-.132-.82-1.247-1.985-2.147-3.09-3.116-.492-.43-.972-.877-1.493-1.27-.133-.1-.19-.35-.104-.477.116-.174.266-.098.405-.035.446.198.874.424 1.273.708 1.36.975 2.818 1.8 4.27 2.623.04.022.082.045.122.062.22.076.336-.023.3-.255-.016-.122-.068-.226-.15-.325-1.174-1.386-2.412-2.715-3.627-4.067-.255-.278-.556-.522-.84-.77-.225-.193-.405-.413-.532-.674-.08-.162-.063-.32.06-.458.097-.11.184-.133.33-.058.41.197.797.43 1.162.708.642.487 1.29.975 1.938 1.462.648.487 1.296.97 1.945 1.456.052.04.104.082.15.122.122.11.226.226.34.342l.07.07c.047.046.088.11.146.145.134.08.272.15.41.01.048-.046.07-.086.077-.133 0-.017.005-.034 0-.052 0-.006 0-.017-.006-.023-.017-.064-.057-.128-.103-.174l-.434-.453c-.243-.25-.486-.493-.753-.72-.84-.7-1.7-1.38-2.57-2.04-.438-.338-.953-.564-1.434-.843-.173-.098-.29-.243-.416-.383-.087-.105-.11-.233-.058-.366.052-.128.18-.122.29-.134.173-.017.33.047.48.122 1.116.55 2.216 1.143 3.28 1.782.087.052.174.104.26.162.597.383 1.164.818 1.725 1.26.266.208.463.52.683.794.092.116.03.22-.058.302-.058.057-.14.092-.208.133-.076.052-.174.098-.145.21.022.097.132.12.22.138.126.023.265.017.38-.035.406-.168.747.116 1.008.4.07.076.098.227.225.18.133-.052.15-.197.14-.33-.03-.366-.122-.72-.203-1.074-.215-.91-.65-1.734-1.007-2.593-.128-.307-.266-.614-.394-.922-.07-.168.022-.32.115-.44.075-.1.197-.012.295.034.365.163.573.46.752.8.19.366.43.703.63 1.057.348.614.776 1.194 1.054 1.838.405.94.92 1.833 1.163 2.843.208.894.503 1.77.607 2.693.04.348-.023.685.017 1.02.08.674-.017 1.312-.295 1.927-.076.168-.053.33.028.505.608 1.288 1.11 2.617 1.615 3.95.063.175.034.245-.145.297-1.163.342-2.326.696-3.49 1.05-.167.052-.22.006-.27-.145-.296-.79-.58-1.56-.852-2.338zm-7.303 7.356c.475-.163.95-.227 1.447-.076.012.006.023.006.035.012.625.19 1.26.342 1.857.626.1.047.203.093.272.186.388.28.74.598 1.036.98.457.592.914 1.19 1.342 1.87l-.08-.033-.003-.002c-.163-.07-.323-.163-.444-.25-.527-.32-1.065-.603-1.626-.858-.26-.116-.52-.192-.8-.244-.728-.14-1.457-.162-2.192-.1-.202.02-.41 0-.613 0-.15 0-.22-.068-.22-.22 0-.568.03-1.142-.145-1.693-.034-.116.035-.163.133-.197zm-.147 4.184c.006-.017.01-.035.017-.046.006-.012.006-.023.012-.035.006-.013.006-.024.012-.042.005-.01.005-.023.01-.035.007-.01.007-.03.013-.04 0-.012.005-.023.005-.035 0-.012.006-.03.006-.04 0-.012.007-.024.007-.035 0-.012.006-.03.006-.04 0-.013.006-.024.006-.036l.004-.04c0-.012.006-.024.006-.035 0-.012.006-.03.006-.04 0-.012 0-.024.006-.036 0-.01 0-.03.005-.04V37.573c-.005-.197.064-.273.26-.267.196.005.392-.002.587-.01l.18.008c.1-.005.197-.01.296-.01.312-.007.62.01.92.057.526.04 1.012.14 1.325.394.225.1.45.22.67.348.533.32 1.066.65 1.598.975.11.07.208.15.284.26.173.25.358.506.538.76.03.042.075.088.035.14-.012.018-.03.03-.047.035-.044.01-.082-.006-.12-.03-.24-.132-.482-.26-.72-.393-.826-.465-1.7-.796-2.614-1.046l-.24-.064c-.26-.077-.5-.15-.78-.185l-.364-.08c-.012.005.01.028.04.057.012.01.023.023.03.035.028.034.057.058.098.08.005 0 .034.016.046.024.55.28 1.475.454 2.152.767l-.01-.006-.036-.016-.226-.105-.063-.03-.018-.007.017.007.063.03.226.104.028.012.007.005c.053.024.105.053.15.076.377.198.72.44 1.06.703l.648.497c.972.708 1.568 1.666 1.858 2.826.006.035.017.07.023.104l.022.035c.046.07.058.157.04.232.006.018.006.035.012.052-.01.17-.145.1-.22.1-.503-.018-.99-.13-1.47-.268l-.015-.003c-.125-.036-.285-.092-.4-.13-.51-.18-.99-.393-1.48-.573-.608-.215-1.083-.633-1.598-.998-.85-.604-1.672-1.236-2.413-1.973-.076-.074-.15-.155-.192-.254-.052-.122-.104-.25-.15-.37l-.087-.228c-.016-.046-.034-.092-.057-.145 0-.005 0-.005-.006-.01-.005-.007-.005-.02-.005-.024v-.007c0-.006-.006-.018-.006-.023-.023-.082-.03-.17 0-.25zm3.643.355l-.054-.02c-.002 0-.003 0-.005-.002.003 0 .004 0 .006.002l.053.02zm-.077-.03h-.005c-.04-.013-.076-.03-.116-.042-.016-.004-.03-.01-.047-.016.016.006.03.012.047.016.04.01.075.03.116.04l.005.003zm-1.15-.38c-.013-.002-.024-.006-.036-.01.012.004.023.008.035.01zm-.297-.093c-.01-.045-.003-.062.01-.066.024.01.046.017.067.02h.005c-.03.018-.07.01-.08.047h-.002zm-2.285-3.868c-.007.02-.01.043-.01.073 0-.03.003-.055.01-.073zm-.265 5.134c.016-.055.05-.083.082-.076 0 .002.003.004.005.007.017.004.034.022.052.057.185.37.44.68.723.963.3.29.625.557.937.84.648.587 1.308 1.162 1.974 1.724.428.366.943.552 1.493.696 1.25.32 2.53.44 3.796.616.336.046.637.156.903.377h-.018c.023.017.04.028.058.046-.712-.105-1.424-.094-2.136-.11-.78-.02-1.545.074-2.314.16-.278.03-.544 0-.81-.063-.74-.168-1.44-.47-2.14-.765-.794-.337-1.454-.853-2.08-1.422-.045-.046-.09-.087-.137-.133-.213-.212-.375-.438-.49-.678 0-.005-.002-.01-.004-.012l-.007-.014c-.217-.512-.205-1.083-.038-1.71.046-.17.098-.337.15-.506zm6.278 10.17h-.15c-.093 0-.186.024-.278.03-.104 0-.168.046-.208.14-.04.092-.093.173-.14.266l-.017.04c-.185.447-.445.83-.763 1.16-.07.077-.145.146-.22.216-.19.174-.394.336-.602.493-.34.244-.735.394-1.128.54-.03.01-.058.023-.087.034-.03.012-.058.023-.08.035-.02.006-.03.012-.048.017-.023.005-.052.017-.075.023-.086.035-.156.087-.11.22.047.145.15.186.284.192.03 0 .065 0 .1-.006.126-.013.242-.042.358-.082.116-.04.23-.093.353-.145.082-.035.163-.07.25-.1-.07.297-.11.57-.203.825-.017.046-.034.087-.052.127-.07.157-.14.308-.214.465-.045.104-.097.203-.15.3-.277.558-.59 1.092-.977 1.585-.08.104-.162.197-.25.29-.184.197-.387.377-.607.534-.08.057-.162.115-.248.173-.168.104-.336.203-.504.296-.14.074-.272.138-.41.202l-.157.07c-.04.017-.087.034-.127.052-.035.01-.07.03-.105.04-.098.04-.196.076-.295.11-.03.012-.057.024-.092.03-.104.034-.208.07-.313.098-.324.1-.653.18-.983.25-.128.03-.26.052-.394.075-.017 0-.03.006-.046.006-.133.023-.26.04-.394.064-.138.017-.277.04-.422.058-.474.058-.943.03-1.406-.04-.017 0-.035-.007-.052-.012l-.07-.018c-.12-.035-.23-.08-.347-.145-.15-.08-.288-.168-.438-.244-.105-.052-.21-.11-.313-.174-.134-.08-.267-.162-.39-.255-.236-.174-.444-.377-.56-.673-.064-.162-.14-.32-.22-.47-.023-.046-.052-.087-.075-.127-.19-.314-.422-.61-.665-.888-.1-.117-.197-.233-.3-.344-.054-.057-.1-.115-.152-.168-.202-.226-.41-.452-.625-.667l-.162-.16c-.22-.216-.45-.42-.693-.6-.058-.045-.122-.092-.185-.132-.185-.134-.382-.26-.585-.377-.052-.028-.098-.057-.144-.087l-.145-.092c-.66-.44-1.192-1.02-1.493-1.792-.007-.018-.015-.035-.025-.05-.104-.225-.258-.294-.53-.3-.214 0-.422-.034-.607-.116l-.007-.004c-.116-.046-.22-.116-.318-.203l-.06-.04c-.054-.062-.093-.138-.143-.215-.345-.515-.665-1.04-.93-1.592l.007.02-.012-.032.006.012c-.055-.16-.112-.317-.176-.474-.03-.072-.06-.14-.086-.206-.027-.093-.04-.177-.04-.252 0-.04 0-.087.005-.122.004-.023.01-.052.016-.075.006-.013.006-.025.012-.036.005-.024.017-.047.028-.07.064-.122.168-.232.307-.342.052-.04.104-.08.162-.122.11-.08.226-.15.336-.226.174-.105.348-.203.527-.296.654-.337 1.35-.575 2.066-.76.04-.012.08-.018.127-.03.08-.017.168-.022.255-.034.087-.006.174-.012.255-.012.086 0 .173-.005.254-.005.04 0 .087 0 .128-.006.29-.01.578-.028.867-.046.433-.03.867-.063 1.3-.104.435-.04.87-.087 1.303-.133.787-.093 1.545-.28 2.27-.58.15-.065.3-.134.444-.204.087-.046.18-.087.266-.133.052-.03.1-.052.15-.08.348-.187.695-.367 1.03-.564.035-.047.076-.064.134-.08.006 0 .017-.007.023-.007v.028c-.006.035-.023.058-.046.08l-.052.036c-.336.43-.8.725-1.198 1.085-.04.034-.08.068-.122.11-.127.103-.254.214-.4.33.505 0 .99-.058 1.442-.192.654-.19 1.25-.534 1.76-1.056.115-.12.23-.255.335-.394.247-.33.473-.72.67-1.166.156.562.56.957.903 1.386.023.03.046.064.07.093.022.03.045.065.068.094.042.058.088.104.146.145.035.028.075.057.11.08.04.03.075.052.11.08.017.013.035.03.052.042.255.203.51.395.77.586.173.128.347.25.526.37.266.187.533.367.793.552.36.25.735.46 1.128.644.1.047.197.088.295.134.3.128.602.238.915.337.017.005.034.01.052.017.19.052.4.07.602.093.074.005.15.017.218.023.04.006.093.03.145.058.052.03.11.075.162.122.18.162.347.394.36.533 0 .025 0 .042-.007.06-.006.01-.006.017-.012.023-.023.04-.057.075-.08.116-.07.12-.145.242-.203.37-.012.023-.017.04-.03.064-.074.19-.103.394.007.632.278-.278.526-.574.706-.91.052-.093.092-.186.133-.285.028-.063.05-.132.074-.202.023-.064.006-.14.023-.203.023-.07-.058-.168-.023-.215 0-.005.006-.005.012-.01.005-.007.017-.013.034-.02.024-.004.047-.01.064-.01.046-.006.087-.012.133-.012.116 0 .226.018.336.052.07.024.046.11.04.174v.012c-.01.21-.098.4-.173.586-.018.046-.035.087-.058.133-.127.314-.26.633-.463.905-.285.378-.614.732-1.147.75zm.63 1.092c-.074.406-.138.806-.207 1.212-.018.116-.03.238-.116.4l-.018-.104c-.005.018-.017.035-.028.058-.1-.597-.163-1.15-.18-1.706-.006-.127.08-.156.162-.185.133-.047.3-.197.388-.128.012.012.023.023.03.035.005.006.01.006.016.012.104.08-.017.266-.046.406zm-8.557 8.61c-.22.034-.44.052-.66.052-.226 0-.445-.024-.67-.076-.123-.03-.17-.11-.157-.21.004-.062.05-.062.097-.062.03-.006.064 0 .093.005h.434c.063.005.127.005.196.005.19 0 .382-.017.573-.058.035-.006.07-.01.1-.006.074-.004.132.013.137.13 0 .103.024.196-.144.22zM14.05 54.575c.115-.476.07-.97.133-1.45.012-.1.064-.087.12-.035.094.087.18.18.273.266l.035.036c.047.04.053.093.03.145l-.538 1.085-.058-.018c0-.01.006-.017.006-.03zm18.626-8.04c-.202-.024-.405-.065-.613-.06-.41.013-.74-.202-1.088-.388h.04c-.028-.017-.057-.03-.086-.046.057.007.12.007.178.013.07.005.133.023.203.034.574.122 1.13-.046 1.696-.104.585-.064 1.088.145 1.58.43-.012 0-.017 0-.03.005.024.012.047.03.076.04-.654.1-1.302.146-1.956.076zm-21.67-7.416c.19-.366.405-.714.63-1.05.117-.17.232-.337.354-.5.058-.08.12-.162.185-.243.185-.244.376-.482.573-.714.197-.232.393-.464.596-.696.202-.232.405-.46.602-.69.08-.088.18-.163.277-.24l.062-.07c.19-.164.355-.334.575-.51l.03-.022c.05-.046.103-.098.16-.15.58-.552 1.25-.98 1.922-1.41.068-.045.137-.085.207-.123.088-.04.177-.08.266-.115.024-.012.047-.024.07-.03.14-.058.278-.11.417-.156l.283-.086c.336-.1.67-.18 1-.285.614-.198 1.25-.285 1.887-.28.093 0 .18.007.273.007.474.023.937.21 1.37.4.192.087.383.168.574.26.046.024.092.048.138.07.14.07.284.14.417.22.093.054.18.106.272.158.087.058.18.11.26.174.174.12.342.254.498.4.527.487.897 1.06 1.117 1.74.156.487.272.986.313 1.49.04.488-.105.964-.232 1.434-.017.07-.046.087-.07.08-.034-.01-.052-.05-.08-.086-.174-.203-.348-.4-.52-.603-.678-.79-1.488-1.364-2.513-1.654-.792-.22-1.59-.347-2.395-.37-.642-.017-1.296.1-1.94.22-.508.1-1.017.18-1.52.273-.33.058-.63.21-.932.342-.144.065-.288.128-.436.183l-.045.01c-.908.32-1.677.87-2.47 1.38-.217.143-.397.336-.585.525l-.023.02-.156.157c-.365.354-.723.713-1.117 1.038-.178.25-.42.424-.647.644.058-.412.168-.795.353-1.143zm-.16 2.326c.028-.047.057-.088.098-.128.804-.795 1.573-1.636 2.465-2.332 1.48-1.16 3.094-2.066 4.952-2.466.45-.1.908-.168 1.377-.168.53-.006 1.064-.024 1.59-.04 1.02-.036 1.956.254 2.812.782.32.196.61.426.875.687.01.012.022.023.033.034.295.296.555.627.775.992.19.313.14.656.075.998-.173.98-.763 1.706-1.43 2.384-.635.65-1.434 1.074-2.175 1.567-1.047.702-2.245.975-3.466 1.155-1.522.226-3.067.25-4.595.452-.555.07-1.117.116-1.672.215-.66.122-1.227.446-1.638.992-.15.202-.243.45-.388.73-.01-.03-.017-.058-.023-.087-.08-.33-.03-.604.087-.865.267-.59.713-1.01 1.286-1.305 1-.528 2.118-.632 3.188-.905.868-.22 1.76-.348 2.62-.586 1.187-.33 2.345-.754 3.438-1.33.58-.3 1.18-.608 1.58-1.17.29-.413.365-.86.29-1.347-.012-.08-.035-.12-.064-.127-.03-.006-.07.017-.122.063-.434.39-.885.76-1.377 1.086-.77.5-1.62.8-2.5 1.016-1.4.348-2.813.644-4.254.748-1.018.07-2.02.255-2.985.586-.82.284-1.654.57-2.314 1.184-.08.075-.18.14-.313.238l.018-.093-.063.046.003-.01c.02-.016.035-.03.056-.04.04-.193.116-.344.203-.483.514-.824 1.034-1.648 1.555-2.47zm5.773 1.526l1.26-.21.22-.04c-.26.14-.544.203-.827.26-1.348.338-2.726.535-4.09.79-.985.186-1.864.575-2.663 1.178-.046.035-.098.076-.15.105-.064.04-.093.03-.105-.024-.005-.01-.005-.028-.005-.045-.023-.348.08-.516.4-.66.433-.2.867-.408 1.3-.61.568-.262 1.176-.343 1.79-.407.954-.104 1.908-.226 2.87-.336zm-.05-.047h.001zm-4.94-22.638c.024.064.03.116-.04.156-.208.128-.41.256-.62.383-.016.012-.04.018-.11.047-.016-.03-.04-.08-.074-.122l-1.302-1.496c-.058-.07-.115-.133 0-.197.428-.244.753-.638 1.204-.847.116-.053.156-.058.214.07.29.65.486 1.34.73 2.007zM8.1 17.235c.615-.22 1.216-.47 1.824-.714.88-.347 1.678-.846 2.506-1.287.086-.046.167-.104.254-.15.075-.035.14-.14.238-.088.115.064.075.186.075.325.03.146-.064.267-.197.39-.833.777-1.7 1.513-2.592 2.227-.353.284-.787.418-1.18.632-.082.04-.128 0-.174-.06-.29-.37-.573-.747-.863-1.118-.11-.134.042-.128.11-.157zm-5.247 7.937C2.193 23.124 1.5 21.087.95 19.005c-.128-.482-.18-.987-.273-1.48-.03-.145.07-.22.162-.273.127-.064.132.087.18.145.907 1.26 1.526 2.68 2.267 4.033.22.406.47.8.706 1.2.046.076.08.14.197.1.127-.047.104-.128.08-.22-.092-.42-.306-.796-.462-1.19-.058-.14-.058-.25.006-.39.33-.684.792-1.28 1.157-1.937.336-.598.765-1.13 1.09-1.735.167-.307.548-.36.803-.116.174.163.312.348.434.55.417.68.995 1.225 1.557 1.782.393.395.792.778 1.21 1.138.138.12.16.307.236.464.03.058.006.104-.046.133-.03.017-.058.028-.075.046-.343.29-.667.25-1.066.046-.793-.4-1.475-.928-2.083-1.56-.022-.024-.046-.04-.07-.06-.276-.208-.288-.196-.41.123-.127.325-.208.662-.352.975-.053.11.03.226.11.307.092.093.156.238.324.215.075-.012.115-.052.133-.133.04-.193.092-.384.144-.622.63.534 1.33.946 2.025 1.41-.243.14-.458.26-.672.382-1.718.97-3.443 1.938-5.155 2.913-.14.076-.197.093-.255-.08zm.602 1.346c-.064-.134-.04-.192.08-.267 2.078-1.287 4.156-2.58 6.227-3.88.11-.07.214-.03.318-.053.365-.08.718-.19 1.036-.394.023-.018.064-.03.075-.052.233-.516.748-.69 1.182-.893.99-.452 1.99-.87 2.864-1.53.202-.158.417-.1.567.016.14.11.25.302.19.528-.068.273-.173.506-.387.703-.833.777-1.51 1.677-2.123 2.64-.55.87-1.094 1.734-1.505 2.68-.08.192-.214.342-.353.5-.578.66-1.267 1.17-2.06 1.542-.173.082-.25.203-.26.383-.012.145-.058.285-.07.43-.023.37-.144.69-.457.922-.098.076-.11.197-.144.302l-.66 2.21c0 .018 0 .035-.006.047 0 .034.006.074-.04.09-.1.025-.185-.004-.272-.05-1.077-.25-2.14-.523-3.206-.807-.133-.03-.26-.07-.4-.087-.213-.03-.23-.128-.132-.29.14-.68.3-1.352.717-1.926.093-.128.087-.233.006-.372-.456-.766-.803-1.59-1.185-2.39zm-2.24 8.848c-.034-.006-.063-.012-.086-.018-.105-.03-.14-.093-.123-.238.127-1.15.25-2.297.37-3.452.006-.03.006-.052.012-.075.005-.012.01-.023.01-.035.018-.035.053-.046.093-.046.023 0 .058.005.093.017 1.556.41 3.107.823 4.664 1.235 1.556.412 3.113.818 4.67 1.23.15.04.196.087.144.243l-.67 2.205c-.024.087-.042.18-.14.18-.012 0-.03 0-.046-.006-.834-.116-1.667-.226-2.5-.342l-1.626-.226c-1.615-.233-3.24-.454-4.866-.674zm1.28 2.227c-.03-.087-.024-.156 0-.208.01-.035.022-.064.04-.1.006.013.006.024.01.036.013.076-.016.157-.05.273zM16.786 59.25v-.004c-.058.005-.064.04-.093.058-.01.01-.03.023-.046.035-.03.022-.064.045-.093.062-.075.053-.15.116-.185.21 0 .017 0 .01-.006.022-.005.012 0 .035-.005.035h.016v.034c-.058.168-.087.29-.116.377-.006.024-.017.042-.023.06-.006.017-.017.028-.023.04-.006.01-.017.023-.023.03-.017.016-.034.022-.057.028h-.017c-.035 0-.07-.012-.122-.03-.08-.028-.185-.07-.33-.115-.01-.006-.023-.006-.03-.012-.005-.005-.022-.01-.028-.01l-.063-.03h-.023v-.023h-.006c-.174-.058-.336-.092-.492-.156-.093-.034-.19-.063-.29-.104-.12-.03-.242-.087-.364-.087-.336-.117-.677-.175-1-.29-.03 0-.047.005-.105 0v.005c-.232-.046-.417-.104-.637-.145-.214-.035-.295-.145-.272-.36.012-.087.006-.19.006-.278 0-.03-.006-.04-.006-.1-.034-.057-.086-.127-.133-.202-.016-.023-.022-.04-.033-.064-.03-.03-.087-.058-.087-.093-.058-.01-.035-.023-.052-.034-.18-.17-.128-.396-.105-.61 0-.024.006-.047.006-.07.005-.047.01-.093.017-.134.006-.023.006-.046.01-.063.094-.36.117-.702-.27-.917-.047-.03-.076-.058-.134-.1v.013c-.173-.14-.364-.285-.544-.402-.03-.057-.036-.07-.093-.092-.29-.157-.52-.337-.747-.55-.058-.036-.12-.065-.18-.1h.024c-.035-.058-.075-.052-.104-.08-.046-.036-.087-.06-.145-.094-.29-.25-.683-.482-.995-.766-.11-.035-.18-.122-.266-.192v-.01c-.307-.216-.608-.425-.91-.657h.007c-.034 0-.034-.03-.092-.058-.173-.088-.347-.233-.497-.35-.046-.057-.092-.057-.138-.057-.14-.116-.26-.168-.376-.272-.047-.028-.087-.063-.145-.098-.346-.215-.67-.418-.954-.696-.01-.012-.017-.018-.03-.03-.016-.017-.033-.04-.05-.057-.024-.03-.047-.065-.064-.106-.012-.03-.023-.058-.03-.093v.048c-.207-.227-.346-.488-.52-.725-.006-.012-.01-.024-.017-.035-.006-.012-.012-.023-.012-.035-.006-.023-.006-.047-.006-.064.006-.047.03-.088.058-.13 0-.01.006-.028.006-.045.06-.37.26-.708.406-1.056v-.087s0-.053-.006-.076l-.01-.035-.013-.012c-.01-.01-.023-.017-.04-.023H5.07c-.035 0-.082.017-.14.052-.046.028-.092.063-.133.104-.017.01-.03.023-.046.034-.01.012-.022.03-.034.047-.005.006-.01.017-.017.023 0 .006-.007 0-.007 0 0 .006-.006 0-.006 0v.006c-.115.133-.29.25-.44.37-.028.03-.08.065-.08.094v-.006H4.15c-.047.058-.11.058-.174.03-.25-.11-.498-.215-.747-.33-.06-.03-.088-.094-.1-.152l-.017-.076c-.005-.023-.01-.04-.017-.064v.012c-.087-.406.052-.708.127-1.056.006-.03.012-.058.012-.087.058-.337.08-.697.18-1.022v-.15c-.052-.372-.054-.738-.082-1.11 0-.063.006-.127.006-.19-.036-.69-.082-1.38-.105-2.072-.052-1.444-.168-2.883-.127-4.328.005-.232-.04-.43-.116-.62-.018-.047-.04-.093-.064-.14-.07-.133-.15-.26-.237-.394-.126-.18-.173-.354-.115-.575.087-.337.15-.685.214-1.028.028-.162.075-.25.26-.185.07.023.15.017.225.023.307.07.625.075.932.15.03 0 .04.007.08.024.273.01.585.052.875.116.03 0 .064.006.092.023.348.047.695.087 1.042.145.08 0 .15-.006.226.04.01 0 .03-.005.03 0 .404.047.722.076 1.07.134h-.036v.012c.232.03.382.058.562.087.185.03.376.076.555.076h.006c.016 0 .028.006.04.006.01.006.052.012.052.012.115.006.162.07.18.168.09.55.167 1.102.282 1.654 0 .04.024.075.018.11l.046.267c.052.266.098.533.15.8 0 .023 0 .076.006.087v.024c.058.348.122.66.18.992v.11c-.11.116-.214.255-.313.39-.16.225-.3.468-.41.724-.075.18-.167.365-.243.545l-.01.006c-.06.187-.152.366-.24.54-.004 0-.01.012-.016.024-.01.023-.016.058-.028.075v.005c-.098.26-.208.516-.33.76-.04.08-.086.162-.133.244-.018.045-.06.09-.06.132-.056.22-.108.44-.218.644-.035.192-.087.37-.18.546-.07.348-.185.638-.312.95-.018.047-.046.088-.046.134 0 .006-.006.012-.006.018-.006.017-.012.046-.024.07-.005.023-.01.052-.023.075 0 .005-.004.016-.004.022-.03.598-.064 1.195-.093 1.793.017.006.035.01.052.017l.226-.446c.076-.146.134-.296.215-.447.046-.106.12-.21.12-.314.175-.29.33-.58.51-.848.018-.03.053-.046.07-.104.15-.232.324-.54.503-.806.063-.103.13-.194.188-.296h-.002c.04-.116.104-.134.156-.186.052-.052.08-.104.196-.157 0 .046.012.086.006.127 0 .006-.006.017-.006.023 0 .023-.01.047-.017.07 0 .006-.007.017-.007.023-.005.017-.005.03-.01.046-.007.017-.007.028-.007.046 0 .017-.012.03-.006.046 0 .012-.005.023-.008.035h.008c-.052.348-.052.743-.058 1.108 0 .018-.01.047-.01.058l.01-.006c.047.348.104.697.15 1.045h-.005c.006 0 .012.075.012.104.056.348.132.702.172 1.056 0 .012.006.03.006.04.006.024.012.04.012.065.057.278.266.47.393.713.093.134.19.29.278.406h.007v.006c.29.255.532.516.856.748.046 0 .093.06.14.06h-.007v.028c.116.01.214.104.336.07.023-.007.046-.018.063-.03.018-.012.04-.023.047-.04.03-.053-.023-.082-.064-.1-.474-.3-.4-.794-.457-1.258h.018v-.006c.116.11.197.22.295.337.018.024.035.047.058.064.042.047.082.087.123.134.08.087.168.168.26.244.093.075.19.156.3.214.047.018.094.058.134.058h-.01c.346.168.647.33.965.5.07.01.133.034.19.086.117.348.255.696.22 1.102.012 0 .024.04.03.07.005.03 0 .052-.006.076.04.336.04.678-.006 1.015.012.03.012.058-.006.093-.006.01 0 .017-.006.03h.006c0 .335-.006.672-.092 1.002-.006.33-.11.65-.145.98 0 .013-.006.024-.012.042-.017.063-.046.14.093.12v-.004c.313-.325.625-.644.914-1.01v.022c.006-.115.076-.173.14-.23.12-.117.242-.314.364-.482.12-.17.243-.33.364-.5 0-.01.006-.017.006-.028.017-.058.04-.093.07-.11.01-.006.023-.012.034-.012h.035c.035.006.075.017.12.046.065.035.13.076.187.116.347.192.74.32 1 .65.03.03.064.035.093.093.122.06.232.192.318.32.03.03.064.058.093.087.006.006.012.006.017.012.457.387.492.596.163 1.113-.012.017-.03.034-.04.034-.018.058-.036.093-.06.134-.01.03-.028.06-.045.088l-.022.04c-.087.14-.18.285-.214.447-.03.134-.053.273-.03.406.064.228.122.46.168.692.03.14.058.278.07.423.046.343-.116.55-.405.696zm1.54 2.827c-.076.093-.088.284-.21.267h-.01c-.012 0-.024.006-.036 0-.22-.03-.45-.08-.64-.21-.07-.045-.053-.132-.053-.214v-1.096c0-.076.03-.163-.046-.215-.254-.163-.19-.442-.254-.674-.023-.093.04-.14.093-.197.224-.25.444-.5.67-.75.15-.162.214-.342.104-.54-.208-.394-.174-.77-.006-1.17.133-.314.22-.645.342-1.016.01.01.023.03.034.04.226.284.452.528.602.813.365.702.903 1.212 1.597 1.583.324.174.616.415.998.46l.007.002c.017 0 .028-.003.045-.003.04 0 .097-.007.085.057-.005.034-.04.034-.075.03h-.017c-.012 0-.023 0-.035-.007-.403.012-.797.08-1.188.162-.206.043-.41.092-.614.14-.184.042-.368.084-.553.12l-.035.012h-.006c-.08.018-.115.06-.104.14.012.1.047.15.162.174.207.04.423.045.63.04h.03c.284-.005.567-.034.85-.08.32-.052.63-.076.95-.076.306 0 .613.024.925.07-1.035.168-1.892.754-2.83 1.15-.485.202-.86.59-1.324.84-.035.04-.052.104-.087.145zm2.996.766c0 .006-.005.006-.005.01-.006.007-.012.007-.018.007-.006 0-.017-.006-.023-.006-.01-.005-.023-.017-.03-.028-.676-.17-1.36-.337-2.076-.517.238-.192.412-.303.7-.192.475.185.915.446 1.372.66.024 0 .052.007.07.024.01.006.01.012.01.03v.01zm2.043 2.222c-.11.186-.278.32-.446.447-.335.255-.7.446-1.163.586.168-.523.307-1.004.59-1.416.186-.267.63-.336.91-.18.184.105.236.354.11.563zm2.696-3.087c-.532.43-1.058.865-1.556 1.335-.122.116-.214.122-.353.035-.85-.505-1.736-.93-2.644-1.317-.4-.168-.823-.237-1.234-.382.046-.087.133-.087.203-.11.884-.33 1.787-.627 2.654-1.016.226-.104.452-.017.672.012.33.046.648.052.95-.11.05-.03.11-.053.172-.024.672.28 1.343.557 2.037.842-.318.266-.613.504-.903.736zm4.143-2.947c-.277.36-.324.767-.185 1.185.162.5.047.84-.44 1.085-.11.058-.196.092-.29.087-.068.005-.132-.012-.213-.07-.902-.627-1.98-.835-2.99-1.195-.146-.052-.285-.105-.435-.14-.174-.04-.162-.156-.14-.278.018-.087.064-.1.11-.093.047-.01.11.024.15.036 1.158.29 2.327.522 3.444.957.04.018.075.024.104.03.08-.012.104-.088.093-.198-.023-.26-.047-.516-.347-.655-.747-.35-1.54-.5-2.35-.563-.12-.012-.237-.018-.358-.023.572-.35 1.203-.534 1.718-.98.064-.053.122-.105.18-.163l.96-1.166c.04-.063.075-.127.116-.19.01.005.023.01.03.016l.016-.017c.093.052.098.122.122.18.243.597.48 1.2.723 1.798.058.135.07.25-.018.36zm12.378-24.65c.017.017.03.04.035.057.005.018.005.035-.006.053-.006.01-.018.023-.035.034-.012.018-.017.023-.023.035l-.006.005c-.006.006-.006.012-.012.023 0 .006-.005.012-.005.012h.006v.017c-.347.354-.254.685.024 1.004.017.03.034.06.034.088.232.307.04.615 0 .922-.005.03-.01.04-.034.053-.006 0-.012.005-.018.005-.023 0-.046-.005-.07-.01-.005 0-.017-.007-.022-.007-.203-.057-.405-.12-.608-.185-.017 0-.03-.01-.046-.017-.018 0-.03-.018-.046-.018-.093 0-.197-.005-.284-.046-.26-.11-.498-.075-.706.122 0 .012-.006.035-.012.046.1.145.26.18.406.227.59.19 1.093.556 1.637.84.128.07.152.22.14.365-.006.082-.03.163-.046.25l-.174.748c0 .064-.006.128-.046.186.005.405-.278.707-.41 1.055-.018.03-.03.04-.047.1-.087.23-.197.486-.313.718 0 .017-.023.04-.03.058v-.01c0 .005-.004.005-.004.01 0 .007-.006.013-.012.024-.006.006-.006.012-.012.017-.03.112-.046.228-.14.32-.09.372-.27.708-.45 1.045-.017.03-.03.03-.04.087-.15.348-.307.766-.458 1.15-.034.138-.063.277-.098.41l-.017.035c0 .006-.006.006-.006.012 0 .01-.012.022-.017.034-.006.18-.018.32-.087.464-.03.093-.052.197-.08.29 0 .012-.007.03-.013.047l-.486 2.204c-.133.603-.185 1.218-.283 1.82-.092.57-.115 1.156-.254 1.713-.098.406-.33.783-.515 1.16-.173.354-.283.73-.497 1.073-.005.012-.01.023-.017.035-.012.024-.023.053-.03.076-.005.012-.005.03-.01.04l-.018.082c-.006.03-.006.058-.006.087 0 .03 0 .058-.005.087v.087c0 .057 0 .115-.006.173-.045.62-.126 1.242-.098 1.87.006.115-.028.178-.138.22l-.14.05c-.092.036-.184.077-.27.117l-.146.058c-.075.03-.122.053-.237.082v-.012s-.017.012-.028.012c-.104.046-.214.092-.318.133-.076.03-.15.064-.226.093-.156.11-.33.174-.51.22l-.086.052c-.365.163-.747.33-1.094.494 0 .006-.035.017-.046.017-.197.057-.4.173-.596.266-.214.093-.422.18-.636.273-.336.15-.672.29-1.007.44-.012.005-.03 0-.04 0-.307.116-.626.284-.915.417-.116.064-.284.128-.428.186-.266.104-.324.093-.382-.18-.174-.128-.19-.342-.255-.522-.064-.173-.116-.365-.173-.54-.012-.057-.04-.045-.04-.08-.06-.08-.06-.157-.088-.238 0-.01-.006-.03-.006-.04-.017-.012-.017-.03-.023-.047-.005-.01-.01-.03-.017-.04h.012c-.08-.244-.168-.482-.226-.726-.058-.163-.162-.32-.19-.488-.013-.058-.013-.116 0-.168l.016-.08c.006-.013.006-.03.012-.042.046-.116.12-.226.18-.336.04-.093.074-.186.115-.28.04-.092.075-.16.116-.277.093-.175.15-.38.267-.582 0-.046.035-.093.046-.14.104-.353.22-.713.36-1.055 0-.01-.013-.03-.007-.04.04-.21.237-.285.353-.407v.006c.057-.017.086-.052.115-.052.035-.058.07-.08.104-.116.063-.075.12-.157.178-.238.03-.04.058-.08.08-.122.11-.162.21-.33.33-.493.042-.05.076-.132.14-.132.012 0 .018 0 .03.005.092.024.063.134.05.203-.057.267-.04.53 0 .79.03.203.065.406.082.61 0 .028-.006.063-.006.092.058.15.08.3.087.458.047.197.088.39.146.586.173.36.3.725.416 1.096l.012-.005c.197.29.393.626.59.945.058.076.122.157.18.215h.01v.046c.06 0 .088.127.175.01-.02-.057-.03-.057-.048-.057-.028-.058-.057-.128-.075-.192-.01-.04-.03-.085-.034-.12-.012-.04-.024-.082-.03-.122-.005-.017-.005-.04-.01-.058-.007-.04-.013-.08-.024-.116-.013-.058-.02-.116-.03-.18-.012-.058-.017-.122-.03-.18-.016-.017-.016-.04-.016-.064-.006-.023-.012-.046-.024-.07-.005-.07-.017-.14-.028-.208l-.052-.418c-.006-.07-.03-.14-.035-.21-.08-.76-.03-1.52.087-2.273h.034c.07-.347.14-.748.21-1.125.016 0 .033.006.056.006-.023.634.04 1.26.18 1.875.006.012.006.03.006.04.086.24.18.477.254.72.018.052.035.105.052.15.018.047.04.1.07.14.017.03.04.058.063.087.018.03.052.058.052.087.057.046.086.098.133.144.034.04.063.087.098.128.123.116.25.226.4.377-.017-.123-.03-.227-.04-.337-.012-.105-.03-.21-.04-.325 0 0-.03-.018-.03-.03 0-.086-.01-.173-.023-.26-.035-.267-.064-.534-.098-.795 0-.023 0-.04.004-.064 0-.024.006-.065.006-.065-.046-.348-.052-.667-.046-1.004 0-.01-.006-.028-.006-.04-.01-.028-.017-.057-.017-.08-.045-.273-.022-.546.013-.813.01-.08.005-.168.01-.25 0-.017-.005-.028-.005-.046 0-.38.018-.77.133-1.142 0-.01.007-.04.007-.04.03-.174.058-.383.087-.575.03-.19.058-.388.08-.58.013-.08.036-.122.082-.122.023 0 .058.013.098.042.04.023.08.052.122.075.058.035.12.076.18.117.057.04.115.08.167.133.006.006.012.012.023.017.012.012.04.03.04.03h.012v-.006c.405.203.63.545.903.864.053.035.088.07.128.116.064.07.104.157.14.25.178.237.312.493.404.777.006.023.018.052.023.075.006.024.018.012.023.07.047.058.076.134.105.203.028.07.052.14.08.203.018.035.03.064.047.1.01.022.023.04.04.057.024.03.052.046.1.058.062-.214-.088-.417-.03-.62h.017c0-.058-.017-.058-.017-.087-.058-.377-.104-.748-.26-1.096-.006-.03-.006-.093-.006-.093-.14-.348-.21-.702-.41-1.01-.048-.035-.076-.093-.088-.15-.064-.06-.098-.128-.133-.198-.03-.046-.058-.093-.093-.15v.04c0-.006-.01-.012-.01-.018v-.005c-.157-.238-.348-.46-.533-.673l-.024-.024c-.023-.023-.046-.023-.07-.08-.138-.06-.27-.233-.41-.355-.017-.016-.035-.022-.046-.04-.012-.01 0-.023-.058-.04-.29-.197-.505-.44-.76-.615-.046-.058-.103-.023-.126-.116.746-.047 1.47.04 2.222.086v-.03h.005c.372.06.72.13 1.055.274.01 0 .023.017.04.017v.012c.23.05.45.155.67.26.048.023.105.1.157.03.04-.06-.023-.11-.058-.158-.086-.122-.167-.244-.26-.365-.017-.03-.046-.058-.046-.087-.174-.17-.307-.36-.457-.528-.045-.047-.098-.1-.144-.157-.174-.116-.353-.25-.503-.412-.03-.017-.058-.052-.087-.052-.075 0-.156-.08-.232-.133-.075-.052-.156-.098-.23-.15-.03-.018-.06-.03-.088-.047-.353-.133-.706-.255-1.06-.39-.01 0-.033-.004-.033-.01 0 0-.03 0-.04-.006-.076-.006-.134-.03-.175-.07-.03-.023-.052-.052-.063-.087-.006-.005-.006-.017-.012-.03-.017-.045-.023-.097-.017-.15.01-.18 0-.36-.03-.533-.005-.052-.017-.1-.028-.15l-.035-.146-.035-.15c-.017-.07-.04-.158-.057-.216 0 0-.022-.005-.022-.023-.058-.355-.197-.71-.3-1.057-.02-.046-.025-.08-.042-.14-.092-.173-.133-.272-.14-.405 0-.047 0-.087.007-.134 0-.023.006-.046.006-.063.01-.063.022-.133.045-.197.023-.087.052-.174.08-.26 0-.012 0-.04.007-.04h-.006c.075-.413.237-.76.353-1.133 0-.006.01-.006.01-.01.006-.007.018-.02.024-.024.006-.006.01-.006.01-.012.11-.15.14-.302.13-.447-.007-.08-.03-.168-.065-.25-.042-.104-.094-.202-.146-.307-.005-.01-.023-.023-.034-.03-.006-.005-.012-.01-.012-.016-.226-.238-.37-.55-.503-.86-.012-.028-.03-.063-.04-.092-.012-.01-.012-.023-.018-.04 0-.006-.006-.012-.006-.018l-.016-.04.005.006c0-.006 0-.006-.006-.012.005-.035.017-.07.03-.105.01-.023.022-.04.033-.063.012-.018.03-.035.047-.053.005-.005.017-.01.023-.017.156-.226.3-.464.474-.685.146-.19.192-.37.123-.61-.1-.33-.087-.335.243-.457.058-.023.758-.29 1.04-.377.048-.017.163-.063.18-.07.018-.005.03-.01.047-.016.046-.018.093-.035.133-.052.365-.14.73-.273 1.094-.407.01-.005.03-.005.04-.005.342-.174.706-.285 1.065-.407.046-.017.087-.034.145-.046.058-.046.23-.087.29-.133.288-.093.52-.227.78-.285.382-.29.694-.17.955.19.035.024.07.047.104.076.05.047.068.1.126.157.238.273.498.54.747.806zm-8.136.318c-.035.012-.064.018-.093.024-.086.01-.133-.03-.19-.134-.527-.95-1.06-1.897-1.598-2.843-.07-.122-.092-.185.08-.232l10.255-3.01c.036-.013.076-.018.146-.036v.012c0-.002.003-.002.005-.003-.05.62-.103 1.204-.15 1.79l-.103 1.293c-.012.156-.058.255-.226.313-2.707.934-5.415 1.874-8.123 2.825zm-16.833 13.03c.96.082 1.91.274 2.865.407.126.018.253.024.375.087.29.15.434.418.544.702.166.435.218.9.247 1.364.024.365-.052.673-.347.917-.22.18-.4.388-.48.672.37 0 .69.064.932.378.15.197.347.36.538.527.445.4 1.1.308 1.412-.197.138-.226.272-.458.422-.68.208-.306.41-.637.78-.77.227-.076.128-.186.053-.28-.15-.19-.428-.196-.677-.045-.382.232-.642.574-.92.905-.08.1-.162.197-.272.278-.14.1-.26.105-.382-.023-.14-.14-.277-.284-.428-.406-.127-.104-.15-.197-.075-.348.162-.313.23-.65.197-.998-.07-.754-.19-1.497-.724-2.094-.058-.064-.058-.1.024-.157.59-.412.902-.98.983-1.694.017-.18-.017-.325-.162-.377-.144-.047-.236.098-.3.214-.144.25-.33.476-.497.708-.26.354-.625.43-1.007.372-1.377-.215-2.755-.354-4.143-.436-.07-.005-.14-.023-.197.024-.44.325-.885.638-1.163 1.13.017.007.035.018.046.018.045-.005.086-.017.132-.023.718-.18 1.464-.238 2.222-.174zm12.864.54c-.342.17-.678.35-1.002.54-.086.053-.167.1-.27.116-.574.105-1.153.18-1.743.18-.342 0-.62-.145-.886-.313-.162-.104-.324-.254-.352-.486.086-.03.167.005.248.017.307.042.608.152.92.134.753-.046 1.458-.272 2.164-.516.232-.08.458-.168.683-.25.104-.034.133-.07.04-.168-.11-.12-.23-.098-.352-.08-1.51.23-3.01.162-4.508-.11-.434-.082-.897-.11-1.065-.65-.046-.146-.092-.29-.12-.442-.03-.168-.128-.29-.227-.412-.058-.075-.133-.11-.22-.093-.092.024-.086.122-.086.192.005.243.017.487.046.73.03.268.116.53.272.744.3.422.717.683 1.227.805.376.087.376.093.41.48.018.17.04.32.197.413.272.163.544.33.874.354.202.018.41.03.584.163.226.174.498.214.77.238.202.017.41.023.613.058.162.03.272-.022.388-.12.573-.477 1.14-.96 1.678-1.492-.063-.07-.155-.093-.282-.03zm-4.75 4.69c-.048-.083-.105-.1-.186-.054-.457.256-.972.267-1.476.33-.214.03-.48-.034-.636.123-.382.377-.706.22-1.042-.046-.017-.01-.035-.028-.058-.034-.497-.267-.995-.366-1.504-.012-.19.134-.417.215-.643.163-.18-.047-.318-.035-.457.092-.07.063-.162.115-.243.168-.225.15-.225.174-.017.342.046.04.104.058.162.075.48.145.932.04 1.354-.19.44-.24.85-.227 1.25.074.364.272.752.278 1.157.11.508-.215 1.023-.424 1.573-.517.08-.01.162-.04.237.023.232.215.452.064.67-.023.088-.035.1-.104.094-.19-.017-.187-.156-.29-.237-.436zm-2.102 1.513c-.572.018-1.157.11-1.695.297-.445.15-.942.255-1.174.77-.133.303-.115.622-.208.924.04.24.04.477.18.68.04.058.057.15.156.145.104-.006.138-.093.167-.163.106-.22.13-.47.198-.702.11-.377.284-.68.677-.847.41-.174.828-.336 1.244-.5.08-.028.16-.045.242-.028.515.076 1.053.052 1.51.354.04.028.093.04.15.028.175-.04.192-.098.088-.238-.376-.522-.926-.736-1.534-.72zM19.6 49.204c.346-.035.693-.08 1.035-.128.092-.01.237.023.26-.087.023-.116-.11-.186-.19-.26-.04-.042-.11-.047-.17-.065-.346-.127-.7-.098-1.052-.035-.71.134-1.43.174-2.14 0-.192-.046-.394-.046-.626-.075-.266.064-.567.128-.85.255-.197.093-.21.203-.035.337.104.08.208.122.336.075.445-.162.827-.075 1.192.232.364.308.792.372 1.26.21.256-.088.476-.233.707-.36.087-.047.174-.088.272-.1zm-6.193.65c.018-.325-.046-.604-.306-.772-.19-.12-.265-.29-.335-.486-.092-.256-.116-.54-.324-.743-.057-.057-.097-.185-.2-.144-.123.046-.24.116-.273.28-.116.538.133 1.054.67 1.333.244.127.43.306.545.556.04.087.046.255.173.226.128-.03.024-.186.052-.25zM42.057 29.4c-.37.007-.707.355-.69.71.018.33.302.62.614.608.33-.006.65-.37.643-.73-.01-.4-.196-.593-.567-.587z"/></svg>