<svg xmlns="http://www.w3.org/2000/svg" width="110" height="80" viewBox="0 0 110 80"><path fill="#383838" fill-rule="evenodd" d="M0 24.827l3.25 36.16L17.836 65l14.625-4.02 3.254-36.153H0zm28.963 8.27L27.88 45.133l-.013.16v.027l-.763 8.435-.07.745-9.15 2.516-.024.005-9.156-2.52-.627-6.96h4.487l.322 3.538 4.98 1.333v-.003l4.988-1.334.522-5.748H12.94l-.09-.998-.204-2.248-.105-1.19h11.23l.413-4.54H7.07l-.088-.998-.206-2.248-.106-1.194h22.395l-.102 1.187zM13.08 19.82h-3.2v-2.895h3.2V15H7.61v6.75h5.47v-1.93zm15.026.35l-3.08-3.317h2.964V15h-6.23v1.584l3.08 3.314h-3.08v1.853h6.346v-1.58zm-7.49 0l-3.08-3.317h2.96V15H14.27v1.584l3.078 3.314H14.27v1.853h6.345v-1.58z"/></svg>