<svg xmlns="http://www.w3.org/2000/svg" width="110" height="80" viewBox="0 0 110 80"><path fill="#383838" fill-rule="evenodd" d="M0 44.176V32h4.322c.983 0 1.843.16 2.58.48.738.32 1.355.755 1.853 1.303.497.55.87 1.192 1.123 1.93.25.737.377 1.523.377 2.358 0 .927-.14 1.764-.42 2.513-.28.75-.677 1.39-1.192 1.92-.514.532-1.137.944-1.87 1.235-.73.292-1.548.438-2.45.438H0zm8.3-6.105c0-.64-.088-1.228-.266-1.766-.177-.537-.437-.997-.78-1.38-.343-.383-.76-.683-1.252-.9-.49-.218-1.052-.326-1.68-.326h-2.4v8.78h2.4c.64 0 1.21-.11 1.706-.334.497-.223.914-.532 1.252-.926.337-.395.59-.86.763-1.398.17-.537.257-1.12.257-1.75zm6.122 6.277c-.434 0-.837-.07-1.21-.214-.37-.143-.69-.34-.96-.592-.268-.25-.48-.548-.634-.89-.154-.343-.23-.715-.23-1.115 0-.423.09-.806.273-1.15.184-.342.444-.64.782-.89.337-.252.737-.447 1.2-.584.463-.136.975-.205 1.535-.205.423 0 .84.037 1.252.112.41.074.782.174 1.113.3V38.5c0-.664-.188-1.18-.566-1.553-.377-.37-.92-.557-1.63-.557-.48 0-.95.09-1.413.266-.463.177-.94.432-1.432.763l-.583-1.2c1.153-.78 2.354-1.167 3.6-1.167 1.235 0 2.195.314 2.88.943.687.63 1.03 1.532 1.03 2.71v3.24c0 .4.166.606.497.618v1.612c-.183.034-.34.057-.47.068-.133.012-.262.018-.387.018-.366 0-.65-.092-.85-.275-.2-.183-.322-.417-.368-.703l-.05-.566c-.402.526-.896.93-1.485 1.21-.59.28-1.22.42-1.895.42zm.515-1.39c.457 0 .89-.082 1.295-.247.405-.166.723-.398.95-.695.24-.206.36-.423.36-.652V40.18c-.32-.126-.66-.223-1.02-.29-.36-.07-.71-.104-1.054-.104-.674 0-1.226.145-1.654.437-.43.29-.644.677-.644 1.157 0 .446.166.82.498 1.124.33.303.754.454 1.27.454zm10.323 1.305c-.605 0-1.16-.123-1.663-.37-.503-.245-.935-.58-1.295-1.002-.36-.423-.64-.91-.84-1.458-.2-.55-.3-1.126-.3-1.732 0-.64.103-1.243.31-1.81.204-.565.49-1.057.856-1.474.366-.417.803-.75 1.312-.995.51-.245 1.072-.367 1.69-.367.72 0 1.35.17 1.894.514.543.343.992.79 1.346 1.338v-1.698h1.664v8.712c0 .65-.12 1.228-.36 1.73-.24.504-.575.93-1.004 1.278-.428.35-.934.615-1.517.798-.583.183-1.212.274-1.887.274-.994 0-1.82-.17-2.478-.506-.657-.337-1.21-.81-1.655-1.415l1.064-.995c.343.48.786.846 1.33 1.097.542.252 1.122.377 1.74.377.388 0 .757-.052 1.105-.155.35-.103.655-.263.918-.48.263-.217.47-.492.626-.823.154-.332.23-.726.23-1.183v-1.373c-.32.548-.76.97-1.32 1.27-.56.296-1.148.445-1.766.445zm.618-1.527c.286 0 .56-.048.823-.146.264-.098.507-.23.73-.395.223-.166.414-.354.574-.566.16-.212.275-.438.343-.678v-2.35c-.114-.285-.263-.546-.446-.78-.182-.234-.39-.437-.625-.61-.234-.17-.483-.305-.746-.402-.263-.097-.526-.145-.79-.145-.41 0-.78.088-1.105.265-.326.178-.604.412-.832.703-.23.292-.406.62-.532.987-.125.365-.187.743-.187 1.13 0 .413.07.8.214 1.16.143.36.34.673.592.942.25.27.544.483.882.643.337.16.706.24 1.106.24zm10.17 1.527c-.607 0-1.16-.123-1.664-.37-.503-.245-.935-.58-1.295-1.002-.36-.423-.64-.91-.84-1.458-.2-.55-.3-1.126-.3-1.732 0-.64.1-1.243.307-1.81.206-.565.492-1.057.858-1.474.366-.417.803-.75 1.312-.995.508-.245 1.07-.367 1.69-.367.72 0 1.35.17 1.894.514.544.343.992.79 1.347 1.338v-1.698h1.663v8.712c0 .65-.12 1.228-.36 1.73-.24.504-.574.93-1.003 1.278-.43.35-.935.615-1.518.798-.584.183-1.213.274-1.887.274-.995 0-1.82-.17-2.478-.506-.657-.337-1.21-.81-1.655-1.415l1.063-.995c.343.48.786.846 1.33 1.097.542.252 1.123.377 1.74.377.39 0 .757-.052 1.106-.155.348-.103.654-.263.917-.48.262-.217.47-.492.625-.823.155-.332.232-.726.232-1.183v-1.373c-.32.548-.76.97-1.32 1.27-.56.296-1.15.445-1.767.445zm.617-1.527c.285 0 .56-.048.823-.146.263-.098.506-.23.73-.395.22-.166.413-.354.573-.566.16-.212.275-.438.344-.678v-2.35c-.114-.285-.263-.546-.446-.78-.183-.234-.39-.437-.626-.61-.234-.17-.483-.305-.746-.402-.263-.097-.526-.145-.79-.145-.41 0-.78.088-1.105.265-.325.178-.602.412-.83.703-.23.292-.406.62-.532.987-.126.365-.19.743-.19 1.13 0 .413.073.8.216 1.16.143.36.34.673.59.942.253.27.547.483.884.643.338.16.706.24 1.107.24zm10.683 1.612c-.697 0-1.332-.123-1.903-.368-.572-.247-1.06-.582-1.466-1.005-.407-.423-.722-.914-.945-1.474-.223-.56-.334-1.154-.334-1.783 0-.63.112-1.226.335-1.792.223-.566.538-1.063.944-1.492.404-.43.893-.766 1.465-1.012.57-.245 1.212-.367 1.92-.367.698 0 1.33.125 1.895.377.566.25 1.05.586 1.45 1.003.4.417.706.903.917 1.458.212.555.317 1.135.317 1.74 0 .138-.005.267-.017.387-.01.12-.023.22-.034.3h-7.186c.035.4.13.76.283 1.08.155.32.355.598.6.832.246.234.526.414.84.54.315.125.644.188.987.188.25 0 .5-.03.746-.094.246-.063.472-.154.677-.275.206-.12.39-.266.55-.438.16-.17.285-.36.376-.566l1.612.463c-.308.674-.82 1.225-1.534 1.654-.715.43-1.547.643-2.496.643zm2.727-5.333c-.034-.377-.13-.726-.283-1.046-.154-.32-.35-.592-.592-.815-.24-.223-.52-.397-.84-.523-.32-.126-.657-.188-1.012-.188-.354 0-.688.062-1.003.188-.314.126-.592.3-.832.523-.24.223-.434.495-.583.815-.148.32-.24.67-.274 1.046h5.42zm8.454-2.178c-.732.023-1.38.192-1.947.506-.566.314-.97.763-1.21 1.346v5.488H53.49v-8.97h1.75v2.007c.308-.617.71-1.112 1.208-1.483.497-.372 1.032-.575 1.603-.61h.282c.075 0 .14.007.197.018v1.698zm.926 7.34c0-.48.04-.926.12-1.338.08-.41.222-.797.428-1.157s.486-.703.84-1.028c.355-.326.812-.643 1.373-.952.4-.217.777-.417 1.13-.6.356-.183.667-.363.936-.54.27-.178.483-.366.643-.566.16-.2.24-.432.24-.695 0-.367-.157-.695-.47-.987-.316-.292-.77-.437-1.365-.437-.307 0-.59.043-.848.128-.257.086-.49.195-.703.326-.212.132-.398.277-.558.437-.16.16-.303.315-.43.463l-1.2-1.39c.115-.124.295-.282.54-.47.247-.19.544-.37.893-.54.348-.172.746-.318 1.192-.438.445-.12.93-.18 1.457-.18.55 0 1.043.072 1.484.215.44.142.81.34 1.114.59.303.253.535.553.695.902.16.347.24.722.24 1.122 0 .423-.086.8-.257 1.132-.172.33-.383.623-.635.874-.25.252-.526.466-.823.643-.297.18-.572.33-.823.456-.24.114-.513.248-.816.403-.303.153-.597.33-.883.53-.285.2-.542.415-.77.643-.23.23-.39.48-.48.755h5.675v1.698h-7.94z"/></svg>