<svg width="110" height="80" viewBox="0 0 110 80" xmlns="http://www.w3.org/2000/svg"><title>f_sdk</title><path d="M29.554 51.503H18.297c-.716 0-1.297-.58-1.297-1.297v-20.91c0-.715.58-1.296 1.297-1.296h20.91c.715 0 1.296.58 1.296 1.297v20.91c0 .715-.58 1.296-1.297 1.296h-5.99V42.4h3.056l.457-3.546h-3.513V36.59c0-1.027.285-1.727 1.758-1.727h1.878V31.69c-.325-.044-1.44-.14-2.737-.14-2.708 0-4.562 1.653-4.562 4.688v2.616H26.49V42.4h3.064v9.103zm22.29-17.396c-.416.337-.623.803-.623 1.398 0 .596.153 1.062.46 1.4.304.336.708.594 1.21.774.5.18 1.05.34 1.644.48.596.142 1.19.315 1.787.518.596.204 1.145.455 1.646.752.5.298.905.733 1.21 1.305.306.572.46 1.265.46 2.08 0 1.347-.538 2.507-1.61 3.478-1.075.972-2.5 1.457-4.28 1.457-1.777 0-3.215-.42-4.312-1.257-1.097-.838-1.645-2.017-1.645-3.537h3.525c.125 1.44.947 2.162 2.467 2.162.752 0 1.348-.196 1.787-.587.437-.39.657-.912.657-1.562s-.29-1.164-.87-1.54c-.58-.376-1.28-.658-2.103-.846-.823-.188-1.65-.415-2.48-.682-.83-.266-1.536-.732-2.115-1.398-.58-.666-.87-1.547-.87-2.644 0-1.49.54-2.68 1.62-3.573 1.082-.893 2.473-1.34 4.173-1.34 1.7 0 3.067.39 4.1 1.164 1.035.775 1.6 1.954 1.693 3.536h-3.62c-.062-.626-.297-1.124-.704-1.492-.408-.368-.94-.552-1.6-.552-.657 0-1.193.168-1.61.505zm16.353-2.926c2.632 0 4.76.753 6.38 2.257 1.623 1.504 2.434 3.494 2.434 5.97 0 2.476-.81 4.458-2.432 5.946-1.622 1.49-3.75 2.233-6.38 2.233h-5.57V31.18h5.57zM65.94 45.07h2.257c1.724 0 3.063-.508 4.02-1.527.955-1.018 1.433-2.397 1.433-4.136 0-1.74-.478-3.118-1.434-4.137-.956-1.018-2.295-1.527-4.02-1.527h-2.255V45.07zm16.813 2.516H79.44V31.18h3.313v7.334l5.922-7.333H93l-7.12 8.227 7.12 8.18h-4.3L82.752 40.3v7.286z" fill="#383838" fill-rule="evenodd"/></svg>