<svg xmlns="http://www.w3.org/2000/svg" width="110" height="80" viewBox="0 0 110 80"><path fill="#383838" fill-rule="evenodd" d="M87.41 41.967c0-2.336-1.832-4.234-4.096-4.234-2.265 0-4.095 1.898-4.095 4.234 0 2.335 1.83 4.234 4.094 4.234 2.264 0 4.095-1.898 4.095-4.233zm-33.734.343v3.463c0 .18-.145.324-.323.324-.18 0-.324-.145-.324-.324v-7.496c0-.18.144-.324.323-.324.178 0 .323.145.323.324v2.06l.06-.12c.225-.444.486-.832.788-1.145.23-.238.488-.445.77-.622.4-.25.827-.43 1.253-.552.15-.043.288-.075.414-.1.08-.014.136-.022.17-.026.178-.02.338.107.36.285.02.178-.11.338-.286.36l-.028.002c-.027.003-.06.01-.095.016-.106.02-.226.048-.356.085-.37.106-.74.263-1.085.48-.24.15-.458.322-.65.522-.252.262-.478.597-.677.99-.19.37-.342.772-.463 1.173-.042.14-.078.27-.106.387-.01.04-.018.076-.024.107l-.007.033c-.007.035-.02.067-.037.097zm-8.862-1.35v4.785c0 .18-.145.324-.324.324-.18 0-.324-.146-.324-.325V34.884h7.269c.18 0 .324.146.324.324 0 .18-.146.324-.325.324H44.49l.324-.324v5.105h6.088c.18 0 .324.145.324.324 0 .18-.145.324-.324.324h-6.088zm35.052 1.007c0-1.984 1.546-3.587 3.448-3.587 1.9 0 3.447 1.603 3.447 3.587 0 1.983-1.545 3.586-3.446 3.586-1.902 0-3.448-1.603-3.448-3.586zm-4.095-4.234c-2.263 0-4.094 1.898-4.094 4.234 0 2.335 1.83 4.234 4.095 4.234 1.277 0 2.455-.606 3.226-1.623.108-.143.08-.346-.063-.454-.142-.108-.345-.08-.453.062-.65.858-1.64 1.368-2.71 1.368-1.9 0-3.446-1.603-3.446-3.586 0-1.984 1.546-3.587 3.447-3.587.985 0 1.902.43 2.552 1.174.118.135.322.148.457.03.134-.117.147-.322.03-.456-.772-.882-1.865-1.395-3.04-1.395zm-18.08 4.473h.096l.36.003c.38 0 .794.003 1.222.006l1.588.006c.93.003 1.703.004 2.27.002.325 0 .577-.003.753-.006.094 0 .166-.003.217-.005l.073-.005.048-.007c.02-.003.04-.01.065-.02.114-.048.203-.126.198-.308l.002-.114v-.026c.002-.09.002-.142-.002-.192-.18-2.143-1.763-3.807-3.685-3.807-2.056 0-3.702 1.894-3.702 4.21 0 2.317 1.646 4.21 3.702 4.21 1.266 0 2.35-.467 3.3-1.43.126-.128.124-.333-.003-.458-.127-.126-.332-.125-.458.003-.83.842-1.75 1.238-2.84 1.238-1.675 0-3.053-1.585-3.053-3.563 0-1.977 1.38-3.563 3.055-3.563 1.565 0 2.887 1.39 3.04 3.214v.15c-.003.08-.003.11-.002.146-.005-.18.083-.257.196-.305.02-.01.04-.015.056-.018-.06 0-.13.002-.218.004-.172.004-.422.006-.743.007-.566.002-1.34 0-2.266-.002l-1.59-.007-1.22-.007h-.36c-.037-.002-.058-.002-.096-.002h-.034c-.18 0-.325.143-.326.322 0 .178.143.324.322.326h.033zm7.493 2.89l.202.12c.214.12.45.243.704.357.606.273 1.21.457 1.786.512.114.01.226.016.336.016 1.456 0 2.384-.593 2.73-1.67.183-.565.065-1.168-.35-1.678-.442-.543-1.197-.958-2.24-1.21-.958-.232-1.613-.55-1.963-.926-.3-.322-.373-.68-.23-1.102.254-.744.917-1.06 1.87-1.06.208 0 .508.054.868.152.17.046.348.1.533.163.213.07.422.145.618.22l.184.074.05.02c.18.076.37 0 .44-.166.07-.165-.008-.355-.173-.424l-.074-.03c-.058-.024-.123-.05-.195-.077-.203-.08-.42-.16-.644-.233-.196-.065-.386-.124-.568-.173-.41-.11-.76-.174-1.04-.174-.517 0-.992.085-1.4.28-.51.243-.886.648-1.08 1.22-.22.645-.098 1.253.367 1.752.45.483 1.215.854 2.285 1.113.916.222 1.546.57 1.89.99.277.342.35.717.236 1.072-.255.793-.925 1.22-2.114 1.22-.09 0-.18-.003-.275-.012-.495-.047-1.034-.212-1.582-.458-.234-.105-.453-.217-.65-.33-.07-.04-.13-.075-.182-.107-.018-.01-.034-.02-.047-.03-.163-.106-.364-.065-.462.085-.098.15-.056.35.093.448l.076.048zM18 58c9.94 0 18-8.06 18-18s-8.06-18-18-18S0 30.06 0 40s8.06 18 18 18zm2.915-25.77c0-.39.19-.758.51-.983l2.24-1.578c.796-.562 1.895.008 1.895.983v3.28c0 .39-.188.756-.505.982l-2.24 1.593c-.796.567-1.9-.003-1.9-.98V32.23zm-5.182 0c0-.39.19-.758.51-.983l2.24-1.578c.796-.562 1.895.008 1.895.983v3.28c0 .39-.19.756-.506.982l-2.24 1.593c-.795.567-1.9-.003-1.9-.98V32.23zm0 6.987c0-.39.19-.758.51-.983l2.24-1.577c.796-.562 1.895.008 1.895.983v3.28c0 .39-.19.756-.506.982l-2.24 1.593c-.795.567-1.9-.003-1.9-.98v-3.298zm-5.275-6.987c0-.39.19-.758.51-.983l2.24-1.578c.796-.562 1.895.008 1.895.983v3.28c0 .39-.19.756-.506.982l-2.24 1.593c-.795.567-1.9-.003-1.9-.98V32.23zm0 6.987c0-.39.19-.758.51-.983l2.24-1.577c.796-.562 1.895.008 1.895.983v3.28c0 .39-.19.756-.506.982l-2.24 1.593c-.795.567-1.9-.003-1.9-.98v-3.298zm0 6.987c0-.39.19-.758.51-.983l2.24-1.576c.796-.562 1.895.008 1.895.983v3.282c0 .388-.19.753-.506.98l-2.24 1.592c-.795.567-1.9-.002-1.9-.98v-3.298zm1.203 3.298l2.24-1.593v-3.283l-2.24 1.577v3.298zm0-6.987l2.24-1.594v-3.28l-2.24 1.577v3.298zm0-6.987l2.24-1.594v-3.28l-2.24 1.576v3.298zm5.276 6.987l2.24-1.594v-3.28l-2.24 1.577v3.298zm0-6.987l2.24-1.594v-3.28l-2.24 1.576v3.298zm5.182 0l2.24-1.594v-3.28l-2.24 1.576v3.298z"/></svg>