<svg xmlns="http://www.w3.org/2000/svg" width="110" height="80" viewBox="0 0 110 80"><path fill="#383838" fill-rule="evenodd" d="M6.804 38.233h2.042c.06-.005.084.025.09.082.014.113.033.225.04.338.052.727-.033 1.438-.296 2.122-.23.61-.61 1.112-1.1 1.53-.608.525-1.31.836-2.1.947-.882.13-1.746.066-2.57-.294C1.296 42.25.302 41.02.05 39.255c-.194-1.34.184-2.54 1.05-3.574.666-.8 1.51-1.313 2.51-1.56.512-.126 1.032-.144 1.555-.094.802.075 1.526.357 2.174.833.15.11.29.225.425.353.048.04.056.075.007.122-.257.267-.51.533-.768.8-.052.056-.056.052-.13-.017-.322-.285-.678-.506-1.083-.65-.406-.148-.826-.205-1.255-.182-.904.043-1.665.4-2.28 1.07-.43.47-.708 1.025-.815 1.654-.175 1.022.034 1.958.674 2.777.49.626 1.13 1.015 1.907 1.172.684.133 1.36.09 2.004-.183.572-.24 1.033-.62 1.337-1.176.173-.31.264-.652.318-1.007.008-.075.003-.08-.086-.08-.25-.004-.5-.004-.75-.004H4.86c-.035 0-.07-.005-.1 0-.06.002-.085-.023-.085-.082.002-.373.002-.743 0-1.116 0-.06.024-.082.08-.082.108.003.21.003.317.003h1.73zm19.973-.26c.034-.034.024-.075.024-.11.003-.094.003-.184 0-.278 0-.057.01-.088.075-.084h1.094c.048 0 .076.02.073.072v.09c0 1.7.003 3.4 0 5.102 0 .47-.035.934-.178 1.385-.33 1.026-1.032 1.622-2.077 1.8-.464.082-.924.066-1.378-.066-.61-.174-1.094-.532-1.477-1.04-.12-.167-.228-.34-.312-.53-.037-.09-.037-.09.053-.128.32-.138.64-.273.96-.404.088-.038.088-.035.13.05.145.298.346.548.62.73.3.198.628.27.982.24.253-.017.496-.074.714-.206.353-.21.547-.532.648-.923.08-.32.075-.646.073-.97 0-.02.003-.046-.02-.055-.043-.02-.055.022-.078.044-.33.348-.738.532-1.203.595-.537.072-1.047-.028-1.52-.28-.912-.484-1.457-1.248-1.604-2.28-.122-.877.11-1.666.667-2.352.4-.493.91-.834 1.526-.982.638-.156 1.252-.097 1.82.267.106.07.203.148.29.238.028.03.054.07.097.075zm-.02 1.59c-.18-.46-.477-.803-.945-.975-.645-.24-1.384.006-1.8.59-.27.38-.38.81-.348 1.276.037.562.26 1.028.714 1.364.68.498 1.62.39 2.143-.314.26-.354.37-.755.367-1.237.003-.21-.037-.464-.13-.704zM12.432 37.31c1.068.043 1.955.5 2.53 1.493.327.558.437 1.173.374 1.818-.06.633-.29 1.194-.708 1.67-.59.675-1.342 1.012-2.23 1.012-1.12 0-2.004-.472-2.595-1.443-.64-1.055-.59-2.674.472-3.707.46-.452 1.016-.716 1.652-.81.15-.02.3-.024.503-.034zm1.61 2.934c.003-.21-.05-.484-.163-.742-.488-1.125-1.96-1.356-2.747-.43-.527.618-.582 1.605-.132 2.29.625.96 1.947 1.022 2.654.126.27-.34.39-.74.39-1.244zm4.803 3.06c-1.235-.048-2.174-.58-2.713-1.73-.536-1.144-.272-2.554.62-3.425.466-.46 1.033-.724 1.68-.81.76-.093 1.468.05 2.104.483.768.523 1.183 1.266 1.276 2.193.056.573-.03 1.125-.29 1.635-.498.986-1.306 1.518-2.386 1.643-.05.007-.1.01-.15.01-.047.003-.095 0-.14 0zm1.672-2.997c-.003-.385-.094-.717-.278-1.02-.608-.99-1.993-1.06-2.692-.14-.488.644-.504 1.61-.035 2.276.597.85 1.802.943 2.513.187.342-.363.492-.805.492-1.303zm13.02 3c-.726-.014-1.475-.33-2.052-1.017-.435-.516-.655-1.124-.69-1.797-.034-.668.09-1.303.45-1.877.494-.8 1.214-1.237 2.147-1.294.965-.06 1.718.34 2.288 1.118.236.316.39.677.528 1.044.027.08.027.08-.076.12-.655.274-1.312.55-1.968.823-.592.247-1.183.495-1.773.74-.015.008-.03.015-.045.02-.06.02-.066.054-.038.107.222.402.54.69.996.784.706.147 1.356-.07 1.8-.706.054-.078.057-.08.136-.028.29.194.58.39.867.58.08.053.08.056.028.125-.605.814-1.448 1.258-2.597 1.256zm-1.485-3.097c.047-.015.076-.024.1-.034.796-.336 1.59-.667 2.384-1 .18-.08.188-.09.063-.25-.204-.27-.488-.398-.815-.442-.648-.082-1.272.33-1.54.855-.138.265-.2.55-.192.87zm-3.146-1.494v-4.252c0-.166-.015-.153.15-.153.35 0 .7 0 1.05.004.103 0 .103.003.107.103V42.96c0 .18.028.164-.16.164h-1.077c-.047.004-.073-.016-.07-.066.004-.03 0-.065 0-.1v-4.242zm13.22-4.528l-3.416 8.984h1.25l.977-2.724h3.722l1.04 2.724h1.34l-3.643-8.984h-1.27zm-.848 5.293l.976-2.634c.208-.567.367-1.137.482-1.714.135.486.35 1.105.63 1.86l.928 2.49H41.28zm11.4-2.2c-.16-.227-.406-.412-.73-.554-.326-.14-.684-.21-1.072-.21-.896 0-1.58.358-2.052 1.072v-.925h-.984v6.508h1.094v-3.555c0-.83.168-1.397.506-1.694.336-.3.74-.448 1.207-.448.287 0 .542.066.76.197.217.134.366.313.452.535.084.223.128.558.128 1.005v3.96h1.093v-4c0-.51-.02-.868-.062-1.075-.065-.313-.18-.586-.34-.814zm7.298 3.162v-1.47c0-.488-.02-.83-.057-1.018-.065-.3-.176-.55-.337-.75-.163-.2-.416-.362-.76-.494-.343-.13-.79-.194-1.342-.194-.553 0-1.042.075-1.462.23-.42.152-.743.37-.964.653-.223.286-.383.658-.48 1.12l1.068.145c.116-.46.298-.782.543-.964.244-.18.623-.272 1.136-.272.554 0 .97.126 1.248.373.207.186.31.502.31.954l-.005.287c-.418.15-1.068.274-1.95.38-.435.053-.757.11-.97.168-.292.08-.555.2-.786.36-.233.158-.424.37-.565.632-.147.267-.216.555-.216.874 0 .546.19.99.57 1.34.38.348.924.524 1.632.524.43 0 .83-.072 1.207-.216.373-.14.764-.385 1.168-.733.03.303.107.572.22.8h1.14c-.14-.25-.23-.51-.276-.782-.047-.27-.07-.918-.07-1.946zm-1.105-.135c0 .49-.06.856-.177 1.104-.152.323-.394.58-.723.764-.326.185-.702.28-1.122.28-.424 0-.747-.098-.967-.294-.222-.194-.33-.442-.33-.734 0-.194.05-.37.15-.526.102-.157.246-.276.43-.358.185-.08.506-.156.956-.222.79-.113 1.388-.25 1.783-.413v.4zm2.775 2.864h1.093V34.19H61.65v8.983zm5.6-2.715c-.17.48-.32.977-.448 1.484-.137-.53-.294-1.03-.466-1.51l-1.343-3.767h-1.177l2.447 6.52c-.045.117-.076.207-.098.266-.153.438-.263.71-.332.824-.095.147-.213.26-.358.34-.146.082-.34.124-.582.124-.18 0-.388-.032-.626-.098l.122 1.038c.257.087.492.135.705.135.348 0 .645-.086.897-.258.25-.17.472-.435.67-.798.143-.27.347-.76.61-1.477l2.454-6.62H68.63l-1.38 3.795zm5.308 1.77c-.163 0-.286-.025-.373-.08-.088-.052-.15-.124-.188-.21-.04-.093-.06-.297-.06-.61v-3.802h1.1v-.86h-1.1V34.39l-1.087.66v1.614h-.798v.86h.798v3.742c0 .662.047 1.094.135 1.3.09.206.244.374.46.502.22.125.527.188.925.188.24 0 .517-.032.824-.098l-.157-.974c-.198.028-.357.04-.48.04zm1.553-6.77h1.093v-1.267H74.11v1.266zm0 7.715h1.093v-6.507H74.11v6.507zm6.416-1.158c-.286.266-.646.398-1.075.398-.53 0-.964-.198-1.296-.596-.332-.395-.498-1.03-.498-1.905 0-.862.168-1.492.517-1.89.34-.397.79-.598 1.34-.598.363 0 .674.112.93.333.257.218.44.547.54.986l1.062-.165c-.125-.658-.41-1.166-.856-1.522-.445-.358-1.02-.537-1.72-.537-.554 0-1.07.132-1.54.395-.472.264-.82.66-1.05 1.188-.233.528-.35 1.14-.35 1.843 0 1.09.27 1.925.806 2.504.535.583 1.247.874 2.127.874.705 0 1.3-.21 1.783-.633.483-.422.783-1.01.902-1.757l-1.075-.142c-.078.552-.26.96-.547 1.226zm7.214-1.698c-.175-.25-.413-.446-.72-.577-.305-.135-.846-.304-1.617-.514-.535-.147-.86-.24-.964-.282-.193-.074-.333-.174-.422-.29-.087-.117-.134-.245-.134-.39 0-.22.11-.42.322-.584.213-.17.573-.254 1.074-.254.427 0 .756.094.987.285.233.188.373.448.423.784l1.07-.147c-.07-.423-.195-.758-.38-1.01-.182-.25-.465-.45-.846-.597-.383-.147-.827-.22-1.332-.22-.334 0-.65.044-.945.132-.292.088-.523.194-.692.322-.23.164-.408.367-.54.615-.13.248-.197.516-.197.806 0 .32.08.61.24.874.16.263.396.47.703.617.31.152.865.33 1.668.533.594.152.967.277 1.118.373.213.145.323.34.323.59 0 .276-.124.52-.368.723-.242.206-.614.31-1.116.31-.498 0-.886-.116-1.164-.348-.277-.235-.446-.567-.505-1.006l-1.08.172c.122.69.4 1.21.84 1.563.44.352 1.077.528 1.916.528.504 0 .958-.088 1.36-.267.397-.177.704-.427.918-.753.214-.323.32-.67.32-1.037 0-.376-.088-.693-.26-.946z"/></svg>