<svg xmlns="http://www.w3.org/2000/svg" width="110" height="80" viewBox="0 0 110 80"><path fill="#383838" fill-rule="evenodd" d="M2.313 42.744C.77 41.232 0 39.316 0 36.994c0-2.32.77-4.233 2.313-5.737C3.856 29.752 5.753 29 8.006 29c1.633 0 3.088.386 4.366 1.157 1.278.77 2.22 1.882 2.824 3.334H12.7c-.936-1.768-2.5-2.653-4.694-2.653-1.708 0-3.118.563-4.23 1.69-1.11 1.126-1.667 2.62-1.667 4.48 0 1.86.555 3.356 1.666 4.49 1.112 1.134 2.495 1.7 4.15 1.7 1.656 0 2.987-.468 3.993-1.405 1.004-.938 1.59-2.208 1.756-3.81H7.19v-1.634h8.664v1.633c-.212 2.028-1.05 3.706-2.518 5.036-1.467 1.33-3.285 1.996-5.455 1.996-2.168 0-4.024-.756-5.567-2.268zm15.31-4.082c0-1.92.597-3.474 1.79-4.66 1.196-1.188 2.693-1.78 4.492-1.78 1.8 0 3.296.592 4.49 1.78 1.195 1.186 1.793 2.736 1.793 4.65 0 1.91-.624 3.46-1.872 4.648-1.247 1.187-2.77 1.78-4.57 1.78-1.8 0-3.27-.59-4.41-1.77-1.143-1.178-1.713-2.728-1.713-4.648zm9.15 3.46c.856-.84 1.283-2 1.283-3.483s-.41-2.64-1.225-3.47c-.816-.833-1.81-1.248-2.982-1.248-1.17 0-2.15.415-2.937 1.247-.785.83-1.178 1.99-1.178 3.48s.378 2.65 1.134 3.482c.756.832 1.716 1.247 2.88 1.247 1.165 0 2.174-.42 3.028-1.26zm12.804-12.963h2.064v14.13h5.513v1.586h-7.576V29.16zm10.615 14.095c-1.134-1.218-1.7-2.775-1.7-4.673 0-1.897.562-3.432 1.688-4.604 1.127-1.17 2.544-1.757 4.253-1.757 1.058 0 1.985.25 2.778.75.795.498 1.396 1.148 1.804 1.95v-2.495H61.1v12.45h-2.086v-2.54c-.408.818-1.01 1.48-1.803 1.986-.792.507-1.72.76-2.777.76-1.693 0-3.107-.608-4.24-1.825zm8.822-4.593c0-1.406-.412-2.533-1.236-3.38-.824-.846-1.814-1.27-2.97-1.27-1.157 0-2.148.41-2.972 1.225-.824.817-1.236 1.928-1.236 3.334 0 1.407.416 2.55 1.247 3.426.832.877 1.822 1.315 2.972 1.315 1.148 0 2.134-.422 2.958-1.27.824-.846 1.236-1.972 1.236-3.378zm7.553-6.237v2.018c.847-1.48 2.2-2.222 4.06-2.222 1.376 0 2.525.458 3.447 1.373.923.915 1.384 2.22 1.384 3.912v7.37h-2.042v-7.03c0-1.255-.302-2.207-.907-2.857-.606-.65-1.44-.976-2.507-.976-1.066 0-1.905.325-2.517.976-.613.65-.92 1.602-.92 2.857v7.03h-2.063v-12.45h2.064zm13.064 10.83c-1.133-1.218-1.7-2.775-1.7-4.673 0-1.897.563-3.432 1.69-4.604 1.126-1.17 2.544-1.757 4.252-1.757 1.06 0 1.985.25 2.78.75.792.498 1.393 1.148 1.802 1.95v-2.495h2.086v12.77c0 1.707-.552 3.102-1.655 4.183C87.78 50.458 86.382 51 84.69 51c-1.695 0-3.097-.393-4.21-1.18-1.11-.786-1.74-1.814-1.892-3.084h2.018c.197.71.658 1.3 1.384 1.77.725.468 1.625.702 2.7.702 1.072 0 1.968-.35 2.686-1.054.72-.703 1.078-1.69 1.078-2.96v-2.858c-.41.817-1.01 1.478-1.803 1.985-.793.507-1.72.76-2.778.76-1.693 0-3.107-.608-4.24-1.825zm8.824-4.593c0-1.406-.412-2.533-1.236-3.38-.825-.846-1.815-1.27-2.972-1.27-1.156 0-2.147.41-2.97 1.225-.825.817-1.237 1.928-1.237 3.334 0 1.407.415 2.55 1.247 3.426.83.877 1.822 1.315 2.97 1.315 1.15 0 2.136-.422 2.96-1.27.825-.846 1.237-1.972 1.237-3.378z"/></svg>