<svg xmlns="http://www.w3.org/2000/svg" width="110" height="80" viewBox="0 0 110 80"><path fill="#383838" fill-rule="evenodd" d="M26.902 11.607l-6.665 7.014-1.208 4.777c4.708.296 7.988.96 7.988 1.733 0 1.05-6.048 1.9-13.51 1.9C6.05 27.03 0 26.18 0 25.13c0-1.048 6.048-1.9 13.51-1.9 1.09 0 2.15.02 3.168.054l1.403-5.706 7.085-7.5c.168-.194.697-.013 1.18.406.47.408.726.89.582 1.095l-.01.013h-.002c-.004.006-.008.01-.013.014zM20.845 68.19l.575-9.59 1.59-2.714s-3.618 1.48-9.675 1.48c-6.056 0-9.62-1.453-9.62-1.453l1.782 2.96.63 9.318c0 1 3.295 1.81 7.36 1.81 4.063 0 7.358-.81 7.358-1.81zm-.322-23.43c-.16-1.525 3.337-3.734 2.44-3.805-1.93.11-2.893 2.263-3.864 4.518-.357.827-1.576 4.35-2.375 3.917-.8-.434 1.036-3.332 1.55-5.053-.593.436-2.77 2.126-3.33.543-.902.766-2.83 1.18-2.61-.83-.48.85-1.557 2.035-2.85 1.542-1.697-.647.984-6.053 1.65-5.78.667.273-.134 1.504-.344 1.982-.46 1.052-.994 2.375-.638 2.646.61.464 2.27-1.755 2.307-1.804.31-.41 1.194-3.094 1.907-2.785.713.31-1.778 3.852-.846 4.555.188.142.957-.087 1.425-.593.302-.328.198-1.052 1.207-3.457 1.008-2.405 1.907-5.4 2.598-5.172.692.228.122 1.765-.126 2.338-1.164 2.69-3.178 7.134-2.228 6.798.95-.337 1.444-.356 2.373-1.444.93-1.088.886-2.88 1.506-2.842.62.038.516.612.365 1.05.61-.698 2.893-2.168 3.443-.712.653 1.723-3.263 4.213-2.287 4.086.952-.124 2.494-1.1 3.153-1.99l1.81-16.294s-1.823 1.51-13.426 1.51C1.73 27.68.094 26.2.094 26.2l1.544 14.875c.82-2.328 2.764-7.037 5.83-6.88 1.394.073 3.256 2.76 1.66 2.85-.674.038-.742-1.34-1.542-1.543-.576-.146-1.38.323-1.9.83-1.034 1.014-3.26 5.01-2.966 7.003.375 2.54 3.506-.883 4.036-1.9.373-.715.625-2.836 1.44-2.613.817.222-.07 2.41-.662 4.346-.664 2.174-1.014 4.466-1.847 4.202-.832-.263.524-3.07.475-3.56-.783.722-2.225 2.55-4.07 1.645l.958 9.237s2.548 2.013 10.22 2.013c7.674 0 10.315-1.98 10.315-1.98l1.19-10.7c-.973.948-4.055 2.632-4.252.734z"/></svg>