<svg xmlns="http://www.w3.org/2000/svg" width="110" height="80" viewBox="0 0 110 80"><path fill="#383838" fill-rule="evenodd" d="M20.38 18.376l1.566 2.428.007.005.004-.006 1.61-2.497v3.434h2.205V15h-2.405l-1.413 2.305L20.542 15h-2.369v6.74h2.206v-3.364zm-7.464-1.107v4.47h2.28v-4.47h1.98V15h-6.245l.002 2.27h1.984zm16.296 4.473h3.174v-2.27h-3.174v-4.472h-2.275v6.743h2.275zm-23.614-2.24H7.66v2.238h2.277V15H7.66v2.237H5.598V15h-2.28v6.74H5.6v-2.236zM17.854 24.8H0l3.345 36.108L17.857 65l14.504-4.09 3.354-36.11h-17.86zM28.67 36.662H11.54l.42 4.525h16.29L26.995 54.76l-9.137 2.582-9.138-2.58-.646-6.917h4.514l.3 3.46 4.97 1.426 4.895-1.403.502-5.72H7.905l-.027.087-1.256-13.522h22.47l-.42 4.49z"/></svg>