<svg xmlns="http://www.w3.org/2000/svg" width="110" height="80" viewBox="0 0 110 80"><path fill="#383838" fill-rule="evenodd" d="M85.327 39.59h.968v7.554c0 .56-.056 1.095-.17 1.606-.112.51-.314.96-.604 1.347s-.688.697-1.193.928c-.506.23-1.157.347-1.953.347-.613 0-1.14-.078-1.58-.234-.443-.156-.803-.352-1.083-.59-.278-.236-.49-.497-.636-.782-.145-.285-.223-.55-.234-.8h1.033c.075.313.193.57.355.768.16.2.352.355.573.468.22.113.466.19.735.234.27.043.55.064.84.064.655 0 1.182-.112 1.58-.338.4-.226.7-.522.904-.888.204-.366.335-.78.395-1.243.06-.46.083-.935.072-1.42-.312.518-.74.908-1.283 1.17-.543.265-1.11.397-1.702.397-.635 0-1.186-.12-1.654-.363-.468-.242-.856-.565-1.162-.97-.307-.402-.536-.873-.686-1.41-.15-.54-.226-1.098-.226-1.68 0-.612.07-1.188.21-1.726.14-.538.363-1.003.67-1.396.306-.392.696-.702 1.17-.928.473-.225 1.048-.338 1.726-.338.27 0 .543.037.823.113.28.074.55.18.815.32.264.14.506.32.726.534.22.215.4.457.54.726h.033v-1.47zm0 4.213c0-.505-.062-.976-.185-1.412-.124-.434-.304-.81-.54-1.128-.238-.318-.534-.568-.89-.75-.354-.184-.757-.275-1.21-.275-.408 0-.784.073-1.13.218-.343.145-.644.358-.902.637-.258.28-.46.622-.605 1.025-.146.403-.218.87-.218 1.396-.022.527.02 1.02.13 1.476.106.457.28.857.515 1.202.237.344.538.616.904.815.366.2.8.298 1.307.298.44 0 .837-.094 1.186-.282.35-.188.645-.44.887-.76.242-.316.427-.687.556-1.112.13-.424.194-.873.194-1.347zm-9.763-4.212h.968v8.36h-.968v-1.16c-.13.15-.274.305-.436.467-.16.16-.347.31-.557.444-.208.135-.453.248-.733.34-.28.09-.602.137-.968.137-.56 0-1.028-.078-1.405-.234-.377-.156-.68-.374-.912-.654-.23-.28-.398-.606-.5-.977-.102-.37-.153-.778-.153-1.22v-5.502h.968v5.488c0 .72.167 1.272.5 1.654.334.382.882.573 1.646.573.398 0 .756-.078 1.073-.234.318-.155.584-.373.8-.652.214-.28.38-.614.5-1 .118-.388.177-.813.177-1.276v-4.55zM61.12 47.95h-.967V36.333h.968v4.6c.313-.517.74-.907 1.284-1.17.543-.265 1.11-.396 1.702-.396.635 0 1.186.12 1.654.363.468.24.856.563 1.162.967.307.403.536.874.686 1.412.15.537.226 1.096.226 1.677 0 .613-.07 1.19-.21 1.727-.14.538-.363 1.003-.67 1.396-.306.393-.696.702-1.17.928-.473.226-1.048.34-1.726.34-.27 0-.543-.04-.823-.114-.28-.076-.55-.183-.815-.323-.264-.14-.506-.314-.726-.524-.22-.21-.4-.454-.54-.734h-.033v1.47zm0-4.21c0 .504.063.975.186 1.41.124.437.304.813.54 1.13.238.318.534.568.89.75.354.184.757.275 1.21.275.408 0 .784-.072 1.13-.218.343-.145.644-.357.902-.637s.46-.62.605-1.025c.146-.403.218-.87.218-1.396.023-.528-.02-1.02-.128-1.477-.107-.457-.28-.858-.516-1.203-.237-.344-.54-.615-.912-.814-.37-.2-.804-.3-1.3-.3-.44 0-.836.095-1.185.283-.35.188-.647.44-.89.758-.24.317-.426.688-.555 1.113-.13.426-.194.875-.194 1.35zm-3.904 2.565h-.033c-.097.247-.236.48-.42.702-.182.22-.405.417-.67.59-.263.17-.56.305-.895.402-.333.096-.7.144-1.097.144-.88 0-1.564-.19-2.048-.572-.485-.382-.727-.97-.727-1.768 0-.484.097-.88.29-1.186.195-.306.44-.548.735-.726.296-.177.624-.304.985-.38.36-.074.707-.128 1.04-.16l.952-.08c.442-.033.79-.085 1.04-.154.254-.07.445-.167.574-.29.13-.125.21-.283.243-.477.033-.193.05-.435.05-.725 0-.226-.044-.436-.13-.63-.086-.193-.22-.365-.404-.516-.184-.152-.42-.27-.71-.356-.29-.086-.646-.13-1.066-.13-.742 0-1.342.184-1.8.55-.457.365-.707.92-.75 1.662h-.613c.044-.915.337-1.6.88-2.058.544-.457 1.316-.686 2.316-.686 1 0 1.73.197 2.187.59.457.392.686.906.686 1.54v4.826c0 .118.002.236.007.355.005.118.024.226.056.322.033.097.086.175.162.234.075.06.183.088.322.088.108 0 .26-.016.452-.048v.516c-.162.043-.33.065-.5.065-.248 0-.445-.032-.59-.096-.145-.065-.255-.15-.33-.258-.076-.108-.127-.234-.154-.38-.027-.145-.04-.303-.04-.476v-.435zm0-3.066c-.15.18-.38.305-.686.37-.307.064-.648.113-1.025.145l-1.033.097c-.3.032-.602.078-.903.137-.303.058-.574.158-.816.298-.243.14-.44.33-.59.572-.15.242-.225.557-.225.944 0 .614.192 1.068.58 1.364.387.296.92.444 1.597.444.7 0 1.254-.127 1.662-.38.408-.252.72-.543.935-.87.215-.33.353-.646.412-.953.06-.308.09-.515.09-.622v-1.55zm-6.633-3.05h-1.807v5.792c0 .333.037.597.113.79.074.194.19.342.346.444.156.103.344.165.564.186.22.022.476.027.767.016v.533c-.312.022-.616.02-.912-.007-.296-.027-.557-.108-.783-.242-.225-.134-.406-.336-.54-.605-.135-.27-.19-.64-.17-1.113V40.19H46.63v-.534h1.532v-2.582h.614v2.582h1.807v.533zm-10.522 5c.023.39.11.73.26 1.026.15.296.347.55.59.758.24.21.523.37.846.476.323.108.672.162 1.05.162.268 0 .556-.024.862-.073.307-.05.592-.138.855-.267.264-.13.482-.31.654-.54.172-.232.258-.525.258-.88 0-.463-.14-.812-.42-1.05-.28-.236-.63-.42-1.056-.548-.426-.13-.884-.234-1.373-.314-.49-.08-.947-.2-1.372-.363-.425-.16-.777-.39-1.057-.685-.28-.296-.42-.73-.42-1.3 0-.408.092-.75.275-1.024.183-.275.417-.492.702-.654.285-.16.605-.277.96-.347.355-.07.71-.105 1.065-.105.43 0 .834.05 1.21.146.377.096.703.252.977.468.274.215.49.49.645.823.156.332.234.736.234 1.21h-.613c0-.378-.062-.7-.185-.97-.124-.268-.296-.486-.517-.653-.22-.167-.48-.29-.782-.37-.3-.082-.624-.122-.968-.122-.28 0-.562.027-.847.08-.285.054-.54.146-.767.275-.225.13-.41.296-.556.5-.146.205-.218.452-.218.743 0 .333.08.602.242.806.16.204.374.368.637.492.265.123.56.223.89.298l.99.226c.41.075.795.164 1.155.266.36.103.673.242.936.42.265.177.472.406.622.686.15.28.226.635.226 1.065 0 .452-.102.823-.306 1.113-.205.29-.463.525-.775.702-.312.178-.66.302-1.04.37-.383.07-.756.106-1.122.106-.474 0-.912-.06-1.315-.185-.404-.125-.756-.313-1.057-.566-.302-.253-.538-.562-.71-.928-.173-.366-.264-.79-.275-1.275h.613zm-8.664-5.534h.613v1.775h.03c.11-.31.262-.588.46-.83.2-.242.43-.45.695-.62.263-.173.55-.302.863-.39.312-.085.63-.128.952-.128.484 0 .896.06 1.235.178.34.118.616.274.83.468.216.194.386.41.51.653.123.244.212.488.266.736.054.247.087.487.097.718.01.23.017.433.017.605v5.13h-.614v-5.244c0-.204-.016-.463-.048-.775-.032-.31-.127-.61-.283-.894-.157-.285-.393-.53-.71-.734-.318-.205-.756-.307-1.316-.307-.473 0-.893.086-1.26.258-.364.172-.676.412-.934.718-.26.308-.455.674-.59 1.1-.134.424-.2.89-.2 1.395v4.486h-.614v-8.294zm-18.684-8.034c5.942.265 10.678 5.167 10.678 11.175 0 5.374-3.79 9.863-8.843 10.94l-1.835-6.974v-15.14zm-1.017 0c-5.942.265-10.678 5.167-10.678 11.175 0 5.374 3.79 9.863 8.843 10.94l1.835-6.974v-15.14zm0 23.368C5.19 54.723 0 49.366 0 42.797c0-5.513 3.655-10.172 8.674-11.686.393-.682.98-1.24 1.684-1.6-.138-.323-.284-.645-.435-.945-.166-.332-.327-.616-.476-.837-.082-.12-.16-.22-.23-.296-.092-.1-.21-.207-.353-.324-.148-.12-.32-.25-.508-.38-.185.188-.443.306-.73.306-.56 0-1.016-.455-1.016-1.017 0-.562.455-1.017 1.017-1.017.562 0 1.017.455 1.017 1.017 0 .092-.012.18-.035.266.213.15.408.293.577.432.158.13.293.253.402.37.09.098.182.217.278.358.164.242.334.544.51.894.155.31.306.64.446.97.43-.155.895-.24 1.38-.24.43 0 .844.067 1.233.19.134-.313.277-.626.425-.92.175-.35.346-.652.51-.894.095-.14.188-.26.278-.357.11-.118.244-.24.403-.37.17-.14.367-.287.585-.437l.138-.096c-.01-.054-.013-.11-.013-.167 0-.562.455-1.017 1.017-1.017.56 0 1.017.455 1.017 1.017 0 .562-.456 1.017-1.017 1.017-.32 0-.606-.148-.792-.38-.02.015-.04.03-.06.043-.208.143-.394.28-.553.41-.142.118-.26.226-.352.325-.07.076-.148.176-.23.296-.15.22-.31.505-.477.837-.14.28-.276.577-.405.877.767.355 1.404.94 1.823 1.67 5.02 1.513 8.674 6.172 8.674 11.685 0 6.57-5.19 11.926-11.695 12.193V55h-1.017v-.01zm17.07-18.56h.71v11.52h-.71V36.43zM17.542 48.897c.702 0 1.272-.57 1.272-1.27 0-.703-.57-1.272-1.272-1.272-.702 0-1.27.57-1.27 1.27 0 .703.568 1.272 1.27 1.272zm-10.678 0c.702 0 1.272-.57 1.272-1.27 0-.703-.57-1.272-1.272-1.272-.702 0-1.27.57-1.27 1.27 0 .703.568 1.272 1.27 1.272zM5.34 43.305c.7 0 1.27-.57 1.27-1.27 0-.703-.57-1.272-1.27-1.272-.703 0-1.272.57-1.272 1.27 0 .703.57 1.272 1.27 1.272zm13.728 0c.702 0 1.27-.57 1.27-1.27 0-.703-.568-1.272-1.27-1.272-.702 0-1.27.57-1.27 1.27 0 .703.568 1.272 1.27 1.272zm-3.05-4.576c.7 0 1.27-.57 1.27-1.272 0-.702-.57-1.272-1.27-1.272-.703 0-1.272.57-1.272 1.272 0 .702.57 1.27 1.27 1.27zm-8.137 0c.703 0 1.273-.57 1.273-1.272 0-.702-.57-1.272-1.272-1.272-.7 0-1.27.57-1.27 1.272 0 .702.57 1.27 1.27 1.27z"/></svg>