<?xml version="1.0" encoding="utf-8"?>
<!-- Generator: Adobe Illustrator 18.0.0, SVG Export Plug-In . SVG Version: 6.00 Build 0)  -->
<!DOCTYPE svg PUBLIC "-//W3C//DTD SVG 1.1//EN" "http://www.w3.org/Graphics/SVG/1.1/DTD/svg11.dtd">
<svg version="1.1" id="Layer_1" xmlns="http://www.w3.org/2000/svg" xmlns:xlink="http://www.w3.org/1999/xlink" x="0px" y="0px"
	 width="110px" height="80px" viewBox="0 0 110 80" enable-background="new 0 0 110 80" xml:space="preserve">
<g>
	<path d="M1.7,26.3c0,0.5-0.3,0.9-0.9,0.9c-0.5,0-0.8-0.4-0.8-0.9s0.3-0.9,0.8-0.9C1.4,25.4,1.7,25.8,1.7,26.3z M0.5,53.9V32.8h0.9
		v21.1H0.5z"/>
	<path d="M30.1,38.8c0,10.6-5.9,15.4-12.4,15.4c-6.6,0-11.9-5.2-11.9-15c0-10,5.6-15.4,12.4-15.4C24.9,23.9,30.1,29.2,30.1,38.8z
		 M6.7,39.1c0,8,3.9,14.3,11.1,14.3c7.3,0,11.4-6.5,11.4-14.4c0-7.3-3.4-14.1-10.9-14.1S6.7,31.2,6.7,39.1z"/>
	<path d="M33.2,51.6c1.4,1,4,1.9,6.1,1.9c4.1,0,7.7-2.9,7.7-7.1c0-3.9-2.4-5.9-6.5-7.7c-3.7-1.6-7-3.3-7-7.4c0-4.3,3.4-7.4,8.1-7.4
		c2.5,0,4.4,0.7,5.3,1.3L46.5,26c-0.8-0.5-2.7-1.2-4.9-1.2c-4.9,0-7.1,3.7-7.1,6.5c0,3.8,3,5,6.7,6.9c4.4,2.1,6.7,4.1,6.7,8.2
		c0,4.5-3.2,8-8.8,8c-2.3,0-5-0.8-6.3-1.8L33.2,51.6z"/>
</g>
</svg>
