<svg xmlns="http://www.w3.org/2000/svg" width="110" height="80" viewBox="0 0 110 80"><path fill="#383838" fill-rule="evenodd" d="M12.328 36.417c-2.42 0-4.12 1.992-4.12 4.84 0 2.85 1.63 4.685 4.138 4.685 2.122 0 3.472-1.26 3.858-3.25h-1.07c-.35 1.555-1.315 2.36-2.753 2.36-2.174 0-3.05-1.75-3.05-3.636h6.962V41.1c0-2.48-1.298-4.683-3.964-4.683zm-3 4.106c.212-1.678 1-3.198 2.965-3.198 1.684 0 2.77 1.205 2.894 3.198H9.33zm14.662 3.374v-4.894c0-1.695-1.28-2.587-3.314-2.587-2.228 0-3.542 1.1-3.63 3.024h1.052c.14-1.45.93-2.115 2.455-2.115 1.438 0 2.35.454 2.35 1.94 0 .454-.088.7-.315.856-.44.298-1.21.333-2.63.473-2.23.227-3.35 1.136-3.35 2.78 0 1.57 1.104 2.515 2.945 2.515 1.526 0 2.666-.63 3.403-1.8 0 .82.105 1.643 1.175 1.643.317 0 .58-.034.878-.14v-.838c-.193.052-.28.052-.42.052-.615 0-.597-.366-.597-.908zm-1.087-1.678c0 1.712-1.42 2.76-3.07 2.76-1.26 0-2.068-.663-2.068-1.712 0-1.468 1.543-1.73 2.683-1.887 1.21-.156 2.105-.244 2.455-.628v1.466zm6.875-5.82c-1.51 0-2.58.663-3.228 1.992v-1.73h-1V49h1.07v-5.016c.614 1.293 1.737 1.94 3.192 1.94 2.42 0 4.034-1.89 4.034-4.737 0-2.884-1.613-4.79-4.07-4.79l.002.003zm-.106 8.598c-1.894 0-3.086-1.468-3.086-3.83 0-2.41 1.157-3.86 3.05-3.86 1.896 0 3.088 1.52 3.088 3.88 0 2.307-1.21 3.81-3.05 3.81h-.002zm5.21-11.85h1.104v1.8H34.88v-1.8zm0 3.512h1.104v8.984H34.88V36.66zM45 41.1c0-2.482-1.298-4.684-3.964-4.684-2.42 0-4.12 1.993-4.12 4.842 0 2.848 1.63 4.683 4.138 4.683 2.122 0 3.472-1.257 3.858-3.25h-1.07c-.35 1.556-1.315 2.36-2.753 2.36-2.176 0-3.053-1.747-3.053-3.635H45V41.1zm-6.963-.577c.21-1.678 1-3.198 2.964-3.198 1.685 0 2.772 1.205 2.895 3.198h-5.858zM6.5 31c-.66 0-1.195.534-1.195 1.192 0 .458.26.854.64 1.054v8.71c0 1.643-.298 2.99-2.35 2.99-1.923 0-2.383-1.046-2.433-2.63l.603.31s-.304-.403-.608-.92v-.082H1.11c-.152-.263-.3-.55-.405-.826-.34-.884-.694-2.304-.694-2.304v3.23c-.01.172-.01.255-.01.39 0 2.43.982 3.81 3.595 3.81 2.473 0 3.525-1.38 3.525-3.653v-9.06c.345-.21.576-.586.576-1.018C7.696 31.534 7.16 31 6.5 31zm0 .656c.298 0 .54.24.54.536 0 .296-.242.536-.54.536-.297 0-.537-.24-.537-.536 0-.297.24-.536.538-.536zm71.526 13.882V31.582h1.318v7.23l7.153-7.23h1.493l-5.506 5.563 6.475 8.393h-1.61l-5.816-7.58-2.19 2.192v5.388h-1.318zm-14.073 0V31.582h4.768c.39 0 .77.01 1.145.03.375.018.743.063 1.105.134.362.07.714.178 1.056.32.343.142.676.33 1 .562.464.336.845.747 1.142 1.23.298.486.533.996.708 1.533.174.537.297 1.08.368 1.63.07.548.107 1.055.107 1.52 0 .466-.028.938-.086 1.416-.06.478-.152.946-.282 1.405-.13.46-.3.9-.513 1.32-.214.42-.483.804-.806 1.153-.323.36-.675.652-1.056.872-.38.22-.782.39-1.202.514-.42.12-.856.205-1.308.25-.453.046-.912.068-1.377.068h-4.767zm1.318-1.124h3.16c.595 0 1.154-.035 1.677-.106.524-.072 1.057-.25 1.6-.534.465-.232.846-.55 1.143-.95.297-.4.533-.836.708-1.308.174-.472.297-.966.368-1.483.07-.517.107-1.014.107-1.492 0-.503-.033-1.017-.097-1.54-.065-.524-.188-1.02-.37-1.493-.18-.472-.425-.905-.735-1.3-.31-.393-.71-.72-1.2-.978-.415-.22-.906-.363-1.474-.427-.57-.065-1.144-.097-1.726-.097h-3.16v11.708zM52.65 41.37c.053.62.192 1.148.418 1.58.226.434.517.786.872 1.057.356.27.766.47 1.23.59.467.124.964.185 1.494.185.62 0 1.157-.077 1.61-.232.45-.155.82-.365 1.104-.63.284-.265.494-.572.63-.92.136-.35.203-.718.203-1.106 0-.543-.12-.982-.367-1.318-.245-.336-.565-.61-.96-.824-.394-.213-.846-.384-1.356-.514-.51-.13-1.034-.255-1.57-.378-.537-.122-1.06-.268-1.57-.436-.51-.168-.963-.394-1.358-.678-.395-.284-.715-.65-.96-1.095-.246-.445-.368-1.01-.368-1.696 0-.478.1-.943.3-1.395.2-.454.498-.854.892-1.203.394-.35.888-.627 1.483-.834.594-.206 1.28-.31 2.054-.31.79 0 1.478.11 2.066.33.588.22 1.076.52 1.463.9.387.382.678.825.872 1.33.194.503.29 1.04.29 1.608h-1.26c0-.53-.093-.988-.28-1.375-.188-.388-.443-.705-.766-.95-.323-.246-.692-.427-1.105-.543-.413-.116-.84-.174-1.28-.174-.67 0-1.236.093-1.695.28-.46.188-.824.43-1.095.728-.27.297-.46.626-.562.988-.104.362-.123.724-.058 1.086.077.452.258.814.542 1.085.285.272.634.495 1.047.67.413.173.868.316 1.366.425.497.11 1.005.227 1.522.35.516.122 1.017.268 1.502.436.484.168.914.394 1.29.678.374.284.674.65.9 1.095.226.445.34 1.004.34 1.676 0 1.292-.446 2.294-1.338 3.005-.892.71-2.145 1.067-3.76 1.067-.724 0-1.396-.094-2.017-.28-.62-.19-1.156-.473-1.61-.854-.45-.38-.803-.853-1.055-1.415-.252-.562-.378-1.225-.378-1.987h1.28z"/></svg>