<svg width="110" height="80" viewBox="0 0 110 80" xmlns="http://www.w3.org/2000/svg"><title>jenkins</title><path d="M11.767 34.087V33.3H4.004v.787c.192.027.434.07.726.13.29.062.54.136.746.223.288.12.47.263.545.424.077.16.114.363.114.605v8.08c0 1.172-.234 2.046-.703 2.625-.468.578-1.114.867-1.935.867-.212 0-.42-.047-.626-.14-.207-.095-.34-.21-.402-.344v-.13c.39-.31.736-.648 1.04-1.014.303-.366.455-.764.455-1.195 0-.505-.176-.928-.527-1.27-.352-.344-.825-.515-1.42-.515-.627 0-1.12.205-1.478.615-.36.41-.538.927-.538 1.552 0 1.056.39 1.886 1.173 2.49.78.606 1.81.908 3.087.908.738 0 1.43-.103 2.08-.308.648-.205 1.235-.51 1.76-.913.52-.41.928-.92 1.225-1.524.297-.605.445-1.27.445-1.998v-7.89c0-.242.04-.457.118-.645.078-.19.258-.32.538-.394.24-.06.454-.108.645-.142.192-.034.424-.067.697-.1zm12.147 11.11l-.78-.554c-.36.53-.797.97-1.31 1.316-.512.345-1.09.518-1.73.518-1.175 0-2.032-.36-2.57-1.08-.54-.718-.81-1.766-.81-3.144h6.923v-.656c0-.57-.09-1.117-.266-1.638-.177-.52-.46-.973-.85-1.356-.402-.403-.91-.72-1.525-.948-.615-.228-1.4-.342-2.356-.342-.875 0-1.665.148-2.372.443-.706.296-1.292.682-1.756 1.16-.47.49-.835 1.05-1.09 1.678-.257.63-.385 1.286-.385 1.97 0 .76.118 1.465.354 2.113.236.65.593 1.212 1.07 1.69.48.476 1.085.856 1.82 1.138.732.283 1.605.424 2.615.424.608 0 1.146-.066 1.613-.197.468-.13.93-.324 1.388-.58.43-.242.814-.532 1.152-.872.338-.338.627-.7.866-1.083zM20 41.367l-3.286.04c.027-1.136.198-1.966.512-2.49.314-.525.734-.787 1.26-.787.307 0 .56.08.763.242.2.16.36.4.475.716.102.27.174.615.215 1.038.04.424.06.837.06 1.24zm18.415 6.24v-.736c-.205-.02-.388-.053-.548-.1-.16-.047-.295-.094-.404-.14-.205-.088-.345-.206-.42-.354-.076-.148-.113-.346-.113-.595v-4.94c0-1.027-.278-1.852-.835-2.474-.556-.622-1.39-.933-2.504-.933-.463 0-.9.057-1.31.172-.41.114-.74.252-.993.413-.232.148-.485.34-.758.575-.274.235-.506.437-.697.605h-.04v-1.462l-.155-.15-4.885.26v.737c.226.02.432.057.62.11.188.055.343.122.466.202.176.128.32.293.43.494.108.2.163.406.163.614v5.868c0 .25-.04.45-.123.605-.082.154-.232.27-.45.343-.124.04-.272.072-.446.095-.175.024-.347.043-.518.056v.737h6.227v-.736c-.157-.02-.317-.053-.48-.1-.165-.047-.302-.1-.41-.16-.158-.082-.27-.2-.34-.36-.067-.157-.1-.354-.1-.59v-5.413c.08-.107.182-.232.302-.373.12-.14.28-.28.477-.413.226-.154.458-.27.694-.352.236-.08.49-.12.765-.12.5 0 .88.172 1.135.518.257.346.386.862.386 1.548v4.718c0 .276-.03.484-.092.625-.06.14-.163.25-.307.323-.094.047-.234.08-.42.1-.183.02-.34.038-.47.05v.737h6.155zm14.093 0v-.736c-.314-.026-.628-.093-.942-.2-.313-.108-.576-.32-.787-.636-.62-.907-1.214-1.767-1.78-2.58-.566-.812-1.182-1.695-1.85-2.65.34-.296.64-.544.903-.743.262-.198.533-.388.813-.57.422-.275.813-.495 1.17-.66.358-.164.878-.34 1.56-.53v-.695h-5.203v.716c.433.062.758.132.974.213.215.08.323.18.323.302 0 .027-.012.1-.036.217-.024.118-.148.29-.374.52-.382.382-.888.866-1.52 1.45-.63.586-1.197 1.1-1.702 1.543V32.16l-.154-.16-5.1.262v.736c.212.014.448.047.707.1.26.055.455.122.585.203.19.122.336.3.435.54.1.24.15.47.15.69v11.242c0 .248-.04.45-.12.605-.08.154-.23.27-.448.342-.13.04-.282.072-.454.095-.172.024-.344.042-.515.056v.737h6.36v-.736c-.164-.012-.328-.04-.492-.08-.163-.04-.306-.087-.43-.14-.204-.075-.342-.19-.414-.344-.072-.154-.108-.353-.108-.595v-2.196l.604-.503c.436.61.9 1.274 1.39 1.987.492.714 1.035 1.584 1.628 2.61h4.828zm6.585 0v-.736c-.178-.02-.348-.053-.512-.1-.163-.047-.313-.1-.45-.16-.19-.082-.338-.204-.44-.37-.103-.164-.154-.364-.154-.6v-8.004l-.154-.15-5.018.26v.737c.205.02.432.067.68.14.25.075.436.152.56.233.163.107.3.25.41.428.108.178.163.385.163.62v5.868c0 .25-.045.448-.133.6-.09.15-.243.267-.46.348-.124.047-.27.08-.442.1-.17.02-.344.038-.522.05v.737h6.473zm-1.496-13.752c0-.51-.198-.947-.593-1.31-.396-.363-.87-.545-1.424-.545-.553 0-1.03.182-1.43.545-.398.363-.598.8-.598 1.31s.2.946.6 1.306c.4.36.875.54 1.428.54.546 0 1.02-.18 1.418-.54.4-.36.6-.794.6-1.305zm15.957 13.752v-.736c-.206-.02-.388-.053-.55-.1-.16-.047-.294-.094-.403-.14-.204-.088-.344-.206-.42-.354-.074-.148-.112-.346-.112-.595v-4.94c0-1.027-.278-1.852-.834-2.474-.557-.622-1.392-.933-2.504-.933-.465 0-.902.057-1.31.172-.41.114-.742.252-.995.413-.232.148-.485.34-.757.575-.274.235-.506.437-.697.605h-.04v-1.462l-.153-.15-4.886.26v.737c.227.02.433.057.62.11.19.055.344.122.467.202.178.128.32.293.43.494.11.2.164.406.164.614v5.868c0 .25-.04.45-.122.605-.082.154-.232.27-.45.343-.124.04-.272.072-.446.095-.174.024-.347.043-.517.056v.737h6.226v-.736c-.156-.02-.316-.053-.48-.1-.164-.047-.3-.1-.41-.16-.157-.082-.27-.2-.338-.36-.068-.157-.102-.354-.102-.59v-5.413c.082-.107.183-.232.303-.373.12-.14.28-.28.477-.413.227-.154.458-.27.694-.352.236-.08.49-.12.765-.12.5 0 .877.172 1.134.518.256.346.385.862.385 1.548v4.718c0 .276-.032.484-.093.625-.062.14-.164.25-.308.323-.096.047-.236.08-.42.1-.185.02-.342.038-.472.05v.737h6.156zm5.694.343c1.413 0 2.558-.303 3.436-.908.877-.604 1.316-1.458 1.316-2.56 0-.827-.283-1.508-.85-2.042-.564-.534-1.457-.956-2.677-1.265-.79-.202-1.406-.417-1.846-.645-.44-.23-.66-.598-.66-1.11 0-.382.15-.68.452-.897.3-.215.712-.322 1.238-.322.67 0 1.294.255 1.874.762.58.508.99 1.11 1.23 1.81h.716l-.164-3.438h-.778l-.215.594c-.354-.147-.793-.283-1.315-.408-.523-.124-1.095-.186-1.716-.186-1.312 0-2.372.292-3.18.877-.81.585-1.214 1.352-1.214 2.3 0 .51.092.95.276 1.32.184.37.43.685.737.948.354.295.697.512 1.03.65.33.138.727.274 1.192.408l1.172.343c.318.093.61.208.876.342.24.128.427.28.563.454.137.174.205.396.205.665 0 .498-.152.866-.456 1.105-.304.24-.766.358-1.387.358-.47 0-.913-.104-1.327-.313-.413-.208-.78-.464-1.1-.766-.308-.303-.58-.644-.82-1.023-.24-.38-.41-.72-.512-1.023h-.748l.134 3.76h.798l.307-.685c.35.216.84.42 1.47.61.632.192 1.28.288 1.94.288z" fill-rule="nonzero" fill="#383838"/></svg>