<svg xmlns="http://www.w3.org/2000/svg" width="110" height="80" viewBox="0 0 110 80"><path fill="#383838" fill-rule="evenodd" d="M55.3 32.254h-2.633c-.146 0-.29.118-.323.26l-.935 4.327-.936 4.328c-.03.142-.176.26-.322.26H48.287c-1.844 0-1.63-1.276-1.253-3.025.004-.017.008-.034.01-.052l.043-.22.008-.04.084-.45.09-.48c.026-.145.068-.357.095-.49l.425-2.078.426-2.077c.03-.143-.067-.26-.213-.26H45.3c-.147 0-.292.117-.32.26l-.583 2.758-.58 2.758c-.002.002-.002.004-.002.005l-.054.256c-.67 3.06-.49 5.974 3.148 6.065l.106.002h5.712c.147 0 .29-.117.322-.26l1.232-5.79 1.232-5.792c.03-.143-.065-.26-.21-.26zm-28.212-.03h-2.893c-.146 0-.292.117-.325.26l-.274 1.21-.275 1.21c-.03.143.062.26.21.26h2.914c.146 0 .292-.117.323-.26l.265-1.21.265-1.21c.03-.143-.063-.26-.21-.26zm-.84 3.767h-2.915c-.146 0-.292.118-.324.26l-.41 1.815-.41 1.814c-.032.14-.084.376-.114.52l-.394 1.85-.393 1.852c-.03.142-.094.373-.14.512 0 0-.546 1.62-1.46 1.602-.04 0-.078 0-.116-.002l-.792-.015c-.147-.003-.294.11-.328.253l-.302 1.27-.302 1.272c-.034.142.058.26.203.262.52.006 1.682.02 2.387.02 2.287 0 3.493-1.268 4.266-4.915l.904-4.186.85-3.925c.03-.142-.065-.26-.21-.26zm53.686-.98l-.12-.5-.12-.51-.06-.26c-.238-.92-.933-1.45-2.442-1.45l-2.35-.003-2.165-.002h-2.435c-.146 0-.29.117-.32.26l-.11.51-.126.6-.035.168-1.096 5.137-1.04 4.877c-.032.143-.042.318-.025.39.017.072.298.13.444.13h2.197c.147 0 .333-.026.412-.058.08-.034.198-.32.227-.464l.39-1.932.39-1.932v-.003l.053-.26.474-2.218.418-1.96c.03-.142.175-.26.32-.26l6.914-.002c.145 0 .238-.117.204-.26zm8.9-4.513l-.532.002H86.09c-.148 0-.335.097-.417.218l-4.893 7.168c-.083.12-.177.103-.21-.04l-.36-1.578c-.032-.143-.18-.26-.325-.26H76.74c-.147 0-.233.115-.193.256l1.41 4.938c.04.14.042.37.006.513l-.614 2.39c-.038.142.052.258.2.258h3.107c.147 0 .296-.116.332-.258l.614-2.39c.036-.142.138-.353.226-.47l7.943-10.543c.09-.117.04-.212-.105-.21l-.834.005zm-26.16 1.58c-5.12 0-6.332 3.108-7.013 6.243-.68 3.197-.62 6.185 4.676 6.185H61.176l.635-.003h.012c1.4-.005 2.802-.016 3.37-.02.146-.003.288-.12.318-.262l.214-1.048.042-.204.256-1.25c.03-.143-.067-.26-.213-.26h-4.763c-1.894 0-2.457-.504-2.25-1.984h7.618c.12-.002.232-.085.277-.196.008-.02.015-.043.018-.067v.002c1.13-4.263.806-7.134-4.037-7.134zm1.17 4.604v-.002c-.02.158-.165.275-.31.275h-3.99c-.137 0-.207-.094-.187-.21 0-.003.002-.006.004-.01l-.002.002c0-.004 0-.008.002-.013l.02-.068c.38-1.013 1.155-1.677 2.613-1.677 1.642 0 1.962.802 1.85 1.703zm-23.278 4.413s1.435-3.483 1.76-5.495C42.77 32.905 41.422 29 36.214 29c-5.178 0-7.426 3.73-8.284 7.782-.858 4.083.266 7.664 5.415 7.634l4.06-.015 3.798-.012c.146-.002.296-.118.333-.26l.66-2.52c.038-.143-.05-.26-.198-.26l-.634-.004-.633-.004c-.124 0-.195-.08-.18-.188.003-.02.007-.04.016-.06zm-2.086-4.43l-.072.256-.575 2.037-.575 2.037c-.04.14-.192.256-.338.256h-3.043c-2.307 0-2.87-1.805-2.307-4.467.56-2.724 1.663-4.416 3.934-4.588 3.104-.234 3.725 1.95 2.976 4.47zm-37.454-2.43c-1.43 2.056-1.252 4.73-.16 6.913l.08.155.05.1c.01.02.022.038.033.056.018.035.037.068.056.102l.104.18c.02.03.04.064.06.097l.12.19.052.078c.057.086.115.17.175.253l.005.007.03.04c.052.072.105.142.16.212l.06.077.147.18.056.07c.067.078.135.157.205.234.003 0 .004.003.006.004l.008.01c.068.073.138.146.21.22l.066.066c.054.056.11.11.166.164l.07.065c.074.07.15.14.227.208.002 0 .003.002.004.003l.04.034c.068.06.137.118.207.175.03.023.058.046.086.07.058.045.115.09.174.134l.092.07.195.14.07.05c.008.004.014.01.02.013.063.043.126.084.19.125l.08.055c.098.06.197.122.297.18.027.016.054.03.08.047l.223.124c.04.022.082.042.123.063l.158.083c.014.006.026.01.038.017.022.01.043.02.065.032l.25.115.055.024c.097.04.194.082.293.12l.072.03c.092.034.184.07.277.1.01.006.022.01.034.014.102.035.205.068.31.1l.073.023c.106.032.21.07.32.09 6.914 1.26 8.922-4.156 8.922-4.156-1.688 2.2-4.682 2.78-7.52 2.133-.107-.024-.21-.057-.316-.088l-.08-.024c-.1-.03-.203-.064-.304-.098l-.04-.016c-.092-.03-.18-.065-.27-.1l-.076-.03c-.097-.037-.194-.078-.29-.12l-.058-.025c-.082-.036-.164-.074-.245-.113l-.07-.034c-.063-.03-.126-.064-.19-.096-.04-.022-.084-.043-.125-.067-.077-.04-.152-.083-.227-.127l-.077-.043c-.1-.058-.197-.12-.295-.18l-.08-.054c-.07-.045-.14-.092-.21-.14l-.067-.047c-.067-.05-.133-.096-.2-.145l-.087-.067c-.06-.046-.12-.092-.18-.14-.026-.02-.052-.043-.08-.064-.074-.062-.15-.124-.222-.188l-.025-.02c-.08-.07-.157-.142-.235-.214l-.066-.064-.17-.166c-.02-.022-.043-.044-.065-.066-.07-.072-.14-.145-.207-.22l-.01-.01c-.072-.078-.142-.158-.21-.24-.02-.02-.037-.042-.055-.064-.05-.062-.102-.124-.15-.187l-.057-.07c-.06-.076-.117-.153-.174-.23-1.576-2.15-2.14-5.113-.882-7.547l-1.116 1.416zm4.438-1.73c-1.034 1.487-.978 3.48-.17 5.053.134.264.286.52.456.763.155.22.327.485.532.664.075.082.153.162.232.24l.06.06c.08.076.157.15.238.22l.01.01s.002 0 .002.002c.09.078.183.154.277.23.022.015.043.032.064.048.094.072.19.143.29.21l.008.008.132.087c.02.013.04.027.063.04.07.045.142.09.214.132.012.006.022.01.032.017l.19.105c.022.013.044.024.067.035l.132.07.02.008c.09.045.183.088.277.13l.06.024c.075.032.15.063.227.093l.097.035c.07.026.138.05.208.073l.094.03c.1.03.198.07.302.087 5.34.884 6.57-3.226 6.57-3.226-1.11 1.6-3.262 2.364-5.558 1.768-.102-.027-.202-.057-.302-.088l-.09-.03c-.072-.022-.143-.047-.212-.072l-.096-.036-.228-.09-.06-.027c-.095-.042-.188-.086-.28-.13l-.14-.072c-.026-.014-.053-.028-.08-.04l-.176-.1c-.014-.01-.03-.017-.043-.025-.072-.042-.143-.086-.214-.13-.023-.014-.043-.03-.065-.044-.047-.03-.093-.062-.14-.093-.097-.067-.193-.14-.287-.21l-.065-.052c-1.005-.793-1.802-1.878-2.18-3.107-.398-1.275-.312-2.707.376-3.87l-.846 1.194zm3.733-1.294c-.61.896-.67 2.01-.247 3 .446 1.052 1.36 1.877 2.427 2.268.044.017.088.03.133.046l.058.02c.063.018.125.04.19.054 2.948.57 3.748-1.513 3.96-1.82-.7 1.01-1.877 1.25-3.32.9-.115-.027-.24-.07-.35-.107-.142-.05-.28-.107-.416-.172-.256-.123-.5-.273-.727-.444-1.292-.98-2.095-2.85-1.252-4.374l-.456.63zm33.2 17.47l-.85 1.936h-.937l.077-1.758-.69 1.758h-.91l-.023-1.935.1-.477h.644l-.124 1.91.714-1.91h.896l-.064 1.935.708-1.935h.56l-.1.478zm1.48.574c.084-.378.06-.45-.135-.45h-.295l-.188.886-.29.926h-.55l.45-2.1.064-.307h.502l.065.14s.29-.17.573-.17c.602 0 .555.454.425 1.074h-.62zm1.783-1.352c-.24 0-.395-.07-.336-.366.065-.295.254-.366.49-.366s.395.07.33.366c-.06.29-.247.366-.484.366zm-.26 2.714h-.542l.106-.944.19-.873-.378-.084.106-.513h1.032l-.513 2.413zm2.355-1.9l-.678.082-.195.92c-.054.254-.054.325.17.325h.455l-.094.484s-.413.124-.59.124c-.697 0-.69-.383-.567-.955l.19-.903-.38-.082.113-.514h.395l.224-.608h.536l-.13.608h.66l-.11.52zm.773.927c-.042.295.07.395.448.395h.95l-.094.448s-.573.16-.997.16c-1.057 0-1.07-.596-.933-1.233.136-.626.378-1.245 1.398-1.245.986 0 1.033.596.79 1.475H48.53zm.637-.897c-.318 0-.484.165-.55.46l.91-.076c.04-.2 0-.384-.36-.384zm3.09 1.87h-.54l.105-.944.383-1.794-.378-.088.113-.514h1.032l-.714 3.34zm1.324-.973c-.042.295.07.395.448.395h.95l-.095.448s-.572.16-.997.16c-1.056 0-1.068-.596-.932-1.233.136-.626.378-1.245 1.398-1.245.986 0 1.033.596.79 1.475H53.58zm.637-.897c-.32 0-.484.165-.55.46l.91-.076c.04-.2 0-.384-.36-.384zm3.415.03s-.69.005-.88.005c-.4 0-.44.125-.47.254l-.025.118 1.275.095s.006.407-.047.637c-.077.384-.472.773-1.186.773-.356 0-.928-.135-.928-.135l.1-.467h.88c.39 0 .442-.106.466-.212l.03-.153-1.25-.095s-.048-.313.016-.625c.095-.425.484-.79 1.198-.79.354 0 .926.13.926.13l-.106.465zm2.373 0s-.69.005-.88.005c-.4 0-.442.125-.47.254l-.025.118 1.275.095s.005.407-.048.637c-.076.384-.472.773-1.186.773-.353 0-.925-.135-.925-.135l.1-.467h.88c.39 0 .442-.106.466-.212l.03-.153-1.25-.095s-.048-.313.017-.625c.094-.425.483-.79 1.198-.79.353 0 .926.13.926.13l-.105.465zM60.747 51h-.47l.016-.354c-.17-.012-.26-.136-.218-.342.065-.295.248-.366.49-.366.236 0 .395.07.33.366l-.148.696zm3.965-.697l-.065.313-.495-.006-.07-.153s-.438.19-.733.19c-.756 0-.79-.62-.656-1.246.136-.636.43-1.238 1.18-1.238.272 0 .638.135.638.135l.3-1.02h.543l-.643 3.026zm-.808-1.504c-.354 0-.478.21-.56.6-.083.39-.06.62.294.62h.49l.272-1.22h-.496zm2.36 1.85c-.973 0-1.05-.606-.92-1.238.136-.63.478-1.233 1.452-1.233.967 0 1.056.6.92 1.232-.136.643-.478 1.24-1.45 1.24zm.402-1.875c-.46 0-.608.26-.69.637-.078.384-.042.643.412.643.472 0 .614-.253.696-.643.083-.366.06-.637-.418-.637zm5.122 1.84l.106-.932.053-.265c.077-.354.124-.614-.248-.614h-.29c.012.183-.024.39-.07.608l-.254 1.204h-.55l.107-.933.053-.265c.077-.354.124-.614-.247-.614h-.238l-.39 1.812h-.63l.513-2.413h.495l.077.147s.337-.177.608-.177c.206 0 .36.095.413.212.118-.065.454-.212.697-.212.754 0 .73.613.595 1.24l-.253 1.203h-.55zm2.106.036c-.974 0-1.05-.606-.92-1.238.136-.63.478-1.233 1.45-1.233.97 0 1.058.6.922 1.232-.136.643-.478 1.24-1.452 1.24zm.402-1.875c-.46 0-.608.26-.69.637-.077.384-.042.643.412.643.472 0 .614-.253.697-.643.082-.366.058-.637-.42-.637zm2.69.48c.082-.38.058-.45-.136-.45h-.295l-.19.885-.288.926h-.55l.45-2.1.064-.307h.503l.065.14s.29-.17.572-.17c.602 0 .555.454.425 1.074h-.62zm1.476.388c-.042.295.07.395.448.395h.95l-.094.448s-.573.16-.998.16c-1.056 0-1.067-.596-.932-1.233.136-.626.378-1.245 1.398-1.245.986 0 1.033.596.79 1.475h-1.562zm.637-.897c-.32 0-.485.165-.55.46l.908-.076c.042-.2 0-.384-.36-.384zm1.455 1.906c-.248 0-.4-.07-.336-.36.058-.296.24-.366.49-.366.23 0 .388.07.33.366-.066.283-.255.36-.485.36z"/></svg>