<svg xmlns="http://www.w3.org/2000/svg" width="110" height="80" viewBox="0 0 110 80"><path fill="#383838" fill-rule="evenodd" d="M25.043 47.348c-3.163 0-5.775-1.065-5.886-4.122H16.63c0 4.075 3.472 5.945 8.19 5.945 3.777 0 7.69-1.373 7.69-5.116 0-3.553-4.11-4.407-7.33-4.976-3.053-.544-5.356-.947-5.356-2.842 0-1.777 1.64-2.796 4.47-2.796 2.915 0 4.608.995 4.914 3.435h2.528c-.167-3.623-3.055-5.284-7.247-5.284-3.554 0-7.163 1.352-7.163 4.81 0 3.552 3.692 4.003 6.886 4.618 3.247.64 5.746 1.065 5.746 3.246-.002 2.396-2.614 3.084-4.917 3.084zm13.104-19.186l-17.402-9.87c-.343-.195-.72-.292-1.102-.292-.378 0-.76.097-1.1.29l-17.4 9.872C.437 28.562 0 29.314 0 30.13v19.742c0 .816.438 1.568 1.142 1.968l4.8 2.724.013-.012c.844.407 1.907.617 3.22.617 4.554 0 5.69-2.853 5.69-6.6V31.565h-2.608v16.754c0 2.405-.083 4.667-3.11 4.667-.652 0-1.294-.028-1.743-.187l-5.16-2.93V30.13l17.4-9.873 17.403 9.872V49.87l-17.402 9.87-5.32-3.02c-.19-.14-.422-.225-.676-.225-.626 0-1.132.51-1.132 1.138 0 .477.29.886.706 1.057l5.323 3.02c.34.193.72.29 1.1.29.38 0 .76-.097 1.1-.29l17.403-9.872c.704-.4 1.14-1.152 1.14-1.968V30.128c-.003-.814-.44-1.566-1.143-1.966z"/></svg>