<svg xmlns="http://www.w3.org/2000/svg" width="110" height="80" viewBox="0 0 110 80"><path fill="#383838" fill-rule="evenodd" d="M10.864 31h5.85L0 47.715v-5.85L10.864 31zm6.686 17.55H0l8.74-8.74 8.81 8.74zM10.03 31H0V41.03L10.03 31zm73.366 5.547c.848.7 1.272 1.856 1.272 3.474v8.687h-3.455V40.86c0-.678-.09-1.198-.272-1.56-.33-.664-.962-.995-1.893-.995-1.144 0-1.93.485-2.355 1.455-.22.513-.33 1.168-.33 1.965v6.982H73V35.83h3.254v1.883c.434-.663.845-1.14 1.23-1.432.695-.52 1.575-.78 2.64-.78 1.333 0 2.424.35 3.272 1.047zM67 36h3v12.5h-3V36zm3-2h-3v-3h3v3zm-6 14.5h-3V32h3v16.5zM53 37.977v-2.393h1.8V32h3.336v3.584h2.095v2.393h-2.094v6.79c0 .527.067.855.2.985.135.13.546.195 1.232.195.102 0 .21-.002.325-.006.115-.003.227-.01.338-.017v2.51l-1.597.06c-1.594.055-2.682-.22-3.266-.825-.38-.385-.568-.98-.568-1.78v-7.91H53zm-2.45 8.768c-1.09 1.345-2.742 2.018-4.958 2.018-2.217 0-3.87-.673-4.96-2.018C39.545 45.4 39 43.78 39 41.887c0-1.86.544-3.475 1.633-4.84 1.09-1.365 2.742-2.047 4.96-2.047 2.215 0 3.868.682 4.957 2.047 1.09 1.365 1.633 2.98 1.633 4.84 0 1.894-.544 3.513-1.633 4.858zm-2.2-1.716c.528-.703.792-1.7.792-2.995 0-1.293-.264-2.29-.793-2.988C47.82 38.35 47.062 38 46.076 38c-.986 0-1.746.35-2.278 1.047-.534.7-.8 1.695-.8 2.988 0 1.294.266 2.292.8 2.994.53.702 1.29 1.053 2.277 1.053.986 0 1.743-.35 2.272-1.054zM24 31h3.586v7.183L34.32 31h4.71l-7.15 7.183 7.516 10.26H34.71l-5.385-7.62-1.74 1.786v5.833H24V31z"/></svg>