<svg xmlns="http://www.w3.org/2000/svg" width="110" height="80" viewBox="0 0 110 80"><path fill="#383838" fill-rule="evenodd" d="M0 19.25c-.003.35.177.88.177.88l9.58 21.105s.582 1.137 1.98.786c1.397-.35 9.725-2.636 9.725-2.636l5.45 9.453s.573.708 1.48.482c.906-.227 16.028-5.77 16.028-5.77s.366-.484.183-.775c-.183-.292-5.88-7.845-5.88-7.845l6.5-1.626s.5-.23.25-.7-5.88-6.94-5.88-6.94-.816-.317-1.793-.16c-.976.16-6.013 1.01-6.013 1.01s-.83.07-.126 1.047c.704.977 4.67 6.374 4.67 6.374l-13.89 3.348L11.45 18.5s-.306-.5-1-.5-9.897.74-9.897.74-.55.16-.553.51zm11.478 20.625l9.112-2.095-10.463-18.473-7.99.67 9.34 19.898zm12.012-.75l4.572 7.914 14.45-4.904-5.05-6.826-13.972 3.815zm14.245-5.746l-4.232-5.537 5.582-1.135 4.18 5.268-5.53 1.403zm1.91 19.085h1.14v9.295h-1.14v-9.295zM36.63 55.17c.45.226.795.518 1.03.876.23.342.38.74.457 1.196.067.312.1.81.1 1.493H33.25c.02.688.182 1.24.486 1.655.304.415.774.623 1.41.623.596 0 1.07-.196 1.425-.588.203-.228.347-.492.43-.79h1.12c-.03.248-.127.525-.293.83-.167.306-.354.556-.56.75-.346.338-.774.566-1.285.684-.274.066-.584.1-.93.1-.843 0-1.558-.307-2.145-.92-.586-.614-.88-1.474-.88-2.58 0-1.087.296-1.97.887-2.65.59-.68 1.362-1.02 2.315-1.02.48 0 .946.114 1.398.34zm.417 2.66c-.046-.493-.154-.887-.322-1.183-.313-.548-.833-.822-1.563-.822-.523 0-.962.19-1.316.566-.355.38-.542.858-.563 1.44h3.765zm-10.56-2.847l1.81 5.517 1.892-5.517h1.246l-2.556 6.777h-1.215l-2.5-6.777h1.323zm-4.13 2.67c.26-.033.435-.143.524-.33.05-.1.075-.245.075-.435 0-.388-.138-.67-.415-.845-.276-.175-.67-.263-1.186-.263-.595 0-1.017.16-1.265.48-.14.178-.23.442-.273.792h-1.063c.02-.835.292-1.416.813-1.743.52-.328 1.125-.49 1.812-.49.797 0 1.444.15 1.942.454.493.304.74.776.74 1.418v3.903c0 .118.024.213.073.285.048.072.15.108.307.108.05 0 .107-.003.17-.01.064-.006.13-.016.203-.028v.84c-.177.052-.312.083-.405.096-.093.013-.22.02-.38.02-.392 0-.677-.14-.854-.418-.093-.148-.158-.357-.196-.627-.232.305-.565.568-1 .792-.434.224-.913.335-1.436.335-.628 0-1.142-.19-1.54-.572-.4-.382-.598-.86-.598-1.433 0-.63.196-1.116.588-1.462.392-.346.907-.56 1.544-.64l1.816-.227zm-2.4 3.082c.24.19.526.284.855.284.4 0 .79-.093 1.164-.28.633-.307.95-.81.95-1.51v-.92c-.14.09-.32.164-.54.223-.218.06-.433.1-.644.126l-.69.088c-.413.055-.723.14-.93.26-.35.198-.525.514-.525.948 0 .33.12.59.36.78zm-5.516-5.752h1.08v1.17c.09-.227.306-.504.652-.83.346-.328.745-.492 1.196-.492.02 0 .057.004.108.008.05.004.137.012.26.025v1.202c-.07-.012-.13-.02-.188-.025-.057-.004-.12-.006-.186-.006-.574 0-1.015.184-1.323.553-.31.37-.463.794-.463 1.275v3.898H14.44v-6.777zm-3.608 2.67c.262-.033.437-.143.525-.33.05-.1.076-.245.076-.435 0-.388-.138-.67-.414-.845-.278-.175-.673-.263-1.188-.263-.594 0-1.016.16-1.265.48-.14.178-.23.442-.272.792H7.232c.02-.835.292-1.416.813-1.743.52-.328 1.125-.49 1.813-.49.797 0 1.444.15 1.942.454.494.304.74.776.74 1.418v3.903c0 .118.025.213.073.285.05.072.15.108.307.108.05 0 .108-.003.17-.01.064-.006.132-.016.203-.028v.84c-.177.052-.312.083-.405.096-.092.013-.22.02-.38.02-.392 0-.676-.14-.853-.418-.093-.148-.16-.357-.197-.627-.232.305-.565.568-1 .792-.434.224-.912.335-1.435.335-.63 0-1.143-.19-1.54-.572-.4-.382-.6-.86-.6-1.433 0-.63.197-1.116.59-1.462.392-.346.906-.56 1.543-.64l1.816-.227zm-2.398 3.082c.24.19.525.284.854.284.4 0 .79-.093 1.164-.28.633-.307.95-.81.95-1.51v-.92c-.14.09-.32.164-.538.223-.22.06-.435.1-.646.126l-.69.088c-.413.055-.723.14-.93.26-.35.198-.525.514-.525.948 0 .33.12.59.36.78zm-4.08-8.27H5.49v9.295h-1.14v-9.295z"/></svg>