<?xml version="1.0" encoding="utf-8"?>
<!-- Generator: Adobe Illustrator 18.0.0, SVG Export Plug-In . SVG Version: 6.00 Build 0)  -->
<!DOCTYPE svg PUBLIC "-//W3C//DTD SVG 1.1//EN" "http://www.w3.org/Graphics/SVG/1.1/DTD/svg11.dtd">
<svg version="1.1" id="Layer_1" xmlns="http://www.w3.org/2000/svg" xmlns:xlink="http://www.w3.org/1999/xlink" x="0px" y="0px"
	 width="110px" height="80px" viewBox="-31.8 -19.4 110 80" enable-background="new -31.8 -19.4 110 80" xml:space="preserve">
<g>
	<rect x="-31.8" y="0" fill="#E5E5E5" width="46.5" height="41.2"/>
	<polygon fill="#DADADA" points="14.8,0 -31.8,0 -8.5,34 	"/>
	<polygon fill="#BCBCBC" points="-13.5,41.2 -3.5,41.2 -8.5,34 	"/>
	<polygon points="-8.5,21.6 -18.4,7 -18.4,19.6 -12.8,27.9 	"/>
	<polygon fill="#9D9D9D" points="-8.5,21.6 -4.1,27.9 1.5,19.7 1.5,7 	"/>
	<polygon fill="#787878" points="-8.5,21.6 -12.8,27.9 -8.5,34.1 -4.1,27.9 	"/>
	<polygon fill="#939393" points="-25.5,34.2 -18.4,34.2 -18.4,19.6 -25.5,9.2 	"/>
	<polygon fill="#616161" points="-25.5,7 -25.5,9.2 -18.4,19.6 -18.4,7 	"/>
	<polygon fill="#787878" points="1.5,19.7 1.5,34.2 8.5,34.2 8.5,9.4 	"/>
	<polygon fill="#5F5F5F" points="8.5,7 1.5,7 1.5,19.7 8.5,9.4 	"/>
</g>
</svg>
