<svg xmlns="http://www.w3.org/2000/svg" width="110" height="80" viewBox="0 0 110 80"><path fill="#383838" fill-rule="evenodd" d="M13.352 34.734c-1.568-.468-2.614-.063-3.087.984l-3.152 6.947-3.044-6.947c-.458-1.047-1.52-1.452-3.106-.984-.647.203-.964.577-.964 1.36v8.058h2.06v-8.058l3.214 7.027c.364.845.887 1.157 1.902 1.157 1.014 0 1.505-.312 1.886-1.156l3.2-7.026v8.058h2.073v-8.058c0-.783-.318-1.157-.983-1.36zm10.474 8.118c-.035 0-3.915.016-4.5 0-1.125-.015-1.22-.578-1.204-.828v-4.428h-2.076c.047.032 0 4.475 0 4.57.016 1.015 1.332 1.908 3.373 1.924h4.39v.53c0 .22.16.876-1.173 1.017h-6.544V47h6.528c1.047-.017 3.282-.407 3.282-2.192v-7.243h-2.076v5.287zm38.32-5.818c-.158-.157-.317-.297-.475-.454-.46-.61-1.03-1.143-1.648-1.58-.504-.344-1.615-.813-1.82-1.394l-.032-.032c.35-.03.76-.156 1.09-.25.54-.14 1.032-.11 1.587-.25.255-.062.507-.14.76-.218v-.14c-.284-.282-.493-.657-.792-.922-.81-.69-1.696-1.363-2.614-1.925-.49-.314-1.125-.517-1.647-.783-.19-.094-.508-.14-.617-.3-.286-.344-.446-.797-.65-1.203-.462-.86-.902-1.815-1.298-2.722-.286-.61-.462-1.22-.81-1.785-1.63-2.66-3.407-4.27-6.13-5.852-.588-.328-1.28-.47-2.028-.64-.394-.017-.79-.047-1.19-.064-.25-.107-.502-.404-.727-.546-.9-.562-3.23-1.784-3.895-.17-.43 1.014.63 2.017 1 2.534.267.36.615.765.805 1.17.112.267.143.55.256.833.25.688.49 1.453.823 2.097.172.33.364.672.586.97.125.17.347.25.393.53-.22.313-.236.784-.364 1.175-.57 1.766-.348 3.957.46 5.256.253.392.852 1.25 1.662.922.712-.282.554-1.172.762-1.956.047-.188.016-.313.11-.437v.03c.22.44.444.863.65 1.3.49.767 1.347 1.567 2.06 2.098.38.28.68.766 1.154.937v-.047h-.03c-.095-.14-.238-.203-.365-.312-.287-.282-.6-.626-.825-.938-.666-.878-1.25-1.847-1.774-2.85-.253-.484-.476-1.015-.682-1.5-.093-.187-.093-.47-.252-.563-.24.344-.587.64-.762 1.063-.298.672-.333 1.504-.442 2.362-.066.017-.032 0-.066.032-.508-.126-.68-.64-.87-1.082-.473-1.11-.555-2.893-.144-4.175.112-.328.588-1.363.4-1.676-.097-.296-.415-.468-.59-.703-.205-.3-.427-.674-.57-1.002-.38-.875-.568-1.847-.983-2.723-.19-.406-.522-.83-.79-1.206-.302-.422-.635-.72-.872-1.22-.08-.17-.188-.45-.06-.64.03-.124.093-.172.22-.203.206-.17.792.048 1 .142.585.234 1.076.452 1.568.782.22.156.458.453.744.53h.333c.506.11 1.076.03 1.553.173.837.265 1.6.658 2.28 1.08 2.076 1.297 3.784 3.144 4.942 5.35.19.36.27.688.445 1.063.333.77.745 1.55 1.077 2.3.333.737.65 1.487 1.124 2.097.24.327 1.19.503 1.617.674.314.142.807.267 1.092.44.54.328 1.077.702 1.584 1.062.255.187 1.044.577 1.09.89-1.264-.03-2.248.094-3.07.438-.24.096-.62.096-.65.393.127.125.142.33.25.5.19.313.524.734.827.953.332.25.665.5 1.015.72.616.377 1.312.597 1.916.97.348.22.697.5 1.045.736.174.125.286.328.507.405v-.046c-.113-.137-.145-.34-.253-.496zM43.754 18.947v.03h.032c.126.25.348.423.507.642.126.25.24.5.364.752.014-.016.034-.03.034-.03.22-.158.33-.41.33-.786-.094-.11-.11-.218-.19-.328-.095-.156-.3-.234-.427-.36-.27 0-.46.033-.65.08zm-14.48 15.96c-1.22.374-1.757.968-1.757 2.018v1.186c0 .927 1.045 1.708 2.82 1.896.19.015.394.015.603.015h2.137c.078 0 .16 0 .222.018.65.062.936.17 1.125.405.127.125.158.238.158.378v1.188c0 .14-.097.33-.286.485-.19.16-.492.27-.888.285-.078 0-.127.012-.206.012h-5.72v1.363h5.956c.697 0 1.363-.14 1.902-.39.906-.407 1.33-.955 1.33-1.677v-1.502c0-.578-.49-1.126-1.473-1.5-.505-.187-1.14-.297-1.76-.297h-2.502c-.84 0-1.235-.25-1.348-.8-.014-.063-.014-.124-.014-.187v-.923c0-.046 0-.108.014-.17.112-.424.333-.533 1.062-.61h6.1v-1.362h-5.798c-.84 0-1.284.046-1.68.17zm22.368 6.867v-7.04h-2.074v7.056c0 1.39 1.064 2.175 3.187 2.33.204.018.394.032.6.032h5.386v-1.36h-5.434c-1.204 0-1.665-.298-1.665-1.018zm-3.372.08v-4.85c0-1.24-.87-1.99-2.597-2.223-.205-.015-.38-.03-.585-.03h-3.93c-.175 0-.364.015-.553.03-1.728.235-2.615.985-2.615 2.223v4.85c0 1.125.65 1.815 1.964 2.175.427.11.842.156 1.206.156h2.218l1.662-.094 1.65 1.47h2.39l-2.027-1.814c.854-.362 1.218-.894 1.218-1.893zm-1.932-.08c0 .063 0 .14-.016.203-.063.282-.24.5-.523.657L44.29 41.29H41.9l1.712 1.53h-1.867c-.824 0-1.363-.312-1.475-.874-.016-.078-.047-.14-.047-.203v-4.615c0-.625.602-1.016 1.52-1.016h3.12c.81 0 1.348.296 1.46.83.016.06.016.123.016.186v4.646zm15.16 1.957l-.38-.94h-.414v1.378h.27v-1.05h.017l.394 1.05h.205l.398-1.05v1.05h.283V42.79h-.425l-.35.94zm-2.218-.705h.41v1.144h.303v-1.145h.4v-.235h-1.112v.235z"/></svg>