<svg xmlns="http://www.w3.org/2000/svg" width="110" height="80" viewBox="0 0 110 80"><path fill="#383838" fill-rule="evenodd" d="M14.24 28.005c-.91 0-1.65.742-1.65 1.658v8.643L2.817 28.49c-.473-.474-1.182-.614-1.8-.358-.617.256-1.018.86-1.018 1.532v12.648c0 .916.74 1.658 1.65 1.658.913 0 1.653-.743 1.653-1.658v-8.644l9.77 9.816c.317.317.74.486 1.17.486.21 0 .426-.04.63-.125.618-.258 1.02-.862 1.02-1.532v-12.65c0-.916-.74-1.658-1.652-1.658zm11.733 7.313c-.872-.013-1.674.782-1.674 1.66 0 .874.8 1.67 1.673 1.657l4.046-.02-.992 2.01h-5.2l-2.58-4.56 2.6-4.727h5.533l1.29 2.658h3.323l-2.095-5.042-.454-.933h-9.557l-.454.85-3.51 6.406-.454.81.453.808 3.51 6.2.474.848h9.182l.455-.932 2.622-5.307 1.176-2.405H32.68l-6.707.02zM38.613 28c-.864.012-1.64.812-1.63 1.68V34h3.302v-4.32c.01-.883-.793-1.69-1.67-1.68zm18.515.164c-.616-.256-1.326-.115-1.8.36l-9.77 9.815v-8.645c0-.915-.74-1.658-1.65-1.658-.913 0-1.653.743-1.653 1.658v12.648c0 .67.403 1.276 1.02 1.532.203.085.418.126.63.126.43 0 .852-.168 1.17-.485l9.77-9.816v8.643c0 .916.738 1.658 1.65 1.658.913 0 1.652-.74 1.652-1.657v-12.65c0-.668-.4-1.273-1.02-1.53zm13.25 7.843l5.136-5.14c.646-.65.648-1.697.004-2.347-.644-.65-1.69-.65-2.335-.004l-5.145 5.15-5.144-5.15c-.646-.647-1.692-.646-2.335.004-.644.65-.643 1.698.003 2.346l5.136 5.14-5.122 5.127c-.646.646-.65 1.696-.004 2.346.322.323.745.486 1.17.486.42 0 .842-.16 1.164-.484l5.13-5.134 5.128 5.134c.322.322.744.484 1.166.484.423 0 .847-.163 1.17-.487.643-.65.64-1.7-.005-2.347l-5.12-5.126zm-33.395 6.268c-.01.868.766 1.668 1.63 1.68.88.01 1.683-.797 1.673-1.68v-6.942h-3.303v6.942z"/></svg>