<svg xmlns="http://www.w3.org/2000/svg" width="110" height="80" viewBox="0 0 110 80"><path fill="#383838" fill-rule="evenodd" d="M95.34 38.862l-6.405-3.698c-.2-.115-.43-.164-.666-.164-.237 0-.465.05-.667.164l-6.406 3.698c-.414.238-.667.69-.667 1.17v7.385c0 .48.253.93.667 1.17l1.673.965c.813.4 1.112.394 1.482.394 1.203 0 1.89-.73 1.89-2V40.66c0-.105-.09-.178-.19-.178h-.803c-.104 0-.19.074-.19.177v7.287c0 .563-.587 1.128-1.54.653l-1.74-1.02c-.062-.034-.108-.093-.108-.164v-7.384c0-.07.045-.14.108-.177l6.392-3.685c.06-.035.13-.035.19 0l6.392 3.685c.06.037.11.105.11.177v7.384c0 .07-.037.143-.097.177L88.36 51.28c-.054.03-.13.03-.19 0l-1.644-.98c-.05-.03-.116-.027-.164 0-.455.257-.54.286-.966.434-.105.037-.264.093.055.272l2.15 1.266c.204.118.432.176.666.176.237 0 .462-.058.666-.176l6.406-3.686c.414-.24.667-.69.667-1.17v-7.384c.003-.48-.25-.93-.664-1.17zm-4.954 7.343c-1.693 0-2.065-.423-2.19-1.265-.015-.09-.084-.163-.177-.163h-.83c-.102 0-.19.087-.19.19 0 1.078.586 2.353 3.387 2.353 2.026 0 3.195-.796 3.195-2.19 0-1.383-.944-1.753-2.91-2.013-1.988-.263-2.177-.392-2.177-.857 0-.383.16-.897 1.632-.897 1.314 0 1.8.284 2 1.17.016.083.09.15.176.15h.83c.05 0 .1-.032.134-.07.034-.04.06-.082.055-.135-.13-1.526-1.146-2.244-3.196-2.244-1.824 0-2.91.776-2.91 2.067 0 1.402 1.078 1.786 2.828 1.96 2.094.205 2.257.513 2.257.924.003.715-.567 1.02-1.914 1.02zM55.78 27.3l-4.038-2.26c-.063-.034-.134-.04-.204-.04-.07 0-.14.017-.204.055-.125.073-.203.207-.203.352V35.81c0 .104-.046.195-.135.246-.088.05-.196.05-.285 0l-1.7-.98c-.254-.145-.563-.145-.817 0l-6.786 3.917c-.253.146-.407.428-.407.72v7.835c0 .292.154.56.407.706l6.786 3.917c.254.147.562.147.817 0l6.785-3.916c.255-.146.408-.414.408-.706v-19.53c0-.295-.16-.575-.422-.72zm-4.638 17.94c0 .072-.045.14-.11.176l-2.324 1.346c-.063.036-.14.036-.203 0l-2.326-1.346c-.064-.037-.11-.105-.11-.177v-2.694c0-.073.046-.14.11-.177l2.325-1.347c.03-.017.06-.027.095-.027s.077.01.11.027l2.324 1.346c.064.036.11.104.11.176l-.002 2.693zM14.795 39.01L8.01 35.095c-.115-.067-.237-.09-.367-.095H7.56c-.13.005-.25.028-.366.095L.408 39.012c-.254.146-.408.41-.408.706L.014 50.23c0 .148.075.283.204.355.127.075.282.075.407 0l4.025-2.312c.255-.152.422-.415.422-.707v-4.91c0-.292.155-.56.407-.706l1.714-.993c.128-.075.264-.11.407-.11.14 0 .285.036.41.11l1.712.993c.255.145.408.414.408.707v4.91c0 .29.168.556.422.706l4.025 2.312c.127.075.283.075.407 0 .125-.072.204-.207.204-.354l.014-10.512c0-.294-.152-.56-.407-.706zm61.516.013l-6.744-3.917C69.44 35.034 69.3 35 69.16 35c-.143 0-.282.036-.41.108l-6.785 3.917c-.254.146-.407.414-.407.707v7.834c0 .294.165.56.42.706l6.733 3.836c.25.14.554.153.804.014l4.08-2.27c.13-.073.218-.207.218-.354 0-.148-.076-.28-.204-.353L66.78 45.23c-.126-.075-.216-.223-.216-.37v-2.447c0-.146.09-.28.217-.353l2.123-1.224c.126-.074.28-.074.407 0l2.122 1.224c.127.074.203.208.203.353v1.93c0 .148.078.282.204.354.126.074.28.074.407 0l4.066-2.366c.253-.145.408-.414.408-.706v-1.89c0-.293-.156-.562-.41-.71zm-41.515-.012L28.01 35.11c-.128-.074-.268-.11-.41-.11-.14 0-.28.037-.406.11l-6.786 3.903c-.254.146-.408.428-.408.72v7.834c0 .293.154.56.408.707l6.786 3.917c.253.147.562.147.816 0l6.786-3.916c.254-.146.407-.414.407-.707v-7.833c0-.293-.154-.575-.408-.72zm34.417 2.95c-.024-.014-.04-.013-.068-.013-.027 0-.057 0-.082.014l-1.304.762c-.05.028-.082.08-.082.135v1.497c0 .056.032.108.082.136l1.304.748c.05.03.102.03.15 0l1.305-.747c.047-.028.082-.08.082-.136V42.86c0-.054-.035-.106-.083-.134l-1.305-.762z"/></svg>