<svg xmlns="http://www.w3.org/2000/svg" width="110" height="80" viewBox="0 0 110 80"><path fill="#383838" fill-rule="evenodd" d="M34.85 46.535c-.693 0-1.323-.13-1.89-.453-.567-.258-1.07-.647-1.45-1.164-.378-.453-.693-1.036-.945-1.618-.252-.647-.315-1.23-.315-1.876 0-.648.126-1.295.378-1.942s.567-1.164 1.008-1.617c.442-.453.883-.84 1.45-1.1.567-.26 1.197-.39 1.828-.39.693 0 1.323.13 1.89.454.567.323 1.072.71 1.45 1.164.378.453.693 1.035.945 1.618.25.582.314 1.23.314 1.876 0 .647-.126 1.294-.378 1.94-.252.648-.567 1.166-.945 1.62-.44.452-.882.84-1.45 1.1-.63.258-1.26.387-1.89.387zm-3.655-5.11c0 .58.063 1.1.252 1.616.19.52.442.972.757 1.36.315.388.693.712 1.134.97.44.26.945.324 1.513.324s1.072-.13 1.513-.388c.44-.26.82-.582 1.134-.97.316-.39.568-.842.757-1.36.19-.517.252-1.035.252-1.552 0-.518-.063-1.1-.252-1.618-.19-.518-.44-.97-.757-1.36-.315-.387-.693-.71-1.134-.905-.44-.258-.945-.322-1.45-.322-.567 0-1.07.13-1.512.388-.44.26-.818.582-1.133.97-.315.39-.568.842-.757 1.36-.252.452-.315.97-.315 1.488zM47.58 46.47h-.945v-4.14c0-.906-.126-1.554-.378-1.942-.252-.388-.63-.582-1.134-.582-.252 0-.567.065-.82.13-.25.13-.567.258-.756.452-.252.194-.44.388-.63.647-.19.26-.315.518-.378.84v4.53h-.946V39.03h.82v1.682c.125-.26.314-.518.566-.712.19-.194.44-.388.756-.582.253-.13.568-.26.883-.39.314-.063.63-.128.944-.128.378 0 .756.065 1.008.26.252.128.505.387.63.646.127.26.316.582.38 1.035.062.39.125.842.125 1.295v4.336h-.126zm5.547.13c-.505 0-1.01-.13-1.45-.324-.44-.194-.82-.452-1.134-.84-.315-.39-.567-.777-.757-1.23-.19-.453-.252-.97-.252-1.488s.063-1.036.252-1.49c.19-.452.442-.84.757-1.228.315-.324.693-.647 1.134-.84.44-.195.945-.325 1.45-.325.504 0 1.008.13 1.45.324.44.193.818.452 1.133.84.316.324.568.776.757 1.23.19.452.252.97.252 1.423v.388h-6.177c0 .39.126.778.252 1.1.126.325.315.648.567.907.252.26.504.453.82.582.314.13.63.194 1.008.194.252 0 .504-.065.693-.13.252-.065.44-.13.63-.26.19-.128.378-.258.504-.387.126-.194.252-.323.378-.518l.82.258c-.126.26-.253.518-.442.777-.19.194-.44.388-.693.582-.252.194-.567.324-.882.388-.44.065-.756.065-1.07.065zm2.646-4.206c0-.388-.126-.776-.252-1.1-.125-.323-.314-.582-.566-.84-.252-.26-.504-.454-.82-.583-.314-.13-.63-.194-1.007-.194-.38 0-.694.065-1.01.195-.314.13-.566.324-.818.583-.253.26-.442.518-.568.84-.126.325-.252.713-.252 1.1h5.293zm8.634-3.365c-.063-.065-.19-.13-.378-.26-.19-.13-.38-.194-.63-.323-.253-.13-.505-.194-.82-.26-.315-.063-.567-.128-.883-.128-.504 0-.945.128-1.197.322-.252.194-.378.453-.378.842 0 .194.063.388.126.517.126.13.252.26.44.39.19.13.442.194.694.258.252.065.63.194 1.01.26.503.128.944.258 1.322.452.378.13.756.324 1.008.582.252.26.505.518.63.842.127.323.253.71.253 1.164 0 .518-.126 1.036-.315 1.36-.19.387-.442.71-.82.905-.315.26-.693.388-1.134.518-.44.13-.882.195-1.387.195-.757 0-1.45-.13-2.206-.324-.693-.258-1.387-.58-1.954-.97l.82-1.682c.062.065.25.194.44.324s.505.26.757.388c.315.13.63.26 1.008.324s.756.13 1.134.13c1.07 0 1.575-.325 1.575-1.036 0-.26-.063-.39-.19-.583-.125-.13-.314-.26-.503-.388-.252-.13-.504-.194-.82-.323-.315-.065-.693-.195-1.07-.324-.442-.13-.883-.26-1.198-.453-.378-.13-.63-.323-.883-.518-.25-.195-.377-.454-.503-.712-.126-.26-.19-.647-.19-1.036 0-.517.064-.97.253-1.358.19-.39.44-.712.757-.97.315-.26.693-.454 1.134-.583.442-.13.883-.194 1.387-.194.694 0 1.324.13 1.89.324.568.194 1.072.518 1.514.776l-.693 1.553zm2.836-1.036v-1.876h1.828v1.876h-1.827zm0 8.477v-7.44h1.828v7.44h-1.827zm6.68.065c-.504 0-.945-.13-1.323-.323-.378-.194-.756-.453-1.008-.84-.315-.325-.504-.778-.694-1.23-.126-.454-.252-.97-.252-1.424 0-.518.063-1.036.252-1.49.19-.452.38-.84.694-1.228.315-.324.63-.647 1.07-.84.442-.195.883-.325 1.387-.325.567 0 1.07.13 1.512.39.44.257.756.58 1.07 1.034v-1.295h1.64v7.117c0 .583-.126 1.036-.315 1.49-.19.452-.504.775-.82 1.1-.315.322-.756.516-1.26.71-.504.13-1.008.26-1.638.26-.82 0-1.45-.13-2.018-.39-.567-.258-1.008-.646-1.387-1.164l1.01-1.035c.25.323.63.647 1.07.84.44.195.882.325 1.324.325.314 0 .566-.065.818-.13.252-.064.504-.194.693-.388.19-.194.38-.388.442-.647.126-.26.19-.582.19-.97v-.907c-.253.453-.568.777-1.01.97-.44.195-.944.39-1.45.39zm.694-1.553c.19 0 .378-.064.567-.13.19-.064.378-.128.504-.258s.315-.26.378-.388c.126-.13.19-.324.252-.453V41.94c-.19-.452-.44-.775-.756-1.034-.378-.26-.693-.388-1.134-.388-.316 0-.568.064-.757.194-.188.13-.44.323-.63.517-.188.194-.314.452-.377.71-.063.26-.126.584-.126.842 0 .324.063.583.126.842.126.258.252.517.44.71.19.195.38.325.63.454.316.13.57.194.884.194zm12.352 1.49h-1.83v-4.207c0-.583-.125-1.036-.314-1.294-.19-.258-.504-.388-.82-.388-.188 0-.377.065-.566.13-.19.064-.38.194-.568.323-.19.13-.315.324-.44.518-.127.194-.253.388-.316.647v4.335h-1.89V39.03h1.7v1.358c.253-.453.63-.84 1.135-1.1.506-.26 1.073-.388 1.703-.388.44 0 .82.065 1.134.26.316.193.505.387.694.646.19.26.253.582.316.97.063.324.063.712.063 1.1v4.595zm3.97.128c-.38 0-.694-.065-1.01-.194-.314-.13-.566-.26-.82-.518-.25-.194-.377-.453-.503-.776-.126-.26-.19-.583-.19-.97 0-.324.064-.648.253-.97.126-.325.378-.584.63-.778.253-.194.63-.388 1.01-.518.377-.13.818-.194 1.26-.194.314 0 .63 0 .945.065.315.065.567.13.82.26v-.454c0-.518-.127-.84-.38-1.165-.25-.323-.692-.388-1.197-.388-.378 0-.756.065-1.134.194-.378.13-.756.324-1.134.647l-.568-1.228c.946-.647 1.954-.97 3.025-.97 1.072 0 1.828.258 2.458.776.567.517.882 1.294.882 2.264v2.33c0 .194.064.323.127.453.063.064.19.13.378.13v1.617c-.19.064-.315.064-.505.064h-.378c-.38 0-.63-.064-.82-.258-.19-.194-.315-.39-.315-.647l-.063-.388c-.315.453-.693.777-1.197.97-.568.52-1.072.648-1.576.648zm.503-1.36c.315 0 .63-.064.883-.193.252-.13.504-.26.63-.453.19-.13.315-.323.315-.518v-.84c-.25-.065-.44-.13-.692-.195-.252-.064-.505-.064-.757-.064-.503 0-.88.13-1.196.324-.315.194-.44.518-.44.84 0 .325.125.584.377.778.253.194.568.323.883.323zm5.798-9.187h1.83v7.894c0 .582.25.84.755.84.126 0 .19 0 .378-.063.126-.065.252-.065.378-.13l.253 1.553c-.252.13-.567.194-.882.26-.314.064-.63.128-.88.128-.568 0-1.01-.13-1.325-.453-.315-.323-.504-.776-.504-1.358v-8.67zM11.66 29C5.23 29 0 34.37 0 40.97 0 45.177 2.143 48.866 5.294 51c.19-.13.378-.26.567-.388.127-.065.316-.194.442-.26.19-.064.378-.193.504-.258.19-.065.378-.13.567-.26.126-.063.316-.128.442-.193.19-.064.44-.128.63-.193s.315-.065.504-.13c.188-.064.314-.064.503-.13.19-.063.378-.063.567-.063.19 0 .44-.065.63-.065V41.94h-.63v-1.293h3.15v8.543c1.766.26 3.34.906 4.79 1.812 3.215-2.135 5.295-5.824 5.295-10.03C23.318 34.37 18.087 29 11.66 29zm3.465 11.97c0-1.94-1.576-3.558-3.466-3.558-1.892 0-3.467 1.617-3.467 3.56 0 1.357.756 2.587 1.89 3.17v.71c-1.45-.646-2.52-2.134-2.52-3.88 0-2.33 1.827-4.207 4.096-4.207 2.268 0 4.095 1.876 4.095 4.206 0 1.49-.756 2.783-1.89 3.56v-.777c.756-.712 1.26-1.682 1.26-2.782zm-1.26 7.054v-.712c2.583-.906 4.41-3.43 4.41-6.406 0-3.688-2.96-6.73-6.616-6.73-3.656 0-6.618 3.042-6.618 6.795 0 3.17 2.142 5.89 5.04 6.6v.648c-3.213-.712-5.67-3.69-5.67-7.247 0-4.14 3.214-7.44 7.247-7.44 4.032 0 7.246 3.3 7.246 7.44 0 3.3-2.142 6.148-5.04 7.054z"/></svg>