<svg xmlns="http://www.w3.org/2000/svg" width="110" height="80" viewBox="0 0 110 80"><path fill="#383838" fill-rule="evenodd" d="M46.82 29.298C41.65 26.528 34.788 25 27.5 25c-7.292 0-14.15 1.527-19.32 4.298C2.904 32.128 0 35.93 0 40c0 4.075 2.905 7.873 8.18 10.703C13.347 53.473 20.206 55 27.5 55c7.288 0 14.15-1.527 19.32-4.297C52.094 47.873 55 44.075 55 40c0-4.07-2.906-7.873-8.18-10.702zM27.503 53.75C13.03 53.75 1.25 47.58 1.25 40c0-7.582 11.78-13.75 26.253-13.75S53.75 32.418 53.75 40c0 7.58-11.774 13.75-26.247 13.75zm-8.526-20.96h-6.78l-2.93 14.748h3.482l.732-3.822h3.296c3.112.182 6.595-2.368 6.595-6.74 0-2.55-1.465-4.006-4.396-4.186zm24.547 0h-6.78l-2.93 14.748h3.482l.73-3.822h3.3c3.11.182 6.593-2.368 6.593-6.74 0-2.55-1.465-4.006-4.396-4.186zm-12.275 0h-3.3l.734-3.827h-3.48l-2.93 14.753h3.478l1.65-8.195h2.75c1.282 0 1.282.546 1.097 1.457l-1.284 6.74h3.664l1.282-7.465c.37-1.826-.732-3.282-3.663-3.462zm9.71 8.193h-2.2l.915-5.462h2.38c1.284 0 2.2.546 2.2 1.637-.184 3.096-1.65 3.643-3.296 3.826zm-24.549 0h-2.197l.917-5.462h2.38c1.283 0 2.2.546 2.2 1.637-.186 3.096-1.65 3.643-3.3 3.826z"/></svg>