<svg xmlns="http://www.w3.org/2000/svg" width="110" height="80" viewBox="0 0 110 80"><path fill="#383838" fill-rule="evenodd" d="M10.7 38.12c0 .947-.34 1.86-1.02 2.74-.36.453-.897.823-1.61 1.11-.713.287-1.557.43-2.53.43H3.42v5.46H0V33.82h5.54c1.627 0 2.893.42 3.8 1.26.907.84 1.36 1.853 1.36 3.04zM3.42 39.8h2.12c.52 0 .93-.153 1.23-.46.3-.307.45-.71.45-1.21s-.153-.91-.46-1.23c-.307-.32-.713-.48-1.22-.48H3.42v3.38zm11.04-3.78c-.56 0-1.033-.193-1.42-.58-.387-.387-.58-.863-.58-1.43s.193-1.043.58-1.43c.387-.387.86-.58 1.42-.58.56 0 1.033.193 1.42.58.387.387.58.863.58 1.43s-.193 1.043-.58 1.43c-.387.387-.86.58-1.42.58zm-1.7 11.84V36.7h3.42v11.16h-3.42zm5.6-5.58c0-1.733.517-3.117 1.55-4.15 1.033-1.033 2.37-1.55 4.01-1.55 1.36 0 2.513.337 3.46 1.01.947.673 1.573 1.637 1.88 2.89h-3.7c-.32-.667-.843-1-1.57-1-.727 0-1.267.257-1.62.77-.353.513-.53 1.19-.53 2.03 0 .84.177 1.517.53 2.03.353.513.87.77 1.55.77.427 0 .76-.073 1-.22.24-.147.453-.407.64-.78h3.7c-.307 1.2-.94 2.153-1.9 2.86-.96.707-2.107 1.06-3.44 1.06-1.64 0-2.977-.52-4.01-1.56s-1.55-2.427-1.55-4.16zm12 .02c0-1.667.493-3.037 1.48-4.11.987-1.073 2.19-1.61 3.61-1.61s2.51.527 3.27 1.58V36.7h3.42v11.16h-3.42v-1.62C37.893 47.413 36.787 48 35.4 48c-1.387 0-2.573-.533-3.56-1.6-.987-1.067-1.48-2.433-1.48-4.1zm8.36-.02c0-.88-.247-1.557-.74-2.03-.493-.473-1.06-.71-1.7-.71-.64 0-1.207.24-1.7.72-.493.48-.74 1.16-.74 2.04 0 .88.247 1.557.74 2.03.493.473 1.06.71 1.7.71.64 0 1.207-.24 1.7-.72.493-.48.74-1.16.74-2.04zm5.66-2.22c0-.987.42-1.813 1.26-2.48.84-.667 1.977-1 3.41-1s2.59.327 3.47.98c.88.653 1.347 1.547 1.4 2.68h-3.5c-.04-.387-.173-.65-.4-.79-.227-.14-.567-.21-1.02-.21-.893 0-1.34.273-1.34.82 0 .493.547.833 1.64 1.02 1.107.187 2.113.473 3.02.86.467.187.857.497 1.17.93.313.433.47.963.47 1.59 0 1.04-.447 1.89-1.34 2.55-.893.66-2.02.99-3.38.99-1.36 0-2.493-.31-3.4-.93-.907-.62-1.4-1.537-1.48-2.75h3.5c.093.68.573 1.02 1.44 1.02.4 0 .73-.093.99-.28.26-.187.39-.427.39-.72s-.217-.527-.65-.7c-.433-.173-.957-.32-1.57-.44-.613-.12-1.23-.27-1.85-.45-.62-.18-1.147-.493-1.58-.94-.433-.447-.65-1.03-.65-1.75zm11.1 0c0-.987.42-1.813 1.26-2.48.84-.667 1.977-1 3.41-1s2.59.327 3.47.98c.88.653 1.347 1.547 1.4 2.68h-3.5c-.04-.387-.173-.65-.4-.79-.227-.14-.567-.21-1.02-.21-.893 0-1.34.273-1.34.82 0 .493.547.833 1.64 1.02 1.107.187 2.113.473 3.02.86.467.187.857.497 1.17.93.313.433.47.963.47 1.59 0 1.04-.447 1.89-1.34 2.55-.893.66-2.02.99-3.38.99-1.36 0-2.493-.31-3.4-.93-.907-.62-1.4-1.537-1.48-2.75h3.5c.093.68.573 1.02 1.44 1.02.4 0 .73-.093.99-.28.26-.187.39-.427.39-.72s-.217-.527-.65-.7c-.433-.173-.957-.32-1.57-.44-.613-.12-1.23-.27-1.85-.45-.62-.18-1.147-.493-1.58-.94-.433-.447-.65-1.03-.65-1.75zm11.06 2.2c0-1.72.56-3.097 1.68-4.13 1.12-1.033 2.507-1.55 4.16-1.55s3.037.517 4.15 1.55c1.113 1.033 1.67 2.41 1.67 4.13 0 1.72-.553 3.107-1.66 4.16C75.433 47.473 74.053 48 72.4 48c-1.653 0-3.043-.527-4.17-1.58-1.127-1.053-1.69-2.44-1.69-4.16zm8.18.02c0-.907-.233-1.597-.7-2.07-.467-.473-1.02-.71-1.66-.71-.64 0-1.19.237-1.65.71-.46.473-.69 1.163-.69 2.07 0 .907.237 1.6.71 2.08s1.03.72 1.67.72c.64 0 1.187-.24 1.64-.72.453-.48.68-1.173.68-2.08z"/></svg>