<svg xmlns="http://www.w3.org/2000/svg" width="110" height="80" viewBox="0 0 110 80"><path fill="#383838" fill-rule="evenodd" d="M9.797 36.732c0 1.112-.34 1.983-1.018 2.614-.68.63-1.61.945-2.794.945H1.27l.012 5.262-1.282.02v-12.37l6.34-.02c1.092 0 1.94.315 2.542.945.61.63.916 1.502.916 2.614m-1.293.046c0-1.735-.855-2.603-2.564-2.603l-4.67-.02v5.15H5.7c1.87 0 2.805-.845 2.805-2.536v.01zm10.574 4.717c0 1.32-.356 2.35-1.065 3.093-.794.83-1.95 1.245-3.468 1.245-.725 0-1.36-.094-1.9-.288-.535-.2-1.004-.512-1.408-.934-.734-.794-1.1-1.832-1.1-3.115 0-1.29.355-2.313 1.064-3.07.786-.845 1.9-1.267 3.343-1.267 1.526 0 2.678.41 3.456 1.234.718.742 1.076 1.776 1.076 3.103zm-1.11 0c0-2.306-1.142-3.46-3.423-3.46-1.03 0-1.84.31-2.427.924-.282.297-.5.66-.653 1.09-.144.423-.217.905-.217 1.446 0 1.06.282 1.906.847 2.536.572.622 1.39.934 2.45.934 1.175 0 2.048-.323 2.62-.968.275-.29.478-.642.607-1.057.13-.416.195-.898.195-1.447zm10.064 1.813c0 1.67-1.286 2.503-3.858 2.503-.786 0-1.45-.06-1.99-.18-.535-.118-.97-.31-1.306-.577-.26-.2-.466-.463-.618-.79-.153-.333-.252-.745-.298-1.234l1.19-.02c0 .652.21 1.134.63 1.445.45.37 1.248.556 2.392.556 1.8 0 2.702-.52 2.702-1.567 0-.608-.302-1.027-.905-1.257-.122-.053-.85-.17-2.186-.356-1.328-.193-2.155-.363-2.484-.512-.71-.326-1.064-.915-1.064-1.768 0-.83.316-1.45.95-1.857.312-.17.7-.3 1.166-.39.474-.095 1.02-.144 1.637-.144 2.473 0 3.71.9 3.71 2.702h-1.134c0-1.268-.87-1.902-2.61-1.902-.886 0-1.546.13-1.98.39-.436.25-.654.644-.654 1.178 0 .497.294.853.882 1.068.343.12 1.133.252 2.37.4 1.106.12 1.865.282 2.277.49.786.355 1.18.96 1.18 1.812v.008zm5.192 2.27c-.184.036-.348.062-.493.077-.137.02-.236.022-.297.022-.78 0-1.34-.13-1.683-.39-.343-.266-.515-.73-.515-1.39v-5.617h-1.42v-.834h1.41l.01-2.68h1.088v2.69l1.9-.018v.845l-1.9-.018v5.46c0 .41.092.69.275.846.192.156.527.234 1.008.234.07 0 .145 0 .23-.02.083-.02.21-.04.377-.078l.012.845v.025zm8.9-.28c0 2.463-1.424 3.694-4.27 3.694-1.488 0-2.545-.237-3.17-.712-.542-.408-.874-1.064-.997-1.97l1.12-.018c.13.66.367 1.12.71 1.38.46.348 1.226.522 2.302.522 1.144 0 1.964-.252 2.46-.756.504-.505.756-1.22.756-2.147l-.012-1.447c-.687 1.046-1.85 1.568-3.49 1.568-1.367 0-2.424-.362-3.172-1.09-.343-.355-.606-.785-.79-1.29-.175-.51-.263-1.093-.263-1.745 0-1.305.356-2.303 1.066-2.992.747-.757 1.83-1.135 3.25-1.135.97 0 1.76.197 2.37.59.206.148.55.508 1.03 1.08l.012-1.403h1.087V45.306zm-1.088-4.056c0-.97-.28-1.746-.836-2.324-.55-.586-1.358-.88-2.426-.88-1.06 0-1.885.29-2.473.868-.58.57-.87 1.365-.87 2.38 0 2.188 1.14 3.282 3.423 3.282.496 0 .935-.074 1.316-.222.382-.15.72-.367 1.02-.657.564-.57.846-1.386.846-2.447zm7.42-2.972c-.33-.06-.634-.09-.917-.09-1.792 0-2.688 1.138-2.688 3.415l.012 3.948h-1.088l-.012-8.085 1.088-.02v1.458h.057c.182-.57.472-1 .87-1.29.434-.282 1.082-.423 1.944-.423h.435c.122 0 .22 0 .297.02v1.067zm8.96 3.448h-7.772c0 .927.263 1.683.79 2.27.61.68 1.484 1.022 2.62 1.022 1.61 0 2.618-.7 3.023-2.102h1.178c-.176.8-.592 1.476-1.248 2.024-.374.29-.813.512-1.316.668-.496.164-1.038.244-1.626.244-1.472 0-2.613-.43-3.422-1.29-.748-.77-1.122-1.813-1.122-3.125 0-1.305.39-2.336 1.168-3.092.778-.764 1.873-1.146 3.285-1.146.755 0 1.415.106 1.98.32.565.21 1.038.532 1.42.97.694.785 1.04 1.864 1.04 3.236zm-1.145-.734c0-.78-.31-1.476-.927-2.09-.61-.617-1.4-.925-2.37-.925-.495 0-.942.075-1.338.223-.397.14-.752.36-1.065.656-.48.504-.79 1.216-.927 2.136h6.627zm15.38 1.284c0 2.904-2.012 4.356-6.035 4.356-2.41 0-4.17-.5-5.28-1.497-.908-.82-1.36-2.066-1.36-3.74h1.62c0 2.698 1.674 4.048 5.02 4.048 1.604 0 2.763-.28 3.478-.842.605-.48.907-1.242.907-2.284 0-1.033-.412-1.76-1.237-2.177-.467-.224-1.61-.505-3.423-.843-2.283-.4-3.763-.806-4.44-1.216-.982-.596-1.473-1.602-1.473-3.018 0-1.336.418-2.325 1.252-2.966.898-.713 2.438-1.07 4.62-1.07 3.94 0 5.91 1.52 5.91 4.557h-1.635c0-2.27-1.462-3.407-4.386-3.407-1.465 0-2.538.227-3.216.68-.642.49-.962 1.208-.962 2.152 0 .99.412 1.688 1.237 2.098.44.23 1.73.552 3.876.962 2.017.356 3.378.766 4.084 1.23.962.578 1.443 1.57 1.443 2.978zm16.067 4.316l-.99 1.042-2.392-1.937c-.504.31-1.12.547-1.843.708-.724.16-1.572.24-2.543.24-2.484 0-4.446-.717-5.885-2.15-1.43-1.444-2.145-3.337-2.145-5.68 0-2.395.71-4.297 2.13-5.704 1.422-1.406 3.38-2.11 5.872-2.11 1.283 0 2.425.187 3.424.56 1 .375 1.85.945 2.557 1.71 1.32 1.39 1.98 3.24 1.98 5.546 0 1.292-.202 2.43-.605 3.42-.403.98-1.027 1.813-1.87 2.5l2.31 1.856zm-1.39-7.776c0-1.016-.14-1.92-.425-2.712-.284-.802-.724-1.5-1.32-2.098-1.127-1.22-2.676-1.83-4.647-1.83-1.943 0-3.506.583-4.688 1.75-1.174 1.167-1.76 2.797-1.76 4.89 0 2.013.59 3.625 1.773 4.836 1.192 1.203 2.75 1.804 4.675 1.804.944 0 1.797-.142 2.557-.427.76-.287 1.444-.71 2.05-1.27 1.19-1.212 1.786-2.86 1.786-4.944zm13.656 7.428l-11.068.02V31.407l1.526-.027v13.627H100l-.014 1.243v-.006z"/></svg>