<svg xmlns="http://www.w3.org/2000/svg" width="110" height="80" viewBox="0 0 110 80"><path fill="#383838" fill-rule="evenodd" d="M0 55h30V25H0v30zm27.615-2.385H2.385v-25.23h25.23v25.23zm-17.83-10.81s.443-.004.925-.024c1.734-.073 2.753-.61 3.624-1.51.67-.7 1.043-1.698 1.043-2.913 0-1.216-.487-2.285-1.21-2.913-.756-.66-1.883-1.04-3.457-1.04-1.563 0-3.46.05-3.46.05V45.76h2.535v-3.956zm0-6.44s.538-.018 1.06 0c1.306.05 1.996.987 1.996 2.13 0 1.27-.837 2.112-2.196 2.13-.41.005-.582.017-.86-.01v-4.25zm8.968 6.345c1.042.358 1.316.85 1.316 1.322 0 .468-.35.77-1.188.77-.82 0-2.028-.478-2.54-.796v2.044c.676.376 1.655.733 2.54.76 2.575.08 3.87-1.275 3.87-2.987-.02-1.35-.73-2.232-2.428-2.832-1.096-.395-1.442-.62-1.442-1.05 0-.473.383-.753 1.058-.753.765 0 1.927.504 2.327.73V36.84c-.548-.282-1.377-.628-2.42-.628-2.206 0-3.63 1.294-3.63 3.023-.02 1.07.692 1.834 2.536 2.473z"/></svg>