<svg xmlns="http://www.w3.org/2000/svg" width="110" height="80" viewBox="0 0 110 80"><path fill="#383838" fill-rule="evenodd" d="M13.635 39.356h8.673c2.415 0 4.34-1.965 4.34-4.364v-8.176c0-2.327-1.98-4.074-4.34-4.464-1.49-.248-3.038-.36-4.524-.35-1.484.008-2.9.133-4.15.35-3.672.642-4.34 1.983-4.34 4.464v3.274h8.68v1.09H6.035c-2.522 0-4.73 1.5-5.422 4.356-.798 3.27-.834 5.31 0 8.727.615 2.54 2.09 4.35 4.612 4.35h2.99v-3.92c-.002-2.833 2.478-5.337 5.42-5.337zm21.7-3.82c-.628-2.484-1.814-4.356-4.344-4.356h-3.254v3.812c0 2.957-2.538 5.444-5.427 5.444h-8.674c-2.378 0-4.342 2.01-4.342 4.364v8.178c0 2.327 2.05 3.698 4.342 4.364 2.75.797 5.383.943 8.673 0 2.184-.628 4.34-1.885 4.34-4.364v-3.272h-8.674v-1.093h13.016c2.526 0 3.466-1.738 4.343-4.35.905-2.69.868-5.278 0-8.727zm-12.48 16.352c.9 0 1.63.73 1.63 1.632 0 .906-.73 1.64-1.63 1.64-.9 0-1.628-.734-1.628-1.64 0-.9.73-1.632 1.627-1.632zm-9.767-23.98c-.898 0-1.628-.73-1.628-1.632 0-.906.73-1.644 1.628-1.644.898 0 1.63.738 1.63 1.644 0 .903-.732 1.63-1.63 1.63z"/></svg>