<svg xmlns="http://www.w3.org/2000/svg" width="110" height="80" viewBox="0 0 110 80"><path fill="#383838" fill-rule="evenodd" d="M7.887 56.193c0-2.14-1.648-2.418-3.55-2.418H1.93V61h1.88V59.12l1.712 1.678h2.884L6.12 58.554c-.003 0 1.643-.027 1.767-2.36zm-2.366.83H3.9v-1.29h1.62v1.29zm6.922-3.22h-.408c-1.03-.005-2.456.088-2.456 1.99v5.023h1.93v-1.23h1.87v1.2h1.938V55.52c0-1.652-1.87-1.717-2.874-1.717zm.905 3.794h-1.81v-1.98h1.81v1.98zm3.902-3.79h1.995v6.916H17.25v-6.915zm6.05.063l-1.964.03v6.913h4.803v-1.835H23.3V53.87zm7.362 2.507H29.29v-.672h3.213V53.84s-1.028-.033-2.775-.033c-1.747 0-2.62.643-2.62 2.356 0 1.713 1.684 2.15 2.592 2.15.908 0 1.355.114 1.355.355 0 .243-.05.522-.923.522h-2.9v1.683h2.525c2.09 0 3.12-.123 3.12-2.325 0-2.2-1.498-2.17-2.215-2.17zm-7.83-35.42c-6.237.55-10.542 4.59-13.225 9.483-2.684 4.894-4.242 8.32-5.303 13.46-1.06 5.138-.624 7.828-.624 7.828h16.595s-3.68-8.196-2.745-15.72c.936-7.525 6.987-10.95 10.418-11.318 3.43-.367 5.303 1.714 5.303 1.714l.75-1.102s-4.93-4.895-11.167-4.345zM3.62 43.777L.374 43.53 0 46.59l3.057.367.56-3.18zm2.745-9.36l-2.87-1.102-.935 2.57 2.932.917.873-2.386zm4.866-7.77L9.045 25.24 7.3 27.137l2.245 1.468 1.684-1.957zm6.3-5.017l-1.497-1.65-2.06 1.04 1.498 1.773 2.06-1.163zm6.676-.917l-.25-1.59-2.683-.122.375 1.775 2.558-.062zm7.798 1.65l-2.06-1.467-.06 1.102 1.745.917.374-.55zm-.75 3.61l-1.684-.366v.918l1.685.183v-.734zm-7.048.43l.81 1.468 1.186-.917-.25-.98-1.746.43zm-1.31 3.73l-1.25-1.834-1.31 1.162 1.81 1.956.75-1.284zm-4.555 4.834l2.122 1.775.5-2.02-1.81-1.346-.81 1.59zm-.186 6.117l2.62 1.1-.125-2.017-2.37-1.224-.126 2.14zm4.804 7.832l-1.186-2.388h-2.745l.624 2.204 3.308.184z"/></svg>