<svg xmlns="http://www.w3.org/2000/svg" width="110" height="80" viewBox="0 0 110 80"><path fill="#C9C9C9" d="M20 28.9c-1.8-.9-3.8-1.3-6-1.3-3.7 0-7.1 1.5-9.7 3.9-2.6 2.5 20.4-.3 15.7-2.6z"/><path fill="#C8C8C8" d="M24.9 32.8s-1.1 1.6-4.6 2c-7 .9-19.1 1-19 .9.7-1.6 1.7-3 3-4.3 1.5.5 3.2.6 4.7.3 2.6-.5 4.9-2 7.4-2.6 1.1-.3 2.4-.4 3.5-.3 2 1 3.7 2.4 5 4z"/><path fill="#B9B9B9" d="M27.8 39.4c0 .1-15.8 1.5-23.5 1.1-2.5-.1-4-1.7-4-1.7.2-1 .5-2 1-3 2.2-1.2 4.8-1.9 7.4-1.9 3.2 0 6.3 1.1 9.5 1 2.4-.1 4.8-.8 6.8-2.1 1.4 1.9 2.4 4.1 2.8 6.6z"/><path fill="#A1A1A1" d="M28 41.6v.2s-4.4 1.1-10.1 1C10 42.7 0 41.5 0 41.4c0-.9.1-1.8.3-2.7 1.9 1.2 4.2 1.7 6.4 1.5 1.8-.2 3.4-.8 5.1-1.5 1.6-.7 3.3-1.4 5-1.8 2.5-.6 5.2-.4 7.7.6 1.2.5 2.3 1.1 3.4 1.9 0 .7.1 1.4.1 2.2z"/><path fill="#8F8F8F" d="M12.1 46.1C7.9 46.9.7 46 .7 45.9c-.5-1.4-.7-2.8-.7-4.3v-.1c.6-.5 1.4-1 2.1-1.3 1.8-.9 3.8-1.2 5.8-1 2 .2 3.8.9 5.7 1.7 1.5.7 3 1.4 4.6 1.9.2-.1-1.5 2.4-6.1 3.3z"/><path fill="#7A7A7A" d="M27.5 45.3c-.3.5-3.1 2.2-6.9 2.4-5 .4-10.9-1.1-8.9-1.9 3.1-1.2 5.8-3.4 8.9-4.3 2.4-.7 5-.6 7.4.2-.1 1.3-.2 2.5-.5 3.6z"/><path fill="#797979" d="M26.1 48.5c-2.4 4.2-19.9 5.2-22.5 2.4-1.3-1.4-2.3-3.1-2.9-5 2.2-1.2 4.7-1.8 7.1-1.4 3.1.4 5.9 2.2 9 2.9 2.5.6 5.1.4 7.5-.5 1.1-.4 2.2-.9 3.1-1.6-.3 1.1-.7 2.2-1.3 3.2z"/><path fill="#5C5C5C" d="M26.1 48.5c-2.4 4.2-6.9 7-12.1 7-4.1 0-7.8-1.8-10.4-4.6.4.2.9.3 1.4.5 2.4.6 5 .6 7.4-.1 1.5-.5 3-1.2 4.5-1.7 3-1.1 6.2-1.4 9.2-1.1z"/><path fill="#2D2D2D" d="M65.9 32h3.5v16.4h-3.5V32zM34.5 48.4h3.4v-6.8c0-1.1.3-2.5 1.4-2.5.5 0 1 .1 1.4.5 0 0 1.3-2.9 1.2-2.9-.8-.7-1.6-.9-2.2-.9-1.3 0-2.3.8-2.8 1.9l-.7-1.6h-1.9v12.3zm36.9 0h3.4v-6.8c0-1.1.7-2.4 1.8-2.4s1.2 1.6 1.2 2.3v6.9h3.4v-6.7c0-1.5.8-2.5 1.8-2.5 1.1 0 1.3 1.3 1.3 2.4v6.8h3.4v-7.9c0-1.6-.5-4.7-3.9-4.7-1.6 0-2.5.5-3.3 1.9-.7-1.3-2-1.9-3.3-1.9-1.3 0-2.7.7-3.4 2.1l-.7-1.7h-1.9l.2 12.2zm-25.9-7.6h4.1c-.1-1.6-1.1-2.2-2-2.2-.9-.1-1.9.7-2.1 2.2zm3.2 4.9c1.5 0 2.7-.7 2.7-.7l1 2.7c-.5.3-2.1.9-4 .9-4.4 0-6.2-3-6.2-6.5 0-3.3 2-6.4 5.5-6.4s5.9 2.9 5.2 7.6h-7.4c.2 1.7 1.6 2.4 3.2 2.4zm8.3-1c0 .8 1.3 1.6 2.4 1 1.1-.6 1-1.5 1-2.8-2 0-3.4.8-3.4 1.8zm5 3.7l-.7-1.4c-.3.5-1.5 1.8-3.6 1.8-2.3 0-4.1-1.7-4.1-3.6 0-2 1.4-4.5 6.9-4.5 0-1.3-1.1-1.8-2.3-1.8-.9 0-2.2.4-3.3 1.4l-1-3c.7-.5 2.4-1.6 4.9-1.6 3.7 0 5.2 2.2 5.2 5.9v6.8h-2z"/></svg>