<svg xmlns="http://www.w3.org/2000/svg" width="110" height="80" viewBox="0 0 110 80"><path fill="#383838" fill-rule="evenodd" d="M36.755 65.99H16.81l.01-.012-1.735-1.72-.298.3 1.446 1.432h-.692l.013-.012-1.736-1.72-.298.3 1.444 1.432h-.69l.01-.012-1.736-1.72-.297.3 1.446 1.432h-.69l.01-.012-1.736-1.72-.298.3 1.585 1.57-1.585 1.572.298.3 1.6-1.588h.67l-1.3 1.288.298.3 1.602-1.588h.667L13.52 67.7l.296.3 1.602-1.588h.668l-1.3 1.288.3.3 1.6-1.588h20.07v.86c0 .2.138.29.316.2l2.408-1.208c.18-.09.177-.233-.002-.32l-2.403-1.155c-.18-.087-.32.006-.32.205v.995zm-11.438-5.45c10.96 0 19.843-8.884 19.843-19.843 0-10.96-8.884-19.843-19.843-19.843-10.958 0-19.842 8.884-19.842 19.843 0 10.96 8.884 19.843 19.842 19.843zm.07-6.568c7.305 0 13.226-5.922 13.226-13.227 0-7.304-5.92-13.226-13.226-13.226-7.304 0-13.226 5.92-13.226 13.225s5.923 13.227 13.227 13.227zm0-6.523c3.703 0 6.704-3.003 6.704-6.705s-3-6.704-6.703-6.704c-3.702 0-6.704 3.003-6.704 6.705s3.002 6.704 6.704 6.704zm25.09-19.477l-.564-.063c-.004-.027.008-.05.035-.07.027-.017.045-.035.054-.05.075-.156.11-.326.102-.512-.008-.186-.072-.385-.193-.597-.116-.2-.272-.336-.468-.402s-.376-.052-.54.04c-.096.057-.17.122-.22.195-.053.074-.092.163-.12.27-.026.106-.035.245-.028.416.008.17.03.386.068.645.033.25.046.466.04.645-.005.18-.03.335-.078.467-.047.132-.113.245-.198.337-.084.093-.19.176-.318.25-.14.08-.298.135-.472.165-.173.028-.35.02-.525-.03-.176-.047-.35-.137-.518-.268-.17-.13-.324-.318-.463-.56-.307-.533-.377-1.064-.212-1.592l.63-.002c0 .03-.015.053-.046.07-.03.018-.05.04-.06.062-.07.175-.1.373-.086.594.012.22.088.452.228.695.07.122.156.224.258.303.1.08.207.137.318.173.112.035.227.048.347.038.12-.01.233-.046.34-.107.083-.048.15-.106.202-.173.05-.068.088-.152.11-.253.02-.1.026-.227.017-.382-.01-.155-.033-.355-.067-.6-.04-.262-.06-.49-.055-.683.003-.193.024-.358.062-.497.037-.14.096-.256.176-.35.08-.097.18-.18.298-.247.15-.085.31-.134.48-.146.168-.012.334.01.498.065.163.054.317.143.46.266.144.122.267.272.368.448.128.225.205.462.228.712.024.25-.006.493-.088.727zM46.03 20.82l1.476 1.595-.325.3-.496-.537-1.99 1.84c-.227.21-.438.365-.63.463-.193.1-.383.15-.57.15-.188 0-.353-.035-.496-.103-.142-.07-.273-.166-.39-.293-.307-.332-.43-.725-.374-1.18l.562-.03c0 .02-.012.043-.035.068-.02.024-.035.05-.04.074l-.004.13c-.005.03-.003.073.008.126.01.052.027.108.05.166.023.058.05.116.077.173.03.058.064.11.106.153.172.187.363.263.573.227.21-.035.477-.202.802-.503l1.996-1.845-.62-.67.323-.3zm-4.136-1.736c.065.05.12.112.16.186.043.074.07.15.086.23.015.078.016.155.002.232-.014.076-.043.144-.088.203-.05.063-.108.112-.177.148-.07.035-.143.056-.22.06-.078.007-.158-.002-.238-.026-.082-.023-.158-.063-.23-.118-.07-.054-.125-.115-.167-.185-.042-.07-.07-.14-.084-.217-.014-.076-.012-.152.005-.227.018-.074.052-.144.102-.21.048-.062.108-.11.178-.146.07-.035.144-.055.222-.06.078-.006.156.002.235.024.078.022.15.058.212.106zm-4.282-4.346l2.567 1.372-.224.417-2.123-1.135-.737 1.377 1.754.937-.237.443-1.754-.938-.824 1.54 2.104 1.124-.223.416-2.547-1.36 2.242-4.194zm-6.996-2.267l1.363.33c.542.133.903.35 1.084.65.18.3.223.646.127 1.04-.03.135-.086.26-.162.38-.076.12-.168.228-.277.322-.108.094-.23.17-.367.224-.137.056-.28.084-.432.084l.567 2.317-.578-.14-.528-2.285-.888-.216-.495 2.037-.534-.13 1.12-4.612zm.414.62l-.395 1.627.892.217c.33.08.586.065.768-.045.183-.11.304-.286.363-.528.03-.118.035-.232.02-.34-.015-.11-.05-.208-.103-.3-.053-.09-.133-.173-.24-.246-.108-.073-.245-.13-.412-.17l-.893-.217zm-7.234-1.07l2.37-.02.004.442-.937.008.034 3.878.983-.008.004.434-2.47.022-.002-.442.937-.008-.036-3.87-.884.007-.004-.442zM16.3 13.408l.582-.157.012.012c.005.02.002.052-.01.094-.013.043-.016.093-.01.15l.75 2.777c.07.256.147.447.234.574.087.126.187.223.3.29.112.067.235.107.367.118.132.012.268.004.408-.023.134-.047.256-.107.366-.18.108-.07.196-.166.26-.287.065-.12.104-.258.117-.414.013-.156-.016-.367-.088-.632l-.81-2.99.493-.135.806 2.98c.08.298.115.56.104.784-.01.223-.066.423-.166.597-.1.175-.23.32-.395.438-.162.118-.357.207-.582.268-.22.06-.43.08-.63.06-.2-.02-.383-.077-.55-.175-.165-.097-.31-.232-.43-.403-.124-.172-.23-.42-.317-.744l-.812-3zm-2.587 3.59c.345.61.514 1.15.51 1.62-.006.47-.186.864-.538 1.18.092.14.197.24.315.294.12.056.272.03.457-.073.022-.013.057-.035.103-.067.046-.032.097-.065.153-.1.056-.035.11-.07.157-.102.048-.033.083-.056.106-.068l.242.458-.26.146c-.216.123-.404.215-.565.277-.16.062-.31.08-.445.05-.135-.028-.256-.09-.362-.184-.106-.095-.208-.228-.306-.4-.18.072-.374.105-.583.098-.21-.008-.424-.063-.645-.165-.22-.103-.44-.26-.653-.467-.215-.21-.418-.48-.608-.817-.235-.416-.382-.788-.443-1.116-.06-.327-.062-.612-.007-.854.056-.24.15-.447.283-.615.132-.167.276-.295.43-.383.19-.107.396-.17.615-.19.22-.02.452.018.695.11.242.095.474.25.694.47.22.22.438.52.653.9zm-2.898-.138c-.082.39.042.877.372 1.46.15.266.31.494.48.684.168.19.342.338.52.44.177.105.36.163.544.175.186.01.358-.028.517-.118.11-.063.21-.155.295-.276.086-.122.142-.273.168-.454.026-.182.01-.39-.046-.623-.056-.234-.167-.497-.332-.79-.21-.37-.412-.655-.607-.855-.194-.2-.383-.335-.566-.406-.185-.072-.348-.1-.492-.087-.144.015-.268.052-.375.112-.132.075-.237.178-.315.31-.077.13-.13.273-.163.424zM4.28 21.022l2.103-2.013.327.34-1.74 1.666 1.08 1.13 1.437-1.377.348.362L6.4 22.508l1.205 1.26 1.723-1.65.327.342-2.086 1.998-3.29-3.435zM0 26.915l.737-1.192c.294-.476.61-.753.953-.83.34-.08.684-.013 1.03.2.117.073.22.164.31.274.09.11.164.23.22.363.055.133.088.273.098.42.01.147-.007.292-.054.436l2.378.18-.312.506-2.335-.207-.48.778 1.782 1.1-.29.468L0 26.916zm.716-.202l1.426.88.483-.78c.178-.288.243-.536.195-.744-.047-.21-.177-.38-.39-.51-.102-.064-.208-.105-.316-.124-.107-.02-.213-.017-.316.005-.103.023-.207.074-.31.153-.102.08-.2.193-.29.34l-.482.78z"/></svg>