<svg xmlns="http://www.w3.org/2000/svg" width="110" height="80" viewBox="0 0 110 80"><path fill="#383838" fill-rule="evenodd" d="M12.85 43.68h-2.32L10 47.112H7l.53-3.434H4v-2.944h3.985l.454-2.944H5V34.85h3.894l.606-3.925h3l-.606 3.924h3.5L16 30.924h3l-.606 3.924H21.5v2.942h-3.62c.058.318.088.66.088 1.022 0 .713-.09 1.354-.258 1.922h2.79v2.943h-4.348l2.015 3.433h-3l-1.958-3.337-.132-.01c-.1-.01-.18-.023-.238-.033l.01-.054zm1.324-2.944h-3.19l.455-2.944h2.643l.01.037.047-.01c.182-.03.377-.03.512.008.206.06.316.216.316.986 0 1.22-.3 1.71-.777 1.915-.005 0-.01.004-.016.006zM0 32.998C0 29.685 2.685 27 5.998 27h14.004C23.315 27 26 29.685 26 32.998v14.004C26 50.315 23.315 53 20.002 53H5.998C2.685 53 0 50.315 0 47.002V32.998zm33.108 8.434v3.046H31.2v-7.833h3.09c.91 0 1.615.234 2.12.703.507.47.76 1.034.76 1.696 0 .454-.138.896-.413 1.328-.275.43-.725.736-1.35.915l1.92 3.19h-2.233l-1.763-3.045h-.222zm0-3.336v1.885h1.183c.29 0 .52-.084.687-.255.168-.17.25-.396.25-.675 0-.28-.084-.508-.255-.687-.17-.178-.398-.267-.68-.267h-1.184zm10.958-1.473v1.45h-2.834v1.685h2.5v1.45h-2.5v1.82h2.834v1.45h-4.742v-7.855h4.742zm1.774 1.473v-1.45h6.182v1.45H49.88v6.382h-1.908v-6.382H45.84zm9.898 3.336v3.046H53.83v-7.833h3.09c.91 0 1.615.234 2.12.703.507.47.76 1.034.76 1.696 0 .454-.138.896-.413 1.328-.275.43-.725.736-1.35.915l1.92 3.19h-2.233l-1.763-3.045h-.222zm0-3.336v1.885h1.183c.29 0 .52-.084.687-.255.168-.17.25-.396.25-.675 0-.28-.084-.508-.255-.687-.17-.178-.398-.267-.68-.267h-1.184zm5.758 2.443c0-1.16.39-2.12 1.166-2.874.778-.755 1.73-1.133 2.857-1.133 1.126 0 2.074.378 2.844 1.133s1.155 1.713 1.155 2.873c0 1.16-.388 2.12-1.16 2.878-.775.76-1.723 1.14-2.847 1.14-1.123 0-2.073-.38-2.85-1.14-.778-.758-1.167-1.718-1.167-2.88zm6.082 0c0-.685-.188-1.232-.564-1.64-.376-.41-.878-.615-1.506-.615-.63 0-1.13.205-1.507.614-.374.408-.562.955-.562 1.64 0 .684.188 1.23.563 1.64.377.41.88.613 1.508.613s1.13-.204 1.506-.613c.376-.41.564-.956.564-1.64zm3.838 3.938v-7.833h5.1v1.45h-3.192v1.686h2.388v1.45h-2.388v3.248h-1.908zm7.086 0v-7.833h1.908v7.833h-1.908zm3.716-6.382v-1.45H88.4v1.45h-2.142v6.382h-1.91v-6.382h-2.13z"/></svg>