<svg xmlns="http://www.w3.org/2000/svg" width="110" height="80" viewBox="0 0 110 80"><path fill="#383838" fill-rule="evenodd" d="M18.856 34.188c-.23.354-.474.71-.733 1.065l.805-.776-.072-.29zm.29 1.163l-8.294 7.986 11.262 3.95-2.97-11.935zM15.898 52.57l5.634-4.3.278-.262-11.036-3.87 4.305 8.92c.273-.155.546-.318.82-.488zM2.002 45.275l1.455-.39c-.67-.044-1.27-.204-1.786-.486l.33.875zm-.757.203L.3 42.973l-.01-.02C.084 44.41-.005 45.822 0 47.13l1.316-1.468-.07-.182zm17.782-11.554l.118.078.186-.574c-.098.164-.2.33-.304.496zm9.014 6.746l-8.067-5.206 2.872 11.546.1-.1c2.005-2.014 3.717-4.134 5.095-6.24zm-6.166-15.095l.013-.037.22.18 2.67-1.682c-1.38-.07-2.924-.04-4.544.122.045.04.092.08.134.122.163.164.304.342.43.534l1.076.76zm-.252.776l-.302-.213c.055.27.085.556.095.853l.207-.64zM10.827 42.28c-.654.434-1.304.817-1.942 1.148l1.043-.282.21-.203.024-.07.016.03.65-.622zm3.837-4.177c4.624-4.648 6.988-10.222 5.548-12.745l-1.438-1.017c-3.303.495-6.8 1.58-9.79 3.556-.8.64-1.595 1.35-2.363 2.122-1.46 1.468-2.693 3.03-3.655 4.558-1.102 2.042-1.848 4.215-2.312 6.35-.002.42.046.81.143 1.16l.207.545c.122.244.274.464.462.655 2.18 2.19 8.225-.184 13.2-5.184zM5.83 55.355l3.942-11.36L2.28 46.01l3.55 9.344zm22.632-15.342c1.21-1.947 2.132-3.87 2.73-5.678l-10.61.592 7.88 5.086zm3.034-6.688c.57-2.103.666-4.012.24-5.568L23.38 26.75l8.116 6.574zM.03 48.264c.064 1.424.237 2.69.476 3.71l.697-5.02-1.173 1.31zM19.906 34.18l10.672-.595-8.3-6.727-2.372 7.323zm3.315-8.24l8.225.993c-.256-.583-.597-1.105-1.037-1.548-.535-.538-2.138-1.02-4.328-1.248l-2.86 1.804zm7.685 25.31l.27-14.794c-.577 1.35-1.306 2.74-2.178 4.134l1.908 10.66zM1.057 53.66c.15.326.31.582.477.748.93.935 2.2 1.444 3.7 1.57L1.94 47.3l-.883 6.36zm9.223-8.756L6.43 56c2.333-.1 5.095-.988 7.972-2.558l-4.122-8.538zm11.742 3.97c-1.804 1.65-3.67 3.062-5.525 4.22l-.477.364 14.018 1.264-7.387-6.328-.628.48zm1.476-1.41c-.113.113-.23.223-.342.335l7.49 6.416-2.27-12.672c-1.347 2.008-2.98 4.013-4.878 5.92zm-8.655 6.893l-.113-.234c-1.41.76-2.8 1.364-4.132 1.8l15.15-.802-10.647-.96-.257.197z"/></svg>