<?xml version="1.0" encoding="utf-8"?>
<!-- Generator: Adobe Illustrator 18.0.0, SVG Export Plug-In . SVG Version: 6.00 Build 0)  -->
<!DOCTYPE svg PUBLIC "-//W3C//DTD SVG 1.1//EN" "http://www.w3.org/Graphics/SVG/1.1/DTD/svg11.dtd">
<svg version="1.1" id="Layer_1" xmlns="http://www.w3.org/2000/svg" xmlns:xlink="http://www.w3.org/1999/xlink" x="0px" y="0px"
	 width="110px" height="80px" viewBox="0 0 110 80" enable-background="new 0 0 110 80" xml:space="preserve">
<title>rx_java</title>
<path fill="#383838" d="M0,47.8V32h7c0.7,0,1.4,0.2,2,0.5s1.1,0.7,1.6,1.2c0.4,0.5,0.8,1.1,1,1.7c0.3,0.6,0.4,1.3,0.4,1.9
	c0,1-0.3,2-0.8,2.8c-0.5,0.8-1.2,1.4-2.1,1.8l3.6,5.9H9.3l-3.2-5.3h-3v5.3H0z M3.1,39.8h3.8c0.3,0,0.5-0.1,0.8-0.2
	c0.2-0.1,0.5-0.3,0.6-0.5c0.2-0.2,0.3-0.5,0.4-0.8c0.1-0.3,0.2-0.6,0.2-1c0-0.4-0.1-0.7-0.2-1c-0.1-0.3-0.3-0.6-0.5-0.8
	S7.8,35,7.6,34.9c-0.3-0.1-0.5-0.2-0.8-0.2H3.1L3.1,39.8L3.1,39.8z M16.3,36.1l2.5,3.6l0.2,0.4l0.2-0.4l2.5-3.6h3.1L20.6,42l4.2,5.8
	h-3.1l-2.6-3.6L19,43.8l-0.2,0.4l-2.6,3.6h-3.1l4.2-5.8l-4.1-5.8L16.3,36.1L16.3,36.1z M25.7,44.5c0.2,0.1,0.6,0.3,1,0.5
	c0.5,0.2,1,0.3,1.7,0.3c0.6,0,1.1-0.1,1.5-0.3c0.4-0.2,0.7-0.5,0.8-1c0.2-0.4,0.3-1,0.4-1.7c0.1-0.7,0.1-1.4,0.1-2.3v-8h3.1v8
	c0,1.2-0.1,2.3-0.2,3.3c-0.1,1-0.4,1.8-0.8,2.5c-0.4,0.7-1,1.2-1.8,1.6c-0.8,0.4-1.8,0.6-3.1,0.6c-1.3,0-2.5-0.3-3.4-1L25.7,44.5
	L25.7,44.5z M40.2,48c-0.6,0-1.1-0.1-1.6-0.3c-0.5-0.2-0.9-0.4-1.3-0.8c-0.4-0.3-0.6-0.7-0.8-1.2c-0.2-0.4-0.3-0.9-0.3-1.5
	c0-0.5,0.1-1.1,0.4-1.5s0.6-0.9,1-1.2c0.4-0.3,1-0.6,1.6-0.8c0.6-0.2,1.3-0.3,2-0.3c0.5,0,1,0,1.5,0.1c0.5,0.1,0.9,0.2,1.3,0.4v-0.7
	c0-0.8-0.2-1.4-0.7-1.8c-0.4-0.4-1.1-0.6-1.9-0.6c-0.6,0-1.2,0.1-1.8,0.3c-0.6,0.2-1.2,0.5-1.8,1l-0.9-1.9c1.5-1,3.1-1.5,4.8-1.5
	c1.7,0,3,0.4,3.9,1.2c0.9,0.8,1.4,2,1.4,3.6v3.6c0,0.3,0.1,0.5,0.2,0.7c0.1,0.1,0.3,0.2,0.5,0.2v2.5c-0.5,0.1-0.9,0.2-1.3,0.2
	c-0.6,0-1-0.1-1.3-0.4c-0.3-0.3-0.5-0.6-0.6-1l-0.1-0.6c-0.5,0.7-1.1,1.2-1.9,1.6S41,48,40.2,48L40.2,48z M41,45.8
	c0.5,0,1-0.1,1.4-0.3c0.5-0.2,0.8-0.4,1.1-0.7c0.3-0.3,0.5-0.5,0.5-0.8v-1.3c-0.4-0.1-0.7-0.2-1.2-0.3c-0.4-0.1-0.8-0.1-1.2-0.1
	c-0.8,0-1.4,0.2-1.9,0.5C39.3,43.1,39,43.5,39,44c0,0.5,0.2,0.9,0.6,1.3C40,45.6,40.4,45.8,41,45.8L41,45.8z M52.6,47.8l-4.3-11.6
	h3.1l2.9,9.2l3-9.2H60l-4.3,11.6C55.8,47.8,52.6,47.8,52.6,47.8z M64.5,48c-0.6,0-1.1-0.1-1.6-0.3c-0.5-0.2-0.9-0.4-1.3-0.8
	c-0.4-0.3-0.6-0.7-0.8-1.2c-0.2-0.4-0.3-0.9-0.3-1.5c0-0.5,0.1-1.1,0.4-1.5c0.2-0.5,0.6-0.9,1-1.2c0.4-0.3,1-0.6,1.6-0.8
	c0.6-0.2,1.3-0.3,2-0.3c0.5,0,1,0,1.5,0.1c0.5,0.1,0.9,0.2,1.3,0.4v-0.7c0-0.8-0.2-1.4-0.7-1.8c-0.4-0.4-1.1-0.6-1.9-0.6
	c-0.6,0-1.2,0.1-1.8,0.3c-0.6,0.2-1.2,0.5-1.8,1l-0.9-1.9c1.5-1,3.1-1.5,4.8-1.5c1.7,0,3,0.4,3.9,1.2c0.9,0.8,1.4,2,1.4,3.6v3.6
	c0,0.3,0.1,0.5,0.2,0.7c0.1,0.1,0.3,0.2,0.5,0.2v2.5c-0.5,0.1-0.9,0.2-1.3,0.2c-0.6,0-1-0.1-1.3-0.4c-0.3-0.3-0.5-0.6-0.6-1
	l-0.1-0.6c-0.5,0.7-1.1,1.2-1.9,1.6C66.1,47.8,65.3,48,64.5,48L64.5,48z M65.3,45.8c0.5,0,1-0.1,1.4-0.3c0.4-0.2,0.8-0.4,1.1-0.7
	c0.3-0.3,0.5-0.5,0.5-0.8v-1.3c-0.4-0.1-0.7-0.2-1.2-0.3c-0.4-0.1-0.8-0.1-1.2-0.1c-0.8,0-1.4,0.2-1.9,0.5c-0.5,0.3-0.7,0.8-0.7,1.3
	c0,0.5,0.2,0.9,0.6,1.3C64.3,45.6,64.8,45.8,65.3,45.8L65.3,45.8z"/>
</svg>
