<svg xmlns="http://www.w3.org/2000/svg" width="110" height="80" viewBox="0 0 110 80"><path fill="#383838" fill-rule="evenodd" d="M0 48.725V31h7.84c.815 0 1.568.17 2.258.512.69.34 1.286.79 1.785 1.348.5.557.89 1.19 1.174 1.897.283.708.424 1.42.424 2.135 0 1.148-.286 2.193-.86 3.133-.574.94-1.352 1.62-2.334 2.035l4.044 6.665h-3.87l-3.62-5.94H3.445v5.94H0zm3.445-8.962h4.32c.315 0 .61-.075.885-.225.275-.15.512-.354.712-.612.2-.257.358-.56.474-.91.117-.35.175-.725.175-1.124 0-.416-.065-.8-.2-1.15-.132-.348-.31-.652-.535-.91-.225-.258-.483-.458-.774-.6-.29-.14-.586-.21-.886-.21h-4.17v5.74zm14.905-4.12l2.82 4.095.2.45.25-.45 2.796-4.094h3.445l-4.667 6.565 4.743 6.515H24.49l-2.895-4.07-.225-.423-.2.424-2.87 4.07h-3.446l4.72-6.517-4.645-6.566h3.42zm10.61 9.462c.233.167.624.35 1.173.55.55.2 1.182.3 1.898.3.7 0 1.257-.12 1.673-.363.416-.24.733-.61.95-1.11.215-.5.357-1.12.423-1.86.067-.74.1-1.61.1-2.61V31h3.445v9.012c0 1.35-.07 2.576-.21 3.683-.142 1.107-.442 2.05-.9 2.833-.457.783-1.12 1.39-1.984 1.823-.866.434-2.03.65-3.495.65-1.497 0-2.78-.366-3.844-1.098l.774-2.797zm16.227 3.87c-.632 0-1.223-.104-1.772-.312-.55-.208-1.024-.5-1.423-.874-.4-.375-.712-.812-.937-1.31-.224-.5-.337-1.05-.337-1.65 0-.615.138-1.185.412-1.71.275-.524.658-.97 1.15-1.335.49-.366 1.076-.653 1.76-.86.68-.21 1.43-.313 2.246-.313.582 0 1.152.05 1.71.15.557.1 1.053.24 1.485.424v-.75c0-.865-.244-1.53-.735-1.996-.49-.466-1.22-.7-2.185-.7-.7 0-1.38.125-2.047.375-.666.25-1.348.616-2.047 1.1l-1.024-2.123c1.68-1.116 3.496-1.673 5.443-1.673 1.88 0 3.34.46 4.38 1.384 1.042.924 1.562 2.26 1.562 4.007v4.07c0 .35.062.6.187.75.125.15.33.233.612.25v2.845c-.566.117-1.057.175-1.473.175-.633 0-1.12-.14-1.46-.424-.342-.283-.554-.658-.638-1.124l-.074-.724c-.582.766-1.29 1.348-2.12 1.748-.834.4-1.724.6-2.673.6zm.95-2.447c.565 0 1.102-.1 1.61-.3.507-.2.902-.465 1.185-.798.366-.283.55-.6.55-.95v-1.497c-.4-.15-.833-.27-1.3-.362-.465-.09-.914-.136-1.347-.136-.866 0-1.573.196-2.122.587-.55.392-.824.887-.824 1.486 0 .566.215 1.036.648 1.41.433.375.965.562 1.598.562zm12.98 2.197L54.3 35.645h3.445l3.32 10.36 3.346-10.36h3.146l-4.818 13.08h-3.62zm13.432.25c-.633 0-1.224-.104-1.773-.312-.55-.208-1.024-.5-1.423-.874-.4-.375-.712-.812-.937-1.31-.224-.5-.337-1.05-.337-1.65 0-.615.138-1.185.412-1.71.275-.524.658-.97 1.15-1.335.49-.366 1.076-.653 1.76-.86.68-.21 1.43-.313 2.246-.313.582 0 1.152.05 1.71.15.557.1 1.053.24 1.485.424v-.75c0-.865-.245-1.53-.736-1.996-.49-.466-1.22-.7-2.185-.7-.7 0-1.38.125-2.047.375-.666.25-1.348.616-2.047 1.1l-1.024-2.123c1.68-1.116 3.496-1.673 5.443-1.673 1.88 0 3.34.46 4.38 1.384 1.042.924 1.562 2.26 1.562 4.007v4.07c0 .35.06.6.186.75.125.15.33.233.612.25v2.845c-.566.117-1.057.175-1.473.175-.633 0-1.12-.14-1.46-.424-.342-.283-.554-.658-.638-1.124l-.074-.724c-.583.766-1.29 1.348-2.122 1.748-.832.4-1.722.6-2.67.6zm.948-2.447c.566 0 1.103-.1 1.61-.3.508-.2.903-.465 1.186-.798.366-.283.55-.6.55-.95v-1.497c-.4-.15-.833-.27-1.3-.362-.465-.09-.914-.136-1.347-.136-.866 0-1.573.196-2.122.587-.55.392-.824.887-.824 1.486 0 .566.217 1.036.65 1.41.433.375.965.562 1.598.562z"/></svg>