<svg xmlns="http://www.w3.org/2000/svg" width="110" height="80" viewBox="0 0 110 80"><path fill="#383838" fill-rule="evenodd" d="M41.218 42.674c-1.67.01-3.122.412-4.337 1.007-.445-.884-.89-1.672-.97-2.25-.087-.674-.192-1.086-.087-1.892.105-.806.577-1.953.568-2.04-.007-.088-.104-.5-1.065-.51-.962-.008-1.793.185-1.89.44-.095.253-.28.83-.4 1.427-.167.876-1.925 4.003-2.93 5.64-.323-.64-.603-1.2-.664-1.646-.087-.675-.192-1.087-.087-1.893.105-.806.577-1.953.568-2.04-.007-.088-.104-.5-1.065-.51-.962-.008-1.793.185-1.89.44-.095.253-.2.85-.4 1.427-.202.578-2.536 5.798-3.15 7.147-.313.693-.584 1.245-.777 1.622 0 0-.008.026-.035.07-.166.324-.262.5-.262.5v.008c-.13.236-.27.455-.34.455-.052 0-.15-.63.018-1.49.35-1.812 1.18-4.632 1.17-4.73 0-.05.16-.542-.54-.796-.683-.255-.928.166-.99.166-.06 0-.104.15-.104.15s.76-3.172-1.45-3.172c-1.383 0-3.29 1.515-4.233 2.882-.593.324-1.86 1.016-3.216 1.76-.516.29-1.05.578-1.548.85-.035-.035-.07-.08-.105-.114-2.674-2.864-7.623-4.888-7.413-8.733.08-1.402.56-5.08 9.504-9.548 7.363-3.635 13.22-2.628 14.235-.395 1.45 3.19-3.14 9.11-10.746 9.968-2.903.324-4.425-.797-4.81-1.217-.402-.438-.463-.464-.61-.377-.246.133-.09.527 0 .754.226.596 1.16 1.647 2.744 2.164 1.4.455 4.8.71 8.918-.885 4.608-1.787 8.21-6.753 7.152-10.914-1.058-4.223-8.053-5.615-14.67-3.26-3.936 1.402-8.202 3.61-11.27 6.483C.386 33.04-.19 36.008.045 37.253.894 41.666 6.97 44.54 9.4 46.667c-.12.07-.235.13-.33.184-1.216.604-5.85 3.03-7.004 5.597-1.312 2.907.21 4.992 1.215 5.272 3.122.867 6.33-.692 8.053-3.267 1.723-2.575 1.513-5.92.717-7.454-.008-.017-.017-.034-.035-.052l.953-.56c.62-.368 1.233-.71 1.758-.99-.297.815-.516 1.787-.62 3.188-.132 1.647.54 3.784 1.424 4.625.394.37.857.378 1.154.378 1.032 0 1.495-.86 2.01-1.875.63-1.244 1.2-2.69 1.2-2.69s-.71 3.908 1.214 3.908c.7 0 1.408-.91 1.723-1.374v.008s.018-.026.053-.087l.114-.184v-.018c.28-.49.91-1.603 1.845-3.45 1.206-2.383 2.37-5.36 2.37-5.36s.104.726.462 1.934c.21.71.647 1.488.997 2.242-.28.394-.454.613-.454.613l.01.01c-.228.296-.473.62-.744.936-.953 1.14-2.09 2.445-2.247 2.82-.184.448-.14.772.21 1.035.253.193.708.22 1.17.193.858-.062 1.462-.272 1.76-.403.462-.167 1.004-.42 1.51-.797.937-.692 1.505-1.682 1.453-2.987-.026-.718-.262-1.436-.55-2.11.086-.123.165-.245.253-.368 1.478-2.164 2.623-4.537 2.623-4.537s.105.727.464 1.935c.175.614.533 1.28.848 1.927-1.39 1.13-2.247 2.444-2.553 3.303-.55 1.594-.122 2.312.69 2.478.368.08.892-.096 1.277-.262.49-.158 1.066-.43 1.617-.832.935-.692 1.836-1.656 1.783-2.96-.026-.597-.183-1.184-.402-1.753 1.18-.49 2.702-.76 4.643-.533 4.162.49 4.984 3.092 4.827 4.187-.157 1.095-1.032 1.69-1.32 1.874-.29.184-.385.245-.36.377.036.192.176.184.42.15.342-.063 2.187-.886 2.265-2.9.132-2.576-2.317-5.387-6.644-5.36zM9.113 53.518c-1.382 1.506-3.305 2.076-4.136 1.594-.892-.517-.542-2.742 1.154-4.336 1.033-.972 2.362-1.874 3.245-2.426.2-.123.498-.298.857-.517.06-.035.096-.053.096-.053l.21-.13c.62 2.276.026 4.282-1.425 5.868zm10.054-6.85c-.48 1.174-1.486 4.178-2.098 4.012-.526-.14-.85-2.418-.106-4.67.376-1.13 1.172-2.478 1.635-3.003.75-.84 1.582-1.12 1.783-.78.253.447-.918 3.705-1.216 4.44zm8.298 3.977c-.202.105-.394.175-.48.122-.062-.035.086-.175.086-.175s1.042-1.12 1.453-1.63c.236-.297.515-.647.813-1.04v.112c0 1.34-1.294 2.243-1.87 2.61zm6.4-1.463c-.15-.105-.123-.456.376-1.55.193-.43.648-1.148 1.426-1.84.087.28.148.552.14.806-.01 1.69-1.216 2.32-1.94 2.584z"/></svg>