<svg xmlns="http://www.w3.org/2000/svg" width="110" height="80" viewBox="0 0 110 80"><path fill="#383838" fill-rule="evenodd" d="M42.985 30.398c0-2.467-.002-4.93.002-7.396C43.5 23 44.017 23 44.534 23c.008 2.33 0 4.656.004 6.984 1.156-.31 2.31-.628 3.466-.938.002 1.3.002 2.598 0 3.897-1.154.316-2.313.627-3.466.945 0 3.175-.002 6.35 0 9.524 1.156-.31 2.31-.628 3.466-.938.002 1.298 0 2.597 0 3.896-1.154.317-2.312.627-3.466.944-.004 2.298 0 4.597-.002 6.895-.516 0-1.032 0-1.55-.003-.002-2.166.002-4.333 0-6.498-2.304.626-4.604 1.252-6.908 1.886-.002 2.468.002 4.935-.002 7.403h-1.56c-.004-2.33.002-4.66-.002-6.987-1.152.31-2.3.628-3.452.937-.002-1.306-.002-2.61 0-3.92 1.15-.316 2.302-.623 3.452-.94 0-3.167.004-6.335 0-9.502-1.152.31-2.3.627-3.452.938-.002-1.3-.002-2.6 0-3.897 1.15-.318 2.302-.625 3.452-.942.002-2.3 0-4.603.002-6.903.52 0 1.04 0 1.562.003.002 2.167-.002 4.337 0 6.506 2.305-.638 4.605-1.264 6.907-1.896zm-6.907 5.787c-.004 3.168-.002 6.338-.002 9.506 2.306-.627 4.606-1.256 6.908-1.885 0-3.168.002-6.335-.002-9.505-2.3.626-4.6 1.26-6.904 1.885zm-28.04-11.33c2.738-1.353 5.878-1.724 8.887-1.387 2.86.325 5.654 1.604 7.614 3.767 1.422 1.54 2.354 3.48 2.943 5.488-1.37.33-2.738.657-4.11.983-.723-2.354-2.103-4.666-4.35-5.8-2.496-1.246-5.494-1.14-8.1-.292-2.88.958-4.89 3.598-5.77 6.448-1.015 3.27-.983 6.795-.403 10.145.464 2.7 1.78 5.327 4.03 6.935 2.46 1.827 5.773 2.146 8.675 1.4 2.222-.57 4.088-2.195 5.125-4.25.59-1.11.977-2.32 1.27-3.544 1.393.36 2.786.708 4.177 1.08-.773 2.974-2.185 5.904-4.597 7.86-2.49 2.07-5.775 2.96-8.968 2.856-3.585-.035-7.39-1.043-9.924-3.756-2.542-2.786-3.96-6.493-4.384-10.23C-.2 39.053.002 35.4 1.334 32.11c1.256-3.137 3.698-5.765 6.704-7.252z"/></svg>