<svg xmlns="http://www.w3.org/2000/svg" width="110" height="80" viewBox="0 0 110 80"><path fill="#383838" fill-rule="evenodd" d="M23.57 52.063c-3.682 2.126-8.742 2.344-13.834.162C5.613 50.47 2.193 47.4 0 43.893c1.053.877 2.28 1.58 3.596 2.192 5.258 2.465 10.515 2.296 14.215.007 0-.003-.003-.004-.005-.007C12.543 42.05 8.07 36.788 4.737 32.49c-.702-.7-1.23-1.578-1.755-2.368 4.035 3.684 10.438 8.333 12.718 9.65-4.824-5.09-9.122-11.404-8.947-11.23 7.63 7.72 14.736 12.106 14.736 12.106.234.132.416.243.562.34.154-.39.288-.796.402-1.217C23.682 35.3 22.28 30.21 19.21 26c7.103 4.298 11.314 12.367 9.56 19.12-.047.183-.097.363-.15.54l.06.075c3.51 4.386 2.545 9.035 2.106 8.158-1.903-3.725-5.426-2.586-7.217-1.83zm17.137-8.05c.05.606.187 1.12.407 1.543.22.422.505.766.852 1.03.347.266.748.46 1.202.578.454.12.94.18 1.457.18.606 0 1.13-.076 1.572-.227.44-.15.8-.356 1.078-.615.278-.26.483-.558.616-.9.133-.34.2-.7.2-1.078 0-.53-.12-.96-.36-1.287-.24-.328-.552-.596-.937-.805-.385-.208-.827-.375-1.325-.5-.5-.127-1.01-.25-1.533-.37-.524-.12-1.035-.262-1.534-.426-.497-.164-.94-.385-1.323-.663-.385-.277-.698-.634-.937-1.07-.24-.434-.36-.986-.36-1.655 0-.467.098-.92.293-1.363.196-.442.486-.833.87-1.174.386-.34.87-.61 1.45-.812.58-.202 1.248-.303 2.005-.303.77 0 1.442.107 2.016.32.574.216 1.05.51 1.43.882.378.372.662.804.85 1.296.19.492.285 1.016.285 1.57h-1.23c0-.516-.093-.964-.276-1.343-.183-.378-.432-.687-.748-.927-.315-.24-.675-.417-1.078-.53-.404-.114-.82-.17-1.25-.17-.656 0-1.208.09-1.656.274-.448.183-.804.42-1.07.71-.264.29-.447.612-.548.965-.1.353-.12.707-.057 1.06.076.442.252.795.53 1.06s.618.483 1.022.653c.403.17.848.31 1.334.416.485.11.98.222 1.485.342.504.12.993.262 1.466.426.473.164.893.385 1.26.662.365.278.658.635.88 1.07.22.435.33.98.33 1.637 0 1.262-.435 2.24-1.306 2.934-.87.695-2.094 1.042-3.672 1.042-.706 0-1.362-.09-1.968-.274-.606-.183-1.13-.46-1.57-.833-.443-.373-.787-.833-1.033-1.382-.246-.55-.37-1.196-.37-1.94h1.25zm19.155 2.555l2.575-8.29h1.154l-3.18 9.804H59.2l-2.14-8.233h-.037l-2.176 8.232h-1.363l-2.99-9.804h1.135l2.535 8.366 2.27-8.366h1.27l2.157 8.29zm5.546 1.514v-9.804h1.136v9.804h-1.136zM65.35 36.14v-1.686h1.25v1.685h-1.25zm3.106 3.084v-.946h1.457v-1.552c0-.783.158-1.4.473-1.855.316-.454.852-.68 1.61-.68.176 0 .34.006.49.018.153.013.304.032.456.057v1.04c-.253-.062-.48-.094-.682-.094-.29 0-.517.055-.68.162-.165.108-.285.25-.36.426-.077.177-.124.376-.143.596-.02.22-.028.445-.028.672v1.212h1.892v.946H71.05v8.858h-1.137v-8.858h-1.457zm9.69 8.896c-.138.025-.32.07-.548.133-.227.063-.48.094-.757.094-.567 0-1-.142-1.296-.426-.296-.282-.445-.79-.445-1.522v-7.174h-1.382v-.946h1.38v-2.726h1.137v2.726h1.836v.946h-1.835v6.72c0 .24.006.447.02.624.012.177.05.322.112.435.064.114.16.196.294.247.133.05.32.075.56.075.15 0 .305-.012.463-.038.158-.025.312-.056.464-.094v.927z"/></svg>