<?xml version="1.0" encoding="utf-8"?>
<!-- Generator: Adobe Illustrator 18.0.0, SVG Export Plug-In . SVG Version: 6.00 Build 0)  -->
<!DOCTYPE svg PUBLIC "-//W3C//DTD SVG 1.1//EN" "http://www.w3.org/Graphics/SVG/1.1/DTD/svg11.dtd">
<svg version="1.1" id="Layer_1" xmlns="http://www.w3.org/2000/svg" xmlns:xlink="http://www.w3.org/1999/xlink" x="0px" y="0px"
	 width="110px" height="80px" viewBox="89.7 21.4 110 80" enable-background="new 89.7 21.4 110 80" xml:space="preserve">
<g id="fond">
</g>
<g id="compacte">
</g>
<g id="rectangle">
</g>
<g>
	<g>
		<circle cx="100.9" cy="61.6" r="11.2"/>
		<path fill="#FFFFFF" d="M105.8,54.5c-1.1,0-2.1,0.7-2.9,1.5c-0.8,1-1.4,2.1-1.8,3.2c-0.7-0.6-1.2-1.3-2.4-1.6
			c-0.9-0.3-1.8-0.1-2.6,0.5c-0.4,0.3-0.7,0.7-0.8,1.2c-0.3,1.1,0.4,2.1,0.7,2.4l0.7,0.7c0.1,0.1,0.5,0.5,0.3,1.1
			c-0.2,0.6-0.9,1-1.6,0.7c-0.3-0.1-0.8-0.3-0.7-0.7c0-0.1,0.1-0.2,0.2-0.4C95,63.1,95,63,95,63c0.1-0.4,0-1-0.5-1.1
			c-0.4-0.1-0.9,0-1,0.5c-0.2,0.6,0.1,1.8,1.7,2.3c1.9,0.6,3.5-0.5,3.7-1.8c0.1-0.8-0.2-1.5-0.9-2.3l-0.6-0.6
			c-0.3-0.3-0.5-0.9-0.1-1.4c0.3-0.4,0.7-0.5,1.4-0.4c1,0.3,1.5,1,2.3,1.6c-0.3,1-0.5,2.1-0.7,3l-0.1,0.7c-0.5,2.9-1,4.4-2,5.3
			c-0.2,0.2-0.5,0.4-1,0.4c-0.2,0-0.3-0.2-0.3-0.2c0-0.2,0.1-0.3,0.2-0.3c0.1-0.1,0.4-0.2,0.3-0.6c0-0.5-0.4-0.9-1-0.9
			c-0.4,0-1.1,0.4-1.1,1.2c0,0.8,0.8,1.4,1.9,1.3c0.6,0,1.9-0.3,3.2-1.8c1.5-1.8,2-3.8,2.3-5.3l0.4-2c0.2,0,0.4,0,0.6,0
			c1.9,0,2.8-0.9,2.9-1.7c0-0.4-0.3-0.9-0.7-0.8c-0.3,0-0.7,0.2-0.8,0.6c-0.1,0.4,0.6,0.8,0.1,1.1c-0.4,0.2-1.1,0.4-2,0.3l0.2-1
			c0.4-1.8,0.8-4.1,2.5-4.2c0.1,0,0.6,0,0.6,0.3c0,0.1,0,0.1-0.1,0.4c-0.1,0.2-0.2,0.3-0.2,0.5c0,0.5,0.4,0.8,0.9,0.8
			c0.7,0,0.9-0.7,0.9-1C107.8,55,106.9,54.5,105.8,54.5z"/>
	</g>
	<g>
		<g>
			<path d="M157.6,58.4c2.6,0,4.3,1.9,4.3,4.5c0,2.4-1.8,4.5-4.3,4.5c-2.6,0-4.3-2-4.3-4.5C153.3,60.3,155,58.4,157.6,58.4z
				 M157.6,66c1.8,0,2.6-1.7,2.6-3.2c0-1.6-1-3.2-2.6-3.2c-1.7,0-2.7,1.6-2.7,3.2C155,64.4,155.8,66,157.6,66z"/>
		</g>
		<path d="M153.1,59.2v-0.6h-2.3v-0.8c0-1.2,0.2-2,1.5-2c0,0,0.1,0,0.1,0c0,0,0,0,0,0c0.4,0,0.7-0.3,0.7-0.7l0-0.5
			c-0.3-0.1-0.7-0.1-1.1-0.1c-2.3,0-2.8,1.4-2.8,3.4v0.7h-2v0.7c0.1,0.3,0.3,0.6,0.7,0.6c0,0,0,0,0,0h1.3v7.2h0.9c0,0,0,0,0,0
			c0.4,0,0.7-0.3,0.7-0.6v-6.6h1.6C152.8,59.9,153.1,59.6,153.1,59.2z"/>
		<path d="M132.2,58.6C132.2,58.6,132.2,58.6,132.2,58.6c-0.3,0-0.7,0.2-0.8,0.5l-2.2,6.5h0l-2.1-6.5c-0.1-0.3-0.5-0.5-0.8-0.5
			c0,0,0,0,0,0h-1.1l2.9,7.9c0.1,0.3,0.3,0.7,0.3,0.9c0,0.2-0.5,2.1-1.9,2.1c0,0-0.1,0-0.1,0c-0.4,0-0.6,0.2-0.7,0.6l0,0.5
			c0.3,0,0.6,0.1,1.1,0.1c2.1,0,2.7-1.9,3.3-3.5l3.1-8.7L132.2,58.6L132.2,58.6z"/>
		<path d="M122.2,60.3c-1.3-0.7-2.7-1.1-2.7-2.4c0-1.4,1.3-1.8,2.3-1.8c0,0,0,0,0,0c0.4,0,0.8,0,1.1,0.1c0,0,0,0,0,0
			c0.4,0,0.7-0.3,0.7-0.6l0-0.5c-0.7-0.2-1.3-0.2-1.9-0.2c-2.2,0-3.8,1.1-3.8,3.2c0,1.8,1.2,2.5,2.6,3.2c1.3,0.6,2.7,1.1,2.7,2.7
			c0,1.6-1.5,2.2-2.6,2.2c-0.6,0-1.3-0.2-1.8-0.3c-0.4-0.1-0.6,0.3-0.7,0.7l0,0.5c0.8,0.2,1.6,0.5,2.4,0.5c0,0,0,0,0,0c0,0,0,0,0,0
			c2.4,0,4.3-1,4.3-3.5C124.8,61.8,123.6,61,122.2,60.3z"/>
		<path d="M145.9,67.1C145.9,67.1,145.9,67.1,145.9,67.1c0.3,0,0.6-0.2,0.7-0.6v-4.9c0-1.9-0.8-3.3-3-3.3c-0.8,0-2,0.4-2.6,1.7
			c-0.4-1.2-1.4-1.7-2.4-1.7c-1.3,0-2.1,0.4-2.7,1.4h0v-0.5c0-0.4-0.3-0.7-0.7-0.7c0,0,0,0,0,0h-0.7v8.5h0.8c0,0,0,0,0,0
			c0.4,0,0.7-0.3,0.7-0.7c0,0,0,0,0,0v-3.6c0-1.6,0.6-3.1,2.2-3.1c1.3,0,1.5,1.3,1.5,2.4v5.1h0.9c0,0,0,0,0,0c0.4,0,0.7-0.3,0.7-0.6
			v-3.6c0-1.6,0.6-3.1,2.2-3.1c1.3,0,1.5,1.3,1.5,2.4v5.1L145.9,67.1L145.9,67.1z"/>
		<path d="M170.2,67.1C170.2,67.1,170.2,67.1,170.2,67.1c0.4,0,0.7-0.3,0.7-0.7v-4.4c0-2.3-1-3.7-3.2-3.7c-1.2,0-2.3,0.6-2.8,1.6h0
			v-0.6c0,0,0,0,0,0c0-0.4-0.3-0.7-0.7-0.7c0,0,0,0,0,0h-0.8v8.5h0.9c0,0,0,0,0,0c0.4,0,0.7-0.3,0.7-0.7v-3.3c0-2.1,0.8-3.5,2.6-3.5
			c1.4,0.1,1.8,1,1.8,3v4.4L170.2,67.1L170.2,67.1z"/>
		<path d="M178.6,58.6C178.6,58.6,178.6,58.6,178.6,58.6c-0.3,0-0.7,0.2-0.8,0.5l-2.2,6.5h0l-2.1-6.5c-0.1-0.3-0.5-0.5-0.8-0.5
			c0,0,0,0,0,0h-1.1l2.9,7.9c0.1,0.3,0.3,0.7,0.3,0.9c0,0.2-0.5,2.1-1.9,2.1c0,0-0.1,0-0.1,0c-0.4,0-0.6,0.2-0.7,0.6l0,0.5
			c0.3,0,0.6,0.1,1.1,0.1c2.1,0,2.7-1.9,3.3-3.5l3.1-8.7L178.6,58.6L178.6,58.6z"/>
	</g>
</g>
</svg>
