<svg xmlns="http://www.w3.org/2000/svg" width="110" height="80" viewBox="0 0 110 80"><path fill="#0B0B0A" fill-rule="evenodd" d="M24 32.368c-.882.4-1.83.673-2.827.794 1.017-.624 1.797-1.613 2.165-2.792-.952.578-2.005.998-3.13 1.223-.895-.98-2.175-1.593-3.592-1.593-2.718 0-4.922 2.26-4.922 5.05 0 .395.042.78.126 1.15-4.092-.212-7.72-2.22-10.15-5.278-.423.748-.666 1.616-.666 2.54 0 1.75.87 3.297 2.19 4.203-.805-.025-1.566-.254-2.23-.63v.062c0 2.447 1.697 4.488 3.95 4.95-.412.12-.847.178-1.296.178-.317 0-.627-.03-.927-.09.627 2.006 2.445 3.466 4.6 3.505-1.685 1.355-3.81 2.163-6.115 2.163-.397 0-.79-.023-1.175-.07C2.18 49.163 4.768 50 7.548 50c9.058 0 14.01-7.692 14.01-14.365 0-.22-.005-.44-.013-.654.962-.71 1.797-1.6 2.455-2.612zm7.65 2.83c-.353.285-.53.682-.53 1.19 0 .505.13.902.39 1.19.26.285.603.505 1.03.66.427.152.893.29 1.4.41.507.12 1.013.265 1.52.44.507.172.973.385 1.4.64.427.252.77.622 1.03 1.11.26.485.39 1.075.39 1.77 0 1.145-.457 2.132-1.37 2.96-.913.825-2.127 1.24-3.64 1.24-1.513 0-2.737-.358-3.67-1.07-.933-.715-1.4-1.718-1.4-3.01h3c.107 1.225.807 1.84 2.1 1.84.64 0 1.147-.168 1.52-.5.373-.335.56-.778.56-1.33 0-.555-.247-.99-.74-1.31-.493-.32-1.09-.56-1.79-.72-.7-.16-1.403-.355-2.11-.58-.707-.228-1.307-.625-1.8-1.19-.493-.568-.74-1.318-.74-2.25 0-1.268.46-2.28 1.38-3.04.92-.76 2.103-1.14 3.55-1.14 1.447 0 2.61.33 3.49.99.88.66 1.36 1.662 1.44 3.01h-3.08c-.053-.535-.253-.958-.6-1.27-.347-.315-.8-.47-1.36-.47s-1.017.142-1.37.43zm13.916-2.49c2.24 0 4.05.64 5.43 1.92 1.38 1.28 2.07 2.972 2.07 5.08 0 2.105-.69 3.792-2.07 5.06-1.38 1.265-3.19 1.9-5.43 1.9h-4.74v-13.96h4.74zm-1.92 11.82h1.92c1.467 0 2.607-.435 3.42-1.3.813-.868 1.22-2.04 1.22-3.52s-.407-2.655-1.22-3.52c-.813-.868-1.953-1.3-3.42-1.3h-1.92v9.64zm14.306 2.14h-2.82v-13.96h2.82v6.24l5.04-6.24h3.68l-6.06 7 6.06 6.96h-3.66l-5.06-6.2v6.2z"/></svg>