<svg xmlns="http://www.w3.org/2000/svg" width="110" height="80" viewBox="0 0 110 80"><path fill="#383838" fill-rule="evenodd" d="M23.903 22.3L18.187 19l-7.056 4.074 6.383 3.645 6.39-4.42zm3.408 1.968l9.063 5.232v21L18.187 61 0 50.5V32.338l7.36 3.36V46.25l10.827 6.25 10.825-6.25v-12.5l-8.464-4.887 6.763-4.595zm20.356 13.08v6.076c0 .467.074.85.222 1.145.274.546.783.82 1.53.82 1.07 0 1.8-.48 2.187-1.436.21-.513.316-1.217.316-2.11v-4.496h1.54V46.5h-1.453l.017-1.35c-.2.347-.447.64-.743.88-.586.48-1.298.718-2.136.718-1.304 0-2.193-.436-2.666-1.308-.256-.467-.384-1.09-.384-1.87v-6.222h1.572zm8.395.043h1.564v9.11H56.06v-9.11zm0-3.442h1.564v1.743H56.06V33.95zm4.054 0h1.48v7.288l3.946-3.888h1.966l-3.504 3.427 3.7 5.725h-1.965l-2.854-4.614-1.29 1.18V46.5h-1.48V33.948zM69.1 37.39h1.562v9.11H69.1v-9.11zm0-3.442h1.562v1.743H69.1V33.95zm4.394.845h1.555v2.555h1.46v1.256h-1.46v5.973c0 .32.108.533.324.64.12.064.32.095.598.095.074 0 .154 0 .24-.004.085-.003.185-.01.298-.02V46.5c-.176.05-.36.088-.55.11-.192.024-.398.035-.62.035-.718 0-1.205-.183-1.46-.55-.258-.368-.386-.845-.386-1.432v-6.06h-1.24V37.35h1.24v-2.555z"/></svg>