<svg xmlns="http://www.w3.org/2000/svg" width="110" height="80" viewBox="0 0 110 80"><path fill="#383838" fill-rule="evenodd" d="M8.182 45.07h-.86v-11.5c-.376.48-.96.787-1.616.787-.22 0-.434-.035-.634-.1-.36.575-1.003.957-1.735.957-.8 0-1.494-.458-1.83-1.125C.55 35.67 0 37.52 0 39.5 0 45.3 4.724 50 10.55 50c5.827 0 10.55-4.7 10.55-10.5S16.377 29 10.55 29c-.54 0-1.072.04-1.59.12.19.307.298.67.298 1.06 0 .652-.31 1.233-.79 1.606h.575v11.57h6.89v1.715h-7.75zm15.04-13.097h1.97l2.205 6.228h.022l2.15-6.227h1.947v7.956h-1.332v-6.14h-.022l-2.217 6.14h-1.154l-2.216-6.14h-.023v6.14H23.22v-7.957zm14.47 6.674c0 .156.022.268.063.334.04.068.12.102.24.102h.135c.052 0 .112-.008.18-.023v.88c-.046.015-.104.03-.175.05-.07.018-.143.035-.218.05-.074.015-.15.026-.224.033-.074.008-.138.012-.19.012-.26 0-.478-.052-.65-.156-.17-.105-.283-.287-.335-.547-.254.245-.566.423-.935.534-.37.112-.726.168-1.07.168-.26 0-.51-.036-.75-.106-.238-.072-.45-.176-.632-.313-.182-.138-.328-.312-.436-.524-.108-.212-.162-.46-.162-.74 0-.358.065-.647.196-.87.13-.223.302-.398.515-.524.212-.127.45-.218.716-.274.264-.056.53-.098.8-.128.23-.045.45-.076.66-.095.21-.018.394-.05.555-.094.16-.046.287-.115.38-.208.094-.092.14-.232.14-.417 0-.164-.04-.298-.117-.402-.08-.104-.176-.183-.29-.24-.117-.055-.246-.092-.388-.11-.14-.02-.276-.028-.403-.028-.358 0-.653.074-.884.222-.232.15-.362.38-.392.69h-1.275c.022-.37.11-.678.268-.924.157-.245.357-.442.6-.59.242-.15.516-.253.822-.312.306-.06.62-.088.94-.088.284 0 .564.03.84.09.277.058.525.155.745.29.22.132.397.305.532.517.134.21.2.47.2.773v2.964zm-1.275-1.604c-.194.126-.433.202-.717.228-.283.027-.567.066-.85.118-.135.022-.266.054-.392.095-.127.04-.24.096-.336.167-.097.07-.174.163-.23.278-.056.116-.084.255-.084.418 0 .14.04.26.123.357.083.096.182.173.298.228.116.057.243.096.38.118.14.023.264.034.376.034.142 0 .295-.02.46-.056.163-.037.318-.1.463-.19.146-.09.267-.202.364-.34.098-.137.147-.306.147-.506v-.947zm1.9-2.875h.962V32.44h1.275v1.728h1.153v.947h-1.153v3.075c0 .134.006.25.017.346.01.096.037.178.078.245.04.068.103.118.185.15.082.035.194.05.336.05.09 0 .18 0 .27-.004.09-.004.18-.017.268-.04v.98c-.14.016-.28.03-.414.046-.134.015-.272.022-.414.022-.336 0-.607-.03-.812-.094-.205-.064-.366-.156-.48-.28-.117-.122-.195-.276-.236-.46-.04-.187-.066-.4-.073-.637v-3.398h-.964v-.947zm5.134 3.21c0 .222.032.437.096.645.063.208.158.39.285.546.128.155.29.28.483.372.194.093.425.14.694.14.373 0 .674-.08.9-.24.23-.16.4-.4.51-.72h1.21c-.067.313-.183.592-.347.837-.164.244-.362.45-.594.618-.23.167-.49.293-.778.378-.287.086-.588.13-.9.13-.456 0-.86-.076-1.21-.224-.35-.15-.648-.357-.89-.624-.243-.268-.426-.587-.55-.96-.122-.37-.184-.78-.184-1.224 0-.41.066-.797.196-1.165s.317-.692.56-.97c.243-.28.536-.5.88-.663.342-.164.73-.245 1.163-.245.456 0 .864.094 1.226.284.36.19.662.44.9.752.24.312.413.67.52 1.075.11.405.137.823.085 1.254H43.45zm2.98-.837c-.016-.2-.06-.393-.13-.578-.07-.186-.168-.348-.29-.485-.124-.137-.273-.25-.45-.334-.174-.086-.37-.128-.587-.128-.224 0-.427.04-.61.117-.183.078-.34.185-.47.323-.13.137-.235.3-.314.484-.08.185-.122.386-.13.6h2.98zm2.077-2.372h1.198v1.114h.022c.038-.156.11-.308.22-.457.107-.148.238-.284.39-.407.154-.122.323-.22.51-.295.187-.074.377-.11.57-.11.15 0 .253.002.31.01l.172.022v1.226c-.09-.014-.182-.027-.275-.038-.093-.01-.185-.017-.274-.017-.216 0-.42.043-.61.128-.19.086-.356.212-.498.38-.14.166-.253.372-.335.618-.083.246-.124.528-.124.847v2.742h-1.276v-5.762zm3.802-2.195h1.276v1.203H52.31v-1.203zm0 2.195h1.276v5.76H52.31v-5.76zm7.34 4.48c0 .155.02.267.06.333.042.068.123.102.242.102h.134c.053 0 .112-.008.18-.023v.88c-.045.015-.103.03-.174.05-.07.018-.144.035-.218.05-.075.015-.15.026-.224.033-.075.008-.138.012-.19.012-.262 0-.478-.052-.65-.156-.172-.105-.284-.287-.336-.547-.254.245-.565.423-.935.534-.37.112-.727.168-1.07.168-.26 0-.51-.036-.75-.106-.24-.072-.45-.176-.633-.313-.182-.138-.328-.312-.436-.524-.108-.212-.162-.46-.162-.74 0-.358.066-.647.196-.87.13-.223.303-.398.515-.524.212-.127.45-.218.716-.274.265-.056.532-.098.8-.128.232-.045.452-.076.66-.095.21-.018.395-.05.555-.094.162-.046.29-.115.382-.208.093-.092.14-.232.14-.417 0-.164-.04-.298-.118-.402-.078-.104-.175-.183-.29-.24-.117-.055-.245-.092-.387-.11-.142-.02-.276-.028-.403-.028-.358 0-.653.074-.885.222-.232.15-.363.38-.393.69H54.7c.023-.37.113-.678.27-.924.157-.245.356-.442.6-.59.24-.15.516-.253.822-.312.306-.06.62-.088.94-.088.284 0 .564.03.84.09.276.058.524.155.744.29.22.132.398.305.532.517.135.21.202.47.202.773v2.964zm-1.277-1.605c-.194.126-.432.202-.716.228-.284.027-.567.066-.85.118-.135.022-.266.054-.393.095-.127.04-.24.096-.336.167-.097.07-.173.163-.23.278-.055.116-.083.255-.083.418 0 .14.04.26.123.357.082.096.18.173.297.228.115.057.242.096.38.118.138.023.263.034.375.034.142 0 .295-.02.46-.056.164-.037.318-.1.464-.19.146-.09.267-.202.364-.34.097-.137.145-.306.145-.506v-.947zm2.515-5.07h1.277v7.956h-1.277v-7.957zm5.612 0h3.314c.612 0 1.142.104 1.59.312.448.208.814.492 1.097.852.285.36.496.782.634 1.265.138.483.207 1 .207 1.55 0 .548-.068 1.065-.206 1.547-.138.482-.35.904-.633 1.264-.282.36-.648.645-1.096.853-.448.208-.978.312-1.59.312H66.5v-7.957zm1.4 6.82h1.377c.545 0 .99-.073 1.338-.218.347-.145.62-.346.817-.602.198-.256.332-.557.403-.903.07-.345.107-.718.107-1.12 0-.4-.036-.774-.107-1.12-.07-.345-.205-.646-.403-.902-.198-.256-.47-.457-.817-.602-.347-.144-.793-.217-1.338-.217H67.9v5.682zm7.33-1.416c0 .223.03.438.094.646.063.208.16.39.286.546.126.155.287.28.48.372.195.093.426.14.695.14.373 0 .674-.08.9-.24.23-.16.4-.4.51-.72h1.21c-.067.313-.183.592-.347.837-.164.244-.362.45-.593.618-.232.167-.49.293-.78.378-.286.086-.586.13-.9.13-.455 0-.858-.076-1.21-.224-.35-.15-.647-.357-.89-.624-.242-.268-.425-.587-.548-.96-.123-.37-.184-.78-.184-1.224 0-.41.065-.797.195-1.165s.318-.692.56-.97c.243-.28.536-.5.88-.663.343-.164.73-.245 1.164-.245.455 0 .864.094 1.226.284.362.19.662.44.9.752.24.312.413.67.52 1.075.11.405.138.823.085 1.254H75.23zm2.977-.836c-.015-.2-.058-.393-.13-.578-.07-.186-.167-.348-.29-.485-.123-.137-.272-.25-.448-.334-.176-.086-.372-.128-.588-.128-.224 0-.428.04-.61.117-.184.078-.34.185-.47.323-.13.137-.236.3-.314.484-.08.185-.122.386-.13.6h2.98zm3.04 1.54c.038.37.18.63.427.78.246.147.54.222.884.222.12 0 .256-.01.41-.028.152-.02.295-.054.43-.106.134-.052.244-.128.33-.228.086-.1.125-.233.118-.396-.008-.163-.068-.297-.18-.4-.11-.105-.255-.19-.43-.252-.176-.063-.376-.117-.6-.16-.223-.046-.45-.094-.683-.146-.238-.052-.468-.115-.688-.19-.22-.074-.418-.174-.593-.3-.176-.127-.316-.288-.42-.485-.105-.196-.157-.44-.157-.73 0-.31.076-.573.23-.785.152-.21.347-.382.582-.512s.496-.22.783-.273c.288-.052.562-.078.823-.078.3 0 .584.03.857.094.272.064.52.166.74.307.22.14.402.325.547.55.146.228.237.5.275.82H83.6c-.06-.304-.2-.508-.42-.612-.22-.103-.473-.155-.756-.155-.09 0-.196.007-.32.022-.123.015-.238.043-.346.083-.11.04-.2.1-.275.18-.074.077-.112.18-.112.305 0 .156.055.282.164.38.108.096.25.175.425.24.174.062.374.116.598.16.224.045.455.093.694.145.232.052.46.115.683.19.224.074.424.174.6.3.175.127.316.286.425.48.108.193.162.43.162.713 0 .34-.078.63-.235.87-.157.236-.36.43-.61.578-.25.15-.528.257-.834.324-.306.067-.61.1-.907.1-.366 0-.704-.04-1.014-.122-.31-.082-.578-.206-.806-.373-.227-.168-.406-.376-.537-.625-.132-.25-.2-.544-.208-.886h1.276zm4.71-6.107h1.277v1.203h-1.277v-1.203zm0 2.195h1.277v5.76h-1.277v-5.76zm7.845 5.46c0 .87-.245 1.517-.734 1.944-.49.427-1.192.64-2.11.64-.29 0-.584-.03-.88-.088-.294-.06-.563-.16-.805-.3-.243-.142-.446-.328-.61-.558-.165-.23-.262-.513-.292-.847h1.278c.037.177.1.322.19.433.09.112.196.2.32.262.122.063.26.104.408.123.15.018.306.028.47.028.515 0 .892-.127 1.13-.38.24-.252.36-.616.36-1.09v-.88h-.023c-.18.318-.424.567-.733.745-.31.18-.644.27-1.003.27-.462 0-.856-.08-1.18-.24-.325-.16-.594-.38-.807-.658-.213-.28-.367-.6-.465-.964-.097-.364-.145-.754-.145-1.17 0-.387.06-.754.18-1.103.12-.35.29-.656.514-.92.224-.263.498-.473.823-.63.325-.155.692-.233 1.103-.233.366 0 .7.076 1.008.228.306.152.54.392.705.72h.022v-.792h1.277v5.46zm-2.833-.702c.283 0 .523-.058.72-.173.2-.115.36-.267.483-.457s.212-.405.268-.646c.057-.242.085-.485.085-.73s-.03-.483-.09-.713c-.06-.23-.15-.435-.274-.613-.122-.178-.282-.32-.48-.423-.198-.103-.435-.155-.71-.155-.285 0-.524.06-.718.178-.194.12-.35.273-.47.462-.12.19-.205.405-.257.647-.053.24-.08.48-.08.718s.03.47.09.697c.06.226.152.43.275.607.123.178.28.323.47.435.19.11.42.166.69.166zm3.947-4.758h1.21v.847l.022.022c.193-.32.446-.57.76-.752.313-.182.66-.273 1.04-.273.636 0 1.136.163 1.5.49.367.327.55.817.55 1.47v3.957h-1.276v-3.623c-.015-.453-.112-.782-.29-.986-.18-.203-.46-.305-.84-.305-.218 0-.412.04-.583.117-.17.078-.317.185-.436.323-.12.137-.213.3-.28.484-.067.185-.1.382-.1.59v3.4h-1.277v-5.762zM23.01 43.45v3.98h2.79v-.325h-2.41v-1.57h2.23v-.324h-2.23v-1.436h2.38v-.323h-2.76zm3.216 0v3.98h.352v-3.98h-.352zm1.194 2.636h2.222c.008-.2-.01-.398-.056-.593-.044-.196-.118-.368-.22-.52-.103-.15-.237-.27-.4-.364-.165-.093-.363-.14-.594-.14-.228 0-.425.044-.59.13-.167.088-.302.203-.407.346-.104.144-.182.306-.232.488-.05.182-.076.368-.076.557 0 .205.025.4.076.583.05.184.128.346.232.485.105.14.24.25.406.33.167.08.364.12.592.12.365 0 .648-.09.848-.27.2-.177.336-.43.41-.757h-.352c-.056.224-.156.403-.302.536-.145.134-.347.2-.604.2-.168 0-.312-.034-.43-.105-.12-.07-.22-.16-.298-.266-.08-.108-.135-.23-.17-.365-.036-.137-.054-.268-.054-.394zm1.87-.295h-1.87c.015-.13.046-.257.092-.38.047-.126.11-.235.188-.33.078-.095.173-.17.285-.228.112-.058.24-.087.387-.087.14 0 .268.03.38.087.112.057.207.133.286.228.078.095.14.204.182.326.043.123.066.25.07.385zm.785-1.236v2.875h.353v-1.606c0-.152.017-.292.05-.42.034-.13.085-.24.154-.335.07-.096.16-.17.27-.224.11-.054.24-.08.388-.08.112 0 .207.018.285.055.08.038.14.09.188.154.047.065.08.14.1.23.02.086.03.178.03.275v1.95h.354V45.8c0-.134.012-.263.037-.388.024-.124.066-.234.126-.33.06-.098.14-.175.24-.232.1-.058.228-.087.38-.087.255 0 .432.063.533.187.1.125.15.306.15.543v1.934h.354v-1.95c0-.674-.32-1.01-.958-1.01-.19 0-.37.047-.538.14-.168.092-.295.233-.38.423-.053-.19-.157-.33-.312-.424-.154-.093-.327-.14-.517-.14-.235 0-.43.05-.58.15-.15.1-.273.24-.366.418H30.4v-.484h-.325zm4.827 1.532h2.223c.007-.2-.01-.398-.056-.593-.046-.196-.12-.368-.222-.52-.103-.15-.236-.27-.4-.364-.165-.093-.363-.14-.594-.14-.228 0-.424.044-.59.13-.167.088-.302.203-.406.346-.105.144-.182.306-.233.488-.05.182-.075.368-.075.557 0 .205.025.4.075.583.05.184.128.346.233.485.104.14.24.25.405.33.167.08.363.12.59.12.367 0 .65-.09.85-.27.2-.177.336-.43.41-.757h-.352c-.055.224-.156.403-.3.536-.147.134-.348.2-.606.2-.168 0-.312-.034-.43-.105-.12-.07-.22-.16-.298-.266-.078-.108-.135-.23-.17-.365-.036-.137-.054-.268-.054-.394zm1.87-.295h-1.87c.015-.13.046-.257.093-.38.046-.126.11-.235.187-.33.08-.095.174-.17.286-.228.112-.058.24-.087.386-.087.142 0 .27.03.38.087.113.057.208.133.286.228.08.095.14.204.182.326.043.123.066.25.07.385zm.78-1.236v2.875h.353V45.75c.003-.142.027-.272.07-.393.043-.122.102-.226.18-.313.075-.088.17-.156.28-.206.11-.05.235-.075.377-.075.14 0 .26.023.355.067.095.045.17.106.227.184.056.078.095.17.117.276.024.106.035.22.035.343v1.794h.353v-1.85c0-.172-.017-.326-.05-.464-.034-.137-.092-.253-.174-.348-.082-.095-.192-.168-.328-.22-.136-.052-.305-.078-.506-.078-.206 0-.394.053-.566.16-.172.105-.29.245-.358.42h-.01v-.496h-.354zm3.53 0v-.864h-.354v.864h-.504v.295h.504v1.966c-.004.245.04.413.134.504.093.09.258.136.493.136.052 0 .104 0 .157-.005.052-.003.104-.005.156-.005v-.295c-.1.01-.2.017-.302.017-.127-.008-.206-.044-.238-.11-.032-.064-.047-.154-.047-.27V44.85h.588v-.296h-.587zm2.782.84h.353c-.007-.155-.04-.29-.095-.406-.056-.115-.132-.21-.227-.29-.095-.077-.205-.135-.33-.172-.125-.037-.26-.056-.406-.056-.128 0-.256.015-.384.045-.13.03-.246.076-.35.14-.105.062-.19.146-.255.25-.064.104-.097.228-.097.373 0 .123.02.226.062.31.04.083.098.153.17.21.073.06.158.107.255.146.097.04.204.073.32.103l.453.1c.078.02.155.04.232.067.077.026.145.058.204.098.06.04.107.087.142.144.036.058.053.13.053.215 0 .1-.025.186-.075.254-.05.07-.115.126-.193.17-.08.045-.164.076-.255.095-.092.018-.18.027-.266.027-.235 0-.432-.06-.59-.18-.16-.122-.246-.3-.26-.54h-.354c.03.354.15.61.36.77.212.16.488.24.827.24.133 0 .27-.015.408-.045.138-.03.262-.08.372-.148.11-.068.2-.157.272-.267.07-.11.106-.242.106-.398 0-.128-.024-.237-.073-.33-.048-.093-.11-.17-.187-.234-.077-.063-.165-.114-.263-.153-.1-.04-.2-.066-.3-.08l-.47-.107c-.06-.015-.125-.034-.196-.06-.072-.023-.137-.053-.197-.09-.06-.038-.11-.083-.148-.137-.04-.055-.06-.12-.06-.2 0-.092.02-.17.062-.233.04-.063.096-.114.163-.153.067-.04.14-.067.22-.084.08-.016.16-.025.24-.025.1 0 .195.012.284.037.09.024.17.062.238.114.07.052.124.118.165.198.04.08.064.173.067.28zm3.654-.924c-.22 0-.415.04-.585.123-.17.08-.313.19-.428.328-.116.14-.204.3-.263.483-.06.184-.09.38-.09.588 0 .21.03.405.09.59.06.183.147.343.263.48.115.138.258.247.428.327.17.08.365.12.585.12.22 0 .415-.04.585-.12.17-.08.312-.19.428-.326.117-.137.205-.297.264-.48.06-.185.09-.38.09-.59 0-.207-.03-.403-.09-.587-.06-.184-.147-.344-.263-.482-.115-.136-.257-.246-.427-.327-.17-.082-.365-.123-.585-.123zm0 .295c.168 0 .315.036.442.106.127.072.232.165.316.28.084.115.148.246.19.393.044.146.065.296.065.448 0 .153-.02.303-.063.45-.043.146-.107.277-.19.392-.085.116-.19.208-.317.28-.127.07-.274.105-.442.105-.168 0-.315-.035-.442-.106-.127-.07-.233-.162-.317-.278-.085-.115-.148-.246-.19-.392-.044-.147-.065-.297-.065-.45 0-.15.02-.3.064-.447.042-.147.105-.278.19-.393.083-.115.19-.208.316-.28.127-.07.274-.105.442-.105zm2.963.084v-.296h-.57v-.25c0-.08.002-.15.006-.218.003-.067.017-.126.042-.176.024-.05.062-.09.114-.12.053-.03.127-.044.224-.044.04 0 .082.003.123.008l.134.02v-.3c-.056-.01-.107-.014-.15-.018-.046-.004-.095-.005-.147-.005-.142 0-.258.02-.35.062-.09.04-.163.098-.215.173-.053.074-.088.163-.107.267-.018.104-.028.217-.028.34v.262h-.492v.295h.492v2.58h.353v-2.58h.57zm3.044-1.4l-1.606 3.98h.403l.482-1.238h1.82l.486 1.237h.41l-1.568-3.98h-.426zm-.604 2.42l.8-2.04.773 2.04H52.92zm2.845-1.316v2.875h.353V45.75c.004-.142.027-.272.07-.393.043-.122.102-.226.18-.313.075-.088.17-.156.28-.206.11-.05.235-.075.377-.075.142 0 .26.023.355.067.095.045.17.106.227.184.056.078.095.17.118.276.022.106.033.22.033.343v1.794h.353v-1.85c0-.172-.016-.326-.05-.464-.033-.137-.09-.253-.173-.348-.082-.095-.19-.168-.328-.22-.137-.052-.306-.078-.507-.078-.206 0-.394.053-.566.16-.17.105-.29.245-.358.42h-.012v-.496h-.353zm5.51 2.875v-3.98h-.352v1.65h-.01c-.04-.104-.092-.195-.16-.273-.07-.078-.15-.144-.24-.198-.088-.055-.185-.095-.287-.12-.103-.027-.208-.04-.317-.04-.22 0-.412.04-.574.123-.163.08-.298.192-.406.33-.108.14-.19.302-.24.486-.053.183-.08.377-.08.58 0 .205.027.4.08.583.05.184.132.346.24.485.108.14.243.25.406.33.162.08.353.12.573.12.104 0 .21-.016.316-.046.106-.03.206-.07.3-.125.093-.054.176-.12.248-.198.073-.08.128-.165.166-.257h.01v.546h.325zm-2.312-1.44c0-.147.018-.295.054-.442.035-.147.09-.277.168-.393.076-.115.174-.208.293-.28.12-.073.264-.11.43-.11.188 0 .346.037.475.11.128.072.233.165.313.28.08.116.138.246.174.393.035.147.053.295.053.443 0 .15-.018.297-.053.444-.036.147-.094.278-.174.393-.08.115-.185.21-.313.28-.13.074-.287.11-.474.11-.168 0-.312-.036-.432-.11-.12-.07-.217-.165-.293-.28-.077-.115-.133-.246-.168-.393-.036-.147-.054-.294-.054-.443zm2.94-1.436v2.875h.354v-1.534c0-.152.026-.292.078-.42.052-.128.126-.24.22-.332.096-.093.21-.164.34-.214.13-.05.276-.072.437-.064v-.35c-.262-.012-.486.045-.675.17-.188.128-.327.308-.417.542h-.01v-.674h-.326zm2.84-.084c-.22 0-.414.04-.584.123-.17.08-.313.19-.43.328-.115.14-.203.3-.262.483-.06.184-.09.38-.09.588 0 .21.03.405.09.59.06.183.147.343.263.48.117.138.26.247.43.327.17.08.364.12.584.12.22 0 .415-.04.585-.12.17-.08.312-.19.427-.326.116-.137.204-.297.263-.48.06-.185.09-.38.09-.59 0-.207-.03-.403-.09-.587-.06-.184-.147-.344-.263-.482-.115-.136-.258-.246-.428-.327-.17-.082-.366-.123-.586-.123zm0 .295c.17 0 .316.036.443.106.127.072.233.165.317.28.084.115.147.246.19.393.043.146.064.296.064.448 0 .153-.02.303-.064.45-.043.146-.106.277-.19.392-.084.116-.19.208-.317.28-.127.07-.274.105-.442.105-.168 0-.315-.035-.442-.106-.127-.07-.232-.162-.316-.278-.084-.115-.148-.246-.19-.392-.044-.147-.065-.297-.065-.45 0-.15.022-.3.065-.447.043-.147.107-.278.19-.393.085-.115.19-.208.317-.28.127-.07.274-.105.442-.105zM66.6 43.45v.563h.35v-.562h-.35zm0 1.104v2.875h.35v-2.876h-.35zm3.527 2.875v-3.98h-.352v1.65h-.012c-.037-.104-.09-.195-.16-.273-.068-.078-.147-.144-.237-.198-.09-.055-.186-.095-.288-.12-.103-.027-.208-.04-.317-.04-.22 0-.41.04-.572.123-.163.08-.298.192-.406.33-.11.14-.19.302-.24.486-.053.183-.08.377-.08.58 0 .205.027.4.08.583.05.184.13.346.24.485.108.14.243.25.406.33.162.08.353.12.573.12.106 0 .21-.016.318-.046.106-.03.206-.07.3-.125.092-.054.175-.12.248-.198.073-.08.128-.165.165-.257h.013v.546h.324zm-2.312-1.44c0-.147.018-.295.053-.442.036-.147.092-.277.168-.393.077-.115.175-.208.294-.28.12-.073.263-.11.43-.11.188 0 .346.037.474.11.13.072.234.165.314.28.08.116.138.246.173.393.037.147.055.295.055.443 0 .15-.018.297-.054.444-.034.147-.092.278-.172.393-.08.115-.185.21-.314.28-.128.074-.286.11-.473.11-.167 0-.31-.036-.43-.11-.12-.07-.217-.165-.294-.28-.076-.115-.132-.246-.168-.393-.035-.147-.053-.294-.053-.443zm4.52-2.54v3.98h2.62v-.325h-2.238V43.45h-.38z"/></svg>