<svg xmlns="http://www.w3.org/2000/svg" width="200" height="100" viewBox="0 0 200 100"><path d="M60 10h80v80H60z"/><path d="M117.268 66.575c-.013.05-.028.083-.028.114-.002 4.107-.003 8.216-.003 12.324 0 .043.008.087.015.13 0 .008.013.016.02.024l.023.023h11.963v-1.215H118.47v-4.48h9.644V72.26h-9.626c-.072-.444-.052-4.247.024-4.49h10.746v-1.196h-11.99zM83.56 43.708c-.123-.007-.23-.017-.335-.017-2.915 0-5.83-.01-8.745.005-1.235.006-2.143.6-2.62 1.733-.56 1.327-.456 2.65.252 3.91.366.648.926 1.07 1.662 1.223.265.056.542.073.813.073 2.194.006 4.39.002 6.583.004.812 0 1.277.327 1.566 1.09.227.597.258 1.214.152 1.838-.15.887-.74 1.573-1.894 1.56-2.816-.03-5.633-.01-8.45-.01h-.4v1.22c.112.008.207.02.302.02 2.926 0 5.852.012 8.778-.014 1.15-.01 2.05-.546 2.552-1.595.598-1.247.546-2.526-.035-3.768-.49-1.048-1.33-1.576-2.502-1.573-2.26.006-4.52-.003-6.78-.002-.616 0-1.084-.258-1.356-.806-.437-.877-.473-1.787-.11-2.697.188-.472.55-.79 1.044-.92.208-.053.432-.062.65-.062 2.816-.004 5.633-.002 8.45-.003.137 0 .274-.012.423-.02V43.71zM105.79 54.26c2.265-3.083 1.492-7.134-1.27-9.233-2.656-2.018-6.45-1.72-8.73.692-2.332 2.468-2.434 6.242-.26 8.81 2.266 2.68 6.54 3.232 9.473.604l2.42 1.637c.017-.015.033-.03.048-.047-.56-.824-1.123-1.648-1.68-2.464zM128.65 44.312v.403c0 2.164.003 4.328 0 6.49-.002 1.283-.547 2.272-1.625 2.962-.21.135-.433.257-.663.353-1.223.512-2.49.72-3.81.512-.867-.138-1.702-.38-2.454-.856-.75-.474-1.293-1.118-1.5-1.988-.102-.42-.14-.864-.143-1.298-.014-2.065-.006-4.13-.006-6.196v-.384h-1.213V49.795c0 .58-.017 1.16.01 1.737.057 1.146.48 2.142 1.294 2.96.493.496 1.066.87 1.702 1.148 1.37.598 2.797.832 4.283.646 1.06-.133 2.07-.43 2.995-.98 1.555-.927 2.355-2.3 2.366-4.11.014-2.198.004-4.394.003-6.59 0-.096-.014-.19-.022-.315-.334 0-.65 0-.963.002-.073 0-.147.012-.254.02zM94.404 20.83v12.63h12.003v-1.214h-5.386c-.905 0-1.81.004-2.717 0-.89-.006-1.78.02-2.692-.02v-1.444-1.442-1.41-1.408-1.442-1.41c0-.48.005-.96 0-1.44-.005-.464.023-.93-.018-1.398h-1.188zM129.265 32.24H118.45v-2.886-2.82-2.85c-.003-.945.007-1.89-.007-2.842h-1.182v12.62h12.006v-1.223z"/><path fill="#FFF" d="M94.4 66.554h8.649c.593 0 1.173.085 1.732.293 1.755.655 2.667 2.56 2.07 4.323-.232.68-.667 1.196-1.26 1.585-.368.24-.767.415-1.19.533-.113.032-.224.068-.374.114 1.172 1.93 2.328 3.837 3.52 5.803-.507 0-.94.01-1.372-.01-.077-.004-.166-.125-.22-.212-.41-.67-.815-1.344-1.22-2.017-.644-1.066-1.292-2.13-1.926-3.2-.12-.203-.254-.278-.49-.277-2.108.01-4.215.005-6.322.005h-.36c-.01.148-.024.273-.025.4-.002 1.627 0 3.256 0 4.884v.408h-1.214V66.554zm1.258 1.222c-.075.382-.06 4.225.014 4.48.057.005.12.015.185.015 2.378.002 4.755.008 7.133-.002.616-.003 1.214-.13 1.76-.435.488-.272.83-.663.976-1.213.277-1.052-.263-2.14-1.285-2.577-.468-.2-.963-.266-1.47-.266H95.66zM117.268 66.575h11.99v1.195h-10.746c-.076.243-.096 4.047-.024 4.492h9.626v1.233h-9.644v4.48h10.788v1.217h-11.963l-.023-.023c-.007-.01-.02-.017-.02-.026-.007-.043-.015-.086-.015-.13 0-4.107 0-8.216.003-12.324 0-.032.015-.064.028-.115zM83.56 43.708v1.188c-.15.007-.288.02-.425.02-2.817 0-5.634 0-8.45.002-.217 0-.44.01-.65.063-.494.13-.855.448-1.043.92-.363.91-.327 1.82.11 2.696.273.547.74.806 1.356.806 2.26 0 4.52.008 6.78.002 1.172-.003 2.013.525 2.503 1.573.582 1.242.634 2.52.036 3.768-.503 1.05-1.402 1.586-2.552 1.596-2.926.027-5.852.014-8.778.015-.095 0-.19-.012-.303-.02v-1.22h.4c2.818 0 5.635-.02 8.45.01 1.156.012 1.745-.674 1.895-1.56.106-.624.075-1.24-.152-1.84-.29-.76-.754-1.087-1.566-1.088-2.194-.002-4.39.002-6.583-.004-.27 0-.548-.017-.813-.072-.736-.15-1.296-.574-1.662-1.223-.708-1.258-.81-2.582-.252-3.91.477-1.13 1.385-1.726 2.62-1.732 2.915-.014 5.83-.005 8.745-.004.106 0 .212.012.334.018zM105.79 54.26l1.682 2.46-.047.05-2.42-1.638c-2.936 2.63-7.208 2.077-9.475-.603-2.173-2.57-2.072-6.344.26-8.813 2.28-2.413 6.075-2.71 8.73-.692 2.76 2.1 3.534 6.152 1.27 9.234zm-5.242-9.343c-2.936-.005-5.35 2.394-5.36 5.326-.008 2.95 2.402 5.376 5.345 5.38 2.927.006 5.352-2.388 5.356-5.332.002-3.068-2.477-5.37-5.342-5.373zM74.144 29.628l-1.92 3.84H70.91c.036-.236 5.936-12.11 6.278-12.634h1.35c2.1 4.19 4.2 8.384 6.326 12.633-.257.005-.467.01-.677.013-.22.002-.437 0-.692 0l-1.936-3.853h-7.418zm.627-1.257h6.165l-3.084-6.164c-1.034 2.072-2.042 4.09-3.08 6.165zM84.858 79.21c-.453 0-.844-.003-1.235 0-.12 0-.168-.08-.214-.17-.158-.312-.317-.623-.473-.935-.415-.83-.837-1.656-1.238-2.493-.098-.202-.215-.26-.428-.258-2.28.007-4.562.008-6.842 0-.222-.002-.326.076-.42.27-.544 1.106-1.105 2.205-1.65 3.312-.098.202-.212.296-.446.282-.335-.02-.672-.005-1.062-.005.072-.155.118-.262.17-.365l5.998-12.01.146-.27 1.4.018.06.146s.272.547.41.82c1.875 3.75 3.75 7.497 5.626 11.245.06.112.11.23.196.412zm-3.918-5.1l-3.075-6.14c-.38.607-2.988 5.895-3.03 6.14h6.105zM128.65 44.312c.11-.008.182-.018.255-.02h.963c.01.124.02.22.02.314.002 2.197.013 4.393-.002 6.59-.012 1.81-.81 3.184-2.366 4.11-.924.55-1.936.848-2.995.98-1.486.187-2.914-.047-4.283-.645-.635-.276-1.208-.65-1.7-1.146-.817-.82-1.238-1.815-1.294-2.96-.028-.58-.01-1.16-.01-1.738-.002-1.694 0-3.388 0-5.082v-.403h1.21v.385c0 2.065-.007 4.13.007 6.196.003.435.04.878.142 1.3.21.87.752 1.513 1.5 1.987.753.476 1.587.718 2.456.856 1.32.21 2.586 0 3.81-.512.23-.095.452-.217.662-.352 1.077-.69 1.623-1.68 1.625-2.96.003-2.165 0-4.33 0-6.492v-.404zM94.404 20.83h1.188c.04.47.013.935.018 1.398.005.48 0 .96 0 1.442v8.556c.913.04 1.803.013 2.693.018.906.005 1.812 0 2.718 0h5.386v1.216H94.405V20.83zM129.265 32.24v1.22H117.26V20.843h1.182c.014.95.005 1.896.006 2.842.002.95 0 1.9 0 2.85v5.705h10.817z"/></svg>