<svg xmlns="http://www.w3.org/2000/svg" width="200" height="100" viewBox="0 0 200 100"><path fill="#F7C548" d="M34.057 18c.306 0 .54.072.657.14L61.408 33.5c.32.185.592.704.592 1.133v30.72c0 .427-.273.946-.595 1.132l-26.73 15.365c-.168.097-.386.148-.63.148-.25 0-.495-.056-.657-.15L6.644 66.49C6.3 66.29 6 65.76 6 65.355v-30.72c0-.406.302-.936.646-1.133L33.398 18.14c.118-.068.353-.14.66-.14m0-1c-.42 0-.84.09-1.157.273L6.15 32.636c-.648.372-1.148 1.23-1.148 2v30.72c0 .77.5 1.628 1.146 2L32.89 82.717c.316.182.726.282 1.154.282.428 0 .818-.1 1.133-.284l26.726-15.363c.647-.372 1.097-1.23 1.097-2V34.636c0-.77-.448-1.628-1.094-2L35.213 17.273c-.316-.182-.736-.273-1.156-.273zm-.014 66z"/><path fill="#333" d="M72 42.26h5.38c4.762 0 7.813 2.836 7.813 7.708 0 4.87-3.048 7.77-7.814 7.77H72V42.26zm5.23 12.232c2.564 0 4.13-1.558 4.13-4.524 0-2.944-1.63-4.46-4.13-4.46h-1.523v8.984h1.524zM87.605 42.26h3.704v15.48h-3.705V42.26zM101.62 42c2.055 0 4.215.605 5.825 2.057l-1.78 2.836c-.867-.8-2.393-1.43-3.684-1.43-3.175 0-4.467 2.08-4.467 4.374 0 2.944 1.992 4.698 4.342 4.698 1.103 0 2.203-.433 3.072-1.126v-1.19h-2.14v-3.226h5.422v8.745h-3.093v-.432c0-.326.02-.65.02-.65h-.04c-.913.82-2.5 1.342-3.98 1.342-3.878 0-7.436-2.967-7.436-8.032 0-4.504 3.324-7.968 7.94-7.968zm9.23.26h3.705v15.48h-3.705V42.26zm10.14 3.247h-4.595V42.26h12.898v3.247h-4.596V57.74h-3.706V45.507zm12.45-3.248h3.897l5.146 15.48h-3.813l-.933-3.25h-4.723l-.91 3.25h-3.81l5.146-15.48zm3.43 9.2l-.847-3.01c-.275-.973-.614-2.662-.614-2.662h-.043s-.34 1.688-.615 2.663l-.867 3.01h2.985zm7.13-9.2h3.707v12.23h6.184v3.25H144V42.26zm16.37 0h5.57c3.027 0 5.145 1.385 5.145 4.048 0 1.3-.614 2.62-1.758 3.29v.042c1.735.543 2.372 2.122 2.372 3.486 0 3.378-2.754 4.613-5.76 4.613h-5.57V42.26zm5.61 5.997c.932 0 1.333-.693 1.333-1.43 0-.714-.4-1.32-1.398-1.32h-1.842v2.75h1.906zm.318 6.235c1.08 0 1.608-.76 1.608-1.624s-.51-1.58-1.59-1.58h-2.243v3.204h2.225zm7.767-12.233h9.488v3.247h-5.782v2.814h4.618v3.248h-4.617v2.922h6.078v3.25h-9.782V42.26zm12.154 0h9.485v3.247h-5.782v2.814h4.617v3.248h-4.617v2.922H196v3.25h-9.782V42.26z"/><path fill="#F9AC23" d="M34.207 38.167l.043-.288.05-.328c.016-.13.032-.27.102-.436l.19-.523c.054-.192.19-.347.292-.53.115-.175.205-.372.37-.523l.452-.486.537-.39c.164-.144.376-.214.56-.308.193-.08.36-.193.55-.224l.52-.132c.157-.052.31-.055.444-.06l.345-.02.298-.016-.298.043-.34.048c-.128.018-.276.033-.426.1l-.49.168c-.18.045-.334.172-.508.263-.167.105-.36.185-.503.335l-.467.408-.376.486c-.138.15-.203.34-.293.506-.076.172-.19.325-.217.492-.04.16-.082.31-.12.45-.052.128-.054.277-.06.406l-.022.333-.015.29-.618-.063zm-2.04.06l-.017-.29c-.004-.092-.01-.203-.018-.332-.006-.13-.01-.278-.06-.407l-.123-.45c-.025-.168-.14-.32-.215-.493-.09-.167-.154-.357-.294-.506l-.375-.487-.467-.407c-.146-.152-.337-.232-.503-.337-.175-.09-.33-.22-.51-.262-.174-.06-.338-.12-.49-.17-.15-.065-.297-.08-.427-.098-.13-.02-.246-.035-.34-.048l-.297-.043.3.015.346.02c.134.005.288.008.444.06l.518.132c.192.03.36.146.55.225.185.093.394.164.56.307.177.128.356.257.536.39l.452.484c.164.15.257.347.37.522.103.183.238.34.29.532l.19.523c.073.168.087.308.104.437l.05.327.042.288-.614.063-.002.002z"/><ellipse fill="#F9AC23" cx="39.089" cy="33.76" rx=".787" ry=".76"/><ellipse fill="#F9AC23" cx="27.888" cy="33.76" rx=".787" ry=".76"/><path fill="#F7C548" d="M41.147 55.087c0-.61-.062-1.118-.12-1.648 1.308 1.087 2.54 1.647 3.728 1.647 1.597 0 2.77-.952 3.516-1.666 2.5-2.43 2.296-4.88-.64-7.723-2.113-2.04-5.153-2.553-7.265-2.658 0-.023.017-.028.017-.047 0-2.11-2.806-3.77-6.384-3.77-3.577 0-6.383 1.66-6.383 3.77 0 .02.02.025.02.045-2.11.106-5.146.625-7.263 2.658-2.937 2.844-3.14 5.296-.64 7.724.743.714 1.917 1.666 3.514 1.666 1.187 0 2.413-.558 3.728-1.646-.058.53-.125 1.037-.125 1.646 0 6.45 6.414 11.54 6.684 11.758.14.106.3.156.463.156.167 0 .33-.05.464-.156.272-.218 6.686-5.31 6.687-11.757zm-2.206-10.68c1.544-.04 5.388.11 7.65 2.293 3.02 2.92 1.915 4.483.642 5.717-.887.856-1.674 1.26-2.478 1.26-.996 0-2.153-.635-3.442-1.88-.33-.31-.596-.664-.84-1.027-.195-.494-.427-.916-.684-1.294-.806-1.947-.88-4.06-.847-5.07zm-4.938 3.935c1.748 0 3.395.313 4.47 1.768.15.364.35 1.05.552 1.05h-10.05c.204 0 .402-.685.56-1.05 1.068-1.456 2.72-1.768 4.467-1.768h.002zM27.52 50.77c-.24.362-.512.716-.836 1.028-1.29 1.244-2.447 1.878-3.443 1.878-.803 0-1.59-.404-2.477-1.26-1.273-1.234-2.378-2.797.642-5.717 2.068-2.003 5.407-2.304 7.21-2.304.162 0 .31.005.438.01.027 1.008-.04 3.122-.85 5.06-.253.388-.488.804-.686 1.303h.002zm2.47 9.316c-.014 0-.026.14-.04.144-.58-.996-1.055-2.126-1.34-3.118h10.778c-.29.992-.765 2.118-1.343 3.114-.016 0-.027-.14-.037-.14H29.99z"/></svg>