<svg xmlns="http://www.w3.org/2000/svg" xmlns:xlink="http://www.w3.org/1999/xlink" width="200" height="100" viewBox="0 0 200 100"><defs><path id="a" d="M82.426 14.002H67v49.195L60.81 69h-2.57L49 60.148V47.002h11v-15H33V84h50V30h7V14z"/></defs><clipPath id="b"><use xlink:href="#a" overflow="visible"/></clipPath><g clip-path="url(#b)"><path fill="#6576AE" d="M77.13 14.786L66.736 9.294l-1.308 13.86 8.516 4.46"/><path fill="#45538C" d="M89.88 15.702l2.092 11.636-9.938 14.122-8.096-13.81"/><path fill="#B8B0DB" d="M64.905 26.946L67.52 69.18l8.385-34.26-1.96-7.306"/><path fill="#495F98" d="M73.484 6.156l.453 21.493L92 17.137V9.293"/><path fill="#9E77AC" d="M84.29 52.967l-16.79 9.9 14.926 24.098 7.846-3.01"/><path fill="#725D96" d="M67.562 62.9l15.258-5.16 2.352-11.18-2.157-7.453-9.07-11.49"/><path fill="#C6C7E7" d="M66 19.492l7.938 8.19L66 33.024"/><path fill="#C9CCEA" d="M64.382 34.4l-17.465 9.645 1.5-20.083"/><path fill="#C897C8" d="M66.736 88.337l.784-25.596 17.554 22.065"/><path fill="#946898" d="M47.22 78.212l13.28-8.437-13.625-11.438"/><path fill="#81609B" d="M38.884 28.58l8.565 15.038L30.775 53.75l.915-23.013"/><path fill="#B8B0DB" d="M47.406 43.618l-.24 5.885L64 50.743l.167-16.614"/><path fill="#A66B9A" d="M58.464 88.435L47.25 78.04l-4.25.555v9.938"/><path fill="#F2BEDE" d="M33.785 86.442L47.4 78.04 33.785 60.83 29.6 69.18"/><path fill="#9677B1" d="M37.044 30.738l10.362 12.88 2.452-12.226"/><path fill="#A77EAC" d="M31.875 62.214l15.44 15.92 2.643-27.13-2.646-7.354-15.438 8.102"/><path fill="#CA92BE" d="M34.7 84.872l12.612-6.816-1.235 9.17"/><path fill="#855588" d="M54.95 87.225l-7.67-9.138 20.313-15.28.72 21.28"/></g><g><path fill="#45538C" d="M107.024 44.71c0 2.305-.62 4.068-1.856 5.285-1.238 1.22-3.018 1.828-5.343 1.828H96V37.87h4.232c2.146 0 3.816.6 5.007 1.803 1.188 1.202 1.782 2.882 1.782 5.038h.002zm-1.7.06c0-1.82-.452-3.19-1.356-4.114-.903-.922-2.246-1.384-4.03-1.384h-2.33V50.42h1.953c1.916 0 3.356-.475 4.32-1.426.963-.952 1.444-2.36 1.444-4.224zm7.455 7.053V40.97h1.248v10.853h-1.25zm11.327-5.686h3.65v5.278c-.568.183-1.147.32-1.734.415s-1.268.14-2.043.14c-1.626 0-2.893-.488-3.8-1.465-.904-.977-1.358-2.348-1.358-4.11 0-1.128.224-2.116.673-2.966.448-.85 1.094-1.497 1.937-1.946.843-.45 1.83-.672 2.96-.672 1.148 0 2.215.214 3.204.64l-.485 1.11c-.968-.414-1.902-.622-2.8-.622-1.306 0-2.327.394-3.063 1.18-.737.786-1.1 1.877-1.1 3.274 0 1.465.352 2.576 1.06 3.333.708.757 1.748 1.136 3.118 1.136.747 0 1.473-.086 2.183-.26v-3.34h-2.402v-1.128.002zm8.638 5.686V40.97h1.25v10.853h-1.25zm9.91 0h-1.25V42.09h-3.4v-1.12h8.052v1.123h-3.402v9.73zm14.177 0l-1.337-3.452h-4.306l-1.325 3.453h-1.263l4.247-10.898h1.05l4.225 10.898h-1.292zm-1.726-4.588l-1.25-3.362c-.16-.425-.327-.95-.5-1.566-.106.475-.26.998-.462 1.567l-1.264 3.362h3.476zm6.904 4.588V40.97h1.25v9.71H168v1.142h-5.99z"/></g><g><path fill="#45538C" d="M97.67 71.72H96V57.768h8.004v1.44H97.67v5.108h5.95v1.44h-5.95v5.966zm19.927-10.853v7.022c0 1.236-.386 2.21-1.154 2.917-.77.708-1.826 1.06-3.17 1.06s-2.385-.355-3.12-1.067c-.736-.712-1.104-1.694-1.104-2.94v-6.993h1.298v7.082c0 .905.255 1.6.763 2.085.512.485 1.26.728 2.247.728.944 0 1.668-.244 2.176-.73.51-.488.766-1.187.766-2.098v-7.068h1.298v.002-.003zm8.897 10.854h-1.3v-9.73h-3.536v-1.123h8.372v1.122h-3.537v9.73zm16.155-10.853v7.022c0 1.236-.386 2.21-1.155 2.917-.768.708-1.825 1.06-3.17 1.06s-2.384-.355-3.118-1.067c-.737-.712-1.105-1.694-1.105-2.94v-6.993h1.3v7.082c0 .905.254 1.6.763 2.085.51.485 1.258.728 2.246.728.945 0 1.67-.244 2.177-.73.51-.488.766-1.187.766-2.098v-7.068h1.3v.002l-.004-.003zm6.758 6.34v4.513h-1.3V60.868h3.065c1.37 0 2.382.253 3.037.764.655.51.98 1.278.98 2.302 0 1.435-.747 2.406-2.245 2.91l3.033 4.876h-1.535l-2.704-4.512h-2.332zm0-1.083h1.78c.916 0 1.587-.177 2.016-.53.427-.355.642-.886.642-1.594 0-.718-.218-1.234-.653-1.55-.435-.318-1.134-.476-2.098-.476h-1.687v4.15zm17.102 5.597h-6.228V60.87h6.228v1.12h-4.93v3.494h4.63v1.114h-4.63v3.993h4.93v1.13z"/></g></svg>