<svg xmlns="http://www.w3.org/2000/svg" width="200" height="100" viewBox="0 0 200 100"><path fill="gray" d="M90.128 68.913h1.927l.26-.052.21-.05.207-.105.105-.105.104-.105.05-.155.054-.313-.052-.208-.05-.158-.052-.156-.104-.104-.156-.104-.21-.053-.467-.05H90.13v1.72l-.002-.002zm0 3.593h2.188l.26-.05.21-.105.155-.155.157-.154.104-.208.053-.208.052-.26-.052-.26-.052-.26-.103-.21-.104-.154-.208-.106-.21-.104-.207-.052h-2.24v2.288zm-1.46 1.352v-8.07h3.44l.522.05.52.107.418.154.363.258.314.313.21.366.104.417.05.468-.05.208-.052.26-.05.21-.105.26-.155.154-.156.21-.157.153-.208.104.365.208.21.156.207.208.156.21.157.312.052.313.05.416-.05.573-.156.52-.208.418-.313.363-.417.313-.47.21-.576.105-.626.05H88.67v.003z"/><path fill="none" stroke="#FFF" stroke-width=".05" stroke-miterlimit="10" stroke-opacity="0" d="M92.055 68.913h-1.927v-1.718h1.824l.47.05.208.052.155.104.104.105.05.156.05.16.05.206-.05.313-.05.155-.105.104-.104.104-.207.104-.21.052-.26.05.002.003zm0 3.593h-1.927v-2.29h2.24l.208.05.21.105.207.106.103.154.104.21.052.26.052.26-.053.26-.05.208-.105.208-.156.156-.157.157-.21.103-.26.05h-.258v.003zm2.813-1.198l-.05-.417-.053-.312-.156-.31-.158-.21-.21-.208-.207-.157-.363-.21.208-.103.156-.156.157-.21.156-.155.104-.26.05-.21.053-.26.05-.208-.05-.47-.104-.416-.21-.363-.312-.315-.362-.26-.418-.155-.52-.104-.522-.05H88.67v8.068h3.387l.626-.05.572-.105.47-.208.416-.313.314-.363.208-.42.157-.52.05-.572h-.002z"/><path fill="gray" d="M97.785 73.964l-.313-.052-.26-.052-.26-.155-.208-.103-.156-.21-.313-.362-.207-.418-.104-.47-.052-.415v-3.75h1.458v3.594l.052.314.104.21.104.207.156.157.156.104.26.107h.47l.26-.105.155-.103.155-.157.156-.208.05-.208.052-.313.05-.313v-3.28h1.408v5.884H99.55v-.467l-.312.26-.313.208-.416.106-.417.053"/><path fill="none" stroke="#FFF" stroke-width=".05" stroke-miterlimit="10" stroke-opacity="0" d="M98.098 74.016l.417-.05.418-.106.313-.207.313-.26v.468h1.405V67.98h-1.407v3.28l-.05.313-.053.314-.05.21-.157.207-.156.157-.157.104-.26.106h-.47l-.26-.104-.155-.103-.156-.157-.104-.208-.104-.208-.052-.313V67.98H95.91v3.746l.05.416.106.47.208.416.313.363.157.21.208.104.26.156.26.053.313.052.313.05z"/><path fill="gray" d="M120.29 73.858v-3.593l-.05-.26-.106-.26-.103-.208-.156-.156-.155-.102-.26-.05-.21-.052-.26.05-.262.053-.155.103-.156.156-.155.208-.104.26-.05.26v3.593h-1.46V67.98h1.46v.522l.312-.313.363-.156.365-.155h.937l.417.156.363.21.313.313.262.363.155.467.105.52.05.627v3.33"/><path fill="none" stroke="#FFF" stroke-width=".05" stroke-miterlimit="10" stroke-opacity="0" d="M118.104 70.63v-.364l.05-.26.105-.26.155-.208.157-.156.156-.103.262-.05.26-.053.208.05.26.053.155.104.157.156.103.208.105.262.052.258v3.593h1.458v-3.33l-.05-.625-.106-.522-.156-.467-.26-.363-.313-.315-.363-.208-.418-.156h-.938l-.363.156-.365.157-.31.313v-.522h-1.46v5.883h1.46v-3.23z"/><path fill="gray" d="M102.32 67.975h1.457v5.883h-1.458v-5.883z"/><path fill="none" stroke="#FFF" stroke-width=".05" stroke-miterlimit="10" stroke-opacity="0" d="M102.32 67.975h1.457v5.883h-1.458v-5.883z"/><path fill="gray" d="M105.027 73.858v-7.6l1.458-.73v8.33"/><path fill="none" stroke="#FFF" stroke-width=".05" stroke-miterlimit="10" stroke-opacity="0" d="M105.027 73.858h1.458v-8.33l-1.46.73.002 7.6z"/><path fill="gray" d="M109.924 69.224l-.21.052-.207.05-.156.156-.156.21-.104.312-.05.363-.053.47.052.52.05.417.104.313.156.208.207.157.156.104.21.105h.208l.314-.05.313-.155.207-.158.155-.207v-2.344l-.157-.155-.21-.207-.312-.156-.362-.052-.157.05h.004zm-.625 4.74l-.47-.157-.362-.262-.366-.363-.26-.468-.156-.52-.104-.627-.052-.676.052-.675.104-.626.208-.47.26-.467.313-.313.418-.26.417-.155.52-.052h.364l.365.104.314.158.26.26V66.26l1.46-.73v8.333h-1.46v-.417l-.314.208-.313.21-.313.103-.363.05-.52-.05v-.003z"/><path fill="none" stroke="#FFF" stroke-width=".05" stroke-miterlimit="10" stroke-opacity="0" d="M110.132 72.66h-.21l-.208-.103-.157-.103-.208-.157-.157-.21-.104-.312-.053-.416-.052-.522.052-.468.052-.363.103-.313.156-.21.155-.155.208-.05.208-.053.157-.05.365.05.313.156.208.21.156.154v2.34l-.157.21-.208.158-.313.155-.313.052h.002zm.99-4.267l-.26-.262-.313-.155-.364-.105h-.365l-.52.052-.417.155-.417.26-.313.313-.26.47-.208.468-.104.626-.05.676.05.676.105.626.156.52.26.468.367.363.363.26.47.157.52.05.363-.05.313-.105.313-.21.312-.207v.417h1.46v-8.33l-1.46.73v2.138z"/><path fill="gray" d="M142.328 69.224l-.313.104-.208.21-.208.26v2.29l.155.157.208.21.313.155.156.05h.21l.26-.05.21-.052.207-.156.154-.208.104-.262.053-.313.05-.364.053-.417-.05-.417-.052-.363-.104-.262-.155-.26-.155-.155-.21-.104-.208-.053-.155-.05-.316.05.002-.003zm.207 4.74l-.363-.105-.313-.21-.263-.207v.417h-1.455v-7.444l1.458-.73v2.71l.26-.21.366-.21.313-.103h.362l.522.052.416.154.417.26.313.314.26.468.208.47.103.625.053.676-.052.676-.103.625-.157.52-.26.47-.363.362-.365.262-.47.155-.52.05-.364-.05h-.003z"/><path fill="none" stroke="#FFF" stroke-width=".05" stroke-miterlimit="10" stroke-opacity="0" d="M142.64 69.173l.156.052.21.05.21.105.155.156.156.26.105.258.05.365.053.415-.05.417-.052.365-.052.313-.104.26-.156.208-.208.156-.208.053-.26.05h-.21l-.156-.05-.313-.155-.21-.212-.155-.154v-2.29l.21-.26.206-.21.313-.103.315-.053v.003zm.26-1.302h-.364l-.313.105-.363.21-.262.208v-2.71l-1.457.73v7.446h1.458v-.417l.26.208.313.21.364.106.366.05.52-.05.47-.157.364-.263.365-.363.26-.47.155-.52.105-.625.052-.677-.052-.676-.104-.626-.207-.467-.26-.468-.314-.313-.417-.262-.417-.154-.522-.053v-.002z"/><path fill="gray" d="M124.927 69.224l-.21.104-.155.156-.156.21-.104.312-.052.363-.05.468.05.52.052.365.104.363.156.21.156.157.21.104.207.105h.156l.364-.05.262-.156.26-.158.155-.21v-2.34l-.155-.21-.208-.156-.313-.156-.363-.053h-.21l-.154.05zm-.52 5.883h.05l.626-.05.47-.105.313-.156.26-.21.104-.26.104-.26v-.623l-.313.208-.312.21-.313.106-.417.05-.468-.05-.468-.21-.365-.26-.363-.312-.262-.468-.155-.52-.156-.624v-1.355l.157-.626.156-.52.313-.416.313-.365.415-.21.417-.155.52-.053h.364l.366.104.313.21.26.208v-.417h1.457v5.365l-.05.676-.105.573-.26.52-.104.21-.21.207-.155.156-.208.157-.523.207-.573.157-.676.05-.52-1.146z"/><path fill="none" stroke="#FFF" stroke-width=".05" stroke-miterlimit="10" stroke-opacity="0" d="M126.334 69.745v2.34l-.156.21-.262.156-.26.156-.362.052h-.157l-.208-.104-.21-.106-.156-.155-.156-.208-.104-.363-.05-.366-.053-.52.054-.467.05-.364.105-.313.155-.21.156-.156.21-.105.156-.052h.208l.363.052.313.156.21.157.155.21zm0-1.352l-.26-.21-.313-.21-.364-.104h-.363l-.522.05-.415.156-.417.21-.313.362-.313.418-.155.52-.155.624v1.354l.156.626.157.52.26.47.363.312.366.26.47.208.467.052.418-.052.313-.104.314-.208.313-.208v.626l-.105.26-.104.26-.26.208-.313.155-.47.103-.625.05h-.05l.52 1.146.676-.05.575-.16.52-.206.21-.156.155-.156.21-.208.104-.21.26-.52.104-.572.05-.676v-5.364h-1.457v.417l-.003.003z"/><path fill="gray" d="M133.314 71.15l-.156.053-.156.104-.104.104-.104.156-.053.156v.364l.053.21.103.154.104.106.156.105.156.053.21.052.207.052.362-.052.365-.155.21-.21.208-.207v-.834l-.26-.105-.262-.103-.31-.052h-.522l-.208.05h.002zm-.26 2.812l-.363-.05-.365-.158-.313-.207-.313-.313-.208-.363-.157-.417-.052-.52.052-.52.156-.417.26-.313.313-.258.363-.21.366-.104.417-.103h.73l.362.05.313.106.262.104v-.572l-.053-.21-.104-.155-.104-.103-.156-.104-.21-.05-.416-.053-.417.052-.417.05-.365.158-.313.156-.573-.99.52-.26.52-.21.574-.104h1.094l.47.104.415.208.365.21.26.312.208.313.104.416.052.468v3.956h-1.46v-.468l-.313.26-.417.21-.363.104-.313.052-.417-.053.004-.003z"/><path fill="none" stroke="#FFF" stroke-width=".05" stroke-miterlimit="10" stroke-opacity="0" d="M132.742 71.933v-.21l.052-.154.104-.155.104-.105.156-.104.157-.052.21-.052h.52l.31.052.263.104.26.105v.834l-.21.21-.21.206-.362.157-.363.052-.21-.052-.208-.052-.156-.052-.156-.104-.104-.104-.104-.155-.052-.21v-.154l-.002-.007zm-.418-2.5l.313-.155.365-.156.417-.052.415-.05.417.05.21.052.155.104.104.104.105.157.052.21v.57l-.26-.103-.313-.105-.363-.05h-.73l-.417.102-.365.104-.363.21-.313.26-.262.312-.155.416-.052.52.052.522.156.417.208.363.313.313.314.207.363.157.365.05.417.053.312-.052.363-.104.418-.208.313-.26v.47h1.458v-3.957l-.052-.47-.104-.416-.21-.314-.26-.313-.364-.21-.416-.208-.47-.104h-1.092l-.573.105-.522.21-.52.26.572.99.002-.002z"/><path fill="gray" d="M148.318 69.12l-.21.052-.208.105-.157.156-.104.155-.104.208-.104.26v.26h2.188l-.052-.47-.103-.206-.104-.157-.155-.156-.208-.154-.21-.052-.26-.05-.21.05zm-.208 4.842l-.573-.21-.47-.26-.364-.312-.363-.468-.208-.52-.156-.574-.053-.676.052-.676.155-.575.208-.52.313-.468.418-.363.416-.263.52-.154.576-.052.52.053.468.155.416.262.363.363.313.417.21.522.104.626.05.676v.416h-3.645l.104.417.105.313.208.208.156.156.26.105.155.05.364.05.363-.05.313-.106.262-.156.208-.207.938.94-.26.207-.21.21-.26.155-.26.104-.52.21-.573.05-.626-.05v-.004z"/><path fill="none" stroke="#FFF" stroke-width=".05" stroke-miterlimit="10" stroke-opacity="0" d="M147.433 70.318v-.26l.104-.26.103-.21.104-.155.156-.155.21-.104.208-.052.208-.052.26.052.21.052.207.155.157.156.104.157.103.207.052.47h-2.19l.003-.002zm2.45 1.823l-.21.21-.26.155-.313.103-.363.052-.366-.052-.154-.05-.26-.105-.156-.155-.21-.21-.104-.312-.104-.416h3.646v-.417l-.05-.676-.105-.626-.21-.52-.312-.417-.364-.363-.417-.262-.47-.154-.52-.052-.573.052-.52.155-.417.26-.416.362-.313.47-.208.52-.156.573-.052.676.052.68.156.572.208.52.365.47.365.313.47.26.57.21.627.05.572-.05.52-.21.26-.104.262-.155.208-.208.26-.21-.938-.936z"/><path fill="gray" d="M162.446 69.277l-.21.052-.154.103-.156.157-.156.155-.104.21-.052.26v.26h2.188l-.104-.47-.05-.207-.106-.157-.155-.155-.208-.155-.21-.052-.26-.052-.26.05h-.004zm-.157 4.84l-.576-.208-.467-.26-.417-.314-.313-.468-.262-.52-.104-.574-.05-.676.05-.676.106-.575.262-.52.313-.468.364-.364.47-.26.52-.157.522-.05.572.05.47.156.418.26.365.363.26.417.21.52.156.627.05.676v.417h-3.646l.052.417.156.313.155.208.208.155.21.105.21.05.312.052.365-.052.313-.104.26-.155.26-.208.887.938-.21.208-.26.208-.208.157-.26.104-.576.21-.572.052-.573-.052v-.002z"/><path fill="none" stroke="#FFF" stroke-width=".05" stroke-miterlimit="10" stroke-opacity="0" d="M161.612 70.472v-.26l.052-.26.104-.208.155-.157.155-.155.155-.104.21-.052.26-.052.26.053.208.052.21.154.154.155.105.156.05.207.104.468h-2.186l.004.002zm2.447 1.825l-.263.208-.26.156-.312.104-.363.052-.313-.052-.21-.05-.21-.105-.208-.156-.156-.21-.156-.312-.052-.416h3.647V71.1l-.05-.677-.157-.626-.208-.52-.26-.418-.365-.364-.417-.262-.47-.156-.573-.05-.52.05-.522.157-.47.26-.363.363-.313.47-.262.52-.104.573-.05.677.05.678.106.573.26.52.312.47.417.313.468.26.575.21.572.052.575-.052.573-.21.26-.103.208-.156.26-.207.21-.21-.887-.937z"/><path fill="gray" d="M157.808 74.118l-.363-.155-.262-.157-.208-.26-.156-.26-.106-.313-.05-.313-.053-.313v-2.863h-.884v-1.352h.885v-1.51l1.46-.73v2.24h1.355v1.352h-1.355v2.5l.053.365.103.207.104.104.105.05.26.05h.262l.208-.05.416-.207-.154 1.354-.26.155-.313.052-.313.05-.365.053"/><path fill="none" stroke="#FFF" stroke-width=".05" stroke-miterlimit="10" stroke-opacity="0" d="M158.07 69.483h1.354V68.13h-1.355v-2.24l-1.46.732v1.51h-.885v1.352h.885v2.866l.053.313.05.31.106.314.154.26.208.26.26.155.363.156.365.052.365-.052.313-.05.313-.053.26-.155.156-1.354-.416.208-.21.05h-.258l-.262-.05-.103-.05-.103-.105-.103-.21-.052-.366v-2.5z"/><path fill="gray" d="M153.528 73.962l-.363-.156-.262-.155-.208-.26-.157-.26-.104-.312-.05-.313-.052-.313V69.33h-.885v-1.353h.886v-1.51l1.458-.73v2.24h1.252v1.352h-1.25v2.5l.052.364.103.208.104.104.106.05.26.05h.26l.21-.05.416-.208-.155 1.354-.26.155-.313.052-.313.05-.364.052"/><path fill="none" stroke="#FFF" stroke-width=".05" stroke-miterlimit="10" stroke-opacity="0" d="M155.3 72.348l-.417.208-.21.05h-.26l-.26-.05-.104-.05-.104-.105-.103-.208-.053-.366v-2.5h1.25v-1.35h-1.25v-2.24l-1.458.73v1.51h-.885v1.352h.886v2.866l.052.313.05.31.105.314.156.26.208.26.262.156.363.155.362.054.365-.053.313-.05.313-.05.26-.156.156-1.356z"/><path fill="gray" d="M166.143 74.015v-5.883h1.46v.52l.26-.313.312-.156.365-.155h.626l.313.05.26.157.26.103-.418 1.457-.208-.155-.21-.104-.26-.052h-.522l-.207.053-.157.103-.157.155-.102.21-.104.207-.053.313v3.49"/><path fill="none" stroke="#FFF" stroke-width=".05" stroke-miterlimit="10" stroke-opacity="0" d="M170 68.34l-.26-.105-.262-.157-.313-.05h-.623l-.363.155-.316.157-.26.313v-.52h-1.46v5.882h1.46v-3.488l.052-.313.104-.21.103-.208.157-.155.156-.103.206-.052h.523l.26.053.208.104.207.155.42-1.458z"/><path fill="gray" d="M102.432 65.84h1.458v1.456h-1.458V65.84z"/><path fill="none" stroke="#FFF" stroke-width=".05" stroke-miterlimit="10" stroke-opacity="0" d="M102.432 65.84h1.458v1.456h-1.458V65.84z"/><path fill="gray" d="M113.883 67.975h1.458v5.883h-1.457v-5.883z"/><path fill="none" stroke="#FFF" stroke-width=".05" stroke-miterlimit="10" stroke-opacity="0" d="M113.883 67.975h1.458v5.883h-1.457v-5.883z"/><path fill="gray" d="M113.996 65.84h1.458v1.456h-1.458V65.84z"/><path fill="none" stroke="#FFF" stroke-width=".05" stroke-miterlimit="10" stroke-opacity="0" d="M113.996 65.84h1.458v1.457h-1.458V65.84z"/><path fill="gray" d="M153.892 79.533l-.155.104-.155.156-.156.21-.104.26-.105.416v.937l.105.417.104.313.156.262.155.153.21.104.154.05h.572l.262-.154.208-.21.208-.206v-2.29l-.156-.21-.26-.155-.262-.158-.363-.052h-.21l-.21.053.002-.002zm.105 4.74l-.52-.053-.418-.157-.415-.26-.313-.363-.262-.418-.207-.572-.105-.573-.05-.73.05-.676.106-.574.208-.52.262-.417.313-.364.414-.262.47-.154.522-.05.313.05.363.105.313.155.314.26v-2.135l1.46-.73v8.332h-1.46V83.7l-.313.258-.364.208-.31.104H154v.003h-.003z"/><path fill="none" stroke="#FFF" stroke-width=".05" stroke-miterlimit="10" stroke-opacity="0" d="M154.31 82.917h-.21l-.155-.05-.21-.106-.153-.154-.156-.26-.104-.313-.106-.416v-.937l.105-.418.104-.26.156-.208.155-.156.156-.104.21-.052h.21l.362.052.26.157.26.156.156.21v2.29l-.207.21-.208.207-.26.156h-.363v-.003zm1.04-4.218l-.312-.26-.313-.155-.363-.104-.313-.05-.523.052-.468.156-.417.26-.313.364-.26.417-.208.52-.105.573-.052.676.052.73.105.572.208.572.26.417.313.364.417.262.417.156.52.05h.364l.314-.103.365-.21.312-.26v.47h1.46v-8.333l-1.46.73V78.7z"/><path fill="gray" d="M102.422 84.167v-5.883h1.458v.52l.26-.312.313-.207.313-.103.417-.053.26.052.312.05.26.105.26.155-.417 1.407-.21-.105-.26-.1-.207-.055-.26-.05-.26.05-.21.053-.207.1-.105.158-.155.157-.052.26-.05.26v3.54"/><path fill="none" stroke="#FFF" stroke-width=".05" stroke-miterlimit="10" stroke-opacity="0" d="M106.277 78.49l-.26-.156-.26-.103-.313-.05-.26-.052-.418.052-.313.104-.313.208-.26.313v-.52h-1.458v5.883h1.458v-3.54l.052-.262.052-.26.155-.154.104-.156.208-.104.21-.05.26-.052.26.05.208.052.26.105.21.105.417-1.412z"/><path fill="gray" d="M92.94 84.167l-.625-2.447-.363-1.302-.313 1.352-.627 2.397h-1.25l-.05-.052-1.56-5.625v-.207h1.404l.572 2.187.26 1.458.207-.78.156-.73.626-2.134h1.248l.572 2.135.365 1.51.313-1.51.52-2.134h1.46L94.19 84.17"/><path fill="none" stroke="#FFF" stroke-width=".05" stroke-miterlimit="10" stroke-opacity="0" d="M93.878 80.418l-.313 1.51-.363-1.51-.573-2.133h-1.252l-.626 2.135-.155.73-.208.78-.26-1.457-.574-2.187h-1.46l1.616 5.83.052.053h1.25l.627-2.397.312-1.352.365 1.303.626 2.447h1.25l1.666-5.883H94.4l-.522 2.13z"/><path fill="gray" d="M98.36 79.637l-.21.156-.208.156-.104.26-.104.312-.052.31-.052.366.052.365.052.363.104.262.104.26.21.208.207.156.208.052.26.05.262-.05.208-.052.208-.156.21-.208.102-.26.104-.26.104-.362v-.73l-.104-.313-.104-.313-.104-.26-.21-.154-.208-.155-.21-.103h-.52l-.21.104.003-.003zm-.105 4.583l-.52-.157-.418-.26-.417-.364-.313-.47-.26-.52-.103-.574-.052-.676.052-.626.104-.573.26-.572.313-.418.42-.363.416-.262.52-.207.574-.05.575.05.52.21.417.26.417.362.312.418.26.572.104.573.052.626-.05.675-.105.573-.26.52-.313.47-.416.362-.417.262-.52.156-.576.05-.57-.05-.005.002z"/><path fill="none" stroke="#FFF" stroke-width=".05" stroke-miterlimit="10" stroke-opacity="0" d="M98.827 82.917l-.26-.052-.208-.05-.21-.156-.208-.21-.104-.26-.104-.26-.052-.365-.05-.363.05-.365.052-.313.104-.313.104-.258.21-.155.207-.156.208-.103h.523l.208.104.21.157.208.155.103.26.103.312.104.313v.73l-.104.364-.104.26-.105.26-.21.21-.21.156-.207.05-.262.052zm0-4.79l-.572.052-.52.207-.418.26-.417.364-.313.42-.26.572-.103.573-.052.626.052.677.104.573.26.52.313.47.42.363.416.262.52.154.574.05.575-.05.52-.156.417-.26.417-.363.312-.47.26-.52.104-.573.053-.676-.053-.625-.103-.573-.26-.573-.313-.418-.415-.363-.417-.263-.52-.207-.576-.052h-.005z"/><path fill="gray" d="M144.672 84.167v-5.883h1.46v.52l.31-.313.313-.207.313-.103.365-.052.313.052.313.05.258.104.208.157-.365 1.408-.207-.104-.26-.104-.26-.05-.26-.053-.21.052-.208.05-.208.105-.155.157-.105.155-.05.26-.054.26-.05.363v3.18"/><path fill="none" stroke="#FFF" stroke-width=".05" stroke-miterlimit="10" stroke-opacity="0" d="M148.527 78.49l-.21-.156-.26-.103-.312-.05-.313-.052-.363.052-.314.103-.313.21-.313.312v-.52h-1.458v5.882h1.46V80.99l.05-.362.052-.262.05-.26.105-.154.154-.156.208-.104.208-.05.21-.053.26.05.26.05.26.107.208.105.37-1.412z"/><path fill="gray" d="M135.242 84.167l-.676-2.448-.313-1.303-.313 1.352-.676 2.396h-1.25v-.052l-1.668-5.833h1.51l.522 2.19.313 1.46.157-.782.21-.73.625-2.136h1.198l.626 2.134.363 1.51.312-1.51.523-2.136h1.458l-1.667 5.883"/><path fill="none" stroke="#FFF" stroke-width=".05" stroke-miterlimit="10" stroke-opacity="0" d="M136.18 80.418l-.313 1.51-.363-1.51-.626-2.136h-1.2l-.625 2.134-.208.73-.155.78-.313-1.458-.52-2.186h-1.512l1.667 5.833v.05h1.25l.677-2.395.312-1.352.313 1.302.676 2.447h1.252l1.667-5.883h-1.46l-.52 2.134z"/><path fill="gray" d="M140.61 79.637l-.21.155-.155.155-.156.26-.105.313-.052.313v.73l.052.364.104.26.155.26.155.21.21.153.26.05.26.053.26-.052.208-.05.21-.155.154-.21.156-.26.103-.26.05-.363v-.73l-.05-.314-.103-.313-.157-.26-.155-.155-.21-.155-.207-.105h-.523l-.26.105.004.002zm-.055 4.58l-.52-.154-.47-.26-.362-.363-.313-.47-.262-.52-.155-.574-.05-.676.05-.626.156-.572.26-.522.314-.468.363-.365.468-.26.52-.21.576-.05.52.05.522.21.47.26.363.364.366.47.21.52.155.57.05.627-.05.676-.156.575-.21.52-.365.47-.363.362-.47.262-.52.154-.52.052-.577-.05z"/><path fill="none" stroke="#FFF" stroke-width=".05" stroke-miterlimit="10" stroke-opacity="0" d="M141.13 82.917l-.262-.052-.26-.05-.208-.156-.155-.21-.156-.26-.105-.26-.052-.363v-.73l.052-.313.104-.313.155-.26.155-.155.21-.154.26-.104h.52l.21.105.208.156.155.156.156.26.102.313.05.313v.73l-.05.363-.104.263-.157.26-.154.208-.21.156-.207.05-.26.053v-.003zm0-4.79l-.575.05-.52.21-.47.26-.362.364-.313.47-.262.522-.155.57-.05.627.05.675.156.575.26.52.314.467.363.365.468.26.52.155.576.052.52-.053.522-.155.47-.26.363-.365.366-.468.208-.52.156-.574.05-.678-.05-.626-.156-.57-.208-.522-.366-.467-.363-.365-.47-.26-.52-.21-.52-.05z"/><path fill="gray" d="M110.392 84.167l-1.25-2.76-.73.99v1.77h-1.458v-7.602l1.458-.73v4.686l.52-.728 1.146-1.51h1.72l-1.563 1.927 1.772 3.955"/><path fill="none" stroke="#FFF" stroke-width=".05" stroke-miterlimit="10" stroke-opacity="0" d="M111.8 78.282h-1.72l-1.145 1.51-.522.73V75.84l-1.46.73v7.6h1.46V82.4l.728-.988 1.252 2.76h1.615l-1.772-3.958 1.564-1.93z"/><path fill="gray" d="M119.302 84.167v-3.593l-.053-.313-.105-.26-.104-.155-.154-.156-.156-.105-.208-.104h-.52l-.26.106-.157.104-.156.156-.157.208-.05.21-.053.312-.05.313v3.28h-1.46v-5.886h1.46v.47l.312-.262.365-.21.363-.103.47-.05.468.05.47.155.362.208.313.262.21.417.155.468.104.52.05.627v3.332"/><path fill="none" stroke="#FFF" stroke-width=".05" stroke-miterlimit="10" stroke-opacity="0" d="M117.113 80.886l.052-.313.052-.313.05-.208.158-.208.156-.156.157-.104.263-.104h.52l.21.105.157.104.156.155.105.156.104.26.052.313v3.593h1.457v-3.332l-.05-.626-.105-.52-.157-.468-.208-.417-.313-.262-.363-.206-.47-.156-.468-.05-.47.05-.362.104-.365.21-.314.26v-.47h-1.458v5.886h1.46l-.005-3.282z"/><path fill="gray" d="M123.937 79.532l-.21.104-.155.155-.155.21-.104.26-.05.416-.053.417.052.52.05.418.105.312.156.26.21.156.156.105.208.052h.52l.262-.155.26-.21.155-.208v-2.29l-.156-.21-.21-.155-.313-.155-.363-.052h-.157l-.21.052zm-.52 5.883h.05l.626-.05.47-.105.313-.208.26-.21.105-.207.105-.262v-.675l-.26.26-.366.157-.314.156h-.363l-.52-.052-.47-.155-.364-.26-.364-.363-.262-.417-.155-.575-.105-.624-.052-.676.052-.676.104-.575.208-.52.26-.418.313-.364.417-.262.417-.155.52-.053.364.052.365.103.313.157.26.262v-.418h1.458v5.31l-.05.677-.104.627-.208.52-.155.21-.156.155-.206.207-.21.156-.52.21-.573.154-.675.05-.522-1.147-.006.002z"/><path fill="none" stroke="#FFF" stroke-width=".05" stroke-miterlimit="10" stroke-opacity="0" d="M125.344 80.052v2.29l-.156.21-.26.21-.26.155h-.52l-.21-.052-.156-.104-.21-.155-.154-.26-.104-.313-.05-.417-.053-.52.053-.417.05-.417.105-.26.156-.208.157-.155.21-.104.208-.05h.155l.363.05.313.156.21.155.155.207zm0-1.354l-.26-.26-.313-.157-.364-.103-.363-.053-.522.052-.415.155-.417.26-.313.364-.26.418-.208.52-.103.574-.052.676.052.676.104.626.157.575.26.413.363.365.366.26.47.155.52.052h.363l.313-.156.365-.157.26-.26v.677l-.104.26-.103.208-.26.21-.313.207-.47.104-.625.05h-.053l.52 1.145.677-.052.575-.157.52-.207.207-.158.208-.207.156-.156.157-.21.208-.52.104-.625.05-.676v-5.313h-1.457v.42z"/><path fill="gray" d="M112.894 78.28h1.458v5.884h-1.458V78.28z"/><path fill="none" stroke="#FFF" stroke-width=".05" stroke-miterlimit="10" stroke-opacity="0" d="M112.894 78.28h1.458v5.884h-1.458V78.28z"/><path fill="gray" d="M112.894 75.99h1.458v1.458h-1.458V75.99z"/><path fill="none" stroke="#FFF" stroke-width=".05" stroke-miterlimit="10" stroke-opacity="0" d="M112.894 75.99h1.458v1.458h-1.458V75.99z"/><path fill="gray" d="M149.257 84.166v-7.6l1.457-.73v8.328"/><path fill="none" stroke="#FFF" stroke-width=".05" stroke-miterlimit="10" stroke-opacity="0" d="M149.257 84.166h1.457v-8.33l-1.457.728v7.602z"/><path fill="#FFE600" d="M30 45.207L120.993 12h.01v17.155L30 45.22"/><path fill="gray" d="M30 84.12V52.065h18.49l4.303 7.358h-13.06v5.292h11.83v6.752H39.732v5.292h16.34v7.36"/><path fill="none" stroke="#FFF" stroke-width=".05" stroke-miterlimit="10" stroke-opacity="0" d="M39.732 71.468h11.832v-6.752H39.73v-5.292h13.062l-4.302-7.358H30V84.12h26.07v-7.36H39.73l.002-5.292z"/><path fill="gray" d="M62.935 84.12V71.467l-11.37-19.402h10.807l5.48 10.482 5.532-10.482H84.09L72.666 71.468v12.65"/><path fill="none" stroke="#FFF" stroke-width=".05" stroke-miterlimit="10" stroke-opacity="0" d="M73.383 52.066l-5.53 10.482-5.48-10.482H51.564l11.37 19.402v12.65h9.73V71.47L84.09 52.066H73.383z"/></svg>