<svg xmlns="http://www.w3.org/2000/svg" width="200" height="100" viewBox="0 0 200 100"><path fill="#4F4B4A" d="M62.05 29.234c1.06.25 2.142.384 3.186.725.478.155.63.385.532.84-.074.344-.12.697-.23 1.03-.385 1.197-.605 1.313-1.8 1.003-.788-.204-1.583-.36-2.4-.35-1.92.018-2.975.98-3.146 2.894-.11 1.23.042 2.447.198 3.666.047.37.245.362.508.358 1.6-.02 3.202-.014 4.8-.07.527-.02.69.184.713.65.037.686.043 1.37-.01 2.057-.033.403-.19.56-.626.544-1.474-.055-2.95-.044-4.424-.105-.517-.02-.612.166-.61.636.014 5.367 0 10.733.02 16.1.002.53-.106.772-.68.803-.958.05-1.91.056-2.866.01-.566-.03-.745-.222-.74-.82.032-4.12.017-8.237.017-12.355 0-1.27-.015-2.538.01-3.806.008-.428-.107-.592-.554-.563-.85.054-1.703.044-2.552.1-.383.024-.525-.134-.554-.48-.066-.767-.062-1.535-.002-2.304.028-.36.195-.48.565-.462.747.038 1.498-.002 2.245.038.496.027.665-.052.6-.632-.156-1.422-.33-2.857-.1-4.288.455-2.803 2.11-4.523 4.89-5.12.052-.012.096-.065.143-.098h2.87z"/><path fill="#4E4A49" d="M30.9 49.62c0-2.934-.006-5.866.003-8.8.006-1.888-.227-1.573 1.63-1.6.104-.003.208-.002.312 0 1.23.015 2.036.633 2.215 1.84.103.697.274.543.67.217 1.506-1.245 3.212-2.023 5.18-2.24 3.26-.36 5.533 1.285 6.157 4.51.162.84.232 1.688.234 2.54.006 3.265.005 6.53.002 9.796 0 1.048.122 2.077.54 3.045.127.298.067.443-.183.606-1.082.705-2.257.882-3.457.465-1.1-.382-1.214-1.4-1.22-2.374-.024-3.12-.004-6.24-.013-9.36-.003-.995.046-1.993-.114-2.985-.31-1.915-1.248-2.607-3.174-2.28-1.628.274-3 1.045-4.185 2.187-.26.25-.285.522-.284.84.004 4.41-.007 8.82.016 13.23.002.52-.116.737-.655.762-1.04.05-2.074.065-3.114-.02-.448-.037-.573-.198-.57-.648.02-3.244.01-6.488.01-9.733z"/><path fill="#41749E" d="M126.455 47.325c0 2.225-.02 4.45.007 6.676.016 1.377.077 2.758 1.037 3.89.038.046.075.103.086.16.16.867-1.35 2.254-2.188 2.014-1.207-.345-2.11-1.078-2.63-2.215-.22-.482-.32-.577-.767-.183-1.556 1.373-3.33 2.304-5.436 2.555-3.493.417-5.83-1.367-6.337-4.875-.104-.723-.14-1.447-.14-2.175-.002-3.057-.002-6.115-.002-9.172 0-1.25-.057-2.495-.575-3.664-.104-.236-.047-.387.163-.52 1.076-.68 2.226-.927 3.447-.497.852.3 1.15 1.04 1.222 1.868.05.578.018 1.164.026 1.746.047 3.555-.12 7.112.093 10.664.14 2.315 1.18 3.082 3.47 2.627 1.538-.306 2.798-1.117 3.95-2.14.266-.238.224-.515.224-.8.002-4.387.012-8.776-.012-13.164-.003-.558.097-.804.713-.84.978-.055 1.948-.04 2.925-.003.663.025.745.303.738.872-.03 2.39-.013 4.783-.013 7.175zM150.403 60.443c-2.35.032-4.593-.634-6.72-1.773-.426-.23-.537-.48-.396-.942.215-.704.526-1.348.932-1.96.248-.374.482-.397.87-.187 1.337.727 2.72 1.347 4.25 1.544 1.046.135 2.08.05 3.07-.312.84-.307 1.488-.838 1.646-1.786.168-1.008-.234-1.785-1.02-2.388-.55-.422-1.182-.685-1.824-.932-1.51-.58-3.063-1.062-4.437-1.954-1.997-1.296-3.07-3.072-2.802-5.505.28-2.537 1.79-4.102 4.124-4.894 2.624-.89 5.25-.568 7.85.18.497.142.966.386 1.467.51.587.147.754.456.62 1.03-.167.715-.396 1.393-.818 2.003-.253.367-.502.443-.934.248-1.605-.724-3.282-1.176-5.062-1.16-.547.006-1.082.072-1.576.317-.775.387-1.294.97-1.346 1.875-.05.9.334 1.554 1.115 2 1.306.75 2.754 1.156 4.133 1.73.963.4 1.885.868 2.716 1.506 3.592 2.76 3.077 7.92-.995 9.902-1.508.734-3.124.96-4.864.95z"/><path fill="#4576A0" d="M132.868 43.128V30.274c0-.878.02-.896.924-.897.437 0 .875-.018 1.31.006 1.19.067 1.823.662 1.963 1.847.046.39.072.787.072 1.18.004 7.342.003 14.685.005 22.027 0 .29.003.584.04.87.107.822.585 1.267 1.404 1.305.436.02.874.02 1.31 0 .27-.012.428.078.504.34.233.81.358 1.623.204 2.462-.04.212-.076.37-.358.416-1.403.222-2.817.368-4.223.173-2.092-.29-3.15-1.682-3.155-4.02-.005-4.286 0-8.57 0-12.855z"/><path fill="#4E4A49" d="M20.234 49.628c0-3.224.012-6.45-.01-9.673-.005-.58.182-.8.754-.742.33.033.665.006.998.006 1.6 0 2.43.773 2.5 2.377.05 1.204.067 2.41.07 3.614.007 4.702-.004 9.404.012 14.105.002.458-.104.672-.59.7-1.06.062-2.118.07-3.178-.01-.444-.033-.57-.186-.568-.64.023-3.246.012-6.492.012-9.737z"/><path fill="#7AC427" d="M18.843 33.127c.01-1.985 1.596-3.537 3.595-3.52 1.953.02 3.5 1.6 3.487 3.564-.014 1.953-1.592 3.53-3.53 3.534-1.98.003-3.562-1.592-3.552-3.577z"/><path fill="#41749E" d="M103.627 42.177c-1.387-2.548-3.81-3.696-6.69-3.252-1.75.27-3.21 1.067-4.538 2.356-.418-1.634-1.485-2.173-2.978-2.062-.083.006-.166 0-.25 0-.91 0-.91 0-.91.883V70.3c0 .125.006.25-.002.374-.024.374.154.53.52.523.437-.01.873-.002 1.31-.002 1.71 0 2.388-.632 2.408-2.36.033-2.85.02-5.698.026-8.547.002-1.283 0-1.283 1.16-.777 4.188 1.83 8.236.352 10.26-3.758.92-1.863 1.27-3.858 1.282-5.916.015-2.664-.298-5.27-1.6-7.66zm-3.415 11.542c-.49 1.418-1.288 2.622-2.875 3.02-1.058.267-2.057.004-3.027-.418-1.786-.777-1.786-.778-1.786-2.71v-3.43c0-1.496.01-2.993-.008-4.49-.005-.378.104-.67.338-.96.916-1.136 2.012-1.955 3.498-2.196 1.304-.21 2.32.22 3.115 1.243.738.95 1.045 2.063 1.196 3.228.294 2.266.305 4.525-.45 6.71z"/><path fill="#42759F" d="M178.74 46.21c-.27-2.032-.976-3.877-2.535-5.28-4.333-3.902-11.106-2.347-13.27 3.1-1.53 3.852-1.356 7.77.005 11.643.382 1.087 1.05 2.024 1.906 2.815 1.24 1.144 2.72 1.76 4.38 1.9 3.085.256 5.997-.3 8.65-1.978.338-.213.442-.422.317-.812-.2-.618-.435-1.206-.81-1.743-.274-.395-.51-.528-1.005-.263-1.676.894-3.475 1.362-5.386 1.33-2.194-.036-3.498-.992-4.182-3.066-.235-.713-.343-1.45-.426-2.197-.053-.476.058-.654.58-.644 1.81.032 3.62.012 5.43.013 1.872 0 3.744-.01 5.617.007.412.004.58-.107.635-.54.184-1.43.287-2.856.096-4.287zm-4.552 1.678c-.31-.005-.623-.007-.934-.01-.935-.004-1.87.003-2.804.003-.888 0-1.776-.007-2.664 0-.296 0-.592.004-.888.01-.397.006-.558-.094-.518-.52.105-1.124.293-2.224.807-3.24.733-1.45 1.937-2.1 3.543-2.054 1.586.044 2.724.765 3.375 2.222.44.985.564 2.028.584 3.096.008.385-.127.5-.502.494z"/><path fill="#4D4948" d="M83.39 47.302c-.07-.45-.15-.9-.255-1.345-.97-4.127-3.45-6.57-7.378-7.04-4.247-.505-7.72 1.26-9.296 5.53-1.217 3.3-1.24 6.69-.132 10.024 1.113 3.352 3.37 5.497 6.987 5.904 4.366.49 7.83-1.31 9.447-5.692.597-1.616.79-3.304.775-5.02.008-.79-.023-1.578-.146-2.36zm-4.888 6.832c-.917 2.664-3.565 3.812-5.87 2.527-1.327-.738-1.882-2.022-2.17-3.41-.528-2.53-.538-5.077.095-7.593.374-1.483 1.102-2.75 2.658-3.293 2.08-.725 4.137.19 5.056 2.23.726 1.61.796 3.334.865 5.033-.054 1.542-.133 3.055-.633 4.507z"/></svg>