<svg xmlns="http://www.w3.org/2000/svg" width="200" height="100" viewBox="0 0 200 100"><path fill="#00B5D3" d="M59.024 51.627c.655-5.22 3.11-9.95 9.22-9.95 5.24 0 8.62 3.75 9.004 9.95H59.024zm9.33-12.776c-7.53 0-12.822 6.2-12.822 15.062s5.074 14.572 12.876 14.572c6.602 0 10.803-3.915 12.003-10.113h-3.33c-1.09 4.84-4.09 7.342-8.564 7.342-6.765 0-9.494-5.437-9.494-11.31h21.662v-.978c0-7.724-4.036-14.573-12.33-14.573m32.9 18.05c0 5.33-4.42 8.592-9.548 8.592-3.928 0-6.438-2.065-6.438-5.328 0-4.567 4.8-5.384 8.348-5.872 3.765-.488 6.547-.76 7.638-1.957V56.9zm3.382 5.22V46.897c0-5.274-3.983-8.048-10.312-8.048-6.93 0-11.02 3.425-11.294 9.408h3.274c.436-4.515 2.892-6.58 7.638-6.58 4.474 0 7.31 1.414 7.31 6.034 0 1.415-.272 2.176-.98 2.665-1.365.925-3.766 1.033-8.185 1.468-6.93.708-10.42 3.534-10.42 8.646 0 4.892 3.436 7.828 9.165 7.828 4.747 0 8.293-1.957 10.585-5.6 0 2.554.327 5.112 3.656 5.112.983 0 1.802-.11 2.73-.437v-2.61c-.6.163-.874.163-1.31.163-1.91.003-1.856-1.14-1.856-2.825m17.677 3.427c-5.893 0-9.603-4.567-9.603-11.91 0-7.5 3.6-12.015 9.494-12.015s9.603 4.732 9.603 12.072c0 7.178-3.765 11.854-9.493 11.853m.326-26.75c-4.693 0-8.022 2.065-10.04 6.198V39.61h-3.11V78h3.328V62.393c1.91 4.024 5.402 6.036 9.93 6.036 7.53 0 12.55-5.875 12.55-14.738 0-8.97-5.02-14.9-12.66-14.9m15.88-10.11h3.437v5.6h-3.437v-5.6zm0 10.928h3.437v27.95h-3.437V39.61zm9.82 12.017c.655-5.22 3.11-9.95 9.22-9.95 5.24 0 8.62 3.75 9.003 9.95h-18.223zm21.66 1.794c0-7.72-4.036-14.57-12.33-14.57-7.53 0-12.822 6.2-12.822 15.062s5.074 14.572 12.876 14.572c6.602 0 10.803-3.915 12.003-10.113h-3.328c-1.09 4.84-4.092 7.342-8.566 7.342-6.766 0-9.494-5.437-9.494-11.31h21.66v-.978h.002v-.003zM50.224 24.04c.925 0 1.674.746 1.674 1.667 0 .922-.75 1.668-1.674 1.668-.925 0-1.674-.747-1.674-1.668 0-.922.75-1.668 1.674-1.668m0-2.04c-2.054 0-3.72 1.66-3.72 3.707 0 1.425.807 2.66 1.99 3.28v27.1c0 5.112-.927 9.297-7.31 9.297-5.984 0-7.413-3.25-7.57-8.18l1.875.963s-.945-1.25-1.89-2.856v-.258h-.15c-.47-.817-.928-1.71-1.257-2.57-1.053-2.75-2.16-7.167-2.16-7.167V55.36c-.032.538-.033.798-.033 1.214 0 7.558 3.055 11.854 11.185 11.854 7.693 0 10.967-4.295 10.967-11.364v-28.19c1.073-.65 1.793-1.823 1.793-3.168 0-2.047-1.667-3.706-3.72-3.706"/></svg>