<svg width="200" height="100" viewBox="0 0 200 100" xmlns="http://www.w3.org/2000/svg"><title>lifetracker</title><path d="M11.993 57.773H2V42.31h3.234v12.784h6.76v2.68zm7.557 0V42.31h3.235v15.463H19.55zm11.445 0V42.31h10.12v2.667H34.23v4.148h6.287v2.56H34.23v6.088h-3.235zm27.907 0h-10.24V42.31h10.24v2.667h-7.004v3.73h6.608v2.486h-6.608v3.9h7.004v2.68zm11.724 0V44.977h-4.52V42.31H78.39v2.667h-4.53v12.796h-3.234zm18.428-8.005h2.838c.82 0 1.457-.218 1.907-.654.45-.436.674-1.04.674-1.81 0-.373-.06-.71-.183-1.014-.12-.304-.293-.563-.518-.777-.225-.214-.5-.38-.825-.498-.325-.118-.687-.177-1.087-.177h-2.806v4.93zm0 8.005H85.82V42.31h6.383c.885 0 1.676.113 2.372.342.696.228 1.282.555 1.757.98.475.425.837.94 1.087 1.55.25.606.374 1.292.374 2.056 0 .493-.063.968-.188 1.426-.125.457-.307.875-.546 1.254-.24.378-.534.716-.884 1.012-.35.297-.746.53-1.188.702l3.256 6.14H94.58l-2.88-5.658h-2.646v5.66zm25.444-3.75h-5.43l-1.18 3.75h-3.32l5.367-15.464h3.802l5.377 15.463h-3.438l-1.178-3.75zm-4.734-2.423h4.037l-1.98-6.333h-.075l-1.98 6.333zm22.648 6.44c-1.128 0-2.142-.18-3.042-.546-.9-.364-1.667-.89-2.303-1.58-.635-.69-1.122-1.53-1.46-2.52-.34-.988-.51-2.108-.51-3.36 0-1.242.17-2.358.514-3.348.344-.99.833-1.83 1.468-2.518.636-.69 1.403-1.216 2.303-1.58.9-.365 1.91-.547 3.032-.547.928 0 1.792.142 2.592.424.8.282 1.5.68 2.104 1.19.604.51 1.087 1.123 1.452 1.838.364.714.578 1.503.642 2.368h-3.15c-.077-.472-.222-.902-.432-1.29-.21-.39-.475-.72-.793-.993-.318-.27-.682-.482-1.092-.632-.41-.15-.852-.225-1.323-.225-.614 0-1.168.123-1.66.37-.493.246-.914.6-1.264 1.06-.35.46-.62 1.02-.81 1.672-.188.654-.282 1.388-.282 2.203 0 .828.094 1.57.283 2.23.19.656.456 1.215.803 1.676.346.462.767.815 1.263 1.062.497.246 1.055.37 1.677.37.478 0 .92-.068 1.328-.204.408-.136.768-.332 1.082-.59.315-.257.577-.567.788-.932.21-.364.358-.775.444-1.232h3.15c-.094.864-.322 1.643-.687 2.336-.364.693-.84 1.284-1.43 1.774-.588.49-1.28.866-2.072 1.13-.792.265-1.663.397-2.613.397zm14.433-.267V42.31h3.235v7.05h.096l5.805-7.05h3.6l-5.72 6.857 6.116 8.606h-3.866l-4.584-6.462-1.446 1.737v4.726h-3.235zm30.37 0h-10.24V42.31h10.24v2.667h-7.004v3.73h6.61v2.486h-6.61v3.9h7.005v2.68zm11.21-8.005h2.838c.82 0 1.457-.218 1.907-.654.45-.436.674-1.04.674-1.81 0-.373-.06-.71-.182-1.014-.12-.304-.294-.563-.52-.777-.224-.214-.5-.38-.824-.498-.325-.118-.687-.177-1.087-.177h-2.805v4.93zm0 8.005h-3.234V42.31h6.384c.885 0 1.676.113 2.372.342.696.228 1.282.555 1.757.98.474.425.837.94 1.087 1.55.25.606.375 1.292.375 2.056 0 .493-.063.968-.188 1.426-.125.457-.307.875-.546 1.254-.238.378-.533.716-.883 1.012-.35.297-.746.53-1.188.702l3.254 6.14h-3.662l-2.882-5.658h-2.645v5.66z" fill="#243450" fill-rule="evenodd"/></svg>