<svg xmlns="http://www.w3.org/2000/svg" width="200" height="100" viewBox="0 0 200 100"><path fill="#C1C0BF" d="M0 32.567v34.866L29 84V49.136"/><path fill="#A1A09F" d="M29 49.135V84l30-16.566V32.567"/><path fill="#E1E0DF" d="M.095 32.567l28.988 16.558 29.81-16.558L29.493 16"/><path fill="#2F72A0" d="M29 25.202V36.57l11 6.63v24.224l10-5.55v-24.13M19 66.882L9 61.47l.042-33.928L19 31.832"/><path fill="#5584A6" d="M9 61.47l10 5.412v-11.91l-10-5.41"/><path fill="#19618F" d="M19 31.792v11.5l10-6.723V25.2"/><path fill="#5584A6" d="M40 55.323v12.1l10-5.55v-.222"/><path fill="#81807F" d="M73.92 57.33c0 .24-.087.447-.26.62s-.377.257-.62.257-.447-.086-.62-.258-.257-.38-.257-.62V41.534c0-.24.086-.448.258-.62s.38-.258.62-.258c.265 0 .49.106.68.318l10.73 13.798v-13.24c0-.24.085-.447.257-.62s.378-.257.62-.257.448.086.62.258.258.378.258.62v15.794c0 .24-.086.448-.258.62s-.378.258-.62.258c-.256 0-.475-.095-.658-.285L73.92 44.1v13.23zm35.18-7.9c0 2.42-.856 4.49-2.57 6.204-1.716 1.715-3.783 2.572-6.204 2.572-2.42 0-4.488-.857-6.203-2.572-1.715-1.715-2.572-3.782-2.572-6.203 0-2.42.86-4.487 2.574-6.202s3.782-2.572 6.203-2.572c2.42 0 4.488.857 6.203 2.572 1.714 1.716 2.57 3.783 2.57 6.203zm-8.773-7.02c-1.938 0-3.592.688-4.963 2.06s-2.057 3.025-2.057 4.962c0 1.94.686 3.593 2.057 4.964s3.025 2.057 4.963 2.057 3.592-.685 4.963-2.056 2.057-3.025 2.057-4.963-.686-3.59-2.057-4.962c-1.37-1.372-3.026-2.057-4.963-2.057v-.004zm20.957 15.533c-.175.175-.384.263-.625.263s-.448-.088-.616-.263c-.08-.073-.143-.168-.186-.285l-6.11-15.63c-.073-.168-.11-.333-.11-.494 0-.24.086-.448.258-.62s.378-.258.62-.258c.388 0 .654.168.8.505l5.343 13.744L126 41.16c.146-.335.413-.504.8-.504.242 0 .45.086.62.258s.26.378.26.62c0 .16-.038.325-.11.494l-6.11 15.63c-.045.117-.103.212-.176.285zm18.763-.614c0 .24-.086.447-.258.62s-.38.257-.62.257-.45-.086-.62-.258-.26-.38-.26-.62v-7.635l-5.12-7.667c-.097-.146-.145-.31-.145-.494 0-.24.086-.448.258-.62s.378-.258.62-.258c.3 0 .537.12.713.362l4.552 6.822 4.55-6.823c.177-.24.414-.362.714-.362.24 0 .448.086.62.258s.258.378.258.62c0 .183-.048.347-.143.494l-5.123 7.667v7.634h.003zm11.49-14.92c-.24 0-.447-.084-.62-.256s-.257-.378-.257-.62.086-.448.258-.62.378-.258.62-.258h11.407c.24 0 .448.086.62.258s.258.378.258.62-.086.448-.258.62-.378.258-.62.258h-4.826v14.92c0 .24-.088.447-.26.62s-.378.257-.62.257-.448-.087-.62-.26-.258-.377-.258-.62V42.41h-4.824zm18.513-1.753h10.53c.24 0 .447.086.62.258s.257.378.257.62-.086.448-.258.62-.38.258-.62.258h-9.654v6.142h7.02c.24 0 .448.086.62.258s.258.378.258.62-.086.448-.258.62-.378.258-.62.258h-7.02v6.143h9.652c.24 0 .447.086.62.258s.257.38.257.62-.086.45-.258.62-.38.26-.62.26h-10.53c-.242 0-.45-.087-.62-.26s-.26-.377-.26-.62V41.538c0-.24.087-.448.26-.62.17-.174.378-.26.62-.26h.003zm29.007 14.104c.24 0 .448.088.62.26s.258.378.258.62-.084.446-.252.614c-1.63 1.302-3.47 1.952-5.517 1.952-2.42 0-4.488-.857-6.203-2.572-1.715-1.715-2.572-3.782-2.572-6.203 0-2.42.86-4.487 2.574-6.202s3.782-2.572 6.203-2.572c2.09 0 3.952.67 5.583 2.007.167.175.25.384.25.625s-.085.448-.257.62-.378.258-.62.258-.45-.088-.625-.263c-1.236-.994-2.68-1.492-4.332-1.492-1.938 0-3.592.687-4.963 2.058s-2.057 3.026-2.057 4.963c0 1.94.686 3.593 2.057 4.964s3.026 2.057 4.963 2.057c1.674 0 3.137-.51 4.387-1.535.146-.102.313-.153.504-.154z"/><path fill="#666" d="M73.336 70.94l.725-.115c.043.29.156.513.34.668.188.155.448.232.78.232.34 0 .588-.07.75-.205.164-.138.245-.3.245-.484 0-.166-.072-.296-.216-.39-.1-.066-.35-.15-.75-.25-.537-.135-.91-.252-1.118-.35-.206-.1-.364-.237-.47-.412s-.162-.368-.162-.58c0-.193.044-.37.132-.536.088-.164.208-.3.36-.41.114-.083.27-.154.466-.213s.408-.088.633-.088c.34 0 .637.05.894.147.256.098.446.23.568.397s.207.39.253.67l-.716.1c-.034-.223-.128-.396-.284-.52s-.377-.188-.662-.188c-.337 0-.577.057-.72.168-.145.11-.217.24-.217.39 0 .096.03.18.09.257.06.08.153.144.28.195.074.027.29.09.648.187.518.137.88.25 1.085.34s.365.215.482.384.175.377.175.627c0 .244-.07.474-.214.69-.14.215-.347.383-.616.5-.27.118-.573.177-.912.177-.562 0-.99-.117-1.284-.35-.29-.233-.48-.58-.56-1.038h-.004zm6.13 1.29v-4.324h.655v.607c.138-.212.318-.382.543-.51s.482-.195.77-.195c.32 0 .582.066.787.2.204.132.348.318.432.557.342-.505.787-.757 1.335-.757.43 0 .758.12.99.356s.345.603.345 1.097v2.97h-.73v-2.725c0-.293-.023-.504-.07-.633-.048-.128-.134-.232-.26-.31s-.27-.12-.44-.12c-.303 0-.555.102-.756.304s-.3.526-.3.97v2.513h-.734v-2.81c0-.326-.06-.57-.18-.733s-.314-.244-.585-.244c-.206 0-.397.055-.572.164s-.302.267-.38.476-.12.51-.12.904v2.243h-.73zm11.434-.534c-.272.23-.533.394-.784.49-.25.094-.52.14-.808.14-.475 0-.84-.115-1.095-.347s-.383-.53-.383-.89c0-.21.048-.405.145-.58.096-.175.222-.316.378-.42s.332-.188.527-.24c.144-.04.36-.077.65-.11.593-.07 1.028-.157 1.308-.254l.004-.19c0-.3-.07-.51-.208-.632-.187-.166-.465-.248-.835-.248-.347 0-.6.06-.765.18s-.286.335-.364.642l-.715-.098c.065-.308.172-.555.322-.744.15-.19.365-.334.647-.435.282-.1.61-.15.98-.15s.67.043.9.13c.232.086.4.195.51.327s.184.298.228.5c.024.124.037.35.037.675v.978c0 .68.015 1.112.046 1.292.03.18.093.354.185.52h-.764c-.077-.153-.126-.33-.147-.535zm-.06-1.636c-.267.108-.666.2-1.198.276-.3.044-.514.092-.64.147-.124.054-.22.134-.288.238-.068.106-.102.22-.102.35 0 .195.074.358.222.49.148.13.365.194.65.194.28 0 .532-.062.752-.185.22-.125.38-.293.484-.508.08-.165.118-.41.118-.732v-.27h.002zm3.534 2.17v-4.324h.66v.655c.168-.306.323-.51.466-.606.142-.098.3-.147.47-.147.247 0 .498.08.753.236l-.252.68c-.177-.106-.356-.16-.535-.16-.16 0-.304.05-.432.146-.127.095-.22.23-.273.4-.082.26-.123.546-.123.855v2.263h-.733zm6.053-.656l.106.647c-.206.045-.39.066-.554.066-.268 0-.474-.042-.62-.126s-.25-.196-.31-.333-.09-.426-.09-.865v-2.487h-.537v-.57h.537v-1.07l.73-.44v1.51h.737v.57h-.737v2.527c0 .21.013.343.04.403s.067.107.126.142c.058.035.142.053.25.053.08 0 .187-.008.32-.027zm6.095-1.506c0-.8.223-1.394.667-1.78.37-.32.823-.48 1.36-.48.592 0 1.08.196 1.455.585.377.39.566.927.566 1.614 0 .556-.083.994-.25 1.313s-.41.566-.73.742c-.317.176-.665.265-1.042.265-.606 0-1.096-.194-1.47-.582-.372-.39-.558-.948-.558-1.678h.002zm.753 0c0 .554.12.968.363 1.244s.545.414.912.414c.363 0 .666-.138.907-.415.242-.277.363-.7.363-1.266 0-.535-.122-.94-.365-1.215-.243-.276-.545-.414-.906-.414-.37 0-.67.137-.914.41-.24.274-.362.688-.36 1.242zm8.658 2.16v-.634c-.337.49-.794.733-1.372.733-.253 0-.492-.05-.713-.147s-.385-.22-.492-.37c-.107-.147-.183-.328-.226-.543-.03-.144-.045-.372-.045-.684v-2.68h.733v2.4c0 .382.014.64.044.772.047.193.145.344.294.454s.334.163.554.163.426-.056.62-.17c.192-.112.328-.265.408-.46s.12-.474.12-.844v-2.317h.733v4.323h-.656v.003zm5.07-.654l.106.647c-.208.045-.393.066-.556.066-.266 0-.472-.042-.62-.126s-.25-.196-.308-.333c-.06-.137-.09-.426-.09-.865v-2.487H119v-.57h.537v-1.07l.73-.44v1.51h.736v.57h-.737v2.527c0 .21.013.343.038.403.026.06.068.107.127.142.06.035.144.053.25.053.084 0 .19-.008.324-.027zm2.09-.635l.725-.115c.04.29.154.513.34.668.186.155.446.232.78.232.336 0 .586-.07.75-.205.162-.138.243-.3.243-.484 0-.166-.07-.296-.213-.39-.1-.066-.35-.15-.75-.25-.536-.135-.91-.252-1.117-.35-.208-.1-.366-.237-.473-.412s-.16-.368-.16-.58c0-.193.043-.37.132-.536.086-.164.206-.3.36-.41.112-.083.267-.154.464-.213s.408-.088.633-.088c.34 0 .637.05.894.147.257.098.446.23.57.397.12.17.205.39.25.67l-.716.1c-.033-.223-.127-.396-.282-.52-.156-.126-.376-.188-.662-.188-.335 0-.575.057-.72.168-.143.11-.214.24-.214.39 0 .096.03.18.09.257.06.08.152.144.28.195.073.027.29.09.647.187.52.137.88.25 1.085.34s.366.215.482.384c.116.168.175.377.175.627 0 .244-.07.474-.214.69-.14.215-.346.383-.615.5-.268.118-.572.177-.912.177-.56 0-.99-.117-1.284-.35-.295-.233-.483-.58-.566-1.038zm5.857-.872c0-.8.223-1.394.67-1.78.37-.32.824-.48 1.36-.48.593 0 1.08.196 1.456.585.377.39.566.927.566 1.614 0 .556-.084.994-.25 1.313s-.41.566-.73.742-.667.265-1.044.265c-.605 0-1.094-.194-1.467-.582-.37-.39-.56-.948-.56-1.677zm.754 0c0 .554.12.968.363 1.244s.546.414.912.414c.362 0 .664-.138.906-.415s.363-.7.363-1.266c0-.535-.123-.94-.366-1.215-.243-.276-.545-.414-.906-.414-.367 0-.67.137-.913.41-.242.274-.363.688-.363 1.242h.002zm8.656 2.16v-.634c-.336.49-.793.733-1.37.733-.256 0-.495-.05-.716-.147s-.385-.22-.492-.37c-.107-.147-.183-.328-.226-.543-.03-.144-.044-.372-.044-.684v-2.68h.733v2.4c0 .382.014.64.044.772.044.193.142.344.29.454s.335.163.555.163.426-.056.62-.17c.192-.112.328-.265.408-.46s.12-.474.12-.844v-2.317h.733v4.323h-.656v.003zm3.464 0v-4.322h.66v.655c.168-.306.323-.51.466-.606.142-.098.3-.147.47-.147.247 0 .5.08.753.236l-.252.68c-.177-.106-.356-.16-.535-.16-.16 0-.304.05-.432.146s-.22.23-.272.4c-.08.26-.122.546-.122.855v2.263h-.733zm7.274-1.582l.72.094c-.078.496-.28.885-.604 1.165s-.722.422-1.194.422c-.592 0-1.068-.194-1.427-.58-.36-.387-.54-.94-.54-1.663 0-.467.08-.875.233-1.225.155-.35.39-.615.706-.79.316-.175.66-.26 1.032-.26.47 0 .854.117 1.152.354.298.237.49.575.574 1.012l-.713.11c-.068-.29-.188-.51-.36-.655-.172-.146-.38-.22-.624-.22-.37 0-.67.133-.9.398-.23.263-.346.682-.346 1.255 0 .58.11 1.003.334 1.266.224.263.514.395.873.395.288 0 .528-.088.72-.265s.314-.45.366-.815h-.002zm3.02-3.542v-.843h.732v.844h-.733zm0 5.125v-4.324h.732v4.323h-.733zm3.515 0v-4.324h.66v.615c.317-.474.776-.71 1.376-.71.26 0 .5.046.716.14.22.093.382.216.49.37s.185.33.228.54c.027.135.04.372.04.71v2.66h-.732V69.6c0-.3-.028-.523-.086-.67-.056-.15-.158-.267-.303-.355-.145-.088-.316-.132-.51-.132-.313 0-.582.1-.81.297s-.338.573-.338 1.127v2.36h-.733v.002zm6.17.358l.71.106c.03.22.114.38.25.48.18.136.43.204.745.204.34 0 .6-.068.786-.204s.31-.326.375-.57c.036-.15.054-.463.05-.94-.32.377-.72.566-1.197.566-.594 0-1.054-.216-1.38-.644s-.49-.943-.49-1.543c0-.412.076-.793.225-1.142.15-.347.365-.616.648-.806.284-.19.617-.285 1-.285.51 0 .93.205 1.262.62v-.523h.676v3.737c0 .673-.068 1.15-.205 1.43s-.354.504-.65.666-.664.243-1.098.243c-.515 0-.933-.116-1.25-.348-.318-.232-.47-.58-.46-1.048zm.606-2.598c0 .566.11.98.336 1.24.225.262.507.392.847.392.336 0 .62-.13.847-.39s.343-.665.343-1.218c0-.53-.117-.928-.352-1.197-.233-.27-.516-.403-.847-.403-.326 0-.603.132-.83.397-.23.267-.343.66-.344 1.18z"/></svg>