<svg xmlns="http://www.w3.org/2000/svg" width="200" height="100" viewBox="0 0 200 100"><path fill="#F03F39" d="M67 8h66v66H67V8z"/><path d="M106.432 79.344h3.47l3.428 7.466 3.423-7.466h3.45L114.43 92h-2.21l-5.785-12.657M74.402 79.47c-1.684 0-3.42.773-4.416 1.968v-2.012H67V92h2.985v-7.622c.39-1.003 1.453-2.297 2.93-2.297 1.76 0 4.04 1.39 4.04 3.102V92h2.98v-7.416c.002-2.824-2.63-5.113-5.533-5.113zM88.33 79.47c-1.684 0-2.423.773-4.413 1.968v-2.012h-2.985V92h2.985v-7.622c.995-1.322 1.874-2.297 3.35-2.297.764 0 1.6.262 2.15.697l1.708-2.56c-.797-.47-1.795-.747-2.794-.746z"/><path fill="#FFF" d="M97.163 58H82l-.5-4.638 3.625-1.97V32.5l-3.568-2.224.543-5.047s3.31-1.067 5.54-1.178c2.23-.112 5.416 0 5.416 0v3.557S97.716 24 103.736 24s11.127 3.94 11.127 10.83v16.786l3.638 1.525-.488 4.86h-14.604l-.684-4.64 3.22-1.968v-14.45s-.374-5.224-5.39-5.224c-5.017 0-6.506 2.112-6.506 2.112v17.34l3.565 2.19L97.165 58l-.002.002z"/><path d="M101.83 79.427v.977C100.833 79.527 99.3 79 97.733 79c-3.69 0-6.657 2.906-6.657 6.49 0 3.582 2.955 6.49 6.644 6.49 1.566 0 3.113-.527 4.108-1.404v1.422h2.985v-12.57h-2.985zm-3.826 9.942c-2.163 0-3.918-1.705-3.918-3.808 0-2.103 1.754-3.808 3.918-3.808s3.918 1.705 3.918 3.808c0 2.103-1.755 3.808-3.918 3.807zM126.324 79c-3.69 0-6.678 2.906-6.678 6.49 0 3.582 2.99 6.49 6.677 6.49 3.688 0 6.677-2.906 6.677-6.49 0-3.582-2.988-6.49-6.677-6.49zm.223 10.37c-2.163 0-3.918-1.704-3.918-3.807 0-2.103 1.752-3.808 3.917-3.808 2.163 0 3.918 1.705 3.918 3.808 0 2.103-1.755 3.808-3.918 3.807z"/></svg>