<svg xmlns="http://www.w3.org/2000/svg" width="200" height="100" viewBox="0 0 200 100"><linearGradient id="a" gradientUnits="userSpaceOnUse" x1="210.666" y1="-483.434" x2="229.99" y2="-486.151" gradientTransform="translate(-144 511.136)"><stop offset="0" stop-color="#43ADE3"/><stop offset="1" stop-color="#2679B6"/></linearGradient><path fill="url(#a)" d="M68 37.193l18.756-6.762-5.73-14.426"/><linearGradient id="b" gradientUnits="userSpaceOnUse" x1="278" y1="-469.695" x2="259.246" y2="-469.695" gradientTransform="translate(-144 511.136)"><stop offset="0" stop-color="#43ADE3"/><stop offset="1" stop-color="#2679B6"/></linearGradient><path fill="url(#b)" d="M134 30.847l-18.754 6.76 5.728 14.43"/><path fill="#509ED7" d="M121.443 49.22l-.02-.042c-.033-.073-.068-.144-.107-.214l-16-31.962c-.364-1.11-1.41-1.91-2.644-1.91h-19.76c-1.538 0-2.784 1.24-2.784 2.774 0 .363.07.71.2 1.03l.004.01c.05.126.113.247.182.364L96.64 51.56h.002c.458.908 1.397 1.53 2.486 1.53h19.756c1.54 0 2.785-1.24 2.785-2.774-.002-.39-.083-.76-.227-1.095z"/><g><path fill="#3D3D3D" d="M57.693 84.59L46.845 69.86V84.59H42V62h4.98l10.542 14.194V62.002h4.845v22.592h-4.675v-.003zm9.176-9.008V62h4.91v13.413c0 3.15 1.844 5.318 5.358 5.318s5.322-2.167 5.322-5.317V62h4.945v13.548c0 5.623-3.342 9.452-10.267 9.452-6.924 0-10.268-3.862-10.27-9.418zm42.402 9.01L105.28 69.08l-3.956 15.512h-5.15l-6.515-22.59h5.424l3.992 16.323L103.406 62h3.788l4.3 16.325L115.45 62h5.46l-6.48 22.593h-5.154l-.004-.002zm13.92 0V62h11.972c4.333 0 6.55 2.744 6.55 5.757 0 2.845-1.776 4.742-3.924 5.182 2.423.372 4.367 2.71 4.367 5.555 0 3.386-2.287 6.095-6.618 6.095h-12.35zm13.576-15.987c0-1.424-1.023-2.474-2.66-2.474h-6.073v4.91h6.07c1.64.003 2.662-1.013 2.662-2.436zm.443 9.213c0-1.424-1.022-2.643-2.932-2.643h-6.242v5.25h6.242c1.842 0 2.933-.98 2.933-2.607zm8.598 6.773V62.003h4.845v22.592h-4.845v-.003zm9.347 0V62.003H160v22.592h-4.845v-.003z"/></g></svg>