<svg xmlns="http://www.w3.org/2000/svg" width="200" height="100" viewBox="0 0 200 100"><path fill="#32C99E" d="M50.733 72.6c1.158-.205 1.09.34.68.816-2.247 2.927-6.81 3.064-10.15 1.906-7.288-2.45-11.647-8.782-20.503-6.74-.68.136-.954-.272-.613-.75 1.226-1.633 3.815-2.722 7.357-2.586h.477c-3.337-2.52-4.767-6.604-4.767-11.03.068-14.5 12.67-26.89 20.163-29.478 4.087-1.43 7.425-.68 9.4 1.362 8.243 3.676 6.268 16.952 1.295 26.347-4.36 8.17-10.83 14.84-17.983 15.182 5.177 2.586 9.945 5.922 14.646 4.97zm.612-45.002c-3.338-1.362-11.853 3.336-18.256 13.276-6.472 10.008-6.61 21.445-2.045 23.488 4.496 2.043 12.466-3.472 18.052-13.82 6.13-11.302 5.995-21.446 2.248-22.944zM59.997 67.425c-4.837-.34-4.973-5.378-3.474-9.872 1.5-4.493 4.973-11.165 9.4-17.36.546-.75 1.227-.68 1.772-.068 1.5 2.247 1.158 5.31-1.294 9.19-2.52 4.018-3.882 6.74-5.312 10.01-1.43 3.335-1.226 5.786.34 5.922 2.658.204 6.404-4.56 10.083-10.484 4.293-6.944 6.268-11.642 8.448-14.57.68-.952 1.158-1.088 1.703-.408 1.023 1.226 1.568 4.22-.067 7.625-1.5 3.064-4.905 8.17-6.47 11.642-1.772 3.88-1.5 6.74.953 6.604 2.86-.136 6.335-4.63 8.992-9.395.34-.612.954-.68 1.226-.067.273.545.34 2.383-.613 4.29-1.974 3.81-6.198 7.284-10.217 7.284-4.428 0-6.2-2.79-5.654-6.74-2.388 3.198-5.998 6.67-9.813 6.398z"/><path fill="#32C99E" d="M93.307 65.655c5.654.272 10.627-5.174 13.556-9.667.34-.545.886-.545 1.158.068.274.545.07 2.45-1.157 4.22-2.86 4.154-8.106 7.286-13.352 7.354-8.65.136-11.647-8.374-7.22-17.156s11.376-12.323 14.782-10.348c1.703 1.02 2.93 2.043 4.02 3.54 1.225 1.634.68 5.787-2.18 9.26-3.34 4.084-7.903 5.854-12.67 1.973-2.18 6.262-.546 10.55 3.065 10.755zm5.654-15.66c2.18-2.858 3.68-6.4 2.726-7.147-1.43-1.157-7.084 2.927-10.286 9.395-.204.408-.41.817-.545 1.157 3.337 2.11 6.13-.816 8.106-3.404z"/><path fill="#32C99E" d="M115.513 29.028c-.34-.75-.204-1.157.68-1.225 5.655-.613 10.764-3.472 15.396-3.676 3.473-.136 6.47.953 8.105 5.65 1.43 4.086.273 8.035-2.044 11.643-3.405 5.31-10.762 10.416-19.686 12.118-1.567.272-3.065 0-4.223-.68-1.906 3.744-3.95 8.237-6.334 13.888-.273.68-.613.68-1.09.204-.954-1.02-1.635-3.064-.613-6.74 1.77-6.195 8.174-18.994 14.1-28.322-2.314-.273-3.61-1.43-4.29-2.86zm21.253 1.36c-1.43-3.743-8.242-.203-12.738 1.09 0 1.838-.68 4.22-2.588 7.49-1.77 3.13-3.678 6.262-5.722 10.075 15.258-2.86 22.888-13.888 21.048-18.654zM177.977 52.788c-1.43 5.787-5.722 12.663-10.763 14.365-2.452.817-5.858.545-8.583-2.996-2.996-3.95-1.974-9.872 1.09-15.318 2.59-4.63 6.745-8.58 10.832-8.85 2.112-.137 3.27.475 4.632 2.314 1.567 2.11 3.61 2.587 3.2 7.49-.067.544-.067 1.02-.135 1.565.408 0 .816-.137 1.36-.137.478 0 .478.34.205.68-.476.544-1.157.817-1.838.885zm-5.79-1.702c-1.43-1.09-3.065-3.472-3.134-5.99-1.84 1.565-3.815 3.812-5.245 6.4-2.86 5.173-3.883 11.437-2.112 12.934 1.907 1.566 6.063-.817 9.4-7.08 1.023-1.906 1.84-3.813 2.385-5.446-.476-.206-.885-.478-1.293-.818zm2.316-6.06c-.34-2.178-1.703-1.77-2.044.205-.342 1.84.408 3.814 1.498 4.835.545-2.11.75-3.813.545-5.038z"/><path fill="#32C99E" d="M158.36 56.94c-.273-.544-.68-.476-.954.07-2.18 4.9-5.45 9.122-8.106 8.986-1.975-.068-2.793-2.723-1.703-6.263s4.428-7.83 7.493-11.3c1.975-2.248.34-5.243-.954-6.673-.477-.545-1.022-.408-1.84.136-2.52 1.77-4.835 2.86-7.015 3.132 1.704-4.29 2.25-8.238.137-8.17-2.52.068-8.447 8.102-4.564 10.62-.017.025 1.083.64 3.065.682 2.044 0 4.973-.613 7.97-2.587-2.725 3.132-6.676 7.965-8.174 12.46-1.703 5.105.273 9.598 5.177 9.803 3.61.136 7.562-2.723 9.13-6.672.748-1.84.68-3.474.34-4.223z"/></svg>