<svg xmlns="http://www.w3.org/2000/svg" width="200" height="100" viewBox="0 0 200 100"><path fill="#333" d="M34 57.835v-4.28h2.387l.58 3.3c.604.495 1.326.9 2.162 1.216.836.32 1.838.477 3.003.477 1.58 0 2.828-.332 3.744-.995.918-.664 1.378-1.565 1.378-2.7 0-1.053-.4-1.936-1.194-2.647-.795-.71-2.2-1.307-4.215-1.79-2.45-.58-4.365-1.434-5.743-2.56-1.378-1.127-2.07-2.543-2.07-4.25 0-1.802.77-3.3 2.308-4.496 1.537-1.198 3.538-1.796 5.998-1.796 1.62 0 3.093.278 4.42.83 1.33.555 2.397 1.226 3.202 2.017v4.284h-2.356l-.588-3.286c-.477-.402-1.114-.73-1.91-.996-.795-.263-1.72-.394-2.767-.394-1.667 0-2.943.35-3.836 1.05-.89.702-1.336 1.616-1.336 2.742 0 1.002.456 1.836 1.36 2.505.907.67 2.373 1.256 4.4 1.76 2.442.6 4.296 1.486 5.564 2.656 1.267 1.17 1.9 2.616 1.9 4.345 0 1.858-.76 3.353-2.283 4.482C46.583 60.437 44.592 61 42.132 61c-1.782 0-3.367-.29-4.75-.875-1.385-.583-2.512-1.346-3.38-2.29H34zm18.9 2.832V58.66l2.594-.444V38.45l-2.593-.443V36h5.73v14.325h2.005l3.674-4.552-1.576-.206V43.56h7.207v2.008l-2.1.412-4.534 5.39 5.52 6.91 1.957.378v2.008H63.64v-2.008l1.605-.206-4.565-5.677h-2.05v5.44l2.59.442v2.008H52.9v.002zm20.238 0V58.66l2.593-.444v-12.21l-2.593-.443v-2.008h5.73v14.657l2.59.443v2.008h-8.32v.004zm2.593-21.49V36h3.135v3.178h-3.133zm7.495 21.49V58.66l2.593-.444v-12.21l-2.593-.443v-2.008h5.41l.207 2.23c.55-.812 1.262-1.44 2.132-1.882.87-.443 1.877-.665 3.023-.665 1.146 0 2.13.264 2.952.79.82.528 1.44 1.32 1.853 2.373.54-.97 1.256-1.74 2.146-2.307.89-.57 1.93-.854 3.117-.854 1.756 0 3.14.596 4.157 1.792 1.015 1.194 1.523 2.993 1.523 5.395v7.786l2.61.443v2.008h-8.353v-2.008l2.61-.443v-7.818c0-1.685-.29-2.877-.874-3.577-.583-.7-1.448-1.05-2.593-1.05-1.093 0-1.97.38-2.633 1.145-.663.764-1.046 1.724-1.153 2.883v8.417l2.594.443v2.008h-8.322v-2.008l2.593-.443v-7.817c0-1.6-.3-2.77-.9-3.514-.598-.742-1.466-1.114-2.6-1.114-.955 0-1.74.196-2.355.584-.615.39-1.088.937-1.416 1.643v10.218l2.594.443v2.008h-8.32l-.003.003zM114.106 60.667v-2.784l2.466-.474V40.9l-2.466-.474v-2.782h10.414c2.828 0 5.16.9 6.995 2.695 1.834 1.796 2.75 4.1 2.75 6.917v3.81c0 2.825-.918 5.13-2.75 6.917-1.834 1.786-4.164 2.68-6.995 2.68h-10.414zm7.113-3.56h3.068c1.665 0 2.97-.557 3.914-1.673s1.417-2.574 1.417-4.375v-3.84c0-1.78-.473-3.227-1.417-4.343-.944-1.116-2.248-1.676-3.913-1.676h-3.07v15.907zm15.448-4.82v-.334c0-2.553.718-4.64 2.155-6.27 1.438-1.63 3.424-2.443 5.96-2.443 2.55 0 4.545.81 5.985 2.435 1.44 1.622 2.16 3.714 2.16 6.277v.332c0 2.57-.72 4.666-2.16 6.283-1.44 1.618-3.425 2.426-5.955 2.426-2.557 0-4.553-.808-5.99-2.426-1.437-1.616-2.155-3.712-2.155-6.284v.003zm4.645-.01c0 1.56.276 2.808.83 3.75.548.942 1.44 1.413 2.672 1.413 1.198 0 2.075-.474 2.63-1.42.56-.948.838-2.196.838-3.743v-.332c0-1.515-.28-2.753-.843-3.71-.563-.957-1.448-1.437-2.657-1.437s-2.09.48-2.642 1.437c-.55.957-.826 2.195-.826 3.71v.332zm13.683.088v-.474c0-2.518.713-4.59 2.14-6.213 1.426-1.623 3.46-2.435 6.102-2.435 1.388 0 2.635.206 3.74.618 1.104.412 2.02.99 2.75 1.738l.063 4.57h-3.77l-.762-2.67c-.233-.202-.52-.367-.86-.5-.34-.13-.725-.195-1.16-.195-1.316 0-2.245.474-2.787 1.42-.54.948-.81 2.168-.81 3.663v.474c0 1.524.25 2.755.75 3.686.496.932 1.373 1.397 2.624 1.397.83 0 1.49-.237 1.99-.714.496-.48.747-1.115.747-1.91h4.202l.048.088v.15c0 1.647-.653 3.042-1.958 4.183-1.347 1.164-3.022 1.75-5.026 1.76-2.567 0-4.545-.807-5.936-2.42-1.39-1.613-2.082-3.686-2.082-6.215h-.002z"/></svg>