<svg xmlns="http://www.w3.org/2000/svg" width="200" height="100" viewBox="0 0 200 100"><path fill="#2DA7E2" d="M38.042 26c1.265.454 2.575.756 3.872 1.096 4.476 1.172 8.958 2.326 13.436 3.49 1.93.502 3.035 2.15 2.73 4.115-.774 4.982-1.627 9.95-2.712 14.874-.26 1.18-.53 2.355-.904 3.504-.45 1.385-1.198 2.635-1.813 3.945-1.364 2.905-2.758 5.796-4.145 8.69-.544 1.138-1.395 1.917-2.64 2.23-.022.006-.038.037-.057.056h-1.28c-3.466-.458-6.9-1.105-10.348-1.673-4.377-.72-8.752-1.46-13.133-2.156-1.804-.285-2.845-1.343-3.474-2.952-.473-1.21-.57-2.49-.722-3.76-.358-3.005-.65-6.018-.93-9.032-.226-2.433-.443-4.867-.638-7.303-.12-1.502-.19-3.003-.238-4.508v-.437-.423c-.022-.178.05-.364-.044-.537v-1.793c.383-1.797 1.452-2.904 3.268-3.268.474-.095.942-.215 1.413-.324 3.49-.805 6.98-1.62 10.468-2.432 1.786-.414 3.573-.822 5.356-1.254.302-.073.618-.057.916-.15.54.004 1.08.004 1.622.004zM71.593 53.218c.863.776 1.728 1.382 2.736 1.766 1.22.465 2.474.614 3.764.382.194-.035.387-.093.573-.16 1.632-.59 2.037-2.282.846-3.547-.85-.903-1.966-1.388-3.052-1.91-.95-.458-1.875-.946-2.688-1.63-1.746-1.465-2.353-3.374-2.22-5.592.162-2.658 1.69-4.685 4.312-5.476 2.575-.777 5.16-.656 7.706.21.205.07.382.13.38.424-.016 1.38-.01 2.76-.01 4.14 0 .037-.02.074-.033.115-.172.016-.258-.117-.373-.187-1.738-1.06-3.59-1.56-5.614-1.06-.808.2-1.467.642-1.722 1.493-.234.784.02 1.456.57 2.028.724.753 1.648 1.203 2.565 1.655.854.42 1.7.848 2.496 1.377 2.196 1.46 3.11 3.516 2.935 6.12-.086 1.28-.392 2.466-1.17 3.502-.992 1.324-2.374 2-3.96 2.29-2.418.44-4.806.342-7.126-.543-.92-.35-.916-.365-.916-1.326V53.22zM147.673 56.627c-.34.455-.605.835-.895 1.196-1.816 2.26-5.308 1.884-6.675.31-.817-.942-1.175-2.062-1.357-3.257-.126-.83-.16-1.668-.16-2.507 0-2.903.005-5.805-.008-8.706 0-.332.08-.434.422-.427 1.15.022 2.304.025 3.455-.002.37-.01.403.142.402.444-.01 2.844-.004 5.69-.006 8.534 0 .642.043 1.28.244 1.893.278.85.795 1.42 1.738 1.534.96.117 1.697-.23 2.232-1.016.493-.723.605-1.554.607-2.402.008-2.845.01-5.69-.004-8.535-.002-.35.08-.46.443-.452 1.15.024 2.303.017 3.454.003.28-.003.36.08.358.36-.008 5.02-.008 10.043 0 15.064 0 .277-.076.37-.36.367-1.18-.015-2.36-.016-3.54 0-.295.003-.36-.108-.354-.375.015-.638.005-1.277.005-2.028zM105.034 52.92c0-1.85-.018-3.697.013-5.545.008-.455-.135-.553-.547-.523-.48.035-.966 0-1.45.012-.227.006-.328-.05-.325-.305.013-.996.016-1.992 0-2.987-.006-.285.112-.327.352-.32.51.014 1.024-.014 1.535.01.324.017.437-.065.432-.414-.015-1.05-.054-2.102.152-3.145.48-2.44 2.302-4.09 4.773-4.338.844-.085 1.67-.023 2.498.126.304.055.45.18.44.534-.028.995-.022 1.99-.003 2.986.006.33-.052.43-.388.287-.504-.214-1.04-.296-1.586-.206-.946.156-1.49.784-1.6 1.928-.063.663-.016 1.335-.03 2.003-.007.24.136.234.302.233.825-.002 1.65.013 2.473-.008.307-.008.383.096.378.388-.017.938-.018 1.877 0 2.815.006.31-.07.425-.4.415-.74-.024-1.48.016-2.218-.017-.413-.017-.548.072-.546.525.02 3.74.007 7.48.02 11.22 0 .344-.07.46-.437.45-1.137-.025-2.275-.025-3.41 0-.37.01-.44-.107-.437-.45.016-1.892.008-3.784.008-5.675zM116.01 51.427c0-1.57-.007-2.878.007-4.186.003-.3-.092-.397-.39-.385-.525.02-1.052 0-1.577.01-.214.003-.305-.064-.303-.292.01-1.01.01-2.02 0-3.028-.003-.228.08-.3.298-.29.326.013.654.003.98.003.986 0 .986 0 .986-1.006 0-.682.012-1.365-.005-2.047-.006-.253.072-.376.32-.455 1.192-.375 2.38-.757 3.56-1.162.33-.113.378-.02.375.285-.012 1.322.006 2.645-.013 3.967-.005.337.092.437.43.427.766-.025 1.534.01 2.3-.016.333-.01.405.104.4.414-.02.938-.018 1.877-.002 2.815.005.29-.077.396-.38.39-.782-.02-1.565.002-2.346-.012-.282-.005-.404.06-.402.375.013 2.062.004 4.123.01 6.185 0 .24.028.483.07.72.236 1.35 1.258 1.897 2.523 1.356.518-.22.518-.22.518.352 0 .882-.013 1.763.007 2.644.007.287-.076.45-.348.543-1.51.514-3.04.604-4.54.036-1.51-.572-2.117-1.858-2.357-3.348-.243-1.512-.063-3.04-.12-4.295zM136.11 47.74c-.683-.51-1.332-.864-2.083-1.023-2.37-.502-4.407.923-4.753 3.33-.15 1.04-.13 2.07.183 3.08.636 2.05 2.674 3.032 4.865 2.36.618-.19 1.17-.506 1.697-.862.14.058.086.174.086.26.004 1.096-.005 2.192.01 3.287.002.25-.082.386-.3.498-.967.5-2.01.674-3.08.736-1.592.092-3.127-.085-4.5-.972-1.755-1.134-2.794-2.77-3.17-4.803-.462-2.482-.287-4.913.977-7.153 1.282-2.272 3.31-3.408 5.89-3.57 1.05-.065 2.102-.035 3.13.25.19.053.373.133.563.19.38.113.506.347.495.756-.03 1.18-.01 2.36-.01 3.638z"/><path fill="#FEFEFE" d="M16.93 31.965c.232-.02.447.047.662.13 5.47 2.11 10.94 4.216 16.406 6.335.43.166.825.152 1.243.02 4.87-1.548 9.74-3.093 14.61-4.64 1.92-.612 3.845-1.207 5.753-1.854 1.008-.342 1.8.27 2.005.917.258.82-.18 1.61-1.102 1.906-6.488 2.075-12.976 4.15-19.47 6.208-.356.113-.347.222-.22.514C40.245 49.41 43.67 57.32 47.1 65.227c.178.41.33.815.195 1.272-.18.607-.685 1.037-1.284 1.082-.67.05-1.222-.26-1.502-.896-.772-1.755-1.53-3.516-2.293-5.274-2.83-6.527-5.662-13.053-8.484-19.584-.12-.283-.282-.446-.574-.558-5.54-2.126-11.074-4.263-16.61-6.398-.694-.268-1.11-.78-1.103-1.42.008-.618.307-1.08.865-1.364.196-.1.404-.138.62-.123z"/><path fill="#2DA7E2" d="M169.778 48.842c-.146-1.295-.506-2.527-1.192-3.657-1.44-2.374-4.813-2.683-6.75-1.978-1.174.428-3.336 1.298-3.336 2.454v-.594c0-2.988.656-5.976.668-8.963 0-.31.26-.416-.068-.41-1.166.02-2.167.016-3.333.003-.282-.003-.313.057-.313.37.008 7.542.05 15.082.042 22.623 0 .283.106.357.38.353 1.196-.014 2.4-.016 3.595 0 .296.005.363-.1.352-.366-.02-.452-.003-.905-.003-1.42.282.35.494.64.732.902 1.313 1.45 3.634 1.58 5.342.834 1.72-.753 2.687-2.19 3.302-3.884.736-2.033.82-4.142.582-6.268zm-4.28 2.51c-.046.952-.186 1.893-.63 2.762-.517 1.013-1.314 1.613-2.473 1.572-1.194-.042-1.906-.77-2.346-1.818-.347-.824-.325-1.694-.31-2.562-.014-.725-.02-1.45.168-2.16.2-.76.567-1.412 1.166-1.94.983-.864 3.002-.858 3.838.744.56 1.074.64 2.23.585 3.4zM101.45 48.882c-.407-2.15-1.407-3.924-3.332-5.07-1.41-.838-2.97-1.022-4.568-.902-2.942.222-5.09 1.638-6.172 4.42-.938 2.412-.93 4.905-.147 7.355.664 2.072 2.02 3.57 4.11 4.317 1.168.418 2.384.484 3.612.387 2.462-.196 4.334-1.343 5.553-3.5.855-1.514 1.11-3.175 1.126-5.2.015-.4-.05-1.108-.18-1.808zm-4.62 5.02c-.437 1.118-1.257 1.743-2.46 1.787-1.238.044-2.285-.396-2.773-1.585-.798-1.944-.83-3.94.046-5.875.568-1.253 1.642-1.71 2.98-1.574 1.198.12 1.924.823 2.305 1.924.278.802.364 1.633.34 2.423.016 1.028-.08 1.986-.438 2.9zM184.644 47.5c-.896-3.313-3.636-5.097-7.015-4.528-2.5.42-4.138 1.957-5.07 4.216-1.05 2.547-1.06 5.194-.228 7.803.678 2.125 2.102 3.575 4.303 4.173.913.248 1.844.28 2.785.25 1.423-.05 2.792-.303 4.062-.977.158-.084.328-.138.326-.388-.012-1.08-.005-2.16-.005-3.314-.13.075-.19.107-.246.144-1.283.843-2.7 1.158-4.218 1.073-1.86-.104-2.932-.576-3.268-2.398-.097-.527-.097-.052.426-.052h7.976c.1 0 .2-.482.298-.475.16.01.228-.288.227-.456-.01-1.62.074-3.48-.356-5.07zm-3.893 2.052c-.752-.007-1.505-.003-2.258-.003-.725 0-1.45-.01-2.174.004-.257.005-.323-.092-.282-.327.165-.946.51-1.807 1.227-2.472 1.113-1.03 2.835-.658 3.435.733.246.57.3 1.177.348 1.788.02.25-.093.277-.295.276z"/></svg>