<svg xmlns="http://www.w3.org/2000/svg" width="200" height="100" viewBox="0 0 200 100"><path d="M19 37h26v26H19V37z"/><path fill="#333" d="M58.135 58.044c-.13-.132-.194-.324-.064-.486l1.996-2.34c.13-.16.32-.16.45-.032 1.418 1.136 3.51 2.337 5.955 2.337 2.608 0 4.122-1.33 4.122-3.18 0-1.593-.967-2.632-3.99-3.055l-1.16-.162c-4.216-.584-6.598-2.63-6.598-6.3 0-3.995 2.898-6.66 7.403-6.66 2.735 0 5.344.878 7.08 2.21.16.132.195.26.065.455l-1.546 2.404c-.128.162-.29.194-.45.097-1.77-1.17-3.412-1.72-5.247-1.72-2.222 0-3.445 1.233-3.445 2.954 0 1.528 1.063 2.567 4.025 2.99l1.158.162c4.215.585 6.532 2.598 6.532 6.4 0 3.93-2.8 6.852-8.24 6.852-3.218 0-6.34-1.298-8.047-2.922l.002-.002zm24.524 2.76c-3.123 0-4.313-1.528-4.313-4.58v-8.25c0-.132-.065-.194-.194-.194h-1.03c-.194 0-.323-.132-.323-.326V45.28c0-.195.128-.325.32-.325h1.032c.128 0 .194-.066.194-.195v-4.287c0-.194.127-.324.32-.324h2.962c.194 0 .32.13.32.323v4.287c0 .13.066.194.195.194h2.06c.194 0 .323.13.323.324v2.175c0 .195-.128.326-.32.326h-2.062c-.128 0-.194.063-.194.193v8.12c0 1.103.45 1.46 1.45 1.46h.8c.195 0 .324.13.324.324v2.6c0 .194-.128.324-.32.324h-1.545v.004zm5.503-4.19c-.323-1.006-.548-2.208-.548-3.832s.194-2.86.515-3.865c.87-2.728 3.25-4.32 6.34-4.32 3.19 0 5.506 1.655 6.375 4.32.354 1.105.515 2.175.515 4.71 0 .194-.127.324-.353.324h-9.56c-.127 0-.193.067-.193.196 0 .455.096.845.226 1.202.515 1.528 1.738 2.373 3.475 2.373s2.865-.65 3.637-1.494c.16-.162.32-.194.48-.065l1.9 1.69c.16.13.16.292.033.456-1.32 1.558-3.51 2.66-6.373 2.66-3.283 0-5.6-1.623-6.467-4.35h-.002zm9.365-6.917c-.418-1.267-1.577-2.014-3.025-2.014-1.48 0-2.64.747-3.058 2.014-.127.39-.193.78-.193 1.33 0 .133.065.197.194.197h6.083c.13 0 .193-.065.193-.195-.002-.55-.066-.942-.194-1.33l-.002-.003zM105.542 42c-.193 0-.32-.13-.32-.325V38.85c0-.196.127-.325.32-.325h2.96c.195 0 .322.13.322.324v2.824c0 .195-.127.324-.32.324h-2.962zm0 18.61c-.193 0-.32-.13-.32-.324V45.28c0-.194.127-.324.32-.324h2.96c.195 0 .322.13.322.324v15.006c0 .194-.127.324-.32.324h-2.962zm17.797 0c-.195 0-.322-.13-.322-.325v-9.03c0-2.014-1-3.41-2.93-3.41-1.867 0-2.96 1.396-2.96 3.41v9.03c0 .194-.13.324-.322.324h-2.962c-.193 0-.32-.13-.32-.325V45.28c0-.195.127-.325.32-.325h2.96c.195 0 .322.13.322.324v1.135h.033c.674-.974 2.024-1.818 4.086-1.818 3.315 0 5.374 2.47 5.374 5.813v9.876c0 .194-.127.324-.32.324h-2.963.002zm11.458-1.495h-.033v1.17c0 .194-.128.324-.32.324h-2.963c-.193 0-.32-.13-.32-.325V38.848c0-.195.127-.324.32-.324h2.96c.195 0 .322.13.322.324v7.6h.033c.74-1.074 2.025-1.853 4.12-1.853 2.638 0 4.57 1.268 5.373 3.768.387 1.202.548 2.307.548 4.417s-.16 3.216-.547 4.417c-.805 2.5-2.736 3.767-5.375 3.767-2.093.004-3.38-.775-4.12-1.848h.003zm6.05-3.41c.226-.714.32-1.495.32-2.924 0-1.428-.094-2.207-.32-2.92-.42-1.3-1.417-2.014-2.865-2.014-1.48 0-2.48.713-2.898 2.014-.224.713-.32 1.494-.32 2.922s.095 2.21.32 2.924c.42 1.298 1.417 2.014 2.898 2.014 1.448 0 2.447-.715 2.865-2.014zm7.562.91c-.32-1.007-.547-2.21-.547-3.833s.194-2.86.515-3.865c.87-2.728 3.25-4.32 6.34-4.32 3.187 0 5.506 1.655 6.374 4.32.354 1.105.515 2.175.515 4.71 0 .194-.128.324-.354.324h-9.56c-.127 0-.193.067-.193.196 0 .455.095.845.225 1.202.515 1.528 1.738 2.373 3.475 2.373 1.738 0 2.865-.65 3.637-1.494.16-.162.32-.194.48-.065l1.9 1.69c.16.13.16.292.033.456-1.32 1.558-3.51 2.66-6.373 2.66-3.283 0-5.6-1.623-6.47-4.35h.003zm9.366-6.918c-.417-1.267-1.576-2.014-3.024-2.014-1.48 0-2.64.747-3.058 2.014-.127.39-.193.78-.193 1.33 0 .133.065.197.195.197h6.084c.13 0 .193-.065.193-.195 0-.55-.064-.942-.194-1.33l-.004-.003zM165.79 42c-.193 0-.322-.13-.322-.325V38.85c0-.196.13-.325.32-.325h2.963c.194 0 .322.13.322.324v2.824c0 .195-.127.324-.32.324h-2.962zm0 18.61c-.193 0-.322-.13-.322-.324V45.28c0-.194.13-.324.32-.324h2.963c.194 0 .322.13.322.324v15.006c0 .194-.127.324-.32.324h-2.962zm7.048-2.11c-.128-.133-.128-.325 0-.456l1.835-1.95c.128-.13.32-.13.45 0 1.127 1.04 2.93 1.786 4.538 1.786 1.9 0 2.866-.78 2.866-1.852 0-.94-.546-1.528-2.575-1.722l-1.673-.162c-3.153-.324-4.763-1.95-4.763-4.612 0-3.02 2.156-4.936 6.02-4.936 2.412 0 4.44.812 5.825 1.916.16.13.16.324.063.455l-1.578 1.915c-.13.162-.29.162-.45.065-.967-.682-2.512-1.3-4.056-1.3-1.545 0-2.35.683-2.35 1.625 0 .91.545 1.46 2.542 1.656l1.674.162c3.25.324 4.795 2.014 4.795 4.58 0 3.12-2.252 5.295-6.5 5.295-3.187 0-5.374-1.265-6.663-2.467z"/><path fill="#FFF" d="M25.257 49.304c-.067-.067-.067-.168 0-.235l1.083-1.228c.067-.068.15-.068.234 0 .716.555 1.633.89 2.466.89.85 0 1.25-.32 1.25-.774 0-.387-.217-.622-1.15-.706l-.9-.1c-1.698-.17-2.632-1.028-2.632-2.49 0-1.6 1.216-2.606 3.315-2.606 1.366 0 2.517.436 3.268 1.008.067.067.084.168.017.25l-.934 1.162c-.066.085-.15.085-.233.034-.55-.353-1.35-.655-2.183-.655-.683 0-1.017.27-1.017.673 0 .37.2.588 1.115.673l.884.102c1.898.185 2.68 1.11 2.68 2.472-.015 1.665-1.3 2.79-3.598 2.79-1.682.003-2.9-.585-3.665-1.26zm12.485 1.178c-1.866 0-2.567-.84-2.567-2.707v-3.7c0-.068-.033-.1-.1-.1h-.5c-.1 0-.166-.068-.166-.17V42.41c0-.1.065-.167.166-.167h.5c.066 0 .1-.033.1-.1v-2.187c0-.1.066-.17.166-.17h1.984c.1 0 .167.068.167.17v2.185c0 .068.034.102.1.102h1.035c.1 0 .166.067.166.167v1.396c0 .1-.066.168-.167.168h-1.035c-.066 0-.1.033-.1.1v3.6c0 .604.2.806.733.806h.402c.1 0 .166.067.166.167v1.666c0 .1-.066.168-.167.168h-.884v.002zM33.73 60.545c-.107 0-.18-.07-.215-.18l-1.487-5.084h-.037l-1.523 5.085c-.036.108-.107.182-.215.182h-1.775c-.107 0-.18-.074-.215-.182l-2.78-8.396c-.036-.11.018-.183.126-.183h2.206c.144 0 .215.055.25.182l1.436 5.21h.035l1.487-5.21c.036-.128.127-.183.25-.183h1.508c.126 0 .197.055.233.182l1.524 5.21h.035l1.362-5.21c.037-.128.108-.183.234-.183h2.205c.126 0 .18.074.144.182l-2.78 8.395c-.034.108-.106.182-.214.182H33.73v-.002z"/><path fill="#1D1D1B" d="M49 67H15V33h34v34zm-32-2h30V35H17v30z"/></svg>