<svg xmlns="http://www.w3.org/2000/svg" xmlns:xlink="http://www.w3.org/1999/xlink" viewBox="0 0 185.2 185.6"><defs><path id="a" d="M0 0h185.2v185.6H0z"/></defs><clipPath id="b"><use xlink:href="#a" overflow="visible"/></clipPath><path clip-path="url(#b)" fill="#A7A9AC" d="M108.7 131.8c-21.7 9-46.5-1.3-55.4-23-9-21.7 1.3-46.5 23-55.4 21.7-9 46.5 1.3 55.4 23s-1.3 46.4-23 55.4zm0 0"/><path clip-path="url(#b)" d="M92.5 36.7c1.9 0 3.4-1.6 3.4-3.4V11.7l7.6 7.6c.7.7 1.5 1 2.4 1 .9 0 1.7-.3 2.4-1 1.3-1.3 1.3-3.5 0-4.8L95 1c-1.3-1.3-3.5-1.3-4.8 0L76.6 14.5c-1.3 1.3-1.3 3.5 0 4.8 1.3 1.3 3.5 1.3 4.8 0l7.6-7.6v21.6c.1 1.9 1.6 3.4 3.5 3.4zm0 0M92.5 148.4c-1.9 0-3.4 1.5-3.4 3.4v21.6l-7.6-7.6c-1.3-1.3-3.5-1.3-4.8 0-1.3 1.3-1.3 3.5 0 4.8l13.5 13.5c.7.7 1.6 1 2.4 1 .9 0 1.7-.3 2.4-1l13.5-13.5c1.3-1.3 1.3-3.5 0-4.8-1.3-1.3-3.5-1.3-4.8 0l-7.6 7.6v-21.6c-.1-1.9-1.7-3.4-3.6-3.4zm0 0M36.7 92.6c0-1.9-1.6-3.4-3.4-3.4H11.7l7.6-7.6c1.3-1.3 1.3-3.5 0-4.8-1.3-1.3-3.5-1.3-4.8 0L1 90.1c-1.3 1.3-1.3 3.5 0 4.8l13.5 13.5c.7.7 1.6 1 2.4 1 .9 0 1.7-.3 2.4-1 1.3-1.3 1.3-3.5 0-4.8L11.7 96h21.6c1.9 0 3.4-1.5 3.4-3.4zm0 0M170.6 76.7c-1.3-1.3-3.5-1.3-4.8 0-1.3 1.3-1.3 3.5 0 4.8l7.6 7.6h-21.6c-1.9 0-3.4 1.6-3.4 3.4s1.6 3.4 3.4 3.4h21.6l-7.6 7.6c-1.3 1.3-1.3 3.5 0 4.8.7.7 1.6 1 2.4 1 .9 0 1.7-.3 2.4-1L184.1 95c1.3-1.3 1.3-3.5 0-4.8l-13.5-13.5zm0 0"/><path d="M26.1 29.6v19.1c0 1.9 1.6 3.4 3.4 3.4s3.4-1.6 3.4-3.4V37.8l15.3 15.3c.7.7 1.5 1 2.4 1 .9 0 1.7-.3 2.4-1 1.3-1.3 1.3-3.5 0-4.8L37.8 33h10.8c1.9 0 3.4-1.6 3.4-3.4 0-1.9-1.6-3.4-3.4-3.4H29.5c-1.9-.1-3.4 1.5-3.4 3.4zm0 0M133.1 155.6c0 1.9 1.6 3.4 3.4 3.4h19.1c1.9 0 3.4-1.6 3.4-3.4v-19.1c0-1.9-1.6-3.4-3.4-3.4-1.9 0-3.4 1.6-3.4 3.4v10.8L136.9 132c-1.3-1.3-3.5-1.3-4.8 0-1.3 1.3-1.3 3.5 0 4.8l15.3 15.3h-10.8c-2 .1-3.5 1.6-3.5 3.5zm0 0M53 132.1c-1.3-1.3-3.5-1.3-4.8 0l-15.3 15.3v-10.8c0-1.9-1.5-3.4-3.4-3.4s-3.4 1.5-3.4 3.4v19.1c0 1.9 1.6 3.4 3.4 3.4h19.1c1.9 0 3.4-1.5 3.4-3.4s-1.6-3.4-3.4-3.4H37.8L53 136.9c1.4-1.3 1.4-3.5 0-4.8zm0 0M155.5 52c1.9 0 3.4-1.6 3.4-3.4v-19c0-1.9-1.5-3.4-3.4-3.4h-19.1c-1.9 0-3.4 1.6-3.4 3.4 0 1.9 1.6 3.4 3.4 3.4h10.8L132 48.3c-1.3 1.3-1.3 3.5 0 4.8.7.7 1.6 1 2.4 1 .9 0 1.7-.3 2.4-1l15.3-15.3v10.8c0 1.9 1.6 3.4 3.4 3.4zm0 0M92.5 46.7c-6 0-11.9 1.2-17.5 3.5-23.4 9.7-34.5 36.5-24.8 59.9 7.1 17.2 23.7 28.3 42.4 28.3 6 0 11.9-1.2 17.5-3.5 23.4-9.7 34.5-36.5 24.8-59.9-7.1-17.2-23.8-28.3-42.4-28.3zm-36.8 58.6c-3-8.5-2.8-17.5 0-25.5h10.7c-.8 4.2-1.2 8.5-1.2 12.7 0 4 .5 8.4 1.5 12.9h-11zM72 92.5c0-4.3.5-8.7 1.3-12.7H89v25.5H73.7c-1-4.3-1.7-8.7-1.7-12.8zm24-38.2c5.7 2 11 9.2 14.3 18.6H96V54.3zm-6.9.2v18.4H75.3c3.1-9.1 8.2-16.2 13.8-18.4zm0 57.7v18.2c-5.3-2.4-10.1-9.6-13.3-18.2h13.3zm6.9 18.4v-18.4h13.8c-3.3 8.8-8.4 16.2-13.8 18.4zm0-25.3V79.8h16.1c.9 4 1.3 8.4 1.3 12.7 0 4.1-.6 8.5-1.7 12.9H96zm23.1-25.5h10.2c3 8.5 2.8 17.5 0 25.5h-10.5c1-4.5 1.5-8.9 1.5-12.9 0-4.2-.4-8.5-1.2-12.6zm7.1-6.9h-8.8c-1.2-4-2.8-7.8-4.6-11.2-.8-1.4-1.6-2.6-2.4-3.9 6.5 3.4 12 8.6 15.8 15.1zM75.3 57.6c-.9 1.3-1.8 2.6-2.6 4.2-1.9 3.4-3.4 7.2-4.6 11.2h-9.2c3.7-6.5 9.3-11.9 16.4-15.4zm-16.4 54.6h9.8c1.9 5.9 4.6 11.5 7.9 16-7.4-3.4-13.6-8.9-17.7-16zm50.3 15.6c3.2-4.4 5.8-9.9 7.7-15.6h9.3c-3.8 6.6-9.6 12.1-17 15.6zm0 0"/></svg>