<svg xmlns="http://www.w3.org/2000/svg" viewBox="0 0 153.5 127.2"><path fill="#A7A9AC" d="M44.8 64.7v16.8c0 1.4 1.7 2 2.6 1l15.3-17.7h52.5c4.6 0 8.3-3.7 8.3-8.3V11.1c0-4.6-3.7-8.3-8.3-8.3H38.5c-4.6 0-8.3 3.7-8.3 8.3v45.3c0 4.6 3.7 8.3 8.3 8.3h6.3zm0 0"/><path d="M26.8 108.7h33.7c.9 2.7 3.4 4.6 6.4 4.6h19.9c3 0 5.5-1.9 6.4-4.6h33.7c1.6 0 2.8-1.3 2.8-2.8 0-1.6-1.3-2.8-2.8-2.8H90.6c-1.6 0-2.8 1.3-2.8 2.8v.7c0 .6-.5 1.1-1.1 1.1H66.8c-.6 0-1.1-.5-1.1-1.1v-.7c0-1.6-1.3-2.8-2.8-2.8H26.8c-1.6 0-2.8 1.3-2.8 2.8-.1 1.6 1.2 2.8 2.8 2.8zm0 0"/><path d="M150.7 103h-8.4V31.1c0-1.6-1.3-2.8-2.8-2.8-1.6 0-2.8 1.3-2.8 2.8v74.8c0 1.6 1.3 2.8 2.8 2.8h8.4v4.5c0 4.6-3.7 8.3-8.3 8.3H14c-4.6 0-8.3-3.7-8.3-8.3v-4.5h8.4c1.6 0 2.8-1.3 2.8-2.8V31.1c0-1.6-1.3-2.8-2.8-2.8-1.6 0-2.8 1.3-2.8 2.8V103H2.9c-1.6 0-2.8 1.3-2.8 2.8v7.4c0 7.7 6.3 13.9 13.9 13.9h125.6c7.7 0 13.9-6.3 13.9-13.9v-7.4c0-1.5-1.3-2.8-2.8-2.8zm0 0"/><path d="M89.1 21.8L71 39.8l-6.4-6.5c-1.1-1.1-2.9-1.1-4 0s-1.1 2.9 0 4l8.4 8.5c.6.6 1.3.8 2 .8s1.4-.3 2-.8l20.1-20c1.1-1.1 1.1-2.9 0-4s-2.9-1.1-4 0zm0 0"/><path d="M115.2 0H38.5c-6.1 0-11.1 5-11.1 11.1v45.3c0 6.1 5 11.1 11.1 11.1H42v13.9c0 2.4 1.9 4.3 4.3 4.3 1.3 0 2.4-.5 3.3-1.5L64 67.6h51.2c6.1 0 11.1-5 11.1-11.1V11.1c0-6.1-5-11.1-11.1-11.1zm5.5 56.5c0 3-2.4 5.5-5.5 5.5H62.7c-.8 0-1.6.3-2.2 1L47.6 78V64.7c0-1.6-1.3-2.8-2.8-2.8h-6.3c-3 0-5.5-2.4-5.5-5.5V11.1c0-3 2.4-5.5 5.5-5.5h76.8c3 0 5.5 2.4 5.5 5.5l-.1 45.4zm0 0"/></svg>