<svg width="80" height="80" viewBox="0 0 80 80" xmlns="http://www.w3.org/2000/svg"><title>access_rising_technologies</title><path d="M58.833 21.833s-.083 0 0 0c-.083-.083-.083-.083-.166-.083h-.084-29.5c-.166 0-.333.083-.5.167l-7.333 4.916c-.083.084-.25.084-.333.25-.25.167-.25.5-.167.834V57.5c0 .5.333.833.833.833h30c.25 0 .5-.083.584-.25l6.583-4.916c.25-.167.333-.417.333-.667v-30c.084-.25 0-.5-.25-.667zm-29.416 1.5h26.416l-4.416 3.334h-27l5-3.334zm-6.917 5h28.333v28.334H22.5V28.333zm35 23.75l-5 3.75V27.917l5-3.75v27.916zm2.5 8.75h1.667V62.5H60v-1.667zm3.333 0H65V62.5h-1.667v-1.667zM18.917 59.75l-1.167-1.167-2.5 2.5c-.333.334-.333.834 0 1.167l2.5 2.5 1.167-1.167-1.084-1.083h40.5v-1.667h-40.5l1.084-1.083zm-.584-42.25H20v1.667h-1.667V17.5zM15 17.5h1.667v1.667H15V17.5zm49.75.25l-2.5-2.5-1.167 1.167 1.084 1.083h-40.5v1.667h40.5l-1.084 1.083 1.167 1.167 2.5-2.5c.333-.334.333-.834 0-1.167zM47.5 30h1.667v1.667H47.5V30zm0 23.333h1.667V55H47.5v-1.667zm-23.333 0h1.666V55h-1.666v-1.667zm0-23.333h1.666v1.667h-1.666V30zM45 46.167c.083-.084.083-.25.167-.334H47.5c.5 0 .833-.333.833-.833v-5c0-.5-.333-.833-.833-.833h-2.333c-.084-.084-.084-.25-.167-.334l1.667-1.5c.166-.166.25-.333.25-.583 0-.25-.084-.417-.25-.583l-3.5-3.5c-.334-.334-.834-.334-1.167 0l-1.583 1.583c-.167-.083-.25-.083-.334-.167v-2.416c0-.5-.333-.834-.833-.834h-5c-.5 0-.833.334-.833.834v2.25c-.084.083-.25.083-.334.166L31.5 32.5c-.167-.167-.333-.25-.583-.25-.25 0-.417.083-.584.25l-3.5 3.5c-.166.167-.25.333-.25.583 0 .25.084.417.25.584l1.584 1.583c-.084.167-.084.25-.167.333h-2.417c-.5 0-.833.334-.833.834v5c0 .5.333.833.833.833h2.334c.083.083.083.25.166.333l-1.583 1.584c-.167.166-.25.333-.25.583 0 .25.083.417.25.583l3.5 3.5c.333.334.833.334 1.167 0L33 50.75c.167.083.25.083.333.167v2.416c0 .5.334.834.834.834h5c.5 0 .833-.334.833-.834V51c.083-.083.25-.083.333-.167l1.584 1.584c.333.333.833.333 1.166 0l3.5-3.5c.167-.167.25-.334.25-.584 0-.25-.083-.416-.25-.583L45 46.167zm-2.5 4.5l-1.417-1.417c-.166-.167-.333-.25-.583-.25-.167 0-.333.083-.5.167-.167.083-.833.333-1 .416-.417.084-.667.417-.667.834V52.5H35v-2.083c0-.25-.083-.417-.25-.584-.167-.25-1.583-.833-1.917-.833-.25 0-.416.083-.583.25l-1.417 1.417-2.333-2.334 1.417-1.416c.166-.167.25-.334.25-.584 0-.166-.084-.333-.167-.5-.083-.166-.333-.833-.417-1-.083-.416-.416-.666-.833-.666h-2.083v-3.334h2.083c.25 0 .417-.083.583-.25.25-.166.834-1.583.834-1.916 0-.25-.084-.417-.25-.584L28.5 36.667l2.333-2.334 1.417 1.417c.167.167.333.25.583.25.167 0 .334-.083.5-.167.167-.083.834-.333 1-.416.417-.084.667-.417.667-.834V32.5h3.333v2.083c0 .25.084.417.25.584.167.25 1.584.833 1.917.833.25 0 .417-.083.583-.25l1.417-1.417 2.333 2.334-1.416 1.416c-.167.167-.25.334-.25.584 0 .166.083.333.166.5.084.166.334.833.417 1 .083.416.417.666.833.666h2.084v3.334h-2.084c-.416 0-.75.333-.833.666 0 .167-.333.834-.417 1-.083.167-.166.334-.166.5 0 .25.083.417.25.584l1.416 1.416-2.333 2.334zm-5.833-11.5c-1.834 0-3.334 1.5-3.334 3.333 0 1.833 1.5 3.333 3.334 3.333 1.833 0 3.333-1.5 3.333-3.333 0-1.833-1.5-3.333-3.333-3.333zm0 5c-.917 0-1.667-.75-1.667-1.667s.75-1.667 1.667-1.667c.916 0 1.666.75 1.666 1.667s-.75 1.667-1.666 1.667z" fill="#CFCFCF" fill-rule="evenodd"/></svg>