<svg xmlns="http://www.w3.org/2000/svg" xmlns:xlink="http://www.w3.org/1999/xlink" viewBox="0 0 138 157.7"><defs><path id="a" d="M0 .3h138v158.1H0z"/></defs><clipPath id="b"><use xlink:href="#a" overflow="visible"/></clipPath><path clip-path="url(#b)" fill="#A7A9AC" d="M57.5 93.1c-5.5 4.3-11.9 5.3-16.1 4.7-1.4-.2-1.6-2.1-.4-2.7 4-2 6.3-6.3 7.7-9.3-12.6-14.2-12.1-36 1.5-49.7 14.2-14.2 37.1-14.2 51.3 0 14.2 14.2 14.2 37.1 0 51.3-11.9 12-30.1 13.8-44 5.7zm0 0"/><path clip-path="url(#b)" d="M75.8.4c-9.3 0-18.2 2-26.6 6-21.8 10.1-35.9 32.2-35.9 56.2v9.1L1.6 94.2c-1.9 3.7-2.1 7.5-.3 10.3 1.7 2.9 5.1 4.5 9.3 4.5h2.8v19c0 8.5 6.9 15.4 15.4 15.4h.4l13.7-2.1v13.8c0 1.6 1.3 2.9 2.9 2.9h70c1.6 0 2.9-1.3 2.9-2.9v-47.6c12.3-11.7 19.3-28 19.3-45C138 28.3 110.1.4 75.8.4zm38.1 103.7c-.6.5-.9 1.3-.9 2.2v46H48.7V138c0-.8-.4-1.6-1-2.2-.6-.5-1.5-.8-2.3-.7l-16.9 2.5c-5.2-.1-9.3-4.3-9.3-9.5v-21.9c0-1.6-1.3-2.9-2.9-2.9h-5.7c-2.1 0-3.7-.6-4.3-1.7-.6-1.1-.5-2.8.5-4.6l12.1-23c.2-.4.3-.9.3-1.4v-9.9c0-21.8 12.8-41.8 32.6-51 7.5-3.7 15.6-5.5 24-5.5 31.1 0 56.3 25.3 56.3 56.3 0 15.8-6.6 30.9-18.2 41.6zm0 0"/><path d="M75.9 22.6c-10.5 0-20.3 4.1-27.7 11.5-14.2 14.2-15.3 36.7-3 52.2-1.6 3.1-3.4 5.2-5.5 6.2-1.7.8-2.6 2.6-2.4 4.5.3 1.9 1.7 3.3 3.6 3.6.9.1 1.8.2 2.8.2 4.7 0 9.7-1.6 13.9-4.3 5.6 2.9 11.8 4.4 18.2 4.4 10.5 0 20.3-4.1 27.7-11.5 15.3-15.3 15.3-40.1 0-55.4-7.3-7.3-17.2-11.4-27.6-11.4zm23.5 62.8c-6.3 6.3-14.7 9.8-23.6 9.8-6 0-11.8-1.6-16.9-4.6-.5-.3-1-.4-1.5-.4-.6 0-1.3.2-1.8.6-3.5 2.7-7 3.7-9.4 4.1 1.9-1.9 3.6-4.5 5.1-7.9.5-1 .3-2.3-.5-3.1-11.7-13.2-11-33.2 1.4-45.6 6.3-6.3 14.7-9.8 23.6-9.8 8.9 0 17.3 3.5 23.6 9.8 13 12.9 13 34.1 0 47.1zm0 0"/><path d="M75.9 58.9c-.8 0-1.5.3-2.1.9-.5.5-.8 1.2-.8 2s.3 1.5.8 2.1c.5.5 1.3.9 2.1.9s1.5-.3 2.1-.9c.5-.5.8-1.3.8-2.1s-.3-1.5-.8-2.1c-.6-.5-1.4-.8-2.1-.8zm0 0M86.7 58.9c-.8 0-1.5.3-2.1.9-.5.5-.8 1.3-.8 2.1s.3 1.5.8 2.1c.5.5 1.3.9 2.1.9s1.5-.3 2.1-.9c.5-.5.8-1.3.8-2.1s-.3-1.5-.8-2.1c-.5-.6-1.3-.9-2.1-.9zm0 0M65 58.9c-.8 0-1.5.3-2.1.9-.5.5-.8 1.3-.8 2.1s.3 1.5.8 2.1c.5.5 1.3.9 2.1.9s1.5-.3 2.1-.9c.5-.5.8-1.3.8-2.1s-.3-1.5-.8-2.1c-.6-.6-1.3-.9-2.1-.9zm0 0"/></svg>