<svg width="80" height="80" viewBox="0 0 80 80" xmlns="http://www.w3.org/2000/svg"><title>data_security</title><path d="M30.266 35.88H22.04V25.356c1.875-.383 3.29-2.048 3.29-4.038 0-2.274-1.845-4.122-4.113-4.122-2.268 0-4.113 1.848-4.113 4.12 0 1.99 1.415 3.656 3.29 4.04v11.345c0 .455.37.824.823.824h8.978v1.708H27.48c-.455 0-.823.37-.823.824v5.71H20.12c-.454 0-.823.368-.823.823 0 .455.37.824.823.824h6.537v3.768c0 2.268 1.842 4.114 4.106 4.114h3.894c-.003.027-.004.056-.004.084v3.572h-9.406c-.382-1.88-2.044-3.297-4.03-3.297-2.268 0-4.113 1.848-4.113 4.12 0 2.272 1.845 4.12 4.113 4.12 1.986 0 3.648-1.417 4.03-3.296h10.23c.453 0 .82-.37.82-.824v-4.396c0-.03 0-.057-.003-.085h12.67c2.263 0 4.105-1.847 4.105-4.115v-3.768h2.423v12.638h-6.116c-.382-1.88-2.044-3.297-4.03-3.297-2.268 0-4.113 1.85-4.113 4.12 0 2.273 1.845 4.122 4.113 4.122 1.986 0 3.648-1.418 4.03-3.297h6.938c.455 0 .823-.37.823-.824V46.592c0-.455-.368-.824-.823-.824H53.07v-2.51h8.73c.454 0 .822-.368.822-.823 0-.455-.368-.824-.823-.824h-8.73V40.06c0-.456-.37-.825-.823-.825H49.53v-1.707h9.253c.455 0 .823-.37.823-.825V33.05c1.875-.384 3.29-2.05 3.29-4.04 0-2.27-1.845-4.12-4.113-4.12-2.268 0-4.113 1.85-4.113 4.12 0 1.99 1.416 3.656 3.29 4.04v2.83h-8.43V34.8c0-5.34-4.336-9.685-9.667-9.685-3.293 0-6.205 1.658-7.952 4.184v-9.355h8.31c.382 1.88 2.044 3.297 4.03 3.297 2.268 0 4.113-1.85 4.113-4.12 0-2.273-1.845-4.122-4.113-4.122-1.986 0-3.648 1.418-4.03 3.297h-9.132c-.454 0-.822.37-.822.824v16.76zm26.05-6.87c0-1.362 1.106-2.472 2.467-2.472 1.36 0 2.468 1.11 2.468 2.473 0 1.364-1.106 2.473-2.467 2.473-1.36 0-2.468-1.11-2.468-2.472zM44.25 16.65c1.36 0 2.468 1.11 2.468 2.473 0 1.364-1.107 2.473-2.468 2.473-1.36 0-2.468-1.11-2.468-2.472 0-1.362 1.107-2.472 2.468-2.472zm-25.5 4.67c0-1.363 1.106-2.472 2.467-2.472 1.36 0 2.468 1.11 2.468 2.473 0 1.362-1.107 2.47-2.468 2.47-1.36 0-2.468-1.108-2.468-2.47zm2.467 40.935c-1.36 0-2.468-1.11-2.468-2.473 0-1.363 1.106-2.472 2.467-2.472 1.36 0 2.468 1.11 2.468 2.472 0 1.364-1.107 2.473-2.468 2.473zM31.84 34.8c0-4.43 3.6-8.037 8.023-8.037 4.424 0 8.023 3.606 8.023 8.038v4.435h-2.244v-4.098c0-3.192-2.592-5.79-5.78-5.79-3.186 0-5.778 2.598-5.778 5.79v4.098H31.84V34.8zm12.157 4.435H35.73v-4.098c0-2.284 1.853-4.142 4.133-4.142 2.28 0 4.134 1.858 4.134 4.142v4.098zm7.427 11.95c0 1.36-1.104 2.466-2.46 2.466h-18.2c-1.358 0-2.462-1.105-2.462-2.465V40.883h23.122v10.302zm-6.077 12.167c-1.36 0-2.468-1.11-2.468-2.473 0-1.364 1.106-2.473 2.467-2.473 1.36 0 2.468 1.11 2.468 2.472 0 1.362-1.107 2.472-2.468 2.472zM39.863 44.67c-.454 0-.823.37-.823.824v3.545c0 .455.37.823.823.823.454 0 .822-.368.822-.824v-3.546c0-.455-.368-.824-.822-.824z" fill="#CFCFCF" fill-rule="evenodd"/></svg>