<svg width="80" height="80" viewBox="0 0 80 80" xmlns="http://www.w3.org/2000/svg"><title>money</title><g fill="#CFCFCF" fill-rule="evenodd"><path d="M62 31H23.2l14.283-14.284 1.992 1.992.707-.707-2.7-2.698-4.49 4.49V19h-13.01l-.16.056c-.74.26-1.797.782-2.863 1.62-1.756 1.377-2.865 3.148-2.954 5.324H14v31.04c0 3.28 2.772 5.96 6.13 5.96H64V19H49v2h13v10zm-40.214 0h-.75c-.164-.088-.383-.21-.642-.36-.646-.38-1.29-.805-1.89-1.264-1.526-1.17-2.438-2.33-2.5-3.273.058-1.534.853-2.806 2.19-3.855.505-.396 1.05-.73 1.597-1 .225-.11.41-.193.546-.248h11.45l-10 10zm-4.498-.036c.67.513 1.382.982 2.094 1.4.428.25.765.432.966.53l.21.106H62v28H20.13C17.863 61 16 59.2 16 57.04V29.862c.383.37.814.738 1.288 1.102z"/><path d="M63.23 60.355h-2.453c-.49 0-.817-.326-.817-.814 0-.487.327-.813.817-.813h2.453c.49 0 .817.326.817.814 0 .49-.327.815-.817.815zm-4.905 0h-2.452c-.49 0-.818-.326-.818-.814 0-.487.327-.813.818-.813h2.452c.49 0 .817.326.817.814 0 .49-.326.815-.817.815zm-4.905 0h-2.452c-.49 0-.817-.326-.817-.814 0-.487.328-.813.818-.813h2.452c.49 0 .818.326.818.814 0 .49-.327.815-.818.815zm-4.904 0h-2.453c-.49 0-.817-.326-.817-.814 0-.487.327-.813.817-.813h2.453c.49 0 .817.326.817.814 0 .49-.327.815-.817.815zm-4.905 0h-2.45c-.492 0-.82-.326-.82-.814 0-.487.328-.813.82-.813h2.45c.49 0 .818.326.818.814 0 .49-.327.815-.817.815zm-4.904 0h-2.452c-.49 0-.818-.326-.818-.814 0-.487.327-.813.818-.813h2.452c.49 0 .818.326.818.814 0 .49-.327.815-.818.815zm-4.905 0h-2.45c-.49 0-.818-.326-.818-.814 0-.487.327-.813.817-.813h2.45c.492 0 .82.326.82.814 0 .49-.328.815-.82.815zm-4.903 0h-2.453c-.49 0-.817-.326-.817-.814 0-.487.327-.813.817-.813h2.453c.49 0 .817.326.817.814 0 .49-.327.815-.817.815zm-4.905 0H21.54c-.49 0-.818-.326-.818-.814 0-.487.327-.813.818-.813h2.452c.49 0 .817.326.817.814 0 .49-.328.815-.818.815zm-4.823-.488c-.083 0-.246 0-.328-.082-.817-.407-1.635-.976-2.207-1.627-.327-.326-.245-.814.082-1.14.327-.325.817-.244 1.144.082.492.488 1.064.976 1.636 1.22.41.163.572.65.41 1.058-.165.326-.41.49-.737.49zm-3.107-3.58c-.327 0-.654-.245-.818-.57-.163-.652-.245-1.22-.245-1.872 0-.49.327-.814.817-.814.49 0 .818.326.818.815 0 .488.082.895.163 1.383.164.407-.08.895-.572.977 0 .08-.082.08-.163.08zM63.23 35.94h-2.453c-.49 0-.817-.324-.817-.813 0-.488.327-.813.817-.813h2.453c.49 0 .817.325.817.813 0 .49-.327.814-.817.814zm-4.905 0h-2.452c-.49 0-.818-.324-.818-.813 0-.488.327-.813.818-.813h2.452c.49 0 .817.325.817.813 0 .49-.326.814-.817.814zm-4.905 0h-2.452c-.49 0-.817-.324-.817-.813 0-.488.328-.813.818-.813h2.452c.49 0 .818.325.818.813 0 .49-.327.814-.818.814zm-4.904 0h-2.453c-.49 0-.817-.324-.817-.813 0-.488.327-.813.817-.813h2.453c.49 0 .817.325.817.813 0 .49-.327.814-.817.814zm-4.905 0h-2.45c-.492 0-.82-.324-.82-.813 0-.488.328-.813.82-.813h2.45c.49 0 .818.325.818.813 0 .49-.327.814-.817.814zm-4.904 0h-2.452c-.49 0-.818-.324-.818-.813 0-.488.327-.813.818-.813h2.452c.49 0 .818.325.818.813 0 .49-.327.814-.818.814zm-4.905 0h-2.45c-.49 0-.818-.324-.818-.813 0-.488.327-.813.817-.813h2.45c.492 0 .82.325.82.813 0 .49-.328.814-.82.814zm-4.903 0h-2.453c-.49 0-.817-.324-.817-.813 0-.488.327-.813.817-.813h2.453c.49 0 .817.325.817.813 0 .49-.327.814-.817.814zm-4.905 0H21.54c-.49 0-.818-.324-.818-.813 0-.488.327-.813.818-.813h2.452c.49 0 .817.325.817.813 0 .49-.328.814-.818.814zM53.942 32H61L44.657 14.25c-.328-.333-.985-.333-1.314 0L26 32h8.057l.967 1h17.952l.967-1zM34.91 31H30l14-15 14 15h-4.91l-8.46-8.756C44.472 22.08 44.236 22 44 22h-.394l-8.697 9zm-15.74 4.453c-.083 0-.246 0-.328-.08-.817-.408-1.635-.978-2.207-1.63-.327-.325-.245-.813.082-1.138.327-.326.817-.245 1.144.08.492.49 1.064.977 1.636 1.222.41.162.572.65.41 1.058-.165.325-.41.488-.737.488zM48 47c0-3.314 2.678-6 6.003-6H64v12h-9.997C50.688 53 48 50.307 48 47zm2 0c0-2.21 1.787-4 3.993-4H64v8H53.993C51.788 51 50 49.205 50 47zm5 3c-1.65 0-3-1.35-3-3s1.35-3 3-3 3 1.35 3 3-1.35 3-3 3zm0-4c-.55 0-1 .45-1 1s.45 1 1 1 1-.45 1-1-.45-1-1-1zm-2.024-14l-9.006-9-8.946 9h17.952z"/></g></svg>