<svg xmlns="http://www.w3.org/2000/svg" viewBox="0 0 141.1 124.7"><path fill="#A7A9AC" d="M76.5 79.4c0 3.2-2.6 5.8-5.8 5.8-3.2 0-5.8-2.6-5.8-5.8 0-3.2 2.6-5.8 5.8-5.8 3.2.1 5.8 2.6 5.8 5.8zm0 0"/><path d="M50.4 91.1c.5.8 1.4 1.3 2.3 1.3.4 0 .9-.1 1.3-.3l10.7-6.2c1.6 1.5 3.7 2.4 6 2.4s4.5-.9 6.1-2.4l10.7 6.2c.4.2.9.3 1.3.3.9 0 1.8-.5 2.3-1.3.7-1.2.3-2.9-1-3.6l-10.7-6.2c.1-.6.2-1.3.2-2 0-4-2.7-7.4-6.3-8.5V58.5c0-1.4-1.2-2.6-2.6-2.6-1.4 0-2.6 1.2-2.6 2.6v12.3c-3.7 1.1-6.3 4.5-6.3 8.5 0 .7.1 1.4.2 2l-10.7 6.2c-1.2.8-1.6 2.4-.9 3.6zm20.4-15.4c2 0 3.7 1.6 3.7 3.7 0 2-1.6 3.7-3.7 3.7-2 0-3.7-1.6-3.7-3.7 0-2 1.6-3.7 3.7-3.7zm0 0"/><path d="M45.4 59.5c1.4 0 2.6-1.2 2.6-2.6v-7.1c0-.7.3-1.4.9-1.8 6.2-5.1 12.9-8.5 14.2-9.1 1-.5 1.7-1.6 1.7-2.8v-10c0-.9-.4-1.7-1.2-2.2-.6-.4-.9-1-.9-1.7V11.9c0-3.7 3-6.7 6.7-6.7h2.2c3.7 0 6.7 3 6.7 6.7v10.3c0 .7-.3 1.3-.9 1.7-.7.5-1.2 1.3-1.2 2.2v10c0 1.2.7 2.2 1.7 2.8 1.3.6 8 4 14.2 9.1.5.5.9 1.1.9 1.8v7.1c0 1.4 1.2 2.6 2.6 2.6 1.4 0 2.6-1.2 2.6-2.6v-7.1c0-2.3-1-4.4-2.8-5.9-5.5-4.5-11.4-7.8-14-9.2v-7.4c1.3-1.4 2.1-3.2 2.1-5.1V11.9C83.5 5.4 78.2 0 71.6 0h-2.2c-6.6 0-11.9 5.3-11.9 11.9v10.3c0 1.9.7 3.7 2.1 5.1v7.4c-2.7 1.4-8.5 4.6-14 9.2-1.8 1.4-2.8 3.6-2.8 5.9v7.1c0 1.4 1.2 2.6 2.6 2.6zm0 0M102.4 99.9c-2.7 1.4-8.5 4.6-14 9.2-1.8 1.4-2.8 3.6-2.8 5.9v7.1c0 1.4 1.2 2.6 2.6 2.6 1.4 0 2.6-1.2 2.6-2.6V115c0-.7.3-1.4.9-1.8 6.2-5.1 12.9-8.5 14.2-9.1 1.1-.5 1.7-1.6 1.7-2.8v-10c0-.9-.4-1.7-1.2-2.2-.6-.4-.9-1-.9-1.7V77.1c0-3.7 3-6.7 6.7-6.7h2.2c3.7 0 6.7 3 6.7 6.7v10.3c0 .7-.3 1.3-.9 1.7-.7.5-1.2 1.3-1.2 2.2v10c0 1.2.7 2.2 1.7 2.8 1.3.6 8 4 14.2 9.1.5.5.9 1.1.9 1.8v7.1c0 1.4 1.2 2.6 2.6 2.6 1.4 0 2.6-1.2 2.6-2.6V115c0-2.3-1-4.4-2.8-5.9-5.5-4.5-11.4-7.8-14-9.2v-7.4c1.3-1.4 2.1-3.2 2.1-5.1V77.1c0-6.6-5.4-11.9-11.9-11.9h-2.2c-6.6 0-11.9 5.4-11.9 11.9v10.3c0 1.9.7 3.7 2.1 5.1v7.4zm0 0M2.6 124.7c1.4 0 2.6-1.2 2.6-2.6V115c0-.7.3-1.4.9-1.8 6.2-5.1 12.9-8.5 14.2-9.1 1.1-.5 1.7-1.6 1.7-2.8v-10c0-.9-.4-1.7-1.2-2.2-.6-.4-.9-1-.9-1.7V77.1c0-3.7 3-6.7 6.7-6.7h2.2c3.7 0 6.7 3 6.7 6.7v10.3c0 .7-.3 1.3-.9 1.7-.7.5-1.2 1.3-1.2 2.2v10c0 1.2.7 2.2 1.7 2.8 1.3.6 8 4 14.2 9.1.5.5.9 1.1.9 1.8v7.1c0 1.4 1.2 2.6 2.6 2.6 1.4 0 2.6-1.2 2.6-2.6V115c0-2.3-1-4.4-2.8-5.9-5.5-4.5-11.4-7.8-14-9.2v-7.4c1.3-1.4 2.1-3.2 2.1-5.1V77.1c0-6.6-5.4-11.9-11.9-11.9h-2.2c-6.6 0-11.9 5.4-11.9 11.9v10.3c0 1.9.7 3.7 2.1 5.1v7.4c-2.7 1.4-8.5 4.6-14 9.2-1.8 1.4-2.8 3.6-2.8 5.8v7.1c0 1.5 1.2 2.7 2.6 2.7zm0 0"/></svg>