<svg xmlns="http://www.w3.org/2000/svg" viewBox="0 0 146.1 146"><path fill="#A7A9AC" d="M134.6 143.7l9.1-9.1c1.2-1.2 1.2-3.1 0-4.3L98.8 85.4 85.4 98.8l44.9 44.9c1.2 1.2 3.1 1.2 4.3 0zm0 0"/><path d="M49.1 20.2c-16 0-29 13-29 29 0 1.5 1.2 2.7 2.7 2.7s2.7-1.2 2.7-2.7c0-13 10.6-23.6 23.6-23.6 1.5 0 2.7-1.2 2.7-2.7.1-1.5-1.2-2.7-2.7-2.7zm0 0"/><path d="M100.8 83.5c-1.1-1.1-2.8-1.1-3.8 0l-4.8 4.8-6.3-6.3c7.8-8.7 12.5-20.2 12.5-32.8C98.3 22 76.3 0 49.2 0S0 22 0 49.1s22 49.1 49.1 49.1c12.6 0 24-4.8 32.8-12.5l6.3 6.3-4.8 4.8c-.5.5-.8 1.2-.8 1.9s.3 1.4.8 1.9l42.7 42.7c1.7 1.7 3.9 2.6 6.3 2.6s4.6-.9 6.3-2.6l4.7-4.7c1.7-1.7 2.6-3.9 2.6-6.3s-.9-4.6-2.6-6.3l-42.6-42.5zM5.5 49.1C5.5 25 25.1 5.4 49.2 5.4S92.9 25 92.9 49.1 73.3 92.8 49.2 92.8 5.5 73.2 5.5 49.1zm134.1 85.8l-4.7 4.7c-.7.7-1.5 1-2.4 1-.9 0-1.8-.4-2.4-1L89.2 98.8l9.6-9.6 40.8 40.8c.7.7 1 1.5 1 2.4 0 1-.4 1.8-1 2.5zm0 0"/></svg>