<svg width="80" height="80" viewBox="0 0 80 80" xmlns="http://www.w3.org/2000/svg"><title>technology stack</title><path d="M36.543 58.18V45.39c0-.44-.358-.797-.798-.797h-5.32c-.44 0-.797.357-.797.798 0 .442.357.8.798.8h4.52v11.99c-1.522.36-2.66 1.73-2.66 3.363 0 1.906 1.552 3.457 3.46 3.457 1.905 0 3.456-1.55 3.456-3.457 0-1.632-1.137-3.003-2.66-3.364zm8.51 0V45.39c0-.44-.357-.797-.798-.797h-5.32c-.44 0-.797.357-.797.798 0 .442.358.8.798.8h4.52v11.99c-1.52.36-2.658 1.73-2.658 3.363 0 1.906 1.55 3.457 3.457 3.457 1.907 0 3.458-1.55 3.458-3.457 0-1.632-1.137-3.003-2.66-3.364zm-9.308 5.224c-1.027 0-1.862-.835-1.862-1.86 0-1.028.835-1.863 1.862-1.863 1.026 0 1.86.836 1.86 1.863 0 1.026-.834 1.86-1.86 1.86zm22.872-10.638c-1.632 0-3.002 1.137-3.363 2.66h-1.69V45.39c0-.44-.357-.797-.798-.797h-5.32c-.44 0-.797.357-.797.798 0 .442.356.8.797.8h4.52v10.033c0 .44.358.798.8.798h2.487c.36 1.524 1.73 2.66 3.363 2.66 1.907 0 3.457-1.55 3.457-3.457 0-1.906-1.55-3.457-3.457-3.457zM44.255 63.404c-1.026 0-1.86-.835-1.86-1.86 0-1.028.834-1.863 1.86-1.863 1.027 0 1.862.836 1.862 1.863 0 1.026-.835 1.86-1.862 1.86zM63.1 32.187c-1.075-1.335-2.536-2.324-4.16-2.83-.184-3.776-1.75-7.3-4.452-9.978C51.64 16.554 47.864 15 43.854 15c-5.266 0-10.14 2.746-12.88 7.21-.666-.21-1.36-.315-2.067-.315-3.26 0-6.062 2.3-6.738 5.437-4.187 1.086-7.17 4.9-7.17 9.274 0 5.284 4.3 9.583 9.582 9.583h1.854v9.236h-1.69c-.36-1.523-1.73-2.66-3.363-2.66-1.907 0-3.457 1.55-3.457 3.457 0 1.907 1.55 3.458 3.457 3.458 1.632 0 3.002-1.136 3.363-2.66h2.488c.44 0 .798-.356.798-.797V45.39c0-.44-.357-.797-.798-.797h-2.652c-4.403 0-7.986-3.583-7.986-7.987 0-3.8 2.7-7.094 6.423-7.832.335-.067.59-.34.635-.68.344-2.624 2.602-4.603 5.252-4.603.73 0 1.436.147 2.102.435.376.163.815.013 1.014-.346 2.38-4.31 6.914-6.984 11.83-6.984 7.38 0 13.44 6.004 13.507 13.384.004.37.26.687.62.77 3.193.74 5.424 3.548 5.424 6.83 0 3.867-3.145 7.013-7.012 7.013h-.435c-.44 0-.797.357-.797.798 0 .442.357.8.797.8h.434c4.748 0 8.61-3.863 8.61-8.61 0-1.957-.675-3.872-1.9-5.393zm-4.483 25.898c-1.026 0-1.862-.835-1.862-1.862 0-1.026.836-1.86 1.862-1.86 1.027 0 1.862.834 1.862 1.86 0 1.027-.836 1.862-1.863 1.862zM53.903 30.81h.008c.44-.005.795-.365.79-.806-.01-1.314-.26-2.6-.736-3.823-.16-.41-.623-.612-1.033-.45-.41.16-.613.62-.452 1.032.406 1.04.617 2.137.628 3.256.004.44.36.79.797.79zm-32.52 27.275c-1.027 0-1.862-.835-1.862-1.862 0-1.026.836-1.86 1.863-1.86 1.026 0 1.862.834 1.862 1.86 0 1.027-.836 1.862-1.862 1.862zM50.987 24.23c.158.19.386.29.616.29.18 0 .36-.06.507-.184.34-.28.388-.783.107-1.123-2.077-2.515-5.126-3.958-8.363-3.958-.44 0-.798.357-.798.798 0 .44.357.798.798.798 2.76 0 5.36 1.232 7.133 3.38z" fill="#CFCFCF" fill-rule="evenodd"/></svg>