<svg width="80" height="80" viewBox="0 0 80 80" xmlns="http://www.w3.org/2000/svg"><title>timezone</title><path d="M41.493 57.055c.57 0 1.033-.448 1.033-1 0-.553-.463-1-1.033-1H28.05V47.47c0-4.18 3.512-7.582 7.83-7.582h3.187c4.32 0 7.832 3.402 7.832 7.583v1.32c0 .55.46 1 1.032 1 .57 0 1.033-.45 1.033-1V47.47c0-3.755-2.242-7.013-5.498-8.584 3.256-1.57 5.498-4.828 5.498-8.583V22.59c1.7-.44 2.954-1.946 2.954-3.73 0-2.128-1.79-3.86-3.988-3.86H27.016c-2.2 0-3.987 1.732-3.987 3.86 0 1.784 1.254 3.29 2.953 3.73v7.715c0 3.755 2.242 7.012 5.498 8.583-3.255 1.57-5.497 4.83-5.497 8.583v7.716c-1.7.44-2.954 1.946-2.954 3.73 0 2.13 1.787 3.86 3.986 3.86h14.477c.57 0 1.033-.447 1.033-1 0-.552-.463-1-1.033-1H27.016c-1.06 0-1.922-.834-1.922-1.86 0-1.027.863-1.86 1.922-1.86h14.477zM46.9 26.71c-4.694.415-14.148.414-18.85 0V22.72H46.9v3.987zm-21.806-7.85c0-1.025.863-1.86 1.922-1.86h20.916c1.06 0 1.922.835 1.922 1.86 0 1.027-.862 1.862-1.922 1.862H27.016c-1.06 0-1.922-.835-1.922-1.86zm2.955 11.445v-1.588c4.86.41 13.996.41 18.85 0v1.588c0 4.182-3.514 7.583-7.833 7.583H35.88c-4.318 0-7.83-3.4-7.83-7.583zM38.506 42.69c0 .553-.463 1-1.033 1-.57 0-1.033-.447-1.033-1v-.223c0-.553.463-1 1.034-1 .57 0 1.033.447 1.033 1v.223zm-.822-7.857c0-.552.462-1 1.032-1 1.406 0 2.74-.792 3.567-2.12.295-.472.93-.624 1.418-.338.49.286.645.9.35 1.373-1.205 1.932-3.2 3.085-5.335 3.085-.57 0-1.032-.448-1.032-1zm.822 12.754v.224c0 .553-.463 1-1.033 1-.57 0-1.033-.447-1.033-1v-.223c0-.552.463-1 1.034-1 .57 0 1.033.448 1.033 1zm11.876 12.397c0 .553-.463 1-1.033 1h-.227c-.57 0-1.033-.447-1.033-1 0-.552.462-1 1.033-1h.227c.57 0 1.033.448 1.033 1zm3.608-3.612c0 .552-.462 1-1.032 1h-.227c-.57 0-1.032-.448-1.032-1 0-.553.462-1 1.033-1h.228c.57 0 1.033.447 1.033 1zm1.806-4.916h-9.51c-1.207 0-2.188.95-2.188 2.118v9.21c0 1.166.98 2.116 2.187 2.116h9.51c1.207 0 2.188-.95 2.188-2.117v-9.21c0-1.167-.98-2.117-2.187-2.117zm.12 11.327c0 .062-.056.117-.12.117h-9.51c-.066 0-.123-.055-.123-.117v-9.21c0-.062.057-.117.122-.117h9.51c.065 0 .122.055.122.118v9.21zm-1.925-2.8c0 .554-.462 1-1.032 1h-.228c-.57 0-1.032-.446-1.032-1 0-.55.462-1 1.032-1h.228c.57 0 1.033.45 1.033 1zm-11.03-15.04v.224c0 .552-.463 1-1.034 1-.57 0-1.032-.448-1.032-1v-.224c0-.552.462-1 1.032-1 .57 0 1.033.448 1.033 1zm7.423 11.43c0 .55-.462 1-1.033 1h-.227c-.57 0-1.033-.45-1.033-1 0-.554.462-1 1.033-1h.227c.57 0 1.033.446 1.033 1zm-17.36-12.43c.57 0 1.03.448 1.03 1v.224c0 .552-.46 1-1.03 1-.572 0-1.034-.448-1.034-1v-.224c0-.552.46-1 1.032-1z" fill="#CFCFCF" fill-rule="evenodd"/></svg>