<svg width="80" height="80" viewBox="0 0 80 80" xmlns="http://www.w3.org/2000/svg"><title>transparent_cost_mod</title><path d="M64.338 15.244c-.325-.326-.852-.326-1.178 0l-3.09 3.09H40.67l-24.39 24.592c-.556.555-.862 1.294-.862 2.08 0 .784.306 1.523.86 2.078L33.333 64.14c.572.572 1.323.858 2.075.858.756 0 1.512-.29 2.09-.867L61.25 39.74V19.512l3.088-3.09c.326-.325.326-.852 0-1.178zm-4.755 23.818l-23.27 23.9c-.498.495-1.306.495-1.803 0L17.455 45.905c-.497-.497-.497-1.305.003-1.804L41.362 20h17.04l-4.026 4.027c-.66-.436-1.447-.694-2.294-.694-2.298 0-4.167 1.87-4.167 4.167 0 2.297 1.87 4.167 4.167 4.167 2.297 0 4.166-1.87 4.166-4.167 0-.848-.258-1.635-.695-2.294l4.028-4.028v17.884zm-5-11.562c0 1.378-1.122 2.5-2.5 2.5-1.38 0-2.5-1.122-2.5-2.5s1.12-2.5 2.5-2.5c.385 0 .745.095 1.07.25l-1.66 1.66c-.326.327-.326.853 0 1.18.163.162.376.243.59.243.213 0 .426-.08.59-.244l1.66-1.66c.155.325.25.685.25 1.07zm-4.378 13.568l-8.838 8.84c-.326.325-.326.85 0 1.177.162.163.376.244.59.244.212 0 .425-.082.588-.245l8.838-8.84c.326-.325.326-.852 0-1.177-.326-.326-.852-.325-1.178 0zm2.944-2.95c-.152.156-.242.373-.242.59 0 .225.09.44.24.592.16.158.375.242.593.242.218 0 .434-.084.583-.242.16-.15.25-.367.25-.592 0-.217-.09-.434-.25-.59-.308-.31-.857-.31-1.174 0zm-7.07-7.068c.326-.326.326-.852 0-1.178-.326-.326-.852-.326-1.178 0l-8.84 8.84c-.325.325-.325.85 0 1.177.163.162.376.243.59.243.213 0 .426-.08.59-.244l8.838-8.84zm-2.946 10.018c.163.162.376.244.59.244.213 0 .426-.082.59-.244l5.89-5.893c.327-.326.327-.852 0-1.178-.325-.326-.852-.326-1.177 0l-5.893 5.892c-.326.325-.326.852 0 1.178zm-4.714 3.535l-1.178 1.178c-.326.327-.326.853 0 1.18.162.162.376.243.59.243.212 0 .425-.08.588-.244l1.178-1.18c.326-.325.326-.852 0-1.178-.325-.325-.853-.324-1.178 0zm-8.84-5.65c.214 0 .428-.08.59-.243l8.838-8.838c.326-.326.326-.853 0-1.18-.326-.325-.852-.325-1.178 0l-8.838 8.84c-.326.326-.326.852 0 1.178.162.163.375.244.59.244zm11.786-11.786c.217 0 .434-.084.592-.242.15-.158.24-.366.24-.592 0-.216-.09-.433-.25-.59-.307-.31-.857-.31-1.174.007-.15.15-.242.367-.242.583 0 .217.092.434.242.592.158.158.375.242.592.242zm-7.658 13.9c-.16.157-.242.365-.242.59 0 .226.083.435.242.584.15.16.365.252.59.252.218 0 .434-.092.584-.242.158-.158.25-.375.25-.592 0-.217-.09-.434-.25-.59-.308-.31-.867-.31-1.174 0zm8.25 2.357c.15-.15.24-.366.24-.59 0-.218-.09-.435-.24-.593-.317-.308-.867-.308-1.184 0-.15.16-.242.376-.242.593 0 .225.092.434.242.59.158.16.375.243.592.243.217 0 .433-.083.592-.242zM35.541 54.69c.513-.775.758-1.702.68-2.644-.066-.787-.445-1.498-1.068-2.003-.637-.515-1.474-.752-2.282-.65l-2.334.29-3.206-3.204c.93-.442 2.07-.287 2.84.48.325.326.85.326 1.177 0 .325-.326.325-.852 0-1.178-1.423-1.423-3.628-1.6-5.245-.53l-.65-.65c-.325-.324-.852-.324-1.177 0-.326.327-.326.854 0 1.18l.65.65c-.51.774-.756 1.7-.677 2.644.066.786.445 1.497 1.067 2.002.637.515 1.47.753 2.282.652l2.334-.292 3.197 3.197c-.925.418-2.09.265-2.83-.473-.325-.326-.852-.326-1.178 0-.325.325-.325.852 0 1.178.786.787 1.833 1.22 2.946 1.22.83 0 1.622-.242 2.298-.69l.518.518c.163.163.376.245.59.245.213 0 .426-.082.59-.245.324-.325.324-.852-.002-1.178l-.52-.52zm-8.15-4.613c-.364.045-.74-.06-1.025-.294-.266-.216-.43-.516-.456-.846-.036-.447.06-.883.247-1.277l2.285 2.285-1.05.132zm5.687.97c.36-.05.738.06 1.023.29.267.218.43.518.457.848.037.447-.058.883-.247 1.277l-2.284-2.285 1.05-.13z" fill="#CFCFCF" fill-rule="evenodd"/></svg>