<svg width="146" height="48" viewBox="0 0 146 48" xmlns="http://www.w3.org/2000/svg"><title>appsworld</title><g fill="none" fill-rule="evenodd"><path d="M27 24c0-4.418 3.582-8 8-8s8 3.582 8 8-3.582 8-8 8c-2.39 0-4.534-1.048-6-2.708V38h-2V24zm8 6c3.314 0 6-2.686 6-6s-2.686-6-6-6-6 2.686-6 6 2.686 6 6 6z" fill="#221E1F"/><rect fill="#221E1F" y="12" width="24" height="24" rx="3"/><path d="M18 29.292C16.534 30.952 14.39 32 12 32c-4.418 0-8-3.582-8-8s3.582-8 8-8 8 3.582 8 8v8h-2v-2.708zM12 30c3.314 0 6-2.686 6-6s-2.686-6-6-6-6 2.686-6 6 2.686 6 6 6z" fill="#FFF"/><path d="M45 24c0-4.418 3.582-8 8-8s8 3.582 8 8-3.582 8-8 8c-2.39 0-4.534-1.048-6-2.708V38h-2V24zm8 6c3.314 0 6-2.686 6-6s-2.686-6-6-6-6 2.686-6 6 2.686 6 6 6z" fill="#221E1F"/><path d="M146 24c0 4.418-3.582 8-8 8s-8-3.582-8-8 3.582-8 8-8c2.39 0 4.534 1.048 6 2.708V10h2v14zm-8 6c3.314 0 6-2.686 6-6s-2.686-6-6-6-6 2.686-6 6 2.686 6 6 6zM126 10h2v22h-2zM116 24h2v8h-2zM76 16h2v11h-2z" fill="#989A9E"/><path d="M106 32c4.418 0 8-3.582 8-8s-3.582-8-8-8-8 3.582-8 8 3.582 8 8 8zm0-2c3.314 0 6-2.686 6-6s-2.686-6-6-6-6 2.686-6 6 2.686 6 6 6zM124 16c-4.418 0-8 3.582-8 8h2c0-3.314 2.686-6 6-6v-2z" fill="#98999E"/><path fill="#989A9E" d="M85 16h2v11h-2zM94 16h2v11h-2zM86.955 27c-.252 2.803-2.608 5-5.477 5-2.87 0-5.225-2.197-5.478-5h2.013c.243 1.696 1.7 3 3.465 3 1.763 0 3.222-1.304 3.464-3h2.013z"/><path d="M95.955 27c-.252 2.803-2.608 5-5.477 5-2.87 0-5.225-2.197-5.478-5h2.013c.243 1.696 1.7 3 3.465 3 1.763 0 3.222-1.304 3.464-3h2.013z" fill="#989A9E"/><path d="M73 16.032v2.03l-6.6-.044s-2.055.136-2.055 1.652.843 1.862 1.735 2.224c.89.362 7.05 3.348 7.25 4.355.2 1.006.972 2.68 0 4.065-.972 1.384-3.617 1.675-3.617 1.675H61.94l.104-1.98h6.895s2.72.292 2.72-1.707c.003-2-2.5-2.464-3.59-3-1.09-.535-5.562-1.666-5.952-4.012-.39-2.344.232-3.63 1.204-4.323.972-.693 2.758-.967 2.758-.967l6.92.032z" fill="#221E1F"/></g></svg>