<svg xmlns="http://www.w3.org/2000/svg" viewBox="0 0 100 48"><title>cnn</title><path fill="#C00" d="M41.2 0c3.2-.2 6.8 1.5 9.4 6 6 10.5 9.5 16.5 9.5 16.5V8.8c0-8.8 11.1-13.1 17-2.8 6 10.5 9.6 16.5 9.6 16.5V.2h5.9v38.3c0 1-.4 1.4-.8 1.5-.4.1-.9 0-1.3-.6 0 0-15.6-25.2-19.5-31.7-.7-1.1-2-1.5-3.1-1.2S66 7.9 66 9.4v29c0 1-.4 1.4-.7 1.5-.4.1-.9 0-1.3-.6 0 0-15.6-25.2-19.5-31.7-.7-1.1-2-1.5-3.1-1.2-1.1.3-1.9 1.5-1.9 3v28.8c0 .9-.8 1.7-1.7 1.7H24c-5.7 0-9.8-2-12.6-5-2.7-3-4.1-7-4.1-11.1 0-4 1.4-8.1 4-11.1 2.7-3 6.7-5 12-5h8.4v5.9h-8.1C10.3 13.6 8.9 34 24.7 34H32c.9 0 1.5-.7 1.5-1.6V8.8c0-5 3.5-8.5 7.7-8.8zM24.5.2h7.3v6h-8.4c-5.7 0-10.2 2.2-13.1 5.5-3 3.3-4.4 7.7-4.4 12.1 0 4.4 1.5 8.8 4.5 12.1 3 3.3 7.6 5.5 13.6 5.5h13.8c1.7 0 3.1-1.5 3.1-3.2V9.4c0-1 .4-1.4.9-1.5.4-.1 1 0 1.4.6 4 6.5 19.5 31.7 19.5 31.7.7 1.1 1.9 1.5 3 1.2s1.8-1.5 1.8-3v-29c0-1 .4-1.4.9-1.5.4-.1 1 0 1.4.5 4 6.5 19.5 31.7 19.5 31.7v.1c.7 1 1.9 1.5 3 1.1 1-.3 1.8-1.4 1.8-2.9V.2h5.9v39.1c0 10.1-11.7 11.6-16.5 3.6C80.7 38.1 73.4 26 73.4 26v13.2c0 10.1-11.6 11.6-16.5 3.6-2.8-4.7-10-16.8-10-16.8v12c0 6.1-3.5 9.4-9.1 9.4H24.9C-8.1 47.4-8.4.2 24.5.2z"/></svg>