<svg width="140" height="24" viewBox="0 0 140 24" xmlns="http://www.w3.org/2000/svg"><title>collision</title><path d="M8.08 12.28c1.573-2.186 4.925-5.045 5.996-5.045 1.07 0 .362 1.307.362 1.307s-.952 1.493.575 2.006c1.526.512 4.59-1.255 5.53-2.96.942-1.705 1.605-5.284-.103-6.135C18.732.603 14.162-.607 7.69 5.3 1.218 11.204-.717 18.96.224 20.902c.942 1.944 3.574 3.194 6.574 2.357 3-.836 4.908-1.458 5.644-2.303.736-.845-.08-1.794-.08-1.794s.438-1.57.093-2.038c-.345-.47-2.494-.415-3.17.182-.678.597-1.83 1.252-2.712.176-.882-1.076-.067-3.02 1.506-5.204zM33.307 1.124s-3.692-1.097-6.47 1.62c-2.777 2.715-8.837 8.164-9.86 15.686-1.02 7.522 7.698 5.04 9.526 4.156 1.83-.884 7.456-6.17 10.12-11.73 2.663-5.56 1.822-8.322.91-9.987-.91-1.666-4.226.255-4.226.255zm-6.544 10.592c-1.153 1.515-3.74 5.227-3.223 6.735.52 1.51 1.292.62 1.292.62s3.902-4.03 5.022-6.24c1.12-2.212 2.28-5.365 1.887-5.966-.392-.6-3.822 3.337-4.976 4.85zm85.722-10.592s-3.693-1.097-6.47 1.62c-2.777 2.715-8.838 8.164-9.86 15.686-1.022 7.522 7.698 5.04 9.526 4.156 1.828-.884 7.455-6.17 10.12-11.73 2.662-5.56 1.82-8.322.91-9.987-.91-1.666-4.226.255-4.226.255zm-6.544 10.592c-1.153 1.515-3.74 5.227-3.223 6.735.516 1.51 1.29.62 1.29.62s3.9-4.03 5.022-6.24c1.12-2.212 2.28-5.365 1.886-5.966-.393-.6-3.823 3.337-4.976 4.85zM50.56 1.027c2.046.78-.158 4.26-2.962 7.68-2.804 3.422-7.386 9.713-7.386 9.713s1.67.108 3.138-.336c1.467-.444 1.808.996 1.808.996s.89 1.566.445 2.187c-.445.62-1.363 2.29-3.977 2.29s-7.59.417-7.59-.315c0-.73-.232-2.024-.232-2.024s-.6-.83.865-3.52c1.463-2.69 9.645-14.99 10.926-15.64 1.28-.654 2.916-1.812 4.963-1.032zm13.15 0c2.046.78-.158 4.26-2.962 7.68-2.804 3.422-7.387 9.713-7.387 9.713s1.672.108 3.14-.336c1.467-.444 1.807.996 1.807.996s.89 1.566.446 2.187c-.446.62-1.363 2.29-3.977 2.29s-7.564.55-8.033-.28c-.468-.83-.28-2.01-.28-2.01s-.11-.878 1.355-3.57c1.465-2.69 9.647-14.988 10.928-15.64 1.28-.653 2.916-1.81 4.963-1.03zM61.455 18.7s-2.958 3.46-.92 4.388c2.037.928 4.536-.225 5.477-1.55.94-1.326 10.793-17.848 10.793-17.848S78.17 1.21 76.76.848c-1.412-.363-2.49.5-2.804.966-.315.467-.87 1.254-1.573 1.254-.7 0-2.77 2.713-4.03 4.596-1.257 1.884-6.897 11.038-6.897 11.038zm15.79-11.424c-1.47 3.052-.866 5.536.34 6.398 1.205.862 2.19 2.373 1.65 3.373-.54.998-3.42 1.915-4.543 1.475-1.124-.44-3.882-1.572-4.852 1.24-.968 2.81 1.793 4.714 6.19 3.954 4.395-.762 7.978-3.805 9.132-6.234 1.153-2.428.757-5.125-.288-5.948-1.046-.823-2.274-2.295-1.517-3.895.756-1.6 3.954-.664 5.05-.664 1.098 0 2.717-1.362 2.068-1.907 0 0 2.755.284 2.365-2.162-.39-2.444-6.172-2.748-9.5-1.373-3.328 1.374-4.628 2.688-6.095 5.74zm7.658 13.327L94.962 4.29S97.472.932 99.666.932c2.195 0 3.394.092 2.5 1.564-.894 1.472-11.035 18.108-11.035 18.108s-1.105 2.945-4.888 2.945-1.338-2.945-1.338-2.945zm27.15 2.862c0-1.522 1.52-4.348 3.98-9.13 2.462-4.784 7.512-12.788 10.035-13.215 2.523-.426 2.062 3.056 2.062 4.13v4.42s2.074-3.303 3.65-5.366c1.578-2.064 5.056-5.07 7.258-4.127 2.202.942-.074 2.255-.074 2.255s.362.846-1.617 3.7c-1.98 2.855-8.402 13.75-9.806 15.06-1.404 1.308-4.638 2.357-5.396 1.755-.757-.603.095-7.946.095-7.946s-2.337 4.313-4.273 6.13c-1.936 1.816-5.915 3.855-5.915 2.333z" fill="#000" fill-rule="evenodd"/></svg>