<svg width="185" height="40" viewBox="0 0 185 40" xmlns="http://www.w3.org/2000/svg"><title>conectric</title><g fill="none" fill-rule="evenodd"><path d="M20 0C8.954 0 0 8.954 0 20s8.954 20 20 20 20-8.954 20-20S31.046 0 20 0zm0 38c-9.925 0-18-8.075-18-18S10.075 2 20 2s18 8.075 18 18-8.075 18-18 18zm3-12.5c0-.828.673-1.5 1.5-1.5h1.005c.273 0 .495.225.495.495V25.5c0 .828-.673 1.5-1.5 1.5h-1.005c-.273 0-.495-.225-.495-.495V25.5zm-10-3.505c0-.273.225-.495.495-.495H14.5c.828 0 1.5.673 1.5 1.5v1.005c0 .273-.225.495-.495.495H14.5c-.828 0-1.5-.673-1.5-1.5v-1.005zm5-7.5c0-.273.225-.495.495-.495H19.5c.828 0 1.5.673 1.5 1.5v1.005c0 .273-.225.495-.495.495H19.5c-.828 0-1.5-.673-1.5-1.5v-1.005zm45.147 5.523c-1.57 0-3.01-.427-4.32-1.28l1.5-3.237c.81.64 1.69.96 2.64.96 1.096 0 2.048-.372 2.857-1.12.81-.746 1.214-1.653 1.214-2.72 0-1.28-.57-2.288-1.714-3.023-1-.64-2.165-.96-3.498-.96-2.64 0-4.82 1.03-6.532 3.094-1.642 1.945-2.463 4.245-2.463 6.9 0 2.846.88 5.05 2.642 6.616 1.69 1.47 3.974 2.206 6.854 2.206 1.213 0 2.504-.26 3.873-.783 1.367-.522 2.456-1.198 3.265-2.028v4.16c-2 1.47-4.38 2.206-7.14 2.206-4.02 0-7.233-1.09-9.637-3.272-2.5-2.276-3.748-5.394-3.748-9.354 0-3.77 1.208-6.936 3.623-9.497 2.416-2.56 5.503-3.84 9.263-3.84 4.046 0 6.818 1.493 8.317 4.48.524 1.044.785 2.075.785 3.095 0 2.134-.76 3.9-2.284 5.3-1.523 1.4-3.355 2.098-5.497 2.098zm17.348 11.026c-2 0-3.683-.682-5.05-2.045-1.37-1.365-2.054-3.042-2.054-5.034s.686-3.675 2.054-5.05c1.368-1.376 3.052-2.064 5.05-2.064 2 0 3.683.688 5.052 2.063 1.368 1.376 2.052 3.06 2.052 5.05 0 1.993-.684 3.67-2.052 5.034-1.37 1.362-3.052 2.044-5.05 2.044zm4.212-7.86c-.738.403-1.32.604-1.75.604-.69 0-1.296-.25-1.82-.747-.523-.497-.785-1.09-.785-1.777 0-.403.155-.913.464-1.53-1.5.095-2.606.546-3.32 1.352-.713.806-1.07 1.767-1.07 2.88 0 1.163.386 2.147 1.16 2.953.773.806 1.743 1.21 2.91 1.21 1.165 0 2.158-.404 2.98-1.21.82-.806 1.23-1.79 1.23-2.952v-.782zm19.204 7.824c-1.094 0-2.01-.438-2.747-1.316-.69-.806-1.036-1.766-1.036-2.88v-4.695c0-1.613-.714-2.42-2.14-2.42-1.263 0-2.155.712-2.678 2.135-.168.403-.25.688-.25.854v8.002h-3.535V17.173h3.534v2.098c1.188-1.588 2.533-2.382 4.032-2.382 1.357 0 2.463.462 3.32 1.387.857.925 1.285 2.063 1.285 3.415v4.552c0 1.14.62 1.708 1.856 1.708.428 0 .833-.095 1.214-.285v2.56c-.738.523-1.69.783-2.856.783zm9.568-3.414c1 .356 1.868.533 2.605.533 1.428 0 2.642-.332 3.64-.995v3.2c-1.022.45-2.236.676-3.64.676-2.26 0-4.128-.628-5.604-1.885-1.548-1.304-2.32-3.07-2.32-5.3 0-1.872.67-3.497 2.016-4.872 1.344-1.374 2.956-2.062 4.836-2.062 2.594 0 4.653 1.02 6.176 3.06l-7.71 7.646zm1.356-7.825c-1.12 0-2 .39-2.642 1.173-.642.782-.963 1.743-.963 2.88 0 .522.19 1.246.57 2.17l5.176-5.37c-.548-.57-1.262-.854-2.142-.854zm17.848 3.378c-.595 0-1.148-.213-1.66-.64-.512-.427-.768-.925-.768-1.494 0-.26.096-.593.286-.996-2.594 0-3.89 1.27-3.89 3.806 0 1.233.428 2.21 1.284 2.934.857.723 1.916 1.085 3.177 1.085 1.524 0 2.773-.296 3.75-.89v3.38c-1.072.45-2.32.675-3.75.675-2.236 0-4.08-.646-5.532-1.938-1.45-1.292-2.177-3.04-2.177-5.246 0-1.92.643-3.563 1.928-4.926 1.285-1.364 2.88-2.046 4.784-2.046 1.427 0 2.582.26 3.462.783 1.07.64 1.606 1.624 1.606 2.952 0 .76-.226 1.375-.678 1.85-.452.474-1.06.71-1.82.71zm13.1 7.86c-3.165 0-4.748-1.624-4.748-4.872v-5.513h-3.748v-3.237h3.748v-6.58h3.64v6.58h3.678v3.237h-3.677v4.908c0 1.66.702 2.49 2.106 2.49.477 0 1-.13 1.572-.39v2.632c-.714.497-1.57.746-2.57.746zm13.814-8.963c-.785 0-1.51-.39-2.177-1.173-.81.45-1.393 1.162-1.75 2.134-.096.26-.143.498-.143.71v6.972h-3.64V17.173h3.64v2.987c1.333-2.18 2.69-3.272 4.07-3.272.737 0 1.367.25 1.89.747.525.498.786 1.103.786 1.814 0 .734-.26 1.35-.785 1.848-.524.498-1.154.747-1.892.747zm7.104-8.18c-.714 0-1.345-.243-1.892-.73-.548-.485-.82-1.084-.82-1.796 0-.736.266-1.346.802-1.832.535-.486 1.172-.73 1.91-.73.713 0 1.338.25 1.874.748.535.497.803 1.102.803 1.813 0 .71-.262 1.31-.786 1.796-.522.486-1.153.73-1.89.73zm2.034 17.143c-1.142 0-2.076-.403-2.802-1.21-.726-.805-1.09-1.777-1.09-2.915v-9.46h3.714v8.926c0 1.09.63 1.635 1.892 1.635.476 0 .904-.095 1.285-.284v2.562c-.786.497-1.785.746-3 .746zm13.72-7.782c-.606 0-1.17-.21-1.69-.633-.522-.422-.782-.915-.782-1.477 0-.258.097-.587.29-.985-2.642 0-3.963 1.255-3.963 3.764 0 1.22.435 2.187 1.308 2.902.873.716 1.952 1.073 3.237 1.073 1.55 0 2.824-.294 3.818-.88v3.342c-1.09.445-2.364.668-3.818.668-2.28 0-4.158-.64-5.637-1.917-1.48-1.278-2.218-3.008-2.218-5.19 0-1.898.655-3.522 1.964-4.87 1.31-1.35 2.933-2.023 4.872-2.023 1.455 0 2.63.258 3.528.774 1.09.633 1.636 1.606 1.636 2.92 0 .75-.23 1.36-.69 1.83-.462.468-1.08.702-1.855.702z" fill="#55B1DB"/><path d="M16 27v7.46C9.658 32.71 5 26.9 5 20c0-8.284 6.716-15 15-15 8.284 0 15 6.716 15 15 0 7.257-5.153 13.31-12 14.7v-5.195c0-.255.25-.505.512-.505h.988c1.93 0 3.5-1.567 3.5-3.5v-2.497C28 22.45 27.55 22 26.997 22H24.5c-.536 0-1.045.12-1.5.338V15.5c0-2.012-1.567-3.583-3.5-3.5h-2.497C16.5 12 16 12.366 16 13v2.5c0 1.846 1.567 3.417 3.5 3.5h.996c.254 0 .504.25.504.503v15.464c-.33.022-.664.033-1 .033-.678 0-1.346-.045-2-.132V23c0-1.93-1.567-3.5-3.5-3.5h-2.497c-.554 0-1.003.45-1.003 1.003V23c0 1.93 1.567 3.5 3.5 3.5h1c.25 0 .5.25.5.5z" fill="#3A3A3A"/></g></svg>