<svg width="134" height="26" viewBox="0 0 134 26" xmlns="http://www.w3.org/2000/svg"><title>ctrl</title><g fill="none" fill-rule="evenodd"><path d="M99.562 2.264c.444.21.81.543 1.1.997.26.402.43.866.508 1.395.045.31.063.755.055 1.337h-4.562c.025.677.235 1.152.63 1.425.24.17.53.253.87.253.357 0 .65-.103.873-.31.122-.11.23-.265.324-.464h1.78c-.045.4-.25.807-.618 1.22-.57.657-1.37.985-2.397.985-.848 0-1.596-.276-2.244-.83-.648-.552-.972-1.452-.972-2.7 0-1.167.293-2.063.878-2.687.585-.623 1.344-.935 2.278-.935.554 0 1.053.106 1.498.316zm-2.437 1.524c-.222.256-.362.602-.42 1.04h2.71c-.028-.467-.168-.82-.42-1.062-.25-.242-.56-.362-.93-.362-.405 0-.718.128-.94.384zM106.508 2.128h1.872l-2.404 6.75h-1.84l-2.39-6.75h1.956l1.388 4.98M113.492 2.264c.444.21.81.543 1.1.997.26.402.43.866.508 1.395.045.31.063.755.055 1.337h-4.562c.025.677.235 1.152.63 1.425.24.17.53.253.868.253.36 0 .652-.103.876-.31.122-.11.23-.265.324-.464h1.78c-.046.4-.25.807-.618 1.22-.57.657-1.37.985-2.397.985-.848 0-1.596-.276-2.245-.83-.648-.552-.972-1.452-.972-2.7 0-1.167.293-2.063.878-2.687.585-.623 1.344-.935 2.277-.935.555 0 1.054.106 1.5.316zm-2.437 1.524c-.222.256-.362.602-.42 1.04h2.71c-.03-.467-.168-.82-.42-1.062-.25-.242-.56-.362-.932-.362-.403 0-.716.128-.938.384zM121.713 2.515c.438.365.658.97.658 1.818v4.545h-1.785V4.772c0-.355-.047-.627-.14-.817-.172-.347-.498-.52-.98-.52-.59 0-.996.253-1.216.76-.115.27-.172.612-.172 1.03v3.653h-1.737V2.14h1.683v.985c.224-.347.436-.597.636-.75.357-.272.812-.408 1.362-.408.69 0 1.253.183 1.69.548zM123.294 3.447V2.19h.93V.307h1.724V2.19h1.082v1.257h-1.082v3.567c0 .277.034.45.104.517.07.07.28.103.636.103.053 0 .11 0 .168-.003.06-.002.117-.005.174-.01v1.32l-.825.03c-.824.03-1.386-.115-1.688-.433-.196-.202-.294-.514-.294-.935V3.447h-.93zM129.507 6.723c.036.314.116.537.238.67.216.234.616.352 1.2.352.34 0 .613-.052.815-.155.202-.103.303-.258.303-.465 0-.198-.082-.348-.245-.452-.163-.103-.768-.28-1.816-.532-.754-.19-1.286-.426-1.596-.71-.31-.282-.465-.687-.465-1.215 0-.624.243-1.16.726-1.607.483-.448 1.163-.672 2.04-.672.83 0 1.51.168 2.032.505.524.337.825.918.902 1.744h-1.742c-.025-.227-.088-.407-.19-.54-.192-.238-.518-.358-.978-.358-.38 0-.65.06-.81.18-.162.12-.242.26-.242.42 0 .203.085.35.257.44.17.095.776.258 1.816.49.694.165 1.214.414 1.56.75.343.337.514.76.514 1.268 0 .67-.246 1.215-.737 1.638-.49.424-1.25.635-2.278.635-1.05 0-1.822-.224-2.322-.672-.5-.448-.75-1.018-.75-1.712h1.77z" fill="#75787C"/><path d="M10.225 2.05c.164-.033.333-.05.505-.05h8.588C20.798 2 22 3.23 22 4.738c0 1.512-1.202 2.738-2.682 2.738h-8.14c-3.22.05-5.812 2.728-5.812 6.024 0 3.297 2.593 5.974 5.81 6.023h8.138c1.483 0 2.686 1.23 2.686 2.74C22 23.772 20.796 25 19.314 25H9.662c-.528 0-1.02-.155-1.435-.424C3.48 23.222 0 18.776 0 13.5 0 7.508 4.49 2.586 10.225 2.05zM40 22.26S39.5 25 37 25s-3-2.74-3-2.74V7h-5.26S26 6.247 26 4.738C26 3.226 27.22 2 28.74 2h17.52C47.773 2 49 3.23 49 4.738 49 6.25 46.26 7 46.26 7H40v15.26zM53 4.74v17.52c0 1.52 1.226 2.74 2.738 2.74 1.51 0 2.738-1.227 2.738-2.74v-4.927h6.158c.125.238.287.46.487.66l6.198 6.198c1.068 1.07 2.802 1.07 3.872 0 1.067-1.067 1.07-2.803 0-3.872l-3.674-3.674C74.16 15.436 76 12.766 76 9.667 76 5.432 72.57 2 68.34 2h-1.107c-.115 0-.228.003-.34.007-.07-.004-.136-.007-.205-.007H55.74h-.002c-.754 0-1.438.306-1.934.802-.5.496-.804 1.18-.804 1.936zM58 7v4h9.817C69.023 11 70 10.105 70 9c0-1.102-.977-2-2.183-2H58zM87 4.74S85.25 2 83.738 2C82.228 2 81 3.227 81 4.74v17.52c0 .756.306 1.44.802 1.936.496.5 1.18.804 1.936.804h17.522c1.52 0 2.806-.468 2.74-3-.066-2.532-3-3-3-3H87V4.74z" fill="#1B232A"/></g></svg>