<svg width="80" height="36" viewBox="0 0 80 36" xmlns="http://www.w3.org/2000/svg"><title>dld</title><path d="M0 13h10.976c2.163 0 3.91.282 5.243.847 1.33.565 2.43 1.376 3.3 2.432.87 1.055 1.5 2.284 1.893 3.686.39 1.4.587 2.887.587 4.456 0 2.458-.29 4.364-.872 5.718-.582 1.355-1.39 2.49-2.422 3.405-1.033.915-2.142 1.524-3.327 1.827-1.62.42-3.09.628-4.404.628H0V13zm7 5v12h2.014c1.717 0 2.938-.157 3.664-.472.726-.315 1.294-.864 1.705-1.648.41-.784.617-2.055.617-3.813 0-2.327-.46-3.92-1.38-4.78C12.703 18.43 11.18 18 9.05 18H7zm17-5h7.917v16.1H43V36H24V13zm35.798.388c-1.084-.26-2.358-.388-3.822-.388H45v23h10.976c1.315 0 2.783-.21 4.403-.628 1.184-.303 2.293-.912 3.326-1.827 1.033-.916 1.84-2.05 2.422-3.405.58-1.354.872-3.26.872-5.718 0-1.57-.196-3.055-.587-4.456-.05-.178-.104-.354-.16-.527l6.693 6.276-1.63-9.524 8.67-5.218L69.88 9.717 68.28 0l-4.457 9.234-9.816-1.275 5.79 5.428zM52 18v12h2.014c1.717 0 2.938-.157 3.664-.472.726-.315 1.294-.864 1.705-1.648.41-.784.617-2.055.617-3.813 0-2.327-.46-3.92-1.38-4.78C57.703 18.43 56.18 18 54.05 18H52z" fill="#E74415" fill-rule="evenodd"/></svg>