<svg width="110" height="60" viewBox="0 0 110 60" xmlns="http://www.w3.org/2000/svg"><title>ey</title><g fill="none" fill-rule="evenodd"><path d="M46.005 43.332h1.474l.198-.04.16-.038.16-.08.08-.08.08-.08.037-.118.04-.238-.038-.158-.04-.12-.038-.12-.08-.078-.12-.08-.16-.04-.358-.038h-1.396v1.31-.002zm0 2.736h1.674l.198-.04.16-.078.12-.118.12-.118.08-.158.04-.158.04-.198-.04-.198-.04-.198-.08-.16-.08-.117-.158-.08-.16-.08-.16-.04h-1.713v1.742l-.002-.002zm-1.117 1.03v-6.145h2.632l.4.038.397.082.32.117.277.196.24.238.16.28.08.316.04.357-.04.158-.04.198-.037.16-.08.198-.12.118-.118.16-.122.116-.16.08.28.158.16.12.16.157.12.16.12.237.04.238.037.317-.038.436-.12.396-.16.318-.238.276-.32.24-.36.16-.44.08-.48.037h-2.59v.002h-.002z" fill="gray"/><path d="M47.48 43.332h-1.475v-1.308H47.4l.36.038.16.04.118.08.08.08.037.117.04.12.037.158-.038.238-.04.118-.08.08-.08.08-.157.078-.16.04-.2.038.002.002zm0 2.736h-1.475v-1.744h1.713l.16.038.16.08.16.08.077.118.08.16.04.198.04.198-.04.198-.04.158-.08.158-.12.12-.12.12-.16.077-.2.038h-.196v.003zm2.15-.913l-.037-.317-.04-.238-.12-.236-.12-.16-.16-.158-.16-.12-.278-.16.16-.078.12-.12.12-.158.118-.118.08-.198.038-.16.042-.198.038-.16-.038-.356-.08-.317-.16-.277-.24-.24-.276-.197-.32-.12-.398-.08-.4-.037h-2.63v6.143h2.593l.48-.038.437-.08.36-.158.318-.24.24-.275.16-.32.12-.396.038-.436h-.002z" stroke-opacity="0" stroke="#FFF" stroke-width=".05"/><path fill="gray" d="M51.863 47.178l-.24-.04-.198-.04-.2-.118-.158-.078-.12-.16-.24-.276-.158-.318-.08-.358-.04-.316V42.62h1.116v2.736l.04.24.08.16.08.156.118.12.12.08.198.08h.36l.2-.08.117-.078.118-.12.12-.158.037-.158.04-.24.04-.237v-2.496h1.076v4.48h-1.076v-.356l-.24.198-.24.16-.317.08-.32.04"/><path stroke-opacity="0" stroke="#FFF" stroke-width=".05" d="M52.103 47.217l.32-.038.318-.082.24-.157.24-.197v.356h1.075V42.62H53.22v2.497l-.04.237-.04.24-.038.16-.12.157-.12.12-.12.078-.2.08h-.358l-.2-.078-.118-.078-.12-.12-.08-.158-.078-.16-.04-.237v-2.738h-1.12v2.852l.04.316.08.358.16.317.238.276.12.16.16.08.2.12.198.04.24.04.24.037z"/><path fill="gray" d="M69.082 47.097V44.36l-.038-.197-.08-.198-.08-.158-.12-.12-.118-.076-.2-.037-.16-.04-.2.038-.2.04-.118.08-.12.12-.118.157-.08.198-.038.198v2.735h-1.117v-4.476h1.117v.397l.24-.24.277-.118.278-.118h.717l.32.12.277.16.24.237.2.277.118.356.08.396.04.476V47.1"/><path stroke-opacity="0" stroke="#FFF" stroke-width=".05" d="M67.41 44.64v-.278l.038-.198.08-.198.12-.158.12-.12.118-.077.2-.037.2-.04.16.037.198.04.118.08.12.12.08.157.08.2.04.196v2.735h1.115v-2.535l-.04-.476-.08-.397-.12-.356-.198-.276-.24-.24-.278-.158-.32-.12h-.718l-.277.12-.28.12-.237.237v-.397h-1.117v4.48h1.117v-2.46z"/><path fill="gray" d="M55.333 42.618h1.115v4.48h-1.116v-4.48"/><path stroke-opacity="0" stroke="#FFF" stroke-width=".05" d="M55.333 42.618h1.115v4.48h-1.116v-4.48z"/><path fill="gray" d="M57.404 47.097V41.31l1.116-.555v6.342"/><path stroke-opacity="0" stroke="#FFF" stroke-width=".05" d="M57.404 47.097h1.116v-6.342l-1.117.555z"/><path d="M61.15 43.57l-.16.038-.158.038-.12.12-.12.16-.08.237-.037.276-.04.357.04.396.038.317.08.24.12.157.157.12.12.08.16.08h.16l.24-.04.24-.118.157-.12.12-.158v-1.785l-.12-.118-.162-.16-.24-.117-.276-.04-.12.038h.002zm-.477 3.608l-.36-.12-.277-.2-.28-.276-.2-.356-.118-.396-.08-.477-.04-.515.04-.514.08-.477.16-.357.198-.356.24-.238.32-.198.318-.118.398-.04h.278l.28.08.24.12.2.198v-1.626l1.116-.556V47.1H62.07v-.317l-.24.16-.24.158-.24.08-.278.038-.398-.038v-.002z" fill="gray"/><path d="M61.31 46.185h-.16l-.16-.08-.12-.077-.16-.12-.12-.16-.08-.237-.04-.316-.04-.397.04-.357.04-.276.08-.238.12-.16.117-.118.16-.038.158-.04.12-.04.28.04.24.118.158.16.12.117v1.782l-.12.16-.16.12-.24.118-.238.04h.005zm.757-3.25l-.2-.198-.238-.118-.28-.08h-.28l-.397.038-.32.118-.318.198-.24.238-.198.358-.16.357-.08.476-.037.515.038.515.08.476.12.395.2.356.28.278.277.198.36.12.398.037.277-.038.24-.08.24-.16.238-.157v.317h1.117v-6.342l-1.117.556v1.627z" stroke-opacity="0" stroke="#FFF" stroke-width=".05"/><path d="M85.943 43.57l-.24.078-.158.16-.16.198v1.743l.12.12.158.16.24.117.12.038h.16l.2-.038.16-.04.158-.12.12-.157.078-.2.04-.238.04-.277.04-.317-.04-.318-.038-.276-.08-.2-.12-.198-.117-.118-.16-.08-.16-.04-.12-.037-.24.04v-.004.003zm.16 3.608l-.28-.08-.238-.16-.202-.158v.318H84.27V41.43l1.116-.556v2.064l.2-.16.28-.16.238-.08h.277l.4.04.32.118.318.198.24.24.198.356.16.357.078.476.04.515-.04.515-.078.475-.12.396-.2.358-.277.276-.28.2-.36.117-.397.038-.28-.038v.003z" fill="gray"/><path d="M86.182 43.53l.12.04.16.038.16.08.12.118.12.198.08.197.037.28.04.315-.038.317-.04.278-.04.238-.08.198-.12.16-.158.117-.16.04-.198.04h-.16l-.12-.04-.24-.117-.16-.162-.12-.117v-1.744l.162-.197.158-.16.24-.08.24-.04v.003h-.004zm.2-.99h-.28l-.24.08-.277.158-.2.16v-2.065l-1.115.556v5.668h1.116v-.317l.2.16.238.16.28.08.28.038.397-.038.36-.12.28-.2.278-.276.2-.358.117-.396.08-.476.04-.515-.04-.516-.08-.477-.157-.355-.2-.357-.24-.238-.318-.2-.32-.117-.4-.04z" stroke-opacity="0" stroke="#FFF" stroke-width=".05"/><path d="M72.63 43.57l-.16.078-.12.12-.12.16-.078.236-.04.276-.038.357.038.396.04.278.08.277.118.16.12.12.16.08.16.08h.118l.28-.04.2-.118.198-.122.12-.16v-1.78l-.12-.16-.16-.12-.238-.12-.278-.04h-.16l-.12.04zm-.398 4.478h.038l.48-.038.36-.08.238-.12.2-.16.08-.197.078-.198v-.474l-.24.16-.238.16-.24.08-.318.038-.36-.038-.357-.16-.28-.198-.277-.237-.2-.357-.12-.396-.118-.475v-1.03l.12-.478.12-.397.24-.317.238-.278.318-.16.32-.118.397-.04h.28l.28.08.24.16.198.158v-.318h1.115v4.085l-.04.514-.08.436-.198.396-.08.16-.16.157-.12.118-.158.12-.4.157-.438.12-.52.038-.397-.873v-.002z" fill="gray"/><path d="M73.706 43.965v1.782l-.12.16-.2.12-.198.117-.277.04h-.12l-.16-.08-.16-.08-.12-.118-.118-.158-.08-.277-.038-.277-.04-.396.04-.356.04-.276.08-.238.118-.16.12-.12.16-.08.12-.038h.16l.276.04.24.118.16.12.12.16h-.002zm0-1.03l-.2-.16-.238-.16-.28-.078h-.276l-.4.038-.317.12-.32.16-.24.274-.238.318-.12.396-.117.475v1.03l.12.476.12.396.198.358.278.237.28.198.36.16.357.038.32-.04.24-.078.24-.16.24-.157v.477l-.082.197-.078.198-.2.16-.24.117-.358.078-.478.038h-.04l.4.873.516-.038.44-.122.398-.157.16-.12.12-.118.16-.16.08-.16.2-.395.078-.435.038-.515v-4.084h-1.114v.318l-.003.003-.004.003z" stroke-opacity="0" stroke="#FFF" stroke-width=".05"/><path d="M79.047 45.035l-.12.04-.12.08-.08.08-.078.118-.042.118v.28l.04.158.08.118.08.08.12.08.118.04.16.04.16.04.276-.04.28-.118.16-.16.16-.157v-.634l-.2-.08-.2-.08-.237-.038h-.4l-.16.038h.003zm-.2 2.14l-.277-.037-.28-.12-.24-.158-.238-.238-.16-.277-.12-.317-.04-.396.04-.396.12-.317.2-.24.238-.196.278-.16.28-.08.32-.078h.558l.277.038.24.08.2.08v-.435l-.04-.16-.08-.12-.08-.077-.12-.08-.16-.038-.318-.04-.32.04-.318.038-.28.12-.24.12-.438-.755.397-.198.398-.16.44-.08h.836l.36.08.318.158.28.16.2.238.158.238.08.317.04.357V47.1h-1.118v-.357l-.24.198-.318.16-.278.08-.24.04-.32-.04.004-.003h.002z" fill="gray"/><path d="M78.61 45.63v-.16l.04-.116.078-.118.08-.08.12-.08.12-.04.16-.038h.398l.237.04.2.08.2.08v.634l-.16.16-.16.156-.278.12-.278.04-.16-.04-.16-.04-.12-.04-.118-.08-.08-.078-.08-.118-.04-.16v-.117l-.002-.005zm-.32-1.902l.24-.118.278-.12.32-.04.317-.037.32.038.16.04.118.08.08.08.08.12.04.16v.433l-.2-.08-.24-.08-.277-.037h-.558l-.32.078-.278.08-.278.16-.24.197-.2.24-.12.315-.038.396.04.4.12.316.158.277.24.238.24.158.277.12.28.038.318.04.238-.04.278-.078.32-.16.24-.197v.36h1.115v-3.014l-.04-.357-.08-.318-.16-.24-.2-.238-.28-.16-.317-.158-.36-.08h-.835l-.438.08-.4.16-.398.2.438.753.002-.003h-.003z" stroke-opacity="0" stroke="#FFF" stroke-width=".05"/><path d="M90.526 43.49l-.16.04-.16.08-.12.118-.08.118-.08.158-.078.198v.198h1.674l-.04-.358-.08-.157-.078-.12-.12-.118-.158-.117-.16-.04-.2-.038-.16.038zm-.16 3.686l-.437-.16-.36-.198-.28-.237-.277-.356-.16-.396-.118-.437-.04-.513.04-.515.117-.438.16-.396.24-.356.32-.276.317-.2.397-.118.44-.04.4.04.357.12.318.198.278.277.24.317.16.398.08.476.038.515v.316h-2.79l.08.317.08.24.16.157.12.12.198.08.12.037.277.038.278-.038.24-.08.2-.12.16-.157.718.715-.2.158-.16.16-.2.118-.198.08-.398.16-.438.038-.48-.038v-.003h.003z" fill="gray"/><path d="M89.85 44.402v-.198l.08-.198.078-.16.08-.118.12-.118.16-.08.158-.04.16-.04.2.04.16.04.158.12.12.117.08.12.078.158.04.357h-1.676.003zm1.874 1.388l-.16.16-.2.118-.24.078-.277.04-.28-.04-.118-.038-.2-.08-.12-.118-.16-.16-.08-.237-.08-.317h2.79v-.318l-.038-.514-.08-.477-.16-.396-.24-.316-.278-.277-.32-.2-.358-.117-.398-.04-.44.04-.397.118-.318.198-.318.276-.24.358-.16.396-.118.436-.04.515.04.517.12.436.16.396.278.358.28.238.36.198.435.16.48.038.436-.038.398-.16.2-.08.2-.117.16-.16.198-.158-.718-.713v-.002z" stroke-opacity="0" stroke="#FFF" stroke-width=".05"/><path d="M101.336 43.61l-.16.04-.12.077-.118.12-.12.118-.08.16-.04.197v.198h1.675l-.08-.357-.037-.158-.08-.12-.12-.118-.16-.118-.16-.04-.2-.04-.198.038h-.003zm-.12 3.684l-.44-.158-.358-.198-.32-.24-.24-.356-.2-.396-.08-.437-.037-.515.04-.515.08-.438.2-.396.24-.356.28-.277.358-.198.398-.12.4-.038.437.038.36.12.32.197.28.277.198.316.162.396.12.477.037.514v.317h-2.79l.04.32.12.237.117.16.16.117.16.08.16.038.24.04.28-.04.238-.08.2-.118.198-.158.68.714-.162.16-.198.157-.16.12-.198.08-.44.16-.438.038-.44-.04z" fill="gray"/><path d="M100.698 44.52v-.2l.04-.197.08-.158.118-.12.118-.118.12-.08.16-.04.2-.038.198.04.16.04.16.116.117.118.08.12.038.156.08.357h-1.673.003v.002zm1.872 1.388l-.2.16-.2.118-.24.08-.276.038-.24-.04-.16-.037-.16-.08-.16-.12-.12-.16-.12-.236-.04-.316h2.79v-.317l-.037-.515-.12-.477-.16-.396-.198-.32-.28-.276-.32-.2-.36-.12-.437-.037-.398.038-.4.12-.36.198-.277.276-.24.357-.2.396-.08.436-.038.515.04.516.08.437.2.396.237.358.32.24.357.197.44.16.438.04.44-.04.438-.16.2-.078.158-.12.2-.158.16-.16-.68-.713.002-.002z" stroke-opacity="0" stroke="#FFF" stroke-width=".05"/><path fill="gray" d="M97.787 47.295l-.277-.118-.2-.12-.16-.198-.12-.2-.08-.237-.04-.238-.04-.24v-2.178h-.676v-1.03h.678v-1.15l1.117-.555v1.705h1.035v1.03H97.99v1.903l.04.278.078.158.08.08.08.037.2.038h.2l.158-.037.32-.158-.12 1.03-.198.12-.24.04-.24.037-.278.04"/><path stroke-opacity="0" stroke="#FFF" stroke-width=".05" d="M97.988 43.766h1.036v-1.03h-1.037V41.03l-1.117.558v1.15h-.677v1.03h.677v2.18l.04.24.04.235.08.24.118.197.16.198.198.118.278.12.28.038.278-.04.24-.037.24-.04.198-.12.12-1.03-.32.16-.16.037h-.197l-.2-.038-.08-.038-.078-.08-.08-.16-.04-.28v-1.902z"/><path fill="gray" d="M94.513 47.176l-.278-.12-.2-.117-.16-.2-.12-.197-.08-.237-.038-.238-.04-.24v-2.18h-.676v-1.03h.678V41.47l1.116-.556v1.705h.958v1.03h-.957v1.902l.04.277.08.158.08.08.08.037.2.038h.198l.16-.038.32-.16-.12 1.032-.2.118-.238.04-.24.038-.278.04"/><path stroke-opacity="0" stroke="#FFF" stroke-width=".05" d="M95.87 45.947l-.32.16-.16.037h-.2l-.2-.038-.08-.038-.078-.08-.08-.16-.04-.277v-1.903h.957V42.62h-.958v-1.706l-1.115.556v1.15h-.677v1.03h.678v2.18l.04.24.038.235.08.24.12.197.16.198.2.12.277.117.277.04.28-.04.238-.037.24-.04.2-.117.118-1.033z"/><path fill="gray" d="M104.165 47.216v-4.48h1.117v.397l.2-.238.237-.12.28-.117h.478l.24.038.198.12.2.078-.32 1.11-.16-.12-.16-.078-.2-.04h-.4l-.157.04-.122.08-.12.117-.078.16-.08.158-.04.24v2.656"/><path stroke-opacity="0" stroke="#FFF" stroke-width=".05" d="M107.116 42.896l-.2-.08-.2-.12-.24-.038H106l-.278.118-.24.12-.2.238v-.396h-1.117v4.478h1.117V44.56l.04-.238.08-.16.078-.158.12-.118.12-.078.157-.04h.4l.2.04.158.08.16.118.32-1.11z"/><path fill="gray" d="M55.42 40.992h1.114v1.11H55.42"/><path stroke-opacity="0" stroke="#FFF" stroke-width=".05" d="M55.42 40.992h1.114v1.11H55.42z"/><path fill="gray" d="M64.18 42.618h1.115v4.48H64.18v-4.48"/><path stroke-opacity="0" stroke="#FFF" stroke-width=".05" d="M64.18 42.618h1.115v4.48H64.18v-4.48z"/><path fill="gray" d="M64.266 40.992h1.116v1.11h-1.116"/><path stroke-opacity="0" stroke="#FFF" stroke-width=".05" d="M64.266 40.992h1.116v1.11h-1.116z"/><path d="M94.79 51.418l-.117.08-.12.118-.118.16-.08.197-.08.317v.714l.08.317.08.24.12.2.118.115.16.08.118.038h.44l.2-.118.158-.16.16-.156v-1.745l-.12-.16-.2-.118-.2-.12-.277-.04h-.16l-.16.04zm.082 3.61l-.398-.042-.32-.12-.318-.197-.24-.278-.2-.318-.158-.435-.08-.438-.04-.555.04-.515.08-.437.16-.396.2-.32.24-.276.317-.2.36-.116.4-.04.238.04.278.08.24.118.24.197v-1.625l1.118-.556v6.344H95.91v-.356l-.24.197-.277.158-.238.08h-.28v.002h-.003z" fill="gray"/><path d="M95.11 53.994h-.16l-.118-.038-.16-.08-.118-.118-.12-.198-.08-.238-.08-.317v-.713l.08-.32.08-.196.12-.16.118-.118.12-.08.16-.038h.16l.278.04.198.12.2.118.12.16v1.743l-.16.16-.16.158-.198.12h-.277v-.003h-.002zm.797-3.21l-.24-.2-.238-.117-.28-.08-.24-.038-.4.04-.357.118-.32.198-.238.277-.2.317-.158.396-.08.437-.04.514.04.556.08.436.16.434.198.318.24.277.318.198.32.12.397.037h.28l.24-.078.278-.16.24-.198v.357h1.116v-6.345l-1.117.556v1.625z" stroke-opacity="0" stroke="#FFF" stroke-width=".05"/><path fill="gray" d="M55.41 54.946v-4.48h1.116v.397l.2-.238.24-.157.238-.08.32-.04.198.04.24.038.198.08.2.118-.32 1.072-.16-.08-.2-.076-.158-.042-.2-.038-.198.038-.16.04-.16.076-.08.12-.118.12-.04.198-.038.198v2.695"/><path stroke-opacity="0" stroke="#FFF" stroke-width=".05" d="M58.36 50.624l-.198-.12-.2-.078-.24-.038-.198-.04-.32.04-.24.08-.24.158-.198.238v-.396H55.41v4.48h1.116V52.25l.04-.2.04-.197.12-.118.078-.118.16-.08.16-.04.2-.038.198.038.16.04.198.08.16.08.32-1.076z"/><path fill="gray" d="M48.156 54.946l-.478-1.863-.278-.99-.24 1.028-.48 1.826h-.955l-.04-.04-1.192-4.282v-.158h1.074l.438 1.665.2 1.11.157-.593.12-.555.478-1.625h.955l.438 1.625.28 1.15.24-1.15.396-1.624h1.116l-1.273 4.48"/><path stroke-opacity="0" stroke="#FFF" stroke-width=".05" d="M48.874 52.092l-.24 1.15-.277-1.15-.44-1.624h-.957l-.48 1.625-.117.556-.16.593-.198-1.11-.44-1.665h-1.117l1.237 4.44.04.04h.956l.48-1.826.24-1.03.28.993.478 1.863h.956l1.275-4.48h-1.117l-.4 1.623z"/><path d="M52.303 51.497l-.16.12-.16.117-.08.198-.08.238-.04.236-.038.28.04.277.04.276.08.198.078.198.16.16.16.117.158.04.2.038.2-.037.16-.04.16-.118.16-.16.078-.197.08-.198.08-.275v-.556l-.08-.24-.08-.238-.08-.198-.16-.117-.16-.118-.16-.08h-.398l-.16.08.002-.002zm-.08 3.49l-.398-.12-.32-.198-.32-.278-.24-.358-.197-.396-.08-.437-.04-.514.04-.476.08-.437.2-.435.24-.32.32-.275.318-.2.398-.157.44-.038.44.038.397.16.32.198.32.275.238.318.2.435.08.437.038.476-.038.514-.08.436-.2.396-.24.358-.317.276-.318.2-.398.118-.44.038-.437-.038h-.004v.002z" fill="gray"/><path d="M52.66 53.994l-.2-.04-.158-.037-.16-.12-.16-.16-.08-.197-.08-.198-.038-.278-.04-.276.04-.278.04-.24.08-.237.078-.196.16-.118.16-.12.16-.078h.4l.158.08.16.118.16.118.08.198.077.238.08.238v.556l-.08.277-.08.198-.08.198-.16.16-.16.12-.16.038-.2.04.003-.004zm0-3.647l-.437.04-.398.157-.32.198-.32.277-.24.32-.197.435-.08.436-.04.478.04.515.08.436.2.395.24.358.32.277.318.2.398.116.44.038.44-.038.397-.12.32-.196.32-.277.238-.358.2-.396.08-.437.04-.515-.04-.475-.08-.437-.2-.436-.24-.318-.316-.277-.32-.2-.397-.157-.44-.04h-.005z" stroke-opacity="0" stroke="#FFF" stroke-width=".05"/><path fill="gray" d="M87.737 54.946v-4.48h1.117v.397l.237-.24.24-.156.24-.08.28-.038.24.038.238.038.198.08.16.12-.28 1.07-.16-.078-.198-.08-.2-.037-.198-.04-.16.04-.16.038-.16.08-.117.12-.08.117-.04.198-.04.198-.038.278v2.42"/><path stroke-opacity="0" stroke="#FFF" stroke-width=".05" d="M90.686 50.624l-.16-.12-.2-.078-.238-.038-.24-.04-.277.04-.24.08-.24.16-.238.236v-.396h-1.116v4.48h1.117v-2.42l.038-.277.04-.198.04-.198.08-.117.118-.12.16-.078.158-.04.16-.04.2.038.198.038.2.082.16.08.282-1.075z"/><path fill="gray" d="M80.522 54.946l-.517-1.864-.24-.992-.24 1.03-.516 1.824h-.958v-.04l-1.276-4.44h1.155l.4 1.666.24 1.112.12-.595.16-.556.48-1.626h.916l.48 1.625.276 1.15.24-1.15.4-1.627h1.115l-1.276 4.48"/><path stroke-opacity="0" stroke="#FFF" stroke-width=".05" d="M81.24 52.092l-.24 1.15-.278-1.15-.48-1.627h-.917l-.478 1.625-.16.556-.118.594-.24-1.11-.398-1.665h-1.157l1.276 4.44v.04h.957l.518-1.824.24-1.028.238.99.517 1.864h.958l1.276-4.48h-1.117l-.398 1.626z"/><path d="M84.63 51.497l-.162.118-.118.118-.12.198-.08.24-.04.237v.556l.04.277.08.198.118.198.12.16.16.117.198.038.2.04.198-.038.16-.04.16-.117.118-.16.12-.197.078-.198.038-.277v-.556l-.038-.24-.08-.237-.12-.198-.117-.118-.16-.118-.16-.08h-.4l-.2.08.004.002h.002zm-.043 3.487l-.398-.117-.36-.198-.277-.278-.24-.357-.2-.396-.12-.438-.037-.515.038-.477.12-.435.198-.398.24-.356.278-.277.358-.198.398-.16.44-.038.4.038.398.16.36.198.277.277.28.358.162.396.12.434.037.477-.04.515-.12.438-.16.396-.28.358-.276.275-.36.2-.398.117-.398.04-.44-.04z" fill="gray"/><path d="M85.027 53.994l-.2-.04-.2-.037-.16-.12-.117-.16-.12-.197-.08-.198-.04-.276v-.556l.04-.24.08-.237.118-.198.12-.118.16-.117.198-.08h.398l.16.08.16.12.12.118.118.198.078.24.038.237v.556l-.038.275-.08.2-.12.198-.117.16-.16.117-.16.038-.198.04v-.002l.002-.002zm0-3.647l-.44.038-.398.16-.36.198-.277.277-.24.358-.2.398-.12.434-.037.477.038.514.12.44.198.395.24.355.278.278.358.198.398.118.44.04.4-.04.398-.12.36-.197.277-.278.28-.357.16-.396.12-.437.038-.516-.038-.477-.12-.434-.16-.397-.28-.356-.276-.278-.36-.198-.398-.16-.398-.038z" stroke-opacity="0" stroke="#FFF" stroke-width=".05"/><path fill="gray" d="M61.51 54.946l-.958-2.1-.558.752v1.348h-1.116v-5.788l1.116-.556v3.568l.398-.554.877-1.15h1.315l-1.196 1.467 1.355 3.01"/><path stroke-opacity="0" stroke="#FFF" stroke-width=".05" d="M62.586 50.465H61.27l-.876 1.15-.4.556v-3.564l-1.116.556v5.786h1.117V53.6l.557-.752.958 2.102h1.235l-1.355-3.014 1.196-1.47z"/><path fill="gray" d="M68.326 54.946V52.21l-.04-.238-.08-.198-.08-.118-.118-.12-.12-.08-.16-.078h-.397l-.198.08-.12.08-.12.12-.12.157-.037.16-.04.238-.04.238v2.498H65.54v-4.48h1.116v.357l.238-.2.28-.16.277-.078.36-.038.36.037.36.118.276.158.24.2.16.317.118.356.08.396.038.478v2.537"/><path stroke-opacity="0" stroke="#FFF" stroke-width=".05" d="M66.65 52.448l.04-.238.04-.24.04-.157.12-.16.12-.117.12-.08.2-.08h.398l.16.08.12.08.12.118.08.12.08.197.04.24v2.735h1.115v-2.537l-.038-.476-.08-.396-.12-.357-.16-.318-.24-.2-.277-.156-.36-.12-.358-.037-.36.037-.276.08-.28.16-.24.197v-.358H65.54v4.48h1.116l-.004-2.497z"/><path d="M71.872 51.417l-.16.08-.12.117-.118.16-.08.198-.037.317-.04.316.04.396.037.318.08.238.12.198.16.12.12.08.16.038h.397l.2-.118.2-.16.12-.158v-1.744l-.12-.16-.16-.118-.24-.118-.278-.04h-.12l-.16.04zm-.398 4.48h.04l.478-.04.36-.08.24-.157.198-.16.08-.158.08-.2v-.513l-.2.197-.28.12-.24.118h-.277l-.397-.04-.36-.118-.28-.197-.277-.277-.202-.317-.118-.438-.08-.475-.04-.515.04-.515.08-.437.158-.396.2-.32.24-.276.318-.2.32-.117.397-.04.278.04.28.077.24.12.2.2v-.32h1.114v4.044l-.038.516-.08.477-.16.397-.117.16-.12.118-.158.157-.16.12-.4.16-.437.116-.517.038-.4-.873-.004.002z" fill="gray"/><path d="M72.95 51.813v1.743l-.12.16-.2.16-.198.118h-.398l-.16-.04-.12-.08-.16-.117-.12-.198-.078-.24-.04-.316-.04-.396.04-.318.04-.317.08-.198.12-.16.12-.117.16-.08.16-.037h.118l.278.04.24.118.16.118.118.158zm0-1.03l-.2-.2-.24-.12-.278-.077-.278-.04-.4.04-.317.117-.32.198-.238.278-.2.32-.16.395-.078.437-.04.514.04.515.08.476.12.437.198.315.278.278.28.198.36.118.398.04h.277l.24-.12.28-.12.198-.197v.515l-.078.198-.08.16-.198.16-.24.156-.36.08-.477.038h-.04l.397.87.518-.038.44-.12.398-.157.158-.12.16-.158.118-.12.12-.16.16-.396.08-.476.038-.514v-4.046H72.95v.324z" stroke-opacity="0" stroke="#FFF" stroke-width=".05"/><path fill="gray" d="M63.423 50.464h1.116v4.48h-1.117"/><path stroke-opacity="0" stroke="#FFF" stroke-width=".05" d="M63.423 50.464h1.116v4.48h-1.117z"/><path fill="gray" d="M63.423 48.72h1.116v1.11h-1.117"/><path stroke-opacity="0" stroke="#FFF" stroke-width=".05" d="M63.423 48.72h1.116v1.11h-1.117z"/><path fill="gray" d="M91.245 54.945V49.16l1.115-.557v6.34"/><path stroke-opacity="0" stroke="#FFF" stroke-width=".05" d="M91.245 54.945h1.115v-6.342l-1.115.554z"/><path fill="#FFE600" d="M0 25.283L69.62 0h.007v13.06L0 25.294"/><path fill="gray" d="M0 54.91V30.504h14.147l3.292 5.603H7.446v4.03h9.05v5.14h-9.05v4.03h12.5v5.602"/><path stroke-opacity="0" stroke="#FFF" stroke-width=".05" d="M7.446 45.277H16.5v-5.14H7.444v-4.03h9.993l-3.29-5.602H0V54.91h19.946v-5.604h-12.5z"/><path fill="gray" d="M25.2 54.91v-9.634l-8.7-14.772h8.268l4.193 7.98 4.234-7.98h8.19l-8.74 14.773v9.632"/><path stroke-opacity="0" stroke="#FFF" stroke-width=".05" d="M33.193 30.505l-4.23 7.98-4.194-7.98H16.5l8.698 14.772v9.632h7.445v-9.63l8.742-14.775z"/></g></svg>