<svg width="142" height="24" viewBox="0 0 142 24" xmlns="http://www.w3.org/2000/svg"><title>flixbus</title><path d="M135 10.018V5h4.502C140.872 5 142 3.88 142 2.5V0h-11c-3.866 0-7 3.134-7 7s3.134 7 7 7v5h-7v2.5c0 1.39 1.118 2.5 2.498 2.5H134.5c3.866 0 7-3.134 7-7 0-3.698-2.867-6.726-6.5-6.982zM116.77 8.49l.23.09V2.5c0-1.38 1.11-2.5 2.5-2.5h2.5v16c0 4.418-3.576 8-7.99 8h-4.02c-4.412 0-7.99-3.59-7.99-8V2.5c0-1.38 1.11-2.5 2.5-2.5h2.5v8.58c.077-.032.154-.062.232-.09-.15.475-.232.98-.232 1.505v4.01c0 2.76 2.24 4.995 5 4.995 2.756 0 5-2.236 5-4.995v-4.01c0-.524-.08-1.03-.23-1.504zM78.17 10H78v10.997C78 22.657 79.34 24 80.994 24h10.01C94.875 24 98 20.866 98 17c0-2.503-1.318-4.704-3.298-5.942C95.52 9.914 96 8.513 96 7c0-3.858-3.132-7-6.996-7h-8.167c-1.664 0-2.955 1.345-2.9 3.003L78.172 10zM0 2.99C0 1.34 1.347 0 3 0h3v24H0V2.99zM23 0h3c1.657 0 3 1.342 3 2.99V24h-3c-1.657 0-3-1.342-3-2.99V0zm20 11.01C43 9.346 44.347 8 46 8h3v16h-6V11.01zM43 3c0-1.657 1.347-3 3-3 1.657 0 3 1.347 3 3 0 1.657-1.347 3-3 3h-3V3zM6 0h14v3c0 1.657-1.342 3-3.003 3H6V0zm23 18h10v3c0 1.657-1.35 3-3 3h-7v-6zM6 10h10v2.5c0 1.38-1.128 2.5-2.498 2.5H6v-5zm76-6h6.003C89.658 4 91 5.347 91 7c0 1.657-1.347 3-2.997 3h-3.006C83.342 10 82 8.653 82 7V4zm0 10h7.994C91.654 14 93 15.347 93 17c0 1.657-1.35 3-3.006 3h-4.988C83.346 20 82 18.653 82 17v-3zm47-6.5c0-1.38 1.13-2.5 2.51-2.5H135v5h-3.49c-1.386 0-2.51-1.11-2.51-2.5zm2 6.5h2.5c1.38 0 2.5 1.11 2.5 2.5 0 1.38-1.11 2.5-2.5 2.5H131v-5zM63.893 6.776l-.032.042-4.26-5.59c-1.035-1.36-2.986-1.63-4.36-.607-1.373 1.025-1.648 2.956-.613 4.314l5.335 7.002-5.335 7c-1.035 1.36-.76 3.29.613 4.314 1.308.975 3.138.778 4.205-.417l8.34-10.947-3.892-5.11zm1.246-1.32l3.22-4.23c1.037-1.36 2.988-1.63 4.362-.605 1.307.976 1.62 2.772.753 4.114l-4.443 5.83-3.893-5.11zm0 13.04l3.26 4.277c1.035 1.36 2.986 1.63 4.36.606 1.373-1.025 1.648-2.956.613-4.314l-4.335-5.69-3.9 5.12z" fill="#73D700" fill-rule="evenodd"/></svg>