<svg xmlns="http://www.w3.org/2000/svg" width="210" height="36" viewBox="0 0 210 36"><g fill="#90ABBE"><path d="M19.096 2.04s.26 1.46-.266 1.564c-.386.075-.637-.233-.637-.233l-.082.057 1.106 1.46.07-.566V2.006l-.19.036zM19.486 5.296l2.345 2.727 3.15-1.366-.077-.13s-1.895 1.094-2.365.73c-.568-.44.128-2.008.197-2.166.137-.313.445-.577.75-.73l-.103-.123s-.45.3-.77.15c-.446-.21-1.047-1.925-1.047-1.925H21.4s.832 1.713.932 2.33c.077.475-.04 2.15-.736 2.15s-1.98-1.76-1.98-1.76l-.13.114zM17.323 6.73V9.31l2.394-.65-.105-.138s-1.434.656-1.885.28c-.475-.396-.277-2.14-.277-2.14l-.127.07zM21.19 8.31l-3.867 3.386 4.312-1.118-.145-.187s-3.015 1.048-3.142.783 2.917-2.77 2.917-2.77l-.076-.094zM23.414 8.82l-1.052 1.182.09.14 1.083-1.322M26.546 7.62c-.105.105-1.358.782-1.358.782s-.59 2.394-.59 2.63c0 .236.38.662.38.662h2.374l1.338-.862-.104-.125s-.85.634-1.27.757c-.3.088-2.19.143-2.4-.196-.285-.463.402-2.735.402-2.735l1.228-.827V7.62zM18.23 11.795l3.155 1.052-.09.213-3.183-1.144M23.935 11.87l-1.802.977.1.15L24 11.992M18.65 13.87l2.735-.707v.165l-2.735.707M17.823 14.92l-.5 1.67h.185l.436-1.67M21.385 13.328l-3.752 3.337.1.12 3.758-3.337M24.115 14.425s1.434-1.007 1.72-1.097c.285-.09 3.49-.42 3.49-.42l.015.152-2.64.265c-.134.013-.156.2-.027.244l1.137.38-.04.085-1.935-.54-1.622 1.078-.098-.148zM27.79 16.154l-3.61-.872-.224.586 2.884 1.92.045-.126s-2.607-1.54-2.435-1.907c.173-.366 3.472.564 3.472.564l-.13-.166zM28.073 18.303s2.48.864 2.63 1.25c.15.388-.79 1.02-1.58 1.47-.714.407-1.426.316-1.5.872-.076.556 1.337 1.443 2.163 1.308l-.09.103s-.79.19-1.75-.652c-.963-.842-1.06-.653-1.06-.653l.315-.57s1.283-.205 1.922-.54c.827-.436 1.482-.96 1.422-1.314-.06-.353-2.547-1.182-2.547-1.182l.076-.09z"/><path d="M21.49 16.375s3.924 1.988 4.39 2.168c.465.18 1.764.502 2.1.502l-.057.16s-1.417-.466-2.12-.36c-.705.104-.608.312-.485.435s1.523.767 1.673.767l-.104.122s-1.473-.784-2.044-.89c-.57-.104-2.228 0-2.228 0l.08-.27s2.344.29 2.51-.253-3.713-2.22-3.713-2.22v-.162zM17.808 17.296s2.67 3.28 3.1 3.28c-.004 0-.32.237-.32.237l-2.886-3.427.106-.09zM21.636 20.06s-.386.286-.386.617h.135s.067-.245.33-.51l-.08-.106zM21.716 21.504l1.437 1.103-.07.717s-2.337.3-3.016.14c-.064 0 .02-.16.02-.16s2.62.267 2.718-.31c.1-.58-1.168-1.43-1.168-1.43l.08-.06zM18.92 22.962s-.714-.69-1.083-1.292l.242-.51s2.105.028 2.366-.203c.068-.008-.053.473-.053.473s-1.03-.306-2.054-.015c-.795.225.708 1.473.708 1.473l-.127.074zM23.035 23.466l-4.94 2.05v.918l3.95 2.45.157-.105s-3.815-2.023-3.715-2.468c.088-.392 3.715-.27 3.715-.27l-.096-.193s-3.532.194-3.532-.15c0-.347 4.578-2.186 4.578-2.186l-.117-.048zM26.108 22.406L23.88 24.96l.077.166 2.313-2.72M24.346 25.472l1.623-.44v.094l-1.624.51M27.262 25.126l2.22.793.107-.118-2.328-.77M24.045 26.84c.083.082 2.12 1.863 2.12 1.863l.104-.075-2.135-1.924-.09.135zM27.383 29.034l.82.075-.054.11h-.767M18.44 31.95c0-.09-.894-2.977-.894-2.977l.447-.33s2.557 1.94 2.897 2.28 1.045.252 1.142.154c.098-.098.45-.596.586-1.192l.125.107s-.422 1.044-.568 1.19c-.147.148-1 .422-1.09.767-.09.345 0 .904.296 1.2.297.296.486.692.486.692h-.27s-.136-.364-.587-.364c-.452 0-.544.455-.544.455l-.118-.09s.857-.693.57-1.548c-.223-.67-.214-1.16-.172-1.202.04-.04-1.85-1.986-2.407-1.428s.205 2.27.205 2.27l-.105.014zM26.766 31.288s-1.324-1.7-3.3-1.797l-.498.325s.116 1.277.386 2.014c.27.735.45 1.457.45 1.457l.076-.06s-.406-.932-.09-1.082c.316-.15 1.308.06 1.668.422l.075-.102s-.357-.44-1.47-.514c-.574-.074-.91-1.09-.91-2.063 0 0 .08-.296.486-.205.405.09 1.322.27 1.998.812s1.02.897 1.02.897l.108-.102zM20.326 16.32l-2.623.555.06.143 2.63-.564M22.133 13.6l.38.673.1-.073-.38-.706M30.268 15.163l-1.413.886.116.104 1.418-.857M28.69 16.785c.11.11.365.6.365.6l.068-.09-.268-.645-.166.135zM21.28 16.785s-.105.477.105.877.488.79.488.79l-.172.076s-.587-.59-.586-1.61c.03-.03.166-.133.166-.133z"/></g><circle fill="#9F7396" cx="17.783" cy="2.853" r=".661"/><circle fill="#80266D" cx="17.45" cy="6.159" r=".661"/><circle fill="#D2D0EB" cx="20.048" cy="8.403" r=".562"/><circle fill="#4C1B8C" cx="17.323" cy="9.307" r=".65"/><circle fill="#9F7396" cx="22.133" cy="10.391" r=".642"/><circle fill="#5D5896" cx="21.901" cy="13.06" r=".712"/><circle fill="#5D5896" cx="29.055" cy="10.461" r=".712"/><circle fill="#403982" cx="30.142" cy="12.909" r=".817"/><circle fill="#451083" cx="28.587" cy="14.2" r=".817"/><circle fill="#2B1860" cx="28.447" cy="16.319" r=".676"/><circle fill="#80266D" cx="30.768" cy="15.017" r=".626"/><circle fill="#80266D" cx="23.935" cy="8.403" r=".782"/><circle fill="#5A489A" cx="21.831" cy="7.962" r=".782"/><circle fill="#9F7396" cx="17.459" cy="11.598" r=".89"/><circle fill="#CC5BB7" cx="18.112" cy="14.273" r=".89"/><circle fill="#2B1860" cx="23.153" cy="15.163" r="1.212"/><circle fill="#9F0D6E" cx="25.683" cy="6.159" r=".863"/><circle fill="#E9C9E4" cx="17.277" cy="16.996" r=".666"/><circle fill="#80266D" cx="20.897" cy="16.257" r=".739"/><circle fill="#623995" cx="21.873" cy="19.28" r=".977"/><circle fill="#D2D0EB" cx="21.1" cy="21.227" r=".773"/><circle fill="#9F7396" cx="22.743" cy="29.219" r=".773"/><circle fill="#2B1860" cx="28.816" cy="29.219" r=".667"/><circle fill="#2B1860" cx="17.435" cy="21.227" r=".773"/><circle fill="#F9EDEF" cx="17.546" cy="28.52" r=".699"/><circle fill="#F9EDEF" cx="19.386" cy="23.306" r=".699"/><circle fill="#D2D0EB" cx="18.75" cy="32.566" r=".837"/><circle fill="#5D5896" cx="20.103" cy="34.272" r=".643"/><circle fill="#2B1860" cx="22.202" cy="31.745" r=".821"/><circle fill="#420F76" cx="25.967" cy="32.936" r=".692"/><circle fill="#9F7396" cx="23.957" cy="33.842" r=".692"/><circle fill="#F9EDEF" cx="27.383" cy="31.643" r=".821"/><circle fill="#80266D" cx="26.659" cy="29.219" r=".821"/><circle fill="#E9C9E4" cx="22.175" cy="34.272" r=".794"/><circle fill="#403982" cx="17.973" cy="26.214" r=".904"/><circle fill="#8F59AA" cx="27.433" cy="18.07" r=".774"/><circle fill="#80266D" cx="29.25" cy="17.789" r=".664"/><circle fill="#2B1860" cx="28.447" cy="19.28" r=".524"/><circle fill="#2B1860" cx="31.001" cy="19.554" r=".614"/><circle fill="#80266D" cx="24.526" cy="11.696" r=".792"/><circle fill="#80266D" cx="27.058" cy="7.37" r=".713"/><circle fill="#CC56B0" cx="19.216" cy="4.887" r=".571"/><circle fill="#80266D" cx="21.33" cy="1.951" r=".661"/><circle fill="#9F7396" cx="23.935" cy="3.875" r=".661"/><circle fill="#80266D" cx="19.096" cy="1.521" r=".521"/><circle fill="#D2D0EB" cx="27.202" cy="20.256" r=".421"/><circle fill="#403982" cx="26.659" cy="21.75" r=".857"/><circle fill="#5D5896" cx="30.578" cy="23.466" r=".989"/><circle fill="#D354AE" cx="30.203" cy="26.041" r=".799"/><circle fill="#D2D0EB" cx="26.659" cy="24.898" r=".799"/><circle fill="#80266D" cx="23.957" cy="23.11" r=".989"/><circle fill="#9F7396" cx="23.265" cy="25.919" r="1.324"/><g><path fill="#CCC5E4" d="M13.733 32.48l-.115-.033 1.11-3.72-.17-.13-3.11 2.374-.983.722-.07-.097.98-.72 3.182-2.43.31.235"/><path fill="#CCC5E4" d="M11.924 33.878l-.816-1.09.243-1.872.12.015-.237 1.824.787 1.052"/><path fill="#CCC5E4" d="M11.122 32.733l.094.075-.92 1.162-.095-.075zM6.638 32.614l-.073-.096.613-.465 1.658-.283.02.118-1.628.278"/><path fill="#CCC5E4" d="M9.368 29.67l.116.032-1.062 3.793-.116-.032zM9.89 31.5c-.036-.192-.343-1.874-.343-2.01h.12c0 .095.203 1.24.34 1.988l-.118.02zM5.235 31.437l-.072-.096 1.415-1.07 2.625-1.107.047.11-2.618 1.106M9.82 29.068l-.084-.087c.096-.095 4.092-2.398 4.892-2.858l.06.104c-1.314.756-4.75 2.74-4.87 2.842zM9.307 25.875h5.23v.12h-5.23zM8.685 26.212l.082.088-2.965 2.766-.082-.088zM3.776 29.158H5.2v.12H3.775zM5.32 24.86l.04.113-2.987 1.003-.038-.113zM5.977 24.86l2.766.84-.035.115-2.765-.84zM8.608 23.25l5.95 2.45-.045.112-5.95-2.452zM8.512 23.05l4.108.356-.01.12L8.5 23.17zM13.26 23.15l-.09-.08 1.404-1.563-.222-.22h-2.79v-.12h2.84l.338.335M10.978 21.318l.066.1-2.425 1.593-.067-.1zM5.724 21.92l3.217 3.618-.09.08-3.215-3.62zM2.045 23.525l-.024-.118 1.73-.353 1.653-1.252.073.096-1.688 1.27M5.322 21.647l-2.078-.64-1.763-1.07.063-.102L3.3 20.9l2.057.632M14.774 17.14l.09.08-3.43 3.755-.087-.08zM11.036 20.98c-.25-.56-.666-1.514-.666-1.595h.12-.06l.06-.005c.014.084.41.997.656 1.552l-.11.05zM11.212 16.65l.115.037-.712 2.215-.114-.036zM11.574 16.198l2.976.643-.025.12-2.976-.645zM10.184 19.34l-2.658-.224-1.186-.37-2.187.592-.032-.117 2.222-.6 1.213.38 2.64.22"/><path fill="#CCC5E4" d="M5.38 20.106l-.083-.087c.09-.09 1.895-.788 2.446-1l.043.113c-.88.338-2.314.9-2.406.973zM10.983 16.32l.053.11-4.67 2.308-.052-.107zM10.8 13.338l3.896 3.402-.08.09-3.896-3.4zM14.76 16.592c-.114-.476-.484-2.036-.484-2.117h.12-.06l.06-.002c.006.08.29 1.294.48 2.09l-.117.03zM10.776 13.106l3.036.872-.033.115-3.037-.872zM4.635 18.086l.044.112-3.147 1.242-.044-.11zM8.862 15.232l.067.1-3.698 2.506-.068-.1zM3.135 17.563l-.1-.068.885-1.292 4.792-1.1.027.118-4.747 1.09M1.782 15.032l1.804 1.034-.06.104-1.803-1.034zM8.864 14.972L6.42 13.387 2.57 12.97l.012-.12 3.882.42.012.008L8.93 14.87"/><path fill="#CCC5E4" d="M6.425 13.27l.032.116-2.564.707-.032-.116zM10.138 13.35l.1.067-.96 1.453-.1-.066zM14.56 11.738l.036.114-3.908 1.202-.035-.115zM7.933 11.642l2.285 1.214-.056.106-2.285-1.214zM4.86 11.756l-1.468-.998.067-.1 1.436.977 2.525-.097.006.12M7.707 11.22l-.835-2.777c-.63-.366-1.34-.754-1.434-.762l.002-.12c.145 0 1.195.605 1.513.79l.02.013.85 2.822-.116.034zM14.522 11.568l-4.488-1.124-1.405-1.75.093-.074 1.38 1.717 4.45 1.114M10.596 8.135l4.097 3.166-.073.096-4.097-3.166zM6.633 5.687L10.22 7.91l-.063.103L6.57 5.79zM10.605 7.88l-.09-.078 2.433-2.864 1.36-1.76.096.072-1.362 1.764"/><path fill="#CCC5E4" d="M12.904 1.83h.12v3.058h-.12zM10.23 7.633L9.645 4.97l1.17-2.662.11.048L9.77 4.983l.578 2.625"/><path fill="#CCC5E4" d="M8.716 3.97l1.032.963-.08.088-1.034-.96zM15.043 9.39L12.44 8.6l.036-.115 2.437.738-.155-2.922.12-.007"/></g><g fill="#CCC5E4"><circle cx="12.211" cy="34.109" r=".481"/><circle cx="13.494" cy="32.614" r=".481"/><circle cx="10.007" cy="34.272" r=".481"/><circle cx="8.307" cy="33.842" r=".481"/><circle cx="10.079" cy="31.729" r=".481"/><circle cx="14.74" cy="28.52" r=".481"/><circle cx="6.304" cy="32.936" r=".481"/><circle cx="4.968" cy="31.729" r=".481"/><circle cx="9.485" cy="29.219" r=".481"/><circle cx="14.74" cy="25.976" r=".481"/><circle cx="5.476" cy="29.219" r=".481"/><circle cx="3.419" cy="29.279" r=".481"/><circle cx="8.941" cy="25.875" r=".481"/><circle cx="12.869" cy="23.288" r=".481"/><circle cx="14.862" cy="21.227" r=".481"/><circle cx="8.272" cy="23.249" r=".481"/><circle cx="5.635" cy="24.898" r=".481"/><circle cx="2.021" cy="25.995" r=".481"/><circle cx="1.54" cy="23.525" r=".481"/><circle cx="5.476" cy="21.647" r=".481"/><circle cx="11.238" cy="21.227" r=".481"/><circle cx="10.369" cy="19.28" r=".481"/><circle cx="14.876" cy="16.959" r=".481"/><circle cx="11.347" cy="16.257" r=".481"/><circle cx="4.995" cy="20.106" r=".481"/><circle cx="3.748" cy="19.339" r=".481"/><circle cx="4.876" cy="18.087" r=".481"/><circle cx="9.177" cy="15.232" r=".481"/><circle cx="3.085" cy="17.789" r=".481"/><circle cx="3.861" cy="16.257" r=".481"/><circle cx="1.481" cy="15.032" r=".481"/><circle cx="3.748" cy="14.162" r=".481"/><circle cx="2.203" cy="12.909" r=".481"/><circle cx="3.085" cy="10.391" r=".481"/><circle cx="7.786" cy="11.598" r=".481"/><circle cx="10.369" cy="13.06" r=".481"/><circle cx="14.114" cy="14.273" r=".481"/><circle cx="14.862" cy="11.598" r=".481"/><circle cx="10.126" cy="10.247" r=".481"/><circle cx="8.395" cy="8.403" r=".481"/><circle cx="4.995" cy="7.37" r=".481"/><circle cx="6.541" cy="5.528" r=".481"/><circle cx="10.369" cy="7.982" r=".481"/><circle cx="12.278" cy="8.463" r=".481"/><circle cx="15.043" cy="9.307" r=".481"/><circle cx="14.876" cy="6.159" r=".481"/><circle cx="12.964" cy="4.889" r=".481"/><circle cx="14.562" cy="2.943" r=".481"/><circle cx="13.189" cy="1.521" r=".481"/><circle cx="10.925" cy="1.951" r=".481"/><circle cx="8.395" cy="3.875" r=".481"/></g><g fill="#3A2870"><path d="M50.318 17.947H43.9l-1.146 3.977H38L44.572 1.46h5.075l6.585 20.464H51.48l-1.162-3.977zm-5.37-3.654h4.322L47.145 6.97h-.085l-2.11 7.323zM62.705 21.924h-4.712V1.46h4.712v20.464zM90.332 21.924h-4.71V13.69h-7.537v8.234h-4.74V1.46h4.74v8.574h7.536V1.46h4.712v20.464zM101.98 21.91c-.13-.244-.25-.515-.357-.815-.108-.3-.198-.61-.273-.928-.448.628-.988 1.127-1.622 1.496-.634.37-1.403.555-2.307.555-1.434 0-2.6-.417-3.5-1.25-.9-.835-1.35-1.945-1.35-3.332 0-1.508.56-2.673 1.684-3.492s2.83-1.23 5.124-1.23h1.72v-1.082c0-.646-.152-1.143-.454-1.49-.303-.346-.772-.52-1.406-.52-.54 0-.944.13-1.21.386-.264.258-.398.66-.398 1.202l-4.572-.014-.027-.085c-.064-1.385.508-2.545 1.72-3.477 1.212-.932 2.815-1.4 4.81-1.4 1.864 0 3.376.47 4.536 1.406 1.16.936 1.74 2.276 1.74 4.018v5.734c0 .815.07 1.57.204 2.263.135.693.337 1.382.608 2.066l-4.67-.01zm-3.118-3.077c.466 0 .895-.094 1.286-.28.392-.19.708-.432.95-.732v-2.374h-1.677c-.745 0-1.288.183-1.63.548-.34.366-.51.83-.51 1.392 0 .43.148.78.44 1.047.295.266.675.4 1.142.4zM114.926 18.565c.633 0 1.104-.173 1.41-.52.31-.347.463-.857.463-1.532h4.32l.027.085c.037 1.658-.534 3.01-1.713 4.055-1.18 1.045-2.683 1.567-4.51 1.567-2.293 0-4.06-.717-5.305-2.15-1.246-1.434-1.868-3.294-1.868-5.58v-.323c0-2.277.62-4.134 1.86-5.572 1.238-1.438 2.995-2.157 5.27-2.157 1.92 0 3.454.54 4.6 1.616 1.146 1.078 1.7 2.544 1.664 4.4l-.028.083h-4.32c0-.72-.16-1.31-.475-1.764-.317-.454-.797-.68-1.44-.68-.896 0-1.523.37-1.882 1.11-.358.74-.536 1.728-.536 2.964v.323c0 1.274.18 2.272.537 2.993.362.722 1.003 1.082 1.926 1.082zM128.613 15.88h-.796v6.044h-4.726V0h4.727v12.297h.63l3.23-5.58h5.41l-4.698 6.872 5.437 8.333h-5.383l-3.83-6.042zM147.432 21.91c-.13-.244-.25-.515-.356-.815-.108-.3-.198-.61-.273-.928-.448.628-.988 1.127-1.622 1.496-.633.37-1.402.555-2.306.555-1.435 0-2.602-.417-3.502-1.25-.9-.835-1.35-1.945-1.35-3.332 0-1.508.562-2.673 1.685-3.492s2.83-1.23 5.124-1.23h1.72v-1.082c0-.646-.15-1.143-.453-1.49-.303-.346-.772-.52-1.406-.52-.54 0-.943.13-1.208.386-.265.258-.4.66-.4 1.202l-4.57-.014-.028-.085c-.065-1.385.507-2.545 1.72-3.477 1.21-.932 2.814-1.4 4.81-1.4 1.863 0 3.375.47 4.535 1.406 1.16.936 1.74 2.276 1.74 4.018v5.734c0 .815.068 1.57.203 2.263.135.693.337 1.382.608 2.066l-4.668-.01zm-3.117-3.077c.466 0 .895-.094 1.286-.28.393-.19.71-.432.952-.732v-2.374h-1.678c-.746 0-1.29.183-1.63.548-.34.366-.51.83-.51 1.392 0 .43.147.78.44 1.047.295.266.674.4 1.14.4zM159.513 2.937v3.78h2.558v3.29h-2.557v6.97c0 .544.11.935.33 1.174.217.24.514.36.887.36.298 0 .533-.01.706-.03.172-.018.394-.055.664-.112l.335 3.513c-.52.123-.993.21-1.412.26-.42.052-.913.078-1.482.078-1.555 0-2.735-.417-3.536-1.25-.802-.835-1.203-2.156-1.203-3.964v-7h-2.124V6.72h2.125v-3.78h4.713zM168.88 8.6c.457-.683 1.015-1.215 1.67-1.594.658-.38 1.383-.57 2.176-.57 1.566 0 2.796.55 3.69 1.646.897 1.096 1.343 2.796 1.343 5.1v8.743h-4.726v-8.77c0-1.162-.175-1.963-.524-2.403-.35-.44-.883-.66-1.6-.66-.458 0-.854.068-1.19.204-.334.136-.614.326-.838.57v11.06h-4.726V0h4.726v8.6zM179.758 14.18c0-2.285.642-4.147 1.93-5.586 1.286-1.438 3.08-2.157 5.383-2.157 2.313 0 4.11.72 5.398 2.157 1.286 1.44 1.93 3.3 1.93 5.587v.296c0 2.296-.644 4.16-1.93 5.594-1.287 1.433-3.076 2.15-5.37 2.15-2.32 0-4.123-.717-5.41-2.15-1.287-1.434-1.93-3.298-1.93-5.594v-.295zm4.725.295c0 1.274.198 2.275.594 3 .397.727 1.07 1.09 2.02 1.09.924 0 1.586-.365 1.987-1.096.4-.732.6-1.73.6-2.994v-.295c0-1.236-.2-2.227-.6-2.972-.4-.745-1.072-1.117-2.013-1.117-.93 0-1.595.376-1.992 1.125-.396.75-.594 1.738-.594 2.965v.295zM200.828 6.718l.18 2.136c.495-.76 1.106-1.352 1.833-1.778.728-.426 1.54-.64 2.434-.64 1.48 0 2.64.483 3.473 1.448.834.965 1.252 2.502 1.252 4.61v9.43h-4.726V12.48c0-.87-.18-1.487-.538-1.848-.36-.36-.888-.54-1.587-.54-.44 0-.828.08-1.17.238-.34.16-.63.38-.873.66v10.934h-4.712V6.718h4.433z"/><g><path d="M38.794 33.697v-7.673h2.4c.998 0 1.8.308 2.405.925.605.616.91 1.412.91 2.39v1.047c0 .98-.304 1.778-.91 2.39-.607.613-1.41.92-2.405.92h-2.4zm1.033-.816h1.368c.707 0 1.263-.233 1.67-.7.407-.466.61-1.065.61-1.796v-1.058c0-.723-.203-1.318-.61-1.785-.407-.466-.964-.7-1.67-.7h-1.368v6.04zM46.008 26.535v-1.06h1.033v1.06H46.01zm0 7.162v-5.703h1.033v5.703H46.01zM48.446 31.062v-.11c0-.917.195-1.657.585-2.22.39-.562.935-.843 1.634-.843.36 0 .676.072.95.218.27.146.5.356.686.63l.126-.743h.823v5.734c0 .73-.213 1.29-.635 1.684-.424.39-1.034.586-1.83.586-.273 0-.568-.037-.884-.112-.315-.076-.594-.18-.835-.308l.158-.804c.2.106.44.192.72.257.283.065.56.098.83.098.504 0 .87-.115 1.1-.346.23-.23.344-.582.344-1.054v-.65c-.185.24-.407.42-.666.543-.258.123-.556.185-.895.185-.692 0-1.233-.253-1.623-.757-.392-.503-.586-1.165-.586-1.988zm1.033 0c0 .573.116 1.033.35 1.38.233.35.595.523 1.084.523.312 0 .572-.07.78-.214.21-.14.385-.343.52-.603v-2.625c-.132-.242-.305-.434-.52-.577-.212-.142-.468-.214-.77-.214-.492 0-.857.207-1.093.618s-.352.945-.352 1.602v.112zM54.817 26.535v-1.06h1.032v1.06h-1.033zm0 7.162v-5.703h1.032v5.703h-1.033zM56.94 28.764v-.77h.9V26.62h1.034v1.374h1.075v.77h-1.076v3.472c0 .268.055.456.165.565.11.11.255.165.436.165.06 0 .126-.01.2-.024.073-.015.133-.032.182-.05l.142.705c-.077.063-.19.113-.34.154-.15.038-.3.06-.447.06-.42 0-.753-.13-1-.384-.248-.254-.373-.654-.373-1.2v-3.46h-.9zM60.86 32.095c0-.545.22-.97.66-1.278.437-.308 1.032-.46 1.783-.46h1.122v-.564c0-.334-.1-.6-.304-.794-.2-.196-.488-.293-.86-.293-.334 0-.605.084-.81.253-.208.17-.31.37-.31.605l-.992.01-.01-.03v-.07c.004-.385.198-.742.585-1.07.415-.343.947-.516 1.596-.516.642 0 1.16.163 1.55.492.392.33.59.802.59 1.42v2.746c0 .204.01.4.03.59.02.19.06.377.115.56H64.54c-.035-.173-.06-.325-.08-.457-.02-.13-.03-.263-.035-.397-.192.273-.443.503-.752.687-.31.184-.642.277-1 .277-.59 0-1.04-.152-1.35-.457-.307-.302-.462-.72-.462-1.255zm1.034.02c0 .254.08.454.236.602.158.147.39.22.697.22.374 0 .71-.096 1.013-.29.3-.193.496-.414.587-.664v-.928H63.27c-.418 0-.75.105-1 .316-.25.214-.376.46-.376.746zM67.043 33.697v-8.222h1.033v8.222h-1.033zM72.475 33.697v-7.673h4.787v.817h-3.754v2.647h3.22v.817h-3.22v3.394h-1.033zM78.122 31.358v-3.363h1.033v3.373c0 .608.09 1.026.267 1.254.18.228.456.343.834.343.367 0 .67-.075.91-.224.24-.15.42-.36.542-.634v-4.11h1.033v5.702h-.922l-.072-.843c-.18.306-.408.54-.688.706-.28.166-.604.25-.97.25-.62 0-1.102-.2-1.448-.597-.345-.398-.518-1.016-.518-1.855zM83.747 28.764v-.77h.902V26.62h1.032v1.374h1.075v.77h-1.075v3.472c0 .268.055.456.165.565.11.11.256.165.437.165.06 0 .127-.01.2-.024.073-.015.134-.032.183-.05l.142.705c-.078.063-.192.113-.342.154-.15.038-.3.06-.446.06-.42 0-.753-.13-1-.384-.25-.254-.373-.654-.373-1.2v-3.46h-.903zM87.842 31.358v-3.363h1.032v3.373c0 .608.09 1.026.267 1.254.18.228.457.343.835.343.367 0 .67-.075.91-.224.24-.15.42-.36.542-.634v-4.11h1.033v5.702h-.923l-.072-.843c-.18.306-.408.54-.688.706-.28.166-.604.25-.97.25-.62 0-1.102-.2-1.448-.597-.345-.398-.518-1.016-.518-1.855zM93.965 33.697v-5.703h.923l.1.833c.16-.295.36-.525.595-.69.235-.165.507-.248.815-.248.077 0 .15.005.22.018.07.012.128.026.173.04l-.14.964-.53-.032c-.273 0-.503.065-.69.195-.187.13-.332.313-.433.548v4.074h-1.032zM97.384 30.957v-.232c0-.82.235-1.496.706-2.032.47-.536 1.044-.804 1.722-.804.76 0 1.327.236 1.707.71.378.475.568 1.105.568 1.893v.55H98.46l-.016.025c0 .572.126 1.035.378 1.39.25.356.636.534 1.153.534.35 0 .657-.05.92-.15.264-.1.49-.237.68-.412l.402.674c-.202.198-.47.365-.802.5-.333.137-.732.205-1.2.205-.815 0-1.45-.263-1.907-.786-.455-.525-.684-1.213-.684-2.067zm1.102-.76l.01.027h2.558v-.084c0-.415-.1-.758-.304-1.028-.202-.27-.515-.406-.938-.406-.36 0-.658.14-.894.42-.236.28-.38.636-.432 1.072z"/></g></g></svg>