<svg width="112" height="46" viewBox="0 0 112 46" xmlns="http://www.w3.org/2000/svg" xmlns:xlink="http://www.w3.org/1999/xlink"><title>ifa</title><defs><path d="M6.638 34s-.756-.273-1.107-.382c-.95-.295-1.497-.76-1.497-1.408V8.82l-.017-.177C3.972 8.09 4.013 7.46 4.2 6.87c.376-1.173 1.237-1.868 2.778-1.868h43.144c.435-.015.96.058 1.465.292.89.41 1.413 1.204 1.413 2.524 0 1.306-.248 5.433-.67 11.48l-.102 1.44c-.17 2.386-.35 4.866-.53 7.294l-.176 2.33-.067.875c.004.345-.06.79-.254 1.222-.332.737-1.963 1.54-1.963 1.54H34.13s-.468-1.204-.647-1.502c-.146-.244-.277-.48-.39-.703-.113-.227-.205-.437-.273-.628-.124-.35-.248-.862-.367-1.49-.087-.454-.165-.94-.235-1.428-.042-.293-.07-.52-.087-.65l-.263.274c.08.02.227.046.433.072 1.784.232 3.826-.024 5.768-1.15.474-.276.93-.598 1.362-.97 3.172-2.73 4.768-9.6 3.495-12.943-1.4-3.676-5.383-5.43-14.92-5.43-3.793 0-4.962.07-6.387.46-1.3.357-2.4.998-3.312 1.84-.51.472-.93.977-1.265 1.482-.202.306-.334.546-.398.69-.01.007-.058.084-.127.192-.114.18-.24.383-.377.604-.39.632-.78 1.283-1.146 1.917-.116.2-.227.397-.334.59-.753 1.35-1.227 2.366-1.337 2.95-.286 1.537.19 2.16 1.436 2.16.33 0 .797-.04 1.368-.107.2-.024.41-.05.625-.08.293-.042.585-.085.86-.13.167-.025.29-.045.36-.057l-.23-.353c-.058.125-.155.35-.28.647-.21.496-.418 1.016-.613 1.535-.113.3-.218.59-.313.87-.565 1.654-.765 2.725-.426 3.166.566.735 3.65 1.19 5.563 1.19.67 0 1.045.07 1.317.34.387.38.398 1.167-.15 2.524-.098.218-.21.456-.333.703-.15.304-.313.62-.49.945-.316.587-.656 1.176-.996 1.74-.203.336-.27.73-.27.73H6.637zM20 15.5c0-1.38 1.12-2.5 2.5-2.5s2.5 1.12 2.5 2.5-1.12 2.5-2.5 2.5-2.5-1.12-2.5-2.5z" id="a"/><mask id="b" x="0" y="0" width="49" height="29" fill="#fff"><use xlink:href="#a"/></mask></defs><g fill="none" fill-rule="evenodd"><path d="M95.092 28.842l-1.995 7.236h-5.37l8.95-32.47h5.371L111 36.078h-5.37l-1.996-7.236h-8.542zm1.48-5.37l2.79-10.123 2.79 10.12h-5.58zM76.984 8.998v9.962h6.888v5.37h-6.888V36.08h-5.37V3.608h5.37v.02h10.192v5.37H76.984zM59.976 3.607h5.37v32.47h-5.37V3.608zM0 0h111v.902H0V0zm0 45.098h111V46H0v-.902z" fill="#003474"/><path d="M0 6c0-1.656 1.343-3 2.99-3h50.02C54.66 3 56 4.335 56 6v27c0 1.656-1.343 3-2.99 3H2.99C1.34 36 0 34.665 0 33V6zm2.64 33.393c.224.216.35.46.374.735H2.59c-.048-.208-.144-.373-.288-.495-.143-.122-.345-.183-.604-.183-.316 0-.57.112-.766.336-.194.224-.292.567-.292 1.03 0 .378.088.685.264.92.175.237.437.354.785.354.32 0 .564-.124.73-.372.09-.13.157-.302.2-.515h.424c-.038.34-.163.626-.376.857-.255.277-.598.416-1.03.416-.374 0-.687-.114-.94-.34-.334-.302-.5-.767-.5-1.395 0-.476.124-.868.375-1.173.27-.332.644-.498 1.12-.498.407 0 .723.107.947.323zm4.473.227c.212.286.32.652.32 1.1 0 .482-.123.883-.366 1.203-.286.376-.693.564-1.222.564-.494 0-.882-.165-1.165-.493-.252-.318-.378-.718-.378-1.203 0-.436.108-.81.324-1.122.277-.4.686-.6 1.228-.6.567 0 .986.185 1.26.552zm-.384 2.06c.17-.277.256-.595.256-.955 0-.38-.1-.686-.296-.918-.198-.232-.467-.348-.81-.348-.332 0-.603.114-.813.344-.21.23-.315.568-.315 1.016 0 .358.09.66.27.906.18.246.472.37.876.37.383 0 .66-.14.83-.416zm2.115-2.523h.514l1.62 2.62v-2.62h.413v3.235h-.487L9.26 39.774v2.618h-.415v-3.235zm4.412 2.19c.01.185.053.334.128.448.145.215.4.322.763.322.163 0 .312-.024.446-.07.26-.092.39-.255.39-.49 0-.176-.056-.3-.165-.376-.112-.072-.285-.136-.52-.19l-.436-.1c-.284-.064-.485-.135-.603-.213-.203-.135-.305-.337-.305-.606 0-.29.1-.528.3-.714.2-.187.482-.28.847-.28.337 0 .623.082.858.245.235.165.353.427.353.786h-.41c-.02-.173-.067-.306-.14-.398-.13-.17-.356-.253-.674-.253-.257 0-.442.054-.554.163-.112.108-.168.234-.168.378 0 .16.066.275.197.348.086.047.28.106.583.176l.45.104c.217.05.385.118.503.205.205.15.307.37.307.657 0 .358-.13.614-.388.77-.26.153-.56.23-.902.23-.4 0-.712-.103-.938-.308-.226-.206-.337-.482-.332-.832h.41zm4.068-2.19v2c0 .235.044.43.13.586.13.234.35.352.657.352.368 0 .62-.127.752-.38.07-.14.107-.325.107-.558v-2h.442v1.817c0 .398-.053.704-.16.918-.195.39-.563.586-1.105.586s-.91-.195-1.104-.586c-.106-.214-.16-.52-.16-.918v-1.817h.442zm3.644 0h.622l.923 2.735.915-2.735h.617v3.235h-.414v-1.91l.005-.327c.003-.153.004-.316.004-.49l-.915 2.727h-.43l-.923-2.728v.1c0 .078.002.2.005.36.003.163.005.283.005.36v1.908h-.416v-3.235zm4.675 0h2.34v.397H26.07v.982h1.772v.374H26.07v1.097h1.95v.385h-2.375v-3.235zm3.892 0h1.486c.245 0 .446.036.605.108.302.138.453.393.453.764 0 .193-.04.352-.118.475-.08.123-.19.222-.334.297.126.052.22.12.283.203.065.084.1.22.107.407l.016.434c.004.123.014.215.03.275.026.104.073.17.14.2v.072h-.533c-.015-.028-.026-.064-.035-.108-.01-.044-.016-.13-.022-.255l-.026-.54c-.01-.212-.088-.354-.234-.426-.083-.04-.214-.06-.39-.06h-.99v1.388h-.436v-3.235zm1.44 1.482c.204 0 .365-.042.484-.124.12-.082.18-.23.18-.445 0-.23-.084-.386-.25-.47-.09-.044-.208-.066-.356-.066h-1.062v1.105h1.005zm4.815-1.483h2.34v.397h-1.916v.982h1.772v.374h-1.772v1.097h1.95v.385H35.79v-3.235zm3.84 0h.434v2.85h1.626v.385h-2.06v-3.235zm3.425 0h2.34v.397h-1.916v.982h1.773v.374H43.48v1.097h1.95v.385h-2.373v-3.235zm6.138.236c.224.216.35.46.374.735h-.425c-.048-.208-.144-.373-.288-.495-.143-.122-.345-.183-.604-.183-.316 0-.57.112-.766.336-.194.224-.292.567-.292 1.03 0 .378.088.685.264.92.174.237.436.354.784.354.32 0 .565-.124.732-.372.09-.13.156-.302.2-.515h.423c-.04.34-.164.626-.377.857-.255.277-.598.416-1.03.416-.374 0-.687-.114-.94-.34-.335-.302-.5-.767-.5-1.395 0-.476.124-.868.375-1.173.27-.332.644-.498 1.12-.498.407 0 .723.107.947.323zm4.165-.236v.386h-1.082v2.85h-.442v-2.85h-1.08v-.386h2.604zm1.345 0h1.486c.246 0 .448.036.606.108.302.138.453.393.453.764 0 .193-.04.352-.12.475-.08.123-.19.222-.334.297.126.052.22.12.283.203.063.084.098.22.105.407l.016.434c.005.123.015.215.03.275.028.104.074.17.14.2v.072h-.532c-.015-.028-.026-.064-.035-.108-.01-.044-.016-.13-.022-.255l-.025-.54c-.01-.212-.088-.354-.234-.426-.082-.04-.212-.06-.39-.06h-.99v1.388h-.435v-3.235zm1.44 1.482c.204 0 .365-.042.484-.124.118-.082.177-.23.177-.445 0-.23-.083-.386-.25-.47-.088-.044-.206-.066-.355-.066H55.14v1.105h1.005zm5.28-1.02c.212.286.318.652.318 1.1 0 .482-.12.883-.365 1.203-.285.376-.692.564-1.22.564-.495 0-.883-.165-1.166-.493-.252-.318-.378-.718-.378-1.203 0-.436.108-.81.323-1.122.277-.4.687-.6 1.23-.6.565 0 .985.185 1.257.552zm-.384 2.06c.172-.277.258-.595.258-.955 0-.38-.1-.686-.297-.918-.196-.232-.466-.348-.808-.348-.332 0-.603.114-.813.344-.21.23-.316.568-.316 1.016 0 .358.09.66.27.906.18.246.472.37.875.37.382 0 .66-.14.83-.416zm2.117-2.523h.513l1.622 2.62v-2.62h.413v3.235h-.488l-1.645-2.618v2.618h-.415v-3.235zm4.225 0h.44v3.235h-.44v-3.235zm4.34.236c.224.216.35.46.373.735h-.424c-.047-.208-.142-.373-.286-.495-.143-.122-.345-.183-.604-.183-.316 0-.572.112-.766.336-.195.224-.292.567-.292 1.03 0 .378.088.685.263.92.176.237.438.354.786.354.322 0 .566-.124.733-.372.09-.13.155-.302.2-.515h.423c-.038.34-.163.626-.376.857-.255.277-.6.416-1.03.416-.374 0-.688-.114-.94-.34-.335-.302-.502-.767-.502-1.395 0-.476.126-.868.376-1.173.27-.332.645-.498 1.12-.498.408 0 .723.107.948.323zm2.112 1.955c.01.184.053.333.13.447.143.215.398.322.762.322.163 0 .312-.024.446-.07.26-.092.39-.255.39-.49 0-.176-.056-.3-.165-.376-.11-.072-.284-.136-.52-.19l-.435-.1c-.284-.064-.485-.135-.603-.213-.205-.135-.307-.337-.307-.606 0-.29.1-.528.3-.714.2-.187.48-.28.847-.28.337 0 .622.082.858.245.235.165.353.427.353.786h-.408c-.022-.173-.068-.306-.14-.398-.132-.17-.358-.253-.675-.253-.257 0-.44.054-.553.163-.112.108-.168.234-.168.378 0 .16.065.275.196.348.086.047.28.106.584.176l.45.104c.217.05.385.118.503.205.203.15.305.37.305.657 0 .358-.13.614-.388.77-.26.153-.56.23-.902.23-.4 0-.71-.103-.937-.308-.226-.206-.337-.482-.332-.832h.408zm6.207-2.19v2c0 .234.045.43.132.585.13.234.35.352.656.352.37 0 .62-.127.752-.38.07-.14.107-.325.107-.558v-2h.44v1.817c0 .398-.052.704-.158.918-.196.39-.565.586-1.107.586s-.91-.195-1.104-.586c-.107-.214-.16-.52-.16-.918v-1.817h.44zm3.657 0h.513l1.622 2.62v-2.62h.413v3.234h-.487l-1.646-2.618v2.618h-.415v-3.235zm4.127 0h.435v2.85h1.625v.384h-2.06v-3.235zm3.483 0h.44v3.234h-.44v-3.235zm2.03 0h.622l.92 2.734.917-2.735h.616v3.235H96v-1.91l.005-.327c.003-.153.004-.316.004-.49l-.917 2.727h-.43l-.922-2.728v.1c0 .078.002.2.006.36.004.163.006.283.006.36v1.908h-.416v-3.235zm4.732 0h.438v3.234h-.44v-3.235zm4.376 0v.385h-1.082v2.85h-.442v-2.85h-1.08v-.386h2.604zm1.334 0h2.34v.396h-1.916v.982h1.773v.374h-1.773v1.097h1.95v.385h-2.374v-3.235zm3.86 0h1.3c.44 0 .783.157 1.026.473.217.286.326.65.326 1.095 0 .344-.064.654-.192.932-.226.49-.615.735-1.165.735h-1.296v-3.235zm1.212 2.86c.147 0 .268-.016.362-.046.17-.058.308-.168.416-.33.086-.13.148-.3.185-.503.022-.123.033-.236.033-.34 0-.4-.08-.712-.237-.934-.157-.22-.412-.332-.763-.332h-.77v2.484h.775z" fill="#FF000D"/><path d="M37.282 15h.01l1.915-1.914.707.707L38.707 15H43v1h-4.293l1.207 1.207-.707.707L37.293 16H37v-.248c-.472.99-1.357 2.047-2.61 3.005-1.214.93-3.304 2.795-3.64 2.968-.3.154-.6.22-1 .22-.696 0-1.18-.42-1.48-1.078-.166-.37-.245-.732-.27-.985l.668-.068c.02.186.083.483.214.772.2.44.478.68.868.68.298 0 .496-.04.694-.143.246-.128 2.265-1.93 3.54-2.905 3.01-2.302 3.573-4.882 1.45-5.517-.997-.298-2.038.296-3.042 1.513-.297.36-.567.75-.805 1.138-.14.233-.24.412-.29.51l-.598-.305c.056-.115.163-.31.316-.56.252-.413.54-.826.86-1.214 1.157-1.403 2.424-2.125 3.75-1.728 1.515.453 2.02 1.593 1.656 2.948zm-17.99 1H14v-1h5.293l-1.207-1.207.707-.707 2.12 2.12-.292.294.294.293-2.12 2.12-.708-.706L19.293 16z" fill="#FFF"/><use stroke="#FFF" mask="url(#b)" stroke-width="2" xlink:href="#a"/></g></svg>