<svg width="200" height="42" viewBox="0 0 200 42" xmlns="http://www.w3.org/2000/svg"><title>lifetraker</title><g fill="none" fill-rule="evenodd"><path d="M55.036 29.64c.855.448 1.38 1.235 1.57 2.36h-1.154c-.14-.63-.432-1.087-.873-1.374-.443-.287-1-.43-1.67-.43-.798 0-1.47.298-2.014.896-.545.597-.817 1.488-.817 2.672 0 1.023.223 1.856.673 2.5.45.64 1.18.963 2.197.963.777 0 1.42-.226 1.93-.677.51-.45.77-1.18.783-2.19h-2.696v-.965h3.78V38h-.75l-.28-1.107c-.396.433-.746.734-1.05.902-.512.29-1.162.434-1.95.434-1.02 0-1.898-.332-2.632-.992-.8-.828-1.202-1.965-1.202-3.41 0-1.44.39-2.588 1.172-3.44.743-.812 1.703-1.218 2.883-1.218.81 0 1.508.156 2.098.47zm7.544 6.886c.26-.53.39-1.118.39-1.766 0-.586-.095-1.063-.282-1.43-.297-.578-.81-.867-1.535-.867-.645 0-1.114.246-1.406.738-.293.493-.44 1.087-.44 1.782 0 .668.147 1.225.44 1.67.292.446.757.668 1.394.668.7 0 1.18-.264 1.44-.794zm.653-4.174c.558.54.838 1.332.838 2.378 0 1.012-.245 1.848-.738 2.508-.492.66-1.255.99-2.29.99-.864 0-1.55-.29-2.057-.875-.508-.584-.762-1.37-.762-2.353 0-1.055.268-1.895.803-2.52s1.254-.937 2.156-.937c.81 0 1.492.27 2.05.81zm3.474 4.7c.223.175.487.262.79.262.372 0 .732-.085 1.08-.257.585-.286.878-.752.878-1.4v-.85c-.13.082-.295.15-.498.205-.203.054-.402.093-.597.117l-.64.08c-.382.052-.67.132-.86.24-.325.185-.487.478-.487.88 0 .305.112.545.334.72zm2.22-2.855c.243-.03.405-.133.487-.304.047-.094.07-.23.07-.405 0-.36-.127-.62-.383-.782-.255-.162-.62-.243-1.098-.243-.55 0-.94.148-1.172.445-.13.164-.213.408-.252.733h-.984c.02-.773.27-1.31.753-1.614.482-.302 1.042-.454 1.68-.454.737 0 1.336.14 1.797.422.457.28.686.72.686 1.313v3.615c0 .11.022.197.067.264.045.066.14.1.285.1.046 0 .1-.004.158-.01.058-.005.12-.014.187-.026v.78c-.164.046-.29.075-.375.087-.086.012-.203.018-.35.018-.365 0-.628-.13-.792-.387-.086-.137-.147-.33-.182-.58-.215.28-.523.525-.926.732-.402.207-.845.31-1.33.31-.582 0-1.057-.176-1.427-.53-.37-.353-.553-.795-.553-1.326 0-.583.18-1.034.545-1.354.363-.32.84-.518 1.43-.592l1.68-.21zm3.58-4.804h1.055V38h-1.054v-8.607zm3.504 6.638c.033.353.12.622.265.81.266.34.727.51 1.383.51.39 0 .734-.085 1.03-.255.298-.17.446-.433.446-.788 0-.27-.12-.475-.357-.616-.152-.085-.453-.184-.902-.297l-.838-.21c-.535-.134-.93-.283-1.184-.447-.453-.285-.68-.68-.68-1.183 0-.594.214-1.074.642-1.442.428-.366 1.003-.55 1.726-.55.946 0 1.628.278 2.046.833.26.35.388.73.38 1.136h-.996c-.02-.24-.103-.456-.252-.65-.242-.278-.662-.417-1.26-.417-.398 0-.7.076-.905.228-.205.154-.307.355-.307.605 0 .273.135.492.404.656.156.1.387.185.692.26l.697.17c.757.183 1.264.36 1.522.532.41.27.615.693.615 1.272 0 .558-.21 1.04-.635 1.447-.424.407-1.07.61-1.937.61-.933 0-1.595-.212-1.983-.636-.39-.423-.597-.948-.624-1.573h1.013zm12.61-3.93c.23-.266.346-.56.346-.885 0-.254-.084-.473-.252-.656-.168-.185-.394-.277-.68-.277-.433 0-.734.145-.902.434-.086.148-.13.31-.13.486 0 .238.067.467.197.686.13.217.348.5.653.848.37-.26.627-.474.767-.638zm.082 4.875c.313-.2.553-.422.72-.668l-1.944-2.373c-.55.367-.91.648-1.078.843-.258.293-.387.65-.387 1.073 0 .457.167.808.5 1.054.335.246.69.37 1.07.37.434 0 .807-.1 1.12-.3zm-2.54-4.817c-.123-.285-.184-.56-.184-.826 0-.555.187-1.015.562-1.38.375-.365.877-.548 1.506-.548.598 0 1.065.17 1.4.51.336.34.504.746.504 1.22 0 .55-.173 1.032-.52 1.446-.204.242-.544.522-1.02.838l1.57 1.875c.105-.313.178-.546.22-.7.04-.155.082-.37.125-.648h1.002c-.066.55-.2 1.08-.398 1.585-.2.506-.3.71-.3.613L92.16 38H90.8l-.81-.984c-.32.347-.612.6-.877.76-.465.283-1 .423-1.606.423-.894 0-1.545-.242-1.95-.724-.407-.483-.61-1.027-.61-1.632 0-.653.197-1.198.59-1.635.244-.267.695-.6 1.355-.997-.363-.418-.607-.77-.73-1.055zm11.024-2.765h1.178v3.556h4.477v-3.557h1.178V38h-1.177v-4.025h-4.476V38h-1.178v-8.607zm9.88 7.658c.222.177.485.264.79.264.37 0 .73-.085 1.078-.257.586-.286.88-.752.88-1.4v-.85c-.13.082-.296.15-.5.205-.202.054-.4.093-.597.117l-.638.08c-.384.052-.67.132-.863.24-.324.185-.486.478-.486.88 0 .305.112.545.335.72zm2.22-2.853c.242-.03.404-.133.486-.304.047-.094.07-.23.07-.405 0-.36-.128-.62-.383-.782-.257-.162-.624-.243-1.1-.243-.55 0-.942.148-1.172.445-.13.164-.213.408-.252.733h-.984c.02-.773.27-1.31.753-1.614.482-.302 1.042-.454 1.678-.454.74 0 1.338.14 1.8.422.456.28.685.72.685 1.313v3.615c0 .11.022.197.067.264.045.066.14.1.284.1.046 0 .1-.004.157-.01.06-.005.122-.014.188-.026v.78c-.164.046-.29.075-.375.087-.086.012-.203.018-.352.018-.363 0-.627-.13-.79-.387-.087-.137-.147-.33-.182-.58-.215.28-.524.525-.926.732-.402.207-.846.31-1.33.31-.582 0-1.058-.176-1.427-.53-.37-.353-.554-.795-.554-1.326 0-.583.18-1.034.544-1.354.364-.32.84-.518 1.43-.592l1.682-.21zm3.468-4.834h1.026v3.123c.23-.3.505-.53.826-.688.32-.158.668-.237 1.043-.237.78 0 1.414.27 1.9.806.486.537.73 1.33.73 2.376 0 .992-.24 1.817-.72 2.473-.482.656-1.148.984-2 .984-.476 0-.878-.116-1.206-.346-.196-.137-.405-.356-.627-.657V38h-.973v-8.637zm4.023 7.225c.283-.453.424-1.05.424-1.793 0-.66-.14-1.207-.423-1.64-.284-.434-.7-.65-1.25-.65-.482 0-.903.177-1.264.532-.36.356-.542.942-.542 1.758 0 .59.075 1.068.224 1.435.277.692.795 1.038 1.552 1.038.57 0 .997-.227 1.28-.68zm2.973-4.834h1.072V38h-1.072v-6.246zm0-2.36h1.072v1.194h-1.072v-1.195zm3.117.58h1.066v1.75h1.002v.862h-1.002v4.096c0 .218.075.365.223.44.082.042.22.064.41.064.05 0 .106 0 .164-.003.06-.002.127-.007.205-.015V38c-.12.035-.247.06-.378.076-.13.016-.272.024-.424.024-.493 0-.827-.126-1.002-.378-.175-.252-.263-.58-.263-.982v-4.154h-.85v-.86h.85v-1.753zm3.99 6.057c.03.353.12.622.264.81.266.34.727.51 1.383.51.39 0 .735-.085 1.032-.255.297-.17.445-.433.445-.788 0-.27-.12-.475-.357-.616-.153-.085-.454-.184-.903-.297l-.838-.21c-.535-.134-.93-.283-1.183-.447-.454-.285-.68-.68-.68-1.183 0-.594.213-1.074.64-1.442.428-.366 1.004-.55 1.726-.55.946 0 1.627.278 2.045.833.263.35.39.73.382 1.136h-.996c-.02-.24-.104-.456-.252-.65-.242-.278-.662-.417-1.26-.417-.398 0-.7.076-.905.228-.206.154-.31.355-.31.605 0 .273.136.492.406.656.156.1.386.185.69.26l.698.17c.758.183 1.266.36 1.524.532.41.27.615.693.615 1.272 0 .558-.212 1.04-.636 1.447-.424.407-1.07.61-1.936.61-.933 0-1.594-.212-1.983-.636-.388-.423-.596-.948-.624-1.573h1.014z" fill="#0093DF"/><g transform="translate(1)"><path d="M19 8v30h8.247C31.784 38 35 34.51 35 30.392v-14.53C35 11.02 31.784 8 27.247 8H19z" fill="#0070A5"/><path d="M5.264 18.04c-2.08.326-3.67 2.15-3.67 4.34 0 2.208 1.59 4.032 3.67 4.36v-8.7z" fill="#0093DF"/><ellipse fill="#0070A5" cx="33.965" cy="22.38" rx="4.238" ry="4.302"/><path d="M3.99 28.14h-.02v-.02c-.85-.307-1.588-.807-2.212-1.44C.662 25.563 0 24.045 0 22.353c0-1.672.68-3.21 1.758-4.305.586-.597 1.285-1.116 2.08-1.424h.15v-1.364c0-5.21 4.216-9.496 9.34-9.496h13.345c5.14 0 9.338 4.287 9.338 9.496v1.364h.02v.02c.87.307 1.607.807 2.23 1.44 1.078 1.097 1.76 2.635 1.74 4.307 0 1.69-.662 3.21-1.758 4.325-.605.615-1.305 1.114-2.136 1.422h-.095v1.365c0 5.228-4.196 9.495-9.337 9.495H13.327c-5.123 0-9.338-4.267-9.338-9.495V28.14zM26.672 7.804H13.327c-2.004 0-3.837.846-5.18 2.19-1.323 1.366-2.155 3.23-2.155 5.268v14.243c0 4.363 3.044 7.458 7.335 7.458h13.346c2.022 0 3.856-.846 5.18-2.192 1.322-1.344 2.154-3.21 2.154-5.265V28.14h-.02l.02-1.672V15.262c0-2.038-.832-3.902-2.155-5.267-1.323-1.345-3.157-2.19-5.18-2.19zM3.97 25.776c-1.21-.71-1.966-2.038-1.966-3.537 0-1.5.756-2.826 1.966-3.538v7.074zM20.038 0c1.115 0 2.003.923 2.003 2.037 0 1.135-.906 2.038-2.02 2.038-1.098 0-2.005-.903-2.005-2.038C18.015.903 18.94 0 20.038 0zM36.03 25.93c1.21-.692 1.985-2.02 1.985-3.537 0-1.5-.775-2.807-1.985-3.518v7.055z" fill="#02213B"/><path d="M19.17 22.38v14.575h-5.334c-2.668 0-8.003-1.344-8.003-8.123V16.83c0-7.643 5.335-9.006 7.85-9.006h5.488V22.38z" fill="#FFF"/><path d="M20 22.49V37h-5.2C12.2 37 7 35.662 7 28.914V16.966C7 9.356 12.2 8 14.652 8H20v14.49z" fill="#0093DF"/><path fill="#000" d="M20.627 3.445V7.63h-1.363V3.446"/><path d="M19.946 14.93c.983 0 1.93.21 2.8.575.908.384 1.72.94 2.402 1.613.663.672 1.192 1.498 1.59 2.42.36.883.548 1.862.548 2.842 0 .998-.19 1.958-.548 2.842-.398.94-.927 1.766-1.59 2.438-.68.673-1.494 1.23-2.402 1.614-.87.364-1.817.556-2.8.556-.984 0-1.93-.192-2.8-.556-.91-.385-1.722-.94-2.384-1.614-1.344-1.344-2.157-3.206-2.157-5.28 0-.98.208-1.96.567-2.843.38-.92.908-1.747 1.59-2.42.662-.67 1.475-1.228 2.383-1.612.87-.365 1.817-.576 2.8-.576z" fill="#FFF"/><path d="M19.946 12.912c.624 0 1.23.058 1.816.173.586.115 1.173.307 1.74.557.587.23 1.136.538 1.627.864.53.346 1.002.75 1.418 1.172.436.422.814.902 1.155 1.44.34.518.624 1.056.87 1.65.246.597.416 1.192.55 1.768.112.615.17 1.23.17 1.844 0 .633-.058 1.248-.17 1.843-.134.595-.304 1.19-.55 1.767-.246.614-.53 1.152-.87 1.67-.34.52-.72 1-1.155 1.44-.416.423-.89.807-1.42 1.172-.49.327-1.04.634-1.626.864-.567.25-1.154.423-1.74.557-.587.115-1.192.173-1.816.173-.606 0-1.21-.058-1.817-.173-.568-.134-1.174-.307-1.74-.557-.588-.23-1.118-.537-1.628-.864-.53-.365-1.003-.75-1.42-1.17-.85-.865-1.55-1.922-2.024-3.093-.454-1.134-.72-2.344-.72-3.63 0-.615.058-1.23.19-1.844.114-.576.303-1.17.53-1.767.246-.596.53-1.134.87-1.652.34-.538.738-1.018 1.155-1.44.416-.423.89-.826 1.42-1.172.51-.326 1.04-.633 1.626-.864.566-.25 1.172-.442 1.74-.557.605-.115 1.21-.173 1.816-.173zm0 2.017c.983 0 1.93.21 2.8.575.908.384 1.72.94 2.402 1.613.663.672 1.192 1.498 1.59 2.42.36.883.548 1.862.548 2.842 0 .998-.19 1.958-.548 2.86-.398.923-.927 1.748-1.59 2.42-.68.673-1.494 1.23-2.402 1.614-.87.364-1.817.556-2.8.556-.984 0-1.93-.192-2.8-.556-.91-.385-1.722-.94-2.384-1.614-1.344-1.344-2.157-3.206-2.157-5.28 0-.98.208-1.96.567-2.843.38-.92.908-1.747 1.59-2.42.662-.67 1.475-1.228 2.383-1.612.87-.365 1.817-.576 2.8-.576z" fill="#02213B"/><ellipse fill="#02213B" cx="19.946" cy="22.38" rx="4.011" ry="4.071"/><ellipse fill="#FFF" cx="17.618" cy="20.69" rx="1.665" ry="1.69"/><path d="M12.207 14.564c-.227.21-.567.21-.775 0-.208-.23-.208-.576 0-.787 1.135-1.153 2.46-2.036 3.916-2.65 1.438-.615 3.008-.94 4.598-.94 1.59 0 3.16.325 4.616.94 1.438.614 2.78 1.497 3.897 2.65.226.21.226.556 0 .787-.21.21-.55.21-.757 0-1.04-1.056-2.233-1.863-3.557-2.42-1.306-.557-2.744-.845-4.2-.845-1.457 0-2.876.287-4.2.844-1.306.557-2.517 1.364-3.54 2.42zM31.41 28.43c0-.347.266-.616.606-.616.34 0 .606.27.606.615 0 1.88-.738 3.59-1.968 4.838-1.21 1.23-2.895 1.997-4.75 1.997-.34 0-.623-.288-.623-.634 0-.325.285-.613.625-.613 1.514 0 2.895-.634 3.898-1.633.983-1.017 1.608-2.42 1.608-3.955z" fill="#000"/></g><path d="M59.13 23.006H49V7.273h3.28V20.28h6.85v2.726zm2.83 0V7.273h3.28v15.733h-3.28zm6.775 0V7.273h10.258v2.715h-6.98v4.22h6.373v2.605h-6.373v6.193h-3.278zm23.46 0h-10.38V7.273h10.38v2.715h-7.1v3.794h6.697v2.53h-6.698v3.97h7.1v2.724zm7.054 0V9.988h-4.582V7.273h12.452v2.715h-4.592v13.018h-3.28zm13.85 0h-3.278V7.273h6.47c.898 0 1.7.116 2.405.35.705.23 1.3.564 1.78.996.482.432.85.957 1.102 1.575.252.618.38 1.315.38 2.093 0 .502-.064.985-.19 1.45-.128.466-.312.89-.555 1.276-.242.385-.54.73-.895 1.03-.355.302-.756.54-1.205.715l3.3 6.246h-3.713l-2.92-5.757h-2.68v5.756zm0-8.145h2.877c.833 0 1.477-.22 1.933-.664.456-.443.684-1.057.684-1.842 0-.378-.062-.722-.185-1.03-.124-.31-.3-.573-.527-.79-.228-.22-.507-.388-.836-.508-.33-.12-.697-.18-1.102-.18H113.1v5.015zm20.963 4.33h-5.504l-1.195 3.816H124l5.438-15.733h3.854l5.45 15.733h-3.485l-1.194-3.816zm-4.8-2.464h4.094l-2.008-6.444h-.077l-2.01 6.444zm18.13 6.553c-1.143 0-2.17-.186-3.083-.557-.912-.37-1.69-.907-2.334-1.608-.644-.702-1.138-1.556-1.482-2.563-.344-1.006-.516-2.146-.516-3.418 0-1.265.174-2.4.52-3.407.35-1.007.845-1.86 1.49-2.563.643-.7 1.42-1.237 2.333-1.608.913-.37 1.937-.556 3.073-.556.94 0 1.817.144 2.627.43.81.288 1.522.69 2.133 1.21.612.52 1.102 1.144 1.47 1.87.37.728.588 1.53.653 2.41h-3.192c-.08-.48-.226-.917-.44-1.313-.213-.396-.48-.733-.803-1.01-.32-.275-.69-.49-1.106-.642-.416-.153-.863-.23-1.34-.23-.623 0-1.184.126-1.684.377-.5.25-.926.61-1.28 1.08-.355.468-.63 1.035-.82 1.7-.192.666-.288 1.413-.288 2.24 0 .844.096 1.6.288 2.27.19.668.463 1.237.814 1.706.35.468.778.828 1.28 1.08.504.25 1.07.375 1.7.375.485 0 .933-.07 1.346-.207.413-.138.778-.338 1.096-.6.32-.26.585-.578.798-.948.214-.37.364-.79.45-1.254h3.193c-.094.88-.326 1.672-.695 2.377-.37.706-.852 1.307-1.45 1.805-.597.498-1.297.882-2.1 1.15-.803.27-1.686.404-2.65.404zm9.802-.274V7.273h3.28v7.174h.096l5.885-7.174h3.648l-5.797 6.978 6.2 8.756h-3.92l-4.647-6.574-1.466 1.766v4.808h-3.28zm25.956 0h-10.377V7.273h10.378v2.715h-7.1v3.794h6.7v2.53h-6.7v3.97h7.1v2.724zm6.536 0h-3.28V7.273h6.47c.9 0 1.7.116 2.406.35.705.23 1.3.564 1.78.996.48.432.85.957 1.102 1.575.253.618.38 1.315.38 2.093 0 .502-.063.985-.19 1.45-.127.466-.31.89-.554 1.276-.242.385-.54.73-.895 1.03-.355.302-.757.54-1.205.715l3.3 6.246h-3.713l-2.92-5.757h-2.68v5.756zm0-8.145h2.876c.833 0 1.477-.22 1.933-.664.456-.443.684-1.057.684-1.842 0-.378-.063-.722-.186-1.03-.123-.31-.298-.573-.526-.79-.228-.22-.507-.388-.836-.508-.33-.12-.697-.18-1.102-.18h-2.844v5.015z" fill="#02213B"/></g></svg>