<svg xmlns="http://www.w3.org/2000/svg" width="140" height="60" viewBox="0 0 140 60"><path fill="#004060" fill-rule="evenodd" d="M24.367 52.342V45.65c0-.22-.042-.427-.125-.62-.083-.193-.196-.36-.338-.504-.142-.143-.31-.256-.502-.34-.193-.083-.4-.124-.618-.124h-.543c-.218 0-.424.04-.617.125-.193.083-.36.196-.507.34-.145.142-.26.31-.342.503-.083.193-.125.4-.125.62v6.692h-1.086V45.65c0-.22-.04-.427-.124-.62-.083-.193-.197-.36-.342-.504-.146-.143-.315-.256-.507-.34-.192-.083-.398-.124-.617-.124h-.543c-.22 0-.425.04-.618.125-.193.083-.36.196-.502.34-.143.142-.255.31-.338.503-.083.193-.125.4-.125.62v6.692h-1.094v-9.137h.365l.596.928c.25-.34.562-.608.938-.807.376-.2.787-.3 1.232-.3h.09c.514 0 .98.13 1.395.385.414.256.734.595.96 1.018.112-.21.25-.4.417-.57.166-.174.35-.32.552-.443.2-.122.42-.217.657-.286.237-.07.483-.103.738-.103h.09c.366 0 .713.07 1.04.21.325.14.61.33.853.575.243.244.434.53.573.857.14.326.21.674.21 1.043v6.63h-1.093zm3.86-11.332v-1.463H29.5v1.463h-1.273zm.09 11.332v-9.137h1.093v9.137h-1.094zm9.667 0l-.605-.928c-.25.34-.56.608-.934.807-.374.2-.783.3-1.228.3h-.275c-.368 0-.715-.07-1.04-.21-.327-.14-.61-.33-.855-.575-.243-.244-.434-.53-.573-.856-.14-.33-.21-.677-.21-1.045v-4.122c0-.37.07-.717.21-1.044.14-.33.33-.614.573-.858.244-.244.528-.436.854-.575.326-.14.673-.21 1.04-.21h.276c.41 0 .79.083 1.14.25.348.166.648.398.897.696v-4.426h1.094v12.795h-.366zm-.73-6.692c0-.22-.04-.427-.124-.62-.083-.193-.195-.36-.338-.504-.142-.143-.31-.256-.502-.34-.193-.083-.4-.124-.618-.124h-.73c-.22 0-.425.04-.617.125-.193.083-.36.196-.503.34-.142.142-.255.31-.338.503-.083.193-.124.4-.124.62v4.247c0 .22.04.427.124.62.083.194.196.362.338.504.142.144.31.257.503.34.192.084.398.125.618.125h.73c.218 0 .424-.04.617-.125.193-.083.36-.196.502-.34.143-.14.255-.31.338-.503.083-.193.125-.4.125-.62V45.65zm9.758 7.843c0 .37-.07.708-.21 1.017-.14.31-.33.574-.573.794-.244.22-.53.39-.855.513-.326.122-.673.183-1.04.183h-.454c-.366 0-.713-.06-1.04-.183-.325-.122-.61-.293-.853-.513-.243-.22-.434-.485-.574-.794-.14-.31-.21-.648-.21-1.017v-.036c0-.357.067-.684.197-.98.13-.3.308-.557.534-.778-.285-.173-.512-.407-.68-.7-.17-.295-.254-.62-.254-.978 0-.32.068-.62.204-.897.137-.276.324-.5.56-.673-.284-.25-.51-.55-.675-.9-.167-.352-.25-.736-.25-1.152v-.687c0-.37.07-.717.21-1.044.138-.33.33-.614.572-.858.244-.244.528-.436.854-.575.326-.14.673-.21 1.04-.21h.454c.445 0 .855.1 1.232.3.376.198.69.467.938.806l.596-.928h.364V46.4c0 .368-.07.716-.208 1.043-.14.328-.33.613-.574.857-.243.244-.528.436-.854.575-.326.14-.673.21-1.04.21H42.84c-.124 0-.242.025-.355.076-.113.052-.212.118-.298.202-.086.083-.153.183-.2.3-.047.115-.07.235-.07.36s.023.244.07.357c.047.112.114.212.2.298.086.086.185.153.298.2.113.048.23.072.356.072h1.495c.367 0 .714.06 1.04.183.326.122.61.293.854.513.242.22.433.485.573.794.14.31.21.648.21 1.017v.036zm-.996-7.843c0-.22-.042-.427-.125-.62-.082-.193-.196-.36-.34-.504-.147-.143-.316-.256-.508-.34-.193-.083-.4-.124-.618-.124h-.907c-.22 0-.426.04-.618.125-.194.083-.362.196-.504.34-.142.142-.255.31-.338.503-.083.193-.124.4-.124.62v.812c0 .22.04.427.124.62.083.193.196.36.338.504.142.143.31.256.503.34.19.083.397.124.617.124h.907c.22 0 .425-.04.618-.125.192-.083.36-.196.507-.34.144-.142.258-.31.34-.503.084-.193.126-.4.126-.62v-.812zm-.045 7.754c0-.22-.04-.418-.123-.594-.083-.175-.196-.322-.338-.44-.144-.12-.31-.213-.504-.278-.192-.065-.398-.098-.618-.098h-.56c-.22 0-.425.033-.618.098s-.36.158-.503.277c-.142.118-.255.265-.338.44-.084.176-.125.374-.125.594v.142c0 .22.04.417.124.59.082.172.195.32.337.44.143.123.31.217.503.282.193.065.4.098.618.098h.56c.22 0 .426-.033.618-.098.193-.065.36-.16.503-.28.14-.123.254-.27.337-.443.083-.172.124-.37.124-.59v-.14zm9.162-1.062l-.605-.91c-.25.327-.56.59-.933.79-.374.2-.783.298-1.228.298h-.275c-.367 0-.714-.07-1.04-.21-.326-.14-.61-.33-.854-.575-.243-.244-.434-.53-.573-.856-.14-.33-.21-.677-.21-1.045v-.09c0-.368.07-.716.21-1.044.14-.326.33-.61.573-.855.243-.244.528-.436.854-.576.326-.14.673-.21 1.04-.21h2.313v-1.41c0-.22-.042-.427-.125-.62-.083-.193-.195-.36-.338-.504-.142-.143-.31-.256-.502-.34-.193-.083-.4-.124-.618-.124h-.64c-.22 0-.426.04-.62.125-.19.083-.36.196-.5.34-.143.142-.256.31-.34.503-.082.193-.123.4-.123.62v.33l-1.094-.178v-.09c0-.368.07-.716.21-1.043.138-.33.33-.614.572-.858.243-.244.528-.436.854-.575.325-.14.672-.21 1.04-.21h.64c.367 0 .714.07 1.04.21.326.14.61.33.854.575.243.244.434.53.574.857.14.326.21.674.21 1.043v6.63h-.366zm-.73-4.426h-2.31c-.22 0-.427.042-.62.125-.192.085-.36.2-.502.345-.142.145-.255.315-.338.508-.083.194-.124.4-.124.62v.384c0 .22.04.427.124.62.083.194.196.362.338.504.142.144.31.257.503.34.192.084.398.125.618.125h.73c.22 0 .425-.04.618-.125.193-.083.36-.196.502-.34.143-.14.255-.31.338-.503.083-.193.125-.4.125-.62v-1.98zm6.263-3.667c-.22 0-.426.04-.618.124-.193.083-.36.196-.503.34-.142.142-.255.31-.338.503-.083.194-.124.4-.124.62v6.505h-1.094v-9.137h.364l.596.928c.25-.34.562-.608.938-.807.377-.2.787-.3 1.232-.3h.64v1.223h-1.093zm8.574 8.092l-.606-.928c-.25.34-.56.608-.934.807-.373.2-.783.3-1.227.3h-.276c-.367 0-.714-.07-1.04-.21-.326-.14-.61-.33-.854-.575-.243-.244-.434-.53-.574-.856-.14-.33-.21-.677-.21-1.045v-4.122c0-.37.07-.717.21-1.044.14-.33.33-.614.573-.858.243-.244.528-.436.854-.575.326-.14.673-.21 1.04-.21h.276c.41 0 .788.083 1.138.25.35.166.65.398.9.696v-4.426h1.093v12.795h-.364zm-.73-6.692c0-.22-.042-.427-.125-.62-.083-.193-.196-.36-.338-.504-.142-.143-.31-.256-.503-.34-.192-.083-.398-.124-.618-.124h-.73c-.218 0-.424.04-.617.125-.194.083-.36.196-.503.34-.143.142-.255.31-.338.503-.084.193-.126.4-.126.62v4.247c0 .22.042.427.125.62.082.194.194.362.337.504.142.144.31.257.502.34.192.084.398.125.617.125h.73c.22 0 .425-.04.617-.125.193-.083.36-.196.503-.34.142-.14.255-.31.338-.503.083-.193.124-.4.124-.62V45.65zm14.16 4.185c0 .368-.07.716-.21 1.044-.14.326-.33.61-.573.855-.243.244-.528.436-.854.576-.326.14-.673.21-1.04.21h-.73c-.367 0-.714-.07-1.04-.21-.326-.14-.61-.33-.854-.575-.244-.244-.435-.53-.575-.856-.14-.33-.21-.677-.21-1.045v-4.122c0-.37.07-.717.21-1.044.14-.33.33-.614.574-.858.242-.244.527-.436.853-.575.326-.14.673-.21 1.04-.21h.73c.367 0 .714.07 1.04.21.326.14.61.33.854.575.243.244.434.53.573.857.14.326.21.674.21 1.043v4.122zm-1.095-4.185c0-.22-.04-.427-.124-.62-.082-.193-.195-.36-.337-.504-.142-.143-.31-.256-.502-.34-.192-.083-.398-.124-.618-.124h-.73c-.218 0-.424.04-.617.125-.192.083-.36.196-.502.34-.143.142-.255.31-.338.503-.083.193-.125.4-.125.62v4.247c0 .22.042.427.125.62.083.194.195.362.338.504.142.144.31.257.502.34.193.084.4.125.618.125h.73c.22 0 .425-.04.618-.125.193-.083.36-.196.503-.34.142-.14.255-.31.338-.503.084-.193.125-.4.125-.62V45.65zm6.716-5.06c-.183 0-.353.035-.51.104-.158.068-.296.162-.414.28-.12.12-.212.26-.28.42-.068.16-.103.333-.103.518v1.293h2.126v1.044h-2.127v8.092H85.89V44.25h-1.646v-1.045h1.646v-1.24c0-.333.062-.647.186-.94.125-.296.297-.553.516-.773.22-.22.474-.393.765-.517.29-.125.602-.188.934-.188h1.006v1.044H88.29zm5.533 0c-.183 0-.354.035-.51.104-.158.068-.296.162-.415.28-.118.12-.21.26-.28.42-.068.16-.102.333-.102.518v1.293h2.125v1.044h-2.124v8.092h-1.094V44.25h-1.645v-1.045h1.645v-1.24c0-.333.062-.647.187-.94.123-.296.295-.553.515-.773.22-.22.474-.393.765-.517.29-.125.6-.188.933-.188h1.005v1.044h-1.005zm8.663 9.432c0 .37-.074.706-.222 1.013-.148.306-.35.57-.605.79-.256.22-.55.39-.886.512-.335.122-.686.183-1.053.183h-.73c-.366 0-.718-.07-1.053-.21-.334-.14-.628-.33-.88-.575-.252-.244-.453-.53-.605-.856-.15-.33-.226-.677-.226-1.045v-.366l1.093-.18v.607c0 .22.045.427.137.62.092.194.215.362.37.504.153.144.33.257.533.34.2.084.412.125.63.125h.73c.22 0 .43-.032.632-.098.2-.065.38-.16.538-.28.157-.123.282-.27.373-.443.092-.172.138-.368.138-.588 0-.328-.07-.595-.212-.803-.142-.21-.33-.383-.565-.522-.234-.14-.5-.255-.8-.347-.3-.093-.606-.185-.92-.277-.315-.092-.622-.198-.92-.317-.3-.12-.567-.276-.8-.47-.236-.192-.424-.435-.566-.726-.142-.292-.214-.655-.214-1.09 0-.368.072-.705.214-1.012.142-.306.335-.57.578-.79.243-.22.526-.39.85-.512.322-.122.668-.183 1.035-.183h.64c.368 0 .715.07 1.04.21.327.14.612.33.855.575.243.244.434.53.573.857.14.326.21.674.21 1.043v.035l-1.095.18v-.278c0-.22-.04-.427-.124-.62-.084-.193-.197-.36-.34-.504-.14-.143-.31-.256-.5-.34-.194-.083-.4-.124-.62-.124h-.64c-.22 0-.425.033-.618.098s-.36.16-.502.28c-.143.123-.255.27-.338.443-.083.172-.125.37-.125.59 0 .314.07.57.214.77.143.2.33.368.565.504.235.137.5.252.8.344.3.093.606.188.917.287.31.098.616.21.916.334.3.126.566.287.8.483.234.196.423.442.565.736.142.293.213.658.213 1.092zm7.39 2.32V45.65c0-.22-.04-.427-.123-.62-.083-.193-.196-.36-.338-.504-.142-.143-.31-.256-.502-.34-.193-.083-.4-.124-.62-.124h-.728c-.22 0-.425.04-.618.125-.192.083-.36.196-.502.34-.143.142-.255.31-.338.503-.083.193-.125.4-.125.62v6.692h-1.093V39.547h1.092v4.426c.25-.298.55-.53.9-.696.348-.167.728-.25 1.137-.25h.274c.368 0 .715.07 1.04.21.327.14.612.33.855.575.242.244.433.53.572.857.14.326.21.674.21 1.043v6.63h-1.095zm9.67-2.507c0 .368-.07.716-.21 1.044-.14.326-.33.61-.573.855-.243.244-.528.436-.854.576-.327.14-.674.21-1.042.21h-.73c-.366 0-.713-.07-1.04-.21-.325-.14-.61-.33-.853-.575-.243-.244-.434-.53-.574-.856-.138-.33-.208-.677-.208-1.045v-4.122c0-.37.07-.717.21-1.044.14-.33.33-.614.573-.858.243-.244.528-.436.854-.575.325-.14.672-.21 1.04-.21h.728c.368 0 .715.07 1.04.21.327.14.612.33.855.575.243.244.434.53.573.857.14.326.21.674.21 1.043v4.122zm-1.095-4.185c0-.22-.04-.427-.123-.62-.083-.193-.196-.36-.338-.504-.143-.143-.31-.256-.503-.34-.193-.083-.4-.124-.62-.124h-.728c-.22 0-.426.04-.62.125-.19.083-.36.196-.5.34-.144.142-.256.31-.34.503-.082.193-.124.4-.124.62v4.247c0 .22.042.427.125.62.084.194.196.362.34.504.14.144.31.257.5.34.194.084.4.125.62.125h.728c.22 0 .426-.04.62-.125.19-.083.36-.196.5-.34.143-.14.256-.31.34-.503.082-.193.123-.4.123-.62V45.65zm6.263-1.4c-.22 0-.425.04-.618.124-.193.083-.36.196-.502.34-.143.142-.255.31-.338.503-.083.194-.125.4-.125.62v6.505h-1.094v-9.137h.365l.597.928c.25-.34.562-.608.938-.807.377-.2.787-.3 1.232-.3h.64v1.223h-1.094zm8.94 5.585c0 .368-.07.716-.21 1.044-.14.326-.33.61-.574.855-.244.244-.528.436-.855.576-.326.14-.672.21-1.04.21h-.73c-.367 0-.714-.07-1.04-.21-.326-.14-.61-.33-.853-.575-.243-.244-.435-.53-.574-.856-.14-.33-.21-.677-.21-1.045v-4.122c0-.37.07-.717.21-1.044.14-.33.33-.614.574-.858.243-.244.527-.436.853-.575.326-.14.673-.21 1.04-.21h.73c.368 0 .714.07 1.04.21.327.14.61.33.854.575.242.244.433.53.573.857.14.326.21.674.21 1.043v2.15h-4.99v2.034c0 .22.04.427.124.62.083.194.196.362.338.504.143.144.31.257.503.34.192.084.398.125.618.125h.73c.218 0 .424-.04.617-.125.193-.083.36-.196.503-.34.142-.14.254-.31.337-.503.083-.193.125-.4.125-.62v-.607l1.094.18v.365zM31 28h-9v7h15v-3h-6v-4zm101.558 17.65c0-.22-.042-.427-.125-.62-.083-.193-.195-.36-.337-.504-.143-.143-.31-.256-.503-.34-.193-.083-.4-.124-.618-.124h-.73c-.22 0-.425.04-.617.125-.193.083-.36.196-.503.34-.142.142-.255.31-.338.503-.083.193-.124.4-.124.62v1.356h3.895V45.65zM6 23h15v12H6V23zm12-1h4v5h4L22 0l-4 22zm15 8v-2.954L48 18 35.987 30H33zM0 21h14v1H0v-1zm14 15h15v1H14v-1z"/></svg>