<svg width="133" height="44" viewBox="0 0 133 44" xmlns="http://www.w3.org/2000/svg"><title>novytec</title><g fill="none" fill-rule="evenodd"><path fill="#C1C0BF" d="M0 10.696v22.51l18.758 10.697v-22.51"/><path fill="#A1A09F" d="M18.758 21.393v22.51l19.405-10.695V10.696"/><path fill="#E1E0DF" d="M.06 10.696l18.752 10.69 19.282-10.69L19.077 0"/><path d="M18.758 5.94v7.34l7.115 4.28V33.2l6.468-3.582v-15.58M12.29 32.852l-6.47-3.493.03-21.905 6.44 2.77" fill="#2F72A0"/><path fill="#5584A6" d="M5.82 29.357l6.47 3.494v-7.688L5.82 21.67"/><path fill="#19618F" d="M12.29 10.196v7.425l6.468-4.34V5.94"/><path fill="#5584A6" d="M25.873 25.388V33.2l6.468-3.583v-.143"/><path d="M47.813 26.684c0 .155-.056.29-.168.4-.112.112-.244.167-.4.167-.158 0-.29-.055-.402-.166-.112-.11-.166-.245-.166-.4V16.486c0-.155.056-.29.167-.4.11-.112.246-.167.4-.167.172 0 .318.067.44.204l6.94 8.91v-8.55c0-.154.056-.288.167-.4.113-.112.246-.166.402-.166.157 0 .29.056.402.167.11.11.166.244.166.4v10.197c0 .155-.055.29-.166.4-.112.112-.245.167-.402.167-.165 0-.307-.062-.425-.185l-6.954-8.923v8.542zm22.756-5.1c0 1.562-.555 2.9-1.663 4.005-1.11 1.107-2.447 1.66-4.013 1.66-1.566 0-2.903-.553-4.013-1.66-1.108-1.108-1.662-2.443-1.662-4.006 0-1.562.556-2.897 1.665-4.004 1.108-1.107 2.446-1.66 4.012-1.66 1.565 0 2.903.553 4.012 1.66 1.11 1.108 1.663 2.443 1.663 4.005zm-5.676-4.533c-1.253 0-2.323.446-3.21 1.33-.887.887-1.33 1.954-1.33 3.205 0 1.253.443 2.32 1.33 3.205.887.885 1.957 1.328 3.21 1.328 1.254 0 2.324-.442 3.21-1.327.887-.885 1.33-1.952 1.33-3.204 0-1.25-.443-2.318-1.33-3.203-.886-.886-1.957-1.328-3.21-1.328v-.003zM78.45 27.08c-.113.113-.25.17-.404.17-.156 0-.29-.057-.4-.17-.05-.047-.09-.108-.12-.184l-3.95-10.09c-.05-.11-.072-.216-.072-.32 0-.155.055-.29.166-.4.112-.112.245-.167.4-.167.252 0 .424.107.52.325l3.455 8.874 3.455-8.876c.095-.216.267-.325.518-.325.156 0 .29.054.4.165.11.112.17.245.17.4 0 .104-.026.21-.072.32l-3.952 10.09c-.03.077-.067.138-.114.185zm12.136-.396c0 .155-.055.288-.167.4-.112.112-.246.166-.402.166-.155 0-.29-.056-.4-.167-.11-.11-.17-.245-.17-.4v-4.93l-3.31-4.95c-.063-.094-.094-.2-.094-.32 0-.153.055-.288.166-.4.112-.11.245-.165.4-.165.196 0 .35.077.463.233l2.944 4.406 2.943-4.405c.115-.154.268-.233.462-.233.155 0 .29.055.4.167.112.11.168.244.168.4 0 .118-.03.224-.093.32l-3.313 4.95v4.928h.002v.002zm7.432-9.633c-.155 0-.29-.054-.4-.165-.113-.11-.167-.244-.167-.4 0-.156.057-.29.168-.4.11-.11.244-.167.4-.167h7.38c.155 0 .29.056.4.167.112.11.167.244.167.4 0 .156-.055.29-.167.4-.11.11-.244.167-.4.167h-3.122v9.633c0 .155-.057.29-.168.4-.112.112-.245.166-.4.166-.158 0-.29-.055-.403-.167-.11-.11-.166-.243-.166-.4V17.05h-3.122zm11.975-1.13h6.81c.156 0 .29.054.402.165.112.112.166.245.166.4 0 .157-.054.29-.166.4-.11.112-.245.168-.4.168h-6.245v3.965h4.54c.155 0 .29.056.4.167.112.11.168.244.168.4 0 .156-.056.29-.167.4-.11.11-.244.167-.4.167h-4.54v3.966h6.242c.155 0 .29.056.4.167.113.11.167.245.167.4 0 .155-.056.29-.167.4-.112.11-.246.168-.4.168h-6.813c-.156 0-.29-.056-.4-.168-.11-.11-.17-.243-.17-.4V16.488c0-.155.057-.29.17-.4.11-.112.244-.168.4-.168h.002zm18.763 9.105c.155 0 .29.057.4.168.112.11.167.244.167.4 0 .156-.054.288-.163.397-1.054.84-2.244 1.26-3.568 1.26-1.565 0-2.903-.553-4.012-1.66-1.11-1.108-1.664-2.443-1.664-4.006 0-1.562.556-2.897 1.665-4.004 1.11-1.107 2.447-1.66 4.013-1.66 1.352 0 2.556.432 3.61 1.295.11.113.163.248.163.404 0 .154-.055.288-.166.4-.11.11-.245.166-.4.166-.158 0-.292-.057-.405-.17-.8-.642-1.734-.963-2.802-.963-1.254 0-2.324.443-3.21 1.328-.887.887-1.33 1.955-1.33 3.206 0 1.252.443 2.32 1.33 3.205.886.886 1.957 1.33 3.21 1.33 1.082 0 2.03-.33 2.837-.992.095-.066.203-.1.326-.1v-.003z" fill="#81807F"/><path d="M47.436 35.47l.47-.073c.027.187.1.33.22.43.12.102.288.15.503.15.22 0 .38-.044.484-.13.106-.09.16-.195.16-.314 0-.107-.048-.19-.14-.25-.066-.044-.227-.098-.486-.163-.347-.087-.59-.162-.723-.226-.134-.064-.236-.153-.304-.266-.068-.113-.104-.237-.104-.374 0-.125.028-.24.085-.346.058-.106.136-.194.234-.265.074-.054.175-.1.302-.138.126-.038.264-.056.41-.056.22 0 .41.03.577.094.166.063.29.148.368.256.08.108.135.252.164.432l-.463.065c-.02-.144-.082-.256-.182-.336-.1-.08-.244-.12-.43-.12-.217 0-.372.037-.464.108-.094.07-.14.155-.14.252 0 .062.02.116.057.166.04.052.1.093.183.126.047.017.187.058.42.12.334.09.568.162.7.22.133.058.237.14.312.248.076.11.113.244.113.405 0 .158-.045.306-.138.445-.09.14-.224.248-.398.323-.175.076-.37.115-.59.115-.364 0-.64-.076-.83-.226-.188-.15-.31-.375-.363-.67h-.004zm3.965.834v-2.79h.424v.39c.09-.136.206-.246.352-.33.145-.08.31-.125.498-.125.207 0 .376.042.51.128.13.086.224.206.278.36.22-.326.51-.49.864-.49.278 0 .49.08.64.23.15.154.223.39.223.71v1.917h-.473v-1.76c0-.19-.015-.325-.045-.408-.03-.083-.087-.15-.168-.2-.082-.05-.175-.078-.285-.078-.197 0-.36.065-.49.196-.13.13-.194.34-.194.626v1.622h-.475V34.49c0-.21-.038-.368-.115-.473-.078-.105-.203-.158-.38-.158-.132 0-.255.035-.37.105-.112.07-.194.173-.244.307-.05.135-.077.33-.077.584v1.448H51.4zm7.397-.344c-.176.148-.345.254-.507.316-.162.06-.337.09-.523.09-.307 0-.543-.074-.708-.224-.166-.15-.25-.342-.25-.574 0-.136.032-.262.095-.375.062-.113.143-.204.244-.27.1-.068.214-.122.34-.156.093-.026.233-.05.42-.07.384-.046.665-.102.847-.165l.002-.123c0-.194-.046-.33-.135-.41-.12-.106-.3-.16-.54-.16-.225 0-.39.04-.495.117-.107.078-.185.217-.236.415l-.462-.063c.042-.2.11-.36.208-.482.097-.122.236-.215.418-.28.183-.065.395-.097.634-.097.24 0 .434.028.583.085.15.055.258.125.33.21.07.086.118.193.147.323.015.08.024.226.024.436v.632c0 .44.01.718.03.834.02.116.06.228.12.336h-.495c-.05-.1-.08-.213-.094-.346zm-.04-1.057c-.172.07-.43.13-.774.178-.194.03-.333.06-.414.096-.08.035-.143.087-.187.154-.044.068-.066.142-.066.226 0 .126.048.23.143.316.096.084.236.126.42.126.182 0 .345-.04.487-.12.142-.08.246-.19.313-.328.052-.106.077-.265.077-.472v-.175zm2.287 1.4v-2.79h.427v.422c.11-.197.21-.33.302-.39.092-.064.194-.096.304-.096.16 0 .322.05.487.152l-.163.44c-.114-.07-.23-.105-.346-.105-.103 0-.197.033-.28.095-.082.06-.142.148-.176.258-.053.168-.08.352-.08.552v1.46h-.474v.002zm3.915-.422l.068.418c-.134.03-.253.043-.36.043-.172 0-.305-.026-.4-.08-.094-.054-.162-.127-.2-.215-.04-.09-.06-.275-.06-.56v-1.604h-.346v-.367h.347v-.69l.472-.285v.975h.476v.368h-.476v1.632c0 .136.008.222.025.26.018.04.044.07.082.092.036.023.09.034.16.034.052 0 .122-.005.208-.017zm3.94-.972c0-.516.146-.9.433-1.15.24-.205.532-.31.88-.31.382 0 .698.128.94.38.244.25.367.597.367 1.04 0 .36-.054.643-.162.85-.108.205-.265.364-.472.478-.205.113-.43.17-.674.17-.392 0-.71-.124-.95-.375-.242-.25-.362-.61-.362-1.082zm.488 0c0 .358.078.625.235.804.157.178.353.267.59.267.235 0 .43-.09.587-.27.156-.178.235-.45.235-.816 0-.346-.08-.607-.236-.785-.16-.18-.354-.268-.588-.268-.24 0-.433.088-.59.265-.156.176-.235.444-.234.8zm5.6 1.395v-.41c-.217.317-.513.474-.887.474-.162 0-.317-.032-.46-.095-.143-.063-.25-.142-.318-.24-.07-.094-.12-.21-.146-.35-.02-.092-.03-.24-.03-.44v-1.73h.475v1.548c0 .247.01.413.03.5.03.123.093.22.19.292.096.07.215.105.358.105.142 0 .275-.036.4-.11.125-.072.213-.17.265-.297.05-.126.077-.306.077-.545V33.51h.474v2.79h-.424v.002zm3.28-.422l.07.418c-.136.03-.256.043-.36.043-.173 0-.306-.026-.402-.08-.096-.054-.162-.127-.2-.215-.038-.09-.057-.275-.057-.56v-1.604h-.348v-.367h.348v-.69l.472-.285v.975h.476v.368h-.477v1.632c0 .136.01.222.026.26.017.04.044.07.082.092.04.023.093.034.162.034.054 0 .123-.005.21-.017h-.002zm1.352-.41l.47-.073c.025.187.098.33.22.43.12.1.287.15.503.15.218 0 .38-.045.485-.132.105-.09.158-.193.158-.312 0-.107-.046-.19-.138-.252-.065-.042-.227-.096-.485-.16-.347-.088-.59-.163-.723-.226-.134-.065-.237-.153-.306-.266-.07-.113-.103-.238-.103-.375 0-.124.03-.24.086-.346.056-.106.133-.194.233-.265.07-.053.172-.1.3-.137.127-.038.263-.057.41-.057.22 0 .41.032.577.095.166.063.288.148.37.256.076.11.13.25.16.432l-.463.064c-.02-.144-.082-.255-.182-.335-.1-.08-.243-.12-.428-.12-.217 0-.372.036-.466.108-.093.07-.14.155-.14.252 0 .062.02.116.06.165.038.052.098.093.18.126.048.02.188.06.42.122.336.09.568.16.7.22.134.058.238.138.313.248.076.108.114.243.114.404 0 .158-.045.306-.138.446-.09.14-.224.247-.398.323-.174.076-.37.114-.59.114-.362 0-.64-.076-.83-.226-.19-.15-.313-.374-.367-.67zm3.788-.562c0-.517.145-.9.434-1.15.24-.206.533-.31.88-.31.383 0 .698.127.94.378.245.252.367.6.367 1.042 0 .36-.055.642-.162.848-.108.206-.266.366-.473.48-.207.113-.43.17-.675.17-.39 0-.707-.125-.95-.375-.238-.25-.36-.612-.36-1.082h-.002zm.488 0c0 .357.078.625.235.803.158.18.354.268.59.268.235 0 .43-.09.587-.268.156-.18.235-.452.235-.817 0-.345-.08-.607-.237-.785-.157-.178-.353-.267-.586-.267-.24 0-.434.09-.592.266-.156.177-.234.444-.234.802h.002zm5.6 1.394v-.41c-.218.317-.514.474-.887.474-.167 0-.32-.032-.464-.095-.143-.06-.25-.14-.318-.238-.07-.094-.12-.21-.147-.35-.018-.093-.027-.24-.027-.442v-1.73h.474v1.55c0 .246.01.413.028.498.03.125.092.222.188.293.096.072.217.106.36.106.14 0 .275-.036.4-.11.124-.072.212-.17.264-.296.052-.126.078-.306.078-.545V33.51h.474v2.79h-.426v.002zm2.24 0v-2.79h.427v.423c.108-.198.208-.33.3-.39.093-.065.195-.096.305-.096.16 0 .323.05.487.15l-.163.44c-.114-.068-.23-.103-.346-.103-.103 0-.197.032-.28.094-.082.063-.142.15-.175.26-.05.167-.078.352-.078.55v1.462h-.476zm4.705-1.02l.466.06c-.05.32-.18.57-.39.752-.21.18-.467.272-.773.272-.383 0-.69-.125-.923-.374-.232-.25-.35-.607-.35-1.074 0-.3.053-.565.152-.79.1-.227.252-.398.456-.51.205-.114.427-.17.668-.17.304 0 .552.077.745.23.194.153.318.37.372.653l-.46.072c-.045-.187-.122-.33-.234-.423-.11-.095-.245-.143-.403-.143-.24 0-.434.086-.582.257-.15.17-.224.44-.224.81 0 .375.07.648.215.818.145.17.332.255.565.255.186 0 .34-.057.465-.17.124-.115.203-.292.237-.527zm1.954-2.288v-.544h.474v.545h-.475zm0 3.31V33.51h.474v2.792h-.475zm2.274 0V33.51h.427v.398c.205-.306.502-.458.89-.458.168 0 .323.03.463.09.142.06.247.14.317.24.07.1.12.212.147.348.018.087.026.24.026.458v1.718h-.473v-1.698c0-.193-.02-.337-.056-.432-.037-.097-.103-.173-.197-.23-.094-.056-.204-.085-.33-.085-.202 0-.376.064-.524.19-.148.128-.22.37-.22.73V36.3h-.474v.002h.002zm3.99.23l.46.07c.02.14.074.244.162.31.116.086.278.13.48.13.22 0 .39-.044.51-.13.12-.09.2-.212.242-.37.024-.096.035-.298.033-.606-.207.243-.466.365-.774.365-.384 0-.68-.14-.892-.416-.21-.276-.317-.61-.317-.996 0-.265.05-.51.146-.736.098-.224.237-.398.42-.52.183-.123.4-.185.646-.185.33 0 .602.132.817.4v-.338h.436v2.413c0 .434-.044.742-.133.923-.088.18-.23.325-.42.43-.19.105-.43.157-.71.157-.333 0-.604-.075-.81-.225-.204-.15-.303-.374-.296-.676h.002zm.393-1.677c0 .365.072.633.218.8.145.17.328.253.548.253.217 0 .4-.083.548-.25.146-.17.222-.43.222-.788 0-.342-.076-.6-.228-.773-.15-.175-.334-.26-.548-.26-.21 0-.39.084-.537.256-.15.172-.222.426-.222.76z" fill="#666"/></g></svg>