<svg width="96" height="54" viewBox="0 0 96 54" xmlns="http://www.w3.org/2000/svg"><title>nuwbii</title><defs><linearGradient x1="-7.112%" y1="55.206%" x2="95.916%" y2="42.382%" id="a"><stop stop-color="#43ADE3" offset="0%"/><stop stop-color="#2679B6" offset="100%"/></linearGradient><linearGradient x1="100%" y1="49.995%" x2="0%" y2="49.995%" id="b"><stop stop-color="#43ADE3" offset="0%"/><stop stop-color="#2679B6" offset="100%"/></linearGradient></defs><g fill="none" fill-rule="evenodd"><path fill="url(#a)" d="M0 15.612l13.8-4.982L9.584 0" transform="translate(24)"/><path fill="url(#b)" d="M47.798 11L34 15.98l4.214 10.634" transform="translate(24)"/><path d="M63.398 25.147l-.015-.03c-.024-.055-.05-.107-.08-.16l-11.77-23.55C51.262.59 50.494 0 49.586 0h-14.54C33.918 0 33 .914 33 2.044c0 .267.052.523.147.76l.003.006c.037.093.083.182.134.27L45.15 26.87c.337.67 1.028 1.13 1.83 1.13h14.535c1.133 0 2.05-.915 2.05-2.045-.003-.288-.062-.56-.168-.807z" fill="#509ED7"/><path d="M14.558 51.68l-7.99-11.53v11.53H3V34h3.668l7.764 11.108V34.002H18v17.68h-3.443v-.002zm7.41-7.05V34h3.745v10.497c0 2.465 1.406 4.162 4.086 4.162 2.68 0 4.06-1.697 4.06-4.162V34h3.77v10.603c0 4.4-2.55 7.397-7.83 7.397-5.282 0-7.832-3.022-7.834-7.37h.002zm32.34 7.05l-3.044-12.14-3.017 12.14H44.32l-4.97-17.678h4.137l3.045 12.774L49.835 34h2.89l3.28 12.776L59.02 34h4.166l-4.943 17.68h-3.936zm10.694 0V34h8.837c3.197 0 4.833 2.147 4.833 4.505 0 2.227-1.31 3.712-2.896 4.056C77.565 42.853 79 44.683 79 46.91c0 2.65-1.688 4.77-4.885 4.77H65l.002.003zM75.28 39.17c0-1.115-.78-1.937-2.03-1.937h-4.63v3.843h4.63c1.25.002 2.03-.793 2.03-1.907zm.338 7.21c0-1.115-.78-2.07-2.236-2.07h-4.76v4.11h4.76c1.404 0 2.237-.767 2.237-2.04h-.002zM82 52V34h4v18h-4V52zm7 0V34h4v18h-4V52z" fill="#3D3D3D"/></g></svg>