<svg xmlns="http://www.w3.org/2000/svg" width="140" height="60" viewBox="0 0 140 60"><g fill="none" fill-rule="evenodd"><path fill="#44627B" d="M27.997 31.292c0-1.5.225-2.76.674-3.776.336-.75.793-1.423 1.372-2.02.58-.595 1.215-1.037 1.905-1.325.918-.388 1.976-.582 3.175-.582 2.17 0 3.908.673 5.21 2.02 1.304 1.345 1.955 3.217 1.955 5.614 0 2.377-.646 4.237-1.94 5.58-1.292 1.343-3.02 2.014-5.185 2.014-2.19 0-3.932-.668-5.225-2.004-1.293-1.336-1.94-3.176-1.94-5.52zm3.065-.1c0 1.667.386 2.93 1.156 3.792.77.86 1.75 1.29 2.934 1.29 1.186 0 2.16-.426 2.92-1.28.76-.854 1.14-2.135 1.14-3.842 0-1.688-.37-2.947-1.11-3.777-.74-.83-1.724-1.246-2.95-1.246-1.226 0-2.214.42-2.964 1.26-.75.84-1.126 2.108-1.126 3.802zm12.995-3.295h2.633v1.567c.34-.535.803-.97 1.386-1.306.583-.334 1.23-.502 1.94-.502 1.24 0 2.29.486 3.155 1.457.866.97 1.298 2.323 1.298 4.058 0 1.782-.436 3.167-1.307 4.154-.87.988-1.925 1.482-3.164 1.482-.59 0-1.124-.117-1.603-.352-.48-.234-.983-.636-1.513-1.205v5.373h-2.823V27.897zm2.793 5.153c0 1.2.238 2.085.714 2.657.475.573 1.055.86 1.738.86.657 0 1.203-.264 1.638-.79.436-.525.654-1.387.654-2.586 0-1.117-.225-1.948-.674-2.49-.45-.543-1.005-.814-1.668-.814-.69 0-1.263.266-1.718.8-.456.53-.684 1.32-.684 2.364zm15.587 2.12l2.814.472c-.36 1.03-.932 1.816-1.712 2.355-.78.54-1.757.81-2.93.81-1.855 0-3.23-.607-4.12-1.82-.703-.97-1.055-2.196-1.055-3.676 0-1.766.462-3.15 1.387-4.152.924-1 2.093-1.502 3.507-1.502 1.588 0 2.84.524 3.758 1.572.918 1.048 1.357 2.654 1.317 4.817h-7.075c.02.837.248 1.488.683 1.953.436.466.98.7 1.628.7.443 0 .814-.122 1.116-.363.3-.24.53-.63.683-1.165zm.16-2.853c-.02-.817-.23-1.438-.632-1.863-.402-.426-.89-.638-1.467-.638-.617 0-1.126.224-1.528.673-.402.447-.6 1.057-.593 1.827h4.22zm14.362 6.248h-2.825V33.12c0-1.15-.06-1.896-.18-2.234-.12-.34-.317-.6-.59-.79-.27-.186-.596-.28-.978-.28-.49 0-.928.134-1.317.402-.388.267-.655.622-.8 1.064-.143.442-.215 1.26-.215 2.45v4.833H67.23V27.897h2.624v1.567c.93-1.205 2.104-1.808 3.517-1.808.625 0 1.194.112 1.71.337.516.224.906.51 1.17.86.265.347.45.742.553 1.184.104.442.156 1.075.156 1.898v6.63zm2.29 0V23.84h2.825v5.303c.87-.99 1.902-1.487 3.095-1.487 1.3 0 2.375.47 3.226 1.41.85.942 1.276 2.293 1.276 4.055 0 1.822-.434 3.225-1.3 4.21-.87.984-1.923 1.476-3.162 1.476-.61 0-1.21-.152-1.804-.457-.593-.306-1.104-.756-1.532-1.352v1.567H79.25zM82.056 33c0 1.105.174 1.922.522 2.45.49.75 1.14 1.126 1.95 1.126.623 0 1.154-.266 1.593-.8.438-.53.658-1.37.658-2.515 0-1.218-.22-2.096-.663-2.636-.443-.54-1.01-.808-1.7-.808-.676 0-1.238.263-1.687.788-.45.526-.673 1.325-.673 2.396zm16.46 5.565v-1.597c-.388.57-.9 1.018-1.532 1.346-.633.328-1.3.492-2.005.492-.716 0-1.36-.157-1.93-.472-.568-.315-.98-.757-1.235-1.326-.255-.57-.382-1.356-.382-2.36v-6.75h2.825v4.9c0 1.5.052 2.42.156 2.758.105.34.294.607.568.804.275.198.624.296 1.046.296.482 0 .914-.132 1.296-.396.382-.265.643-.593.784-.985.14-.392.21-1.35.21-2.878v-4.5h2.825v10.668h-2.624zm14.402-7.514l-2.784.504c-.093-.556-.306-.975-.638-1.256-.33-.28-.762-.422-1.29-.422-.705 0-1.266.243-1.684.728-.418.486-.627 1.298-.627 2.436 0 1.266.212 2.16.638 2.682.426.523.997.784 1.714.784.536 0 .975-.153 1.317-.457.342-.306.583-.83.724-1.573l2.774.472c-.288 1.27-.84 2.232-1.658 2.882-.818.65-1.913.974-3.287.974-1.56 0-2.805-.492-3.733-1.477-.928-.985-1.392-2.348-1.392-4.09 0-1.76.466-3.13 1.397-4.112.93-.98 2.19-1.472 3.78-1.472 1.298 0 2.332.28 3.1.84.766.558 1.317 1.41 1.652 2.555zm1.588 7.515V23.84h2.824v7.814l3.305-3.757h3.477l-3.647 3.898 3.91 6.77h-3.046l-2.684-4.792-1.317 1.377v3.415h-2.825zm10.1-3.044l2.834-.43c.12.548.364.965.733 1.25.368.285.884.427 1.547.427.73 0 1.28-.134 1.65-.402.246-.187.37-.44.37-.753 0-.215-.067-.392-.2-.533-.14-.135-.456-.258-.945-.372-2.278-.503-3.722-.96-4.332-1.376-.844-.576-1.266-1.377-1.266-2.4 0-.925.365-1.702 1.096-2.332.73-.63 1.862-.944 3.396-.944 1.46 0 2.545.238 3.255.713s1.2 1.178 1.468 2.11l-2.664.49c-.114-.414-.33-.732-.65-.953-.317-.22-.77-.332-1.36-.332-.744 0-1.277.104-1.598.312-.215.147-.322.338-.322.572 0 .2.094.37.282.51.254.19 1.133.453 2.637.795s2.554.76 3.15 1.256c.59.503.884 1.203.884 2.1 0 .978-.408 1.818-1.226 2.52-.817.704-2.026 1.056-3.628 1.056-1.453 0-2.604-.295-3.45-.884-.85-.59-1.403-1.39-1.665-2.4zm13.31-3.478c1.04 0 1.882-.842 1.882-1.88 0-1.04-.843-1.883-1.882-1.883-1.04 0-1.883.84-1.883 1.88s.843 1.882 1.883 1.882zm0-.25c.9 0 1.63-.73 1.63-1.63 0-.902-.73-1.632-1.63-1.632-.9 0-1.632.73-1.632 1.63 0 .9.73 1.63 1.632 1.63zm-.628-.835v-1.675H138c.178 0 .308.015.39.046.08.03.145.083.194.16.05.077.073.165.073.264 0 .125-.037.23-.11.31-.075.083-.185.134-.332.156.073.042.133.09.18.14.05.05.113.142.193.272l.205.327h-.404l-.246-.365c-.087-.13-.146-.212-.178-.246s-.066-.057-.102-.07c-.036-.012-.092-.018-.17-.018h-.07v.7h-.337zm.338-.966h.25c.163 0 .264-.006.304-.02.04-.014.07-.037.094-.07.023-.034.035-.076.035-.126 0-.057-.017-.102-.047-.137-.03-.035-.072-.056-.127-.066-.027-.002-.11-.004-.247-.004h-.265v.425z"/><path fill="#FFC000" d="M24 31c0-6.627-5.373-12-12-12C6.225 19 1.403 23.08.258 28.513H5.64s.4-1.145.834-1.768c.652-.94 1.546-1.698 2.7-2.2 1.863-.807 3.672-.66 5.257.066.29.132.547.274.773.418.145.093.254.17.325.227.544.43.63 1.213.193 1.748-.436.535-1.232.62-1.775.19-.006-.005-.046-.033-.115-.077-.132-.084-.288-.17-.465-.25-.975-.448-2.043-.534-3.17-.045-.708.308-1.24.76-1.634 1.327-.268.388-.458.808-.58 1.23-.07.242-.1.417-.107.487C7.817 30.506 7.27 31 6.613 31H0c0 6.627 5.373 12 12 12 5.82 0 10.67-4.142 11.768-9.638h-5.16s-.288 1.086-.622 1.703c-.584 1.076-1.484 1.934-2.73 2.453-1.834.764-3.723.563-5.48-.206-.334-.147-.637-.303-.906-.462-.17-.1-.294-.18-.373-.237-.55-.393-.66-1.133-.245-1.654.416-.522 1.2-.626 1.75-.233l.032.02c.044.03.097.063.16.1.184.108.397.218.633.322 1.165.51 2.346.635 3.42.187.692-.288 1.18-.753 1.513-1.368.207-.384.343-.805.418-1.23.027-.152.044-.293.053-.42.006-.073.008-.124.008-.14-.012-.66.55-1.2 1.25-1.2H24z"/></g></svg>