<svg width="88" height="28" viewBox="0 0 88 28" xmlns="http://www.w3.org/2000/svg"><title>quepro</title><g fill="#32C99E" fill-rule="evenodd"><path d="M16.71 26.17c.63-.11.594.182.37.44-1.22 1.575-3.702 1.648-5.518 1.025-3.963-1.32-6.333-4.73-11.15-3.63-.368.074-.517-.146-.332-.403.667-.88 2.074-1.466 4-1.393h.26c-1.815-1.358-2.592-3.557-2.592-5.94C1.785 8.462 8.638 1.79 12.71.397c2.224-.77 4.04-.366 5.112.734 4.483 1.98 3.41 9.13.705 14.188-2.37 4.4-5.89 7.99-9.78 8.175 2.816 1.392 5.41 3.188 7.965 2.676zm.334-24.233c-1.815-.733-6.445 1.797-9.927 7.15-3.52 5.388-3.594 11.546-1.112 12.646 2.445 1.1 6.78-1.87 9.816-7.44 3.334-6.087 3.26-11.55 1.223-12.356zm4.704 21.446c-2.63-.183-2.704-2.896-1.89-5.316.817-2.42 2.705-6.012 5.113-9.348.298-.405.668-.367.964-.037.816 1.21.63 2.86-.703 4.948-1.37 2.165-2.11 3.63-2.888 5.39-.777 1.797-.666 3.117.185 3.19 1.445.11 3.482-2.455 5.483-5.645 2.334-3.74 3.408-6.27 4.593-7.846.37-.513.63-.587.926-.22.556.66.852 2.272-.037 4.105-.816 1.65-2.667 4.4-3.518 6.27-.964 2.088-.816 3.628.518 3.555 1.555-.073 3.445-2.493 4.89-5.06.184-.328.518-.365.666-.035.147.294.184 1.283-.334 2.31-1.074 2.052-3.37 3.922-5.556 3.922-2.408 0-3.37-1.502-3.074-3.63-1.3 1.723-3.262 3.593-5.336 3.446h-.002z"/><path d="M39.86 22.43c3.075.146 5.78-2.786 7.372-5.206.185-.293.482-.293.63.037.148.294.037 1.32-.63 2.273-1.555 2.237-4.407 3.923-7.26 3.96-4.703.073-6.333-4.51-3.926-9.238 2.407-4.73 6.186-6.635 8.038-5.572.926.55 1.593 1.1 2.186 1.906.666.88.37 3.115-1.186 4.986-1.816 2.2-4.297 3.152-6.89 1.062-1.184 3.372-.296 5.68 1.668 5.79v.002zm3.075-8.433c1.185-1.54 2-3.446 1.482-3.848-.777-.624-3.852 1.575-5.593 5.058-.11.22-.223.44-.296.623 1.814 1.137 3.333-.44 4.408-1.832z"/><path d="M51.935 2.707c-.185-.403-.11-.623.37-.66 3.075-.33 5.853-1.87 8.372-1.98 1.888-.072 3.518.515 4.407 3.044.777 2.2.148 4.327-1.112 6.27-1.85 2.86-5.852 5.61-10.704 6.525-.852.147-1.667 0-2.296-.366-1.037 2.015-2.148 4.434-3.444 7.477-.15.366-.334.366-.593.11-.52-.55-.89-1.65-.333-3.63.962-3.335 4.444-10.227 7.666-15.25-1.258-.147-1.963-.77-2.332-1.54zm11.557.733c-.778-2.016-4.482-.11-6.927.587 0 .99-.37 2.272-1.407 4.033-.962 1.685-2 3.372-3.11 5.425C60.342 11.945 64.49 6.007 63.49 3.44zM85.9 15.5c-.778 3.117-3.11 6.82-5.852 7.736-1.334.44-3.186.294-4.667-1.613-1.628-2.127-1.073-5.316.593-8.248 1.41-2.493 3.668-4.62 5.89-4.766 1.15-.074 1.778.255 2.52 1.245.85 1.137 1.962 1.393 1.74 4.034-.038.29-.038.548-.075.84.222 0 .444-.073.74-.073.26 0 .26.184.11.367-.257.293-.628.44-.998.476zm-3.148-.915c-.778-.587-1.667-1.87-1.704-3.226-1 .842-2.075 2.052-2.852 3.446-1.556 2.785-2.112 6.158-1.15 6.964 1.038.843 3.298-.44 5.112-3.812.557-1.027 1-2.053 1.297-2.933-.26-.11-.48-.257-.703-.44zm1.26-3.263c-.186-1.173-.927-.953-1.112.11-.186.99.22 2.054.814 2.604.296-1.137.408-2.054.296-2.713z"/><path d="M75.233 17.737c-.148-.293-.37-.256-.518.038-1.186 2.638-2.964 4.91-4.408 4.838-1.074-.036-1.52-1.466-.926-3.372.594-1.905 2.41-4.215 4.075-6.084 1.074-1.21.185-2.823-.52-3.593-.258-.293-.554-.22-1 .073-1.37.953-2.628 1.54-3.813 1.687.926-2.31 1.223-4.436.074-4.4-1.37.037-4.593 4.363-2.482 5.72-.01.012.59.344 1.667.366 1.112 0 2.705-.33 4.335-1.394-1.482 1.687-3.63 4.29-4.445 6.71-.926 2.748.148 5.168 2.815 5.278 1.963.073 4.112-1.466 4.964-3.593.406-.99.37-1.87.184-2.273z"/></g></svg>