<svg width="162" height="32" viewBox="0 0 162 32" xmlns="http://www.w3.org/2000/svg" xmlns:xlink="http://www.w3.org/1999/xlink"><title>shopbeam</title><defs><path d="M16.005 0C7.165 0 0 7.163 0 16c0 8.835 7.166 16 16.005 16 8.838 0 16.005-7.165 16.005-16 0-8.837-7.165-16-16.005-16z" id="a"/></defs><g fill="none" fill-rule="evenodd"><mask id="b" fill="#fff"><use xlink:href="#a"/></mask><use fill="#323232" xlink:href="#a"/><path fill="#262626" mask="url(#b)" d="M13.04 7.955L-6.692 19.192l16.19 21.276 11.098-17.986"/><path d="M13 18.616c-.227-.142-.444-.3-.65-.466-.043-.034-.08-.076-.12-.112-.162-.138-.32-.28-.468-.434-.035-.037-.066-.08-.1-.12-.145-.158-.287-.32-.414-.494-.032-.042-.057-.09-.087-.133-.122-.175-.24-.353-.346-.54-.003-.007-.006-.01-.01-.015h.003c-.504-.91-.795-1.952-.795-3.064 0-3.503 2.84-6.342 6.343-6.342 1.94 0 3.662.88 4.825 2.25l.006-.005c.068.08.127.17.192.254.078.1.16.197.228.302.145.214.28.435.397.665v.002c.002.007.007.014.01.02L13 18.616z" fill="#0095D4"/><path d="M15.505 24.95c-2.474 0-4.612-1.42-5.657-3.484l9.012-8.23c1.792 1.12 2.988 3.106 2.988 5.374 0 3.5-2.84 6.34-6.343 6.34z" fill="#0095D4"/><path d="M21.915 10.34c-.116-.23-.25-.45-.393-.662-.072-.104-.15-.2-.227-.3-.064-.084-.13-.167-.197-.247l-10.296 7.104c.002.006.005.01.008.015.104.185.222.36.344.537.028.043.056.09.086.13.126.172.267.334.41.493.035.038.065.08.1.12.146.152.305.29.463.43.04.034.078.074.12.11.205.168.42.322.646.463l8.722-7.966.213-.228z" fill="#59BCE6"/><path d="M36.618 20.63c1.09.66 2.682 1.21 4.357 1.21 2.485 0 3.937-1.292 3.937-3.164 0-1.736-1.006-2.726-3.547-3.69-3.073-1.075-4.973-2.642-4.973-5.26 0-2.89 2.43-5.037 6.09-5.037 1.927 0 3.323.44 4.164.906l-.67 1.956c-.616-.332-1.873-.882-3.577-.882-2.57 0-3.548 1.513-3.548 2.78 0 1.735 1.145 2.587 3.74 3.578C45.78 14.24 47.4 15.754 47.4 18.48c0 2.863-2.15 5.342-6.594 5.342-1.816 0-3.8-.523-4.806-1.184l.618-2.008zM50.778 4h2.46v8.315h.055c.392-.69 1.008-1.294 1.76-1.707.727-.413 1.593-.688 2.515-.688 1.816 0 4.722 1.1 4.722 5.698v7.93h-2.46v-7.653c0-2.148-.81-3.964-3.128-3.964-1.593 0-2.85 1.1-3.296 2.425-.14.33-.168.688-.168 1.156v8.04h-2.46V4zm27.88 12.775c0 4.928-3.464 7.077-6.733 7.077-3.658 0-6.48-2.644-6.48-6.856 0-4.46 2.962-7.078 6.705-7.078 3.88.002 6.507 2.782 6.507 6.857zm-10.728.138c0 2.918 1.706 5.12 4.108 5.12 2.347 0 4.105-2.174 4.105-5.176 0-2.258-1.145-5.122-4.05-5.122-2.906.002-4.163 2.645-4.163 5.178zm13.966-2.34c0-1.706-.055-3.085-.112-4.35h2.207l.113 2.285h.055c1.008-1.625 2.6-2.587 4.806-2.587 3.27 0 5.726 2.727 5.726 6.773 0 4.79-2.96 7.16-6.144 7.16-1.788 0-3.354-.77-4.164-2.094h-.055V29h-2.43V14.572zm2.43 3.55c0 .36.056.69.113.992.446 1.68 1.925 2.836 3.687 2.836 2.598 0 4.107-2.092 4.107-5.147 0-2.672-1.425-4.956-4.023-4.956-1.674 0-3.238 1.184-3.714 3-.082.303-.167.663-.167.993l-.003 2.284zm13.49 5.425c.057-.907.113-2.257.113-3.44V4h2.43v8.37h.055c.865-1.487 2.43-2.45 4.61-2.45 3.352 0 5.724 2.755 5.698 6.8 0 4.764-3.045 7.133-6.062 7.133-1.955 0-3.52-.744-4.524-2.505h-.084l-.11 2.202-2.125-.002zm2.544-5.34c0 .3.055.605.11.88.476 1.68 1.9 2.834 3.69 2.834 2.568 0 4.106-2.065 4.106-5.12 0-2.672-1.397-4.956-4.022-4.956-1.675 0-3.24 1.13-3.742 2.973-.057.275-.14.605-.14.99l-.002 2.397zm14.97-.882c.056 3.277 2.18 4.626 4.637 4.626 1.76 0 2.82-.303 3.743-.69l.42 1.737c-.868.384-2.347.824-4.5.824-4.16 0-6.647-2.698-6.647-6.718s2.402-7.186 6.34-7.186c4.414 0 5.587 3.827 5.587 6.277 0 .496-.055.882-.082 1.13h-9.497zm7.21-1.735c.027-1.54-.644-3.935-3.41-3.935-2.486 0-3.577 2.256-3.772 3.936h7.18zm13.043 7.958l-.195-1.68h-.084c-.754 1.047-2.207 1.983-4.135 1.983-2.738 0-4.135-1.9-4.135-3.826 0-3.223 2.904-4.983 8.13-4.956v-.276c0-1.1-.307-3.084-3.074-3.084-1.256 0-2.568.385-3.52.99l-.558-1.596c1.117-.717 2.737-1.185 4.443-1.185 4.133 0 5.14 2.78 5.14 5.453v4.984c0 1.157.055 2.285.223 3.193h-2.235zm-.364-6.8c-2.682-.056-5.726.412-5.726 3 0 1.57 1.06 2.31 2.32 2.31 1.76 0 2.877-1.098 3.268-2.23.083-.247.138-.523.138-.768v-2.313zm6.48-2.92c0-1.376-.03-2.504-.113-3.606h2.15l.112 2.148h.083c.754-1.267 2.01-2.45 4.246-2.45 1.842 0 3.24 1.1 3.827 2.67h.055c.42-.743.95-1.322 1.508-1.734.812-.607 1.705-.936 2.988-.936 1.788 0 4.442 1.156 4.442 5.783v7.845h-2.402v-7.545c0-2.56-.95-4.102-2.933-4.102-1.397 0-2.486 1.02-2.905 2.203-.112.33-.195.77-.195 1.212v8.232h-2.403v-7.984c0-2.12-.95-3.66-2.82-3.66-1.537 0-2.655 1.21-3.046 2.423-.14.358-.195.77-.195 1.184v8.038h-2.4v-9.72z" fill="#0096D5"/></g></svg>