<svg width="132" height="36" viewBox="0 0 132 36" xmlns="http://www.w3.org/2000/svg"><title>slush</title><path d="M59.89 28L63 0h-8l-4 36h8l.25-2.25L65 28h-5.11zm54.554-14L116 0h-8l-4 36h8l1.556-14H119l1-8h-5.556zM31 0h8l-4 36h-8l4-36zm38 0h8l-4 36h-8l4-36zm55 0h8l-4 36h-8l4-36zM37 28h11l-1 8H36l1-8zM14.083 0H26l-1.083 8H13l1.083-8zm77 0H103l-1.083 8H90l1.083-8zm-90 28H13l-1.083 8H0l1.083-8zm77 0H90l-1.083 8H77l1.083-8zm-62-13H24l-1.083 14L14 36l2.083-21zm77 0H101l-1.083 13L91 35l2.083-20zm-90-7L11 1 9.917 16h3.69l-3.69 6H2L3.083 8zm77 0L88 1l-1.083 15h3.69l-3.69 6H79l1.083-14z" fill="#000" fill-rule="evenodd"/></svg>