<svg width="152" height="38" viewBox="0 0 152 38" xmlns="http://www.w3.org/2000/svg"><title>softcube</title><g fill="none" fill-rule="evenodd"><path d="M23.712.993c3.944 1.06 7.893 2.105 11.838 3.158 1.7.455 2.674 1.946 2.406 3.724-.682 4.507-1.434 9.002-2.39 13.457-.23 1.068-.467 2.13-.796 3.17-.397 1.254-1.056 2.385-1.598 3.57-1.202 2.628-2.43 5.244-3.652 7.862-.48 1.03-1.23 1.734-2.326 2.017-.02.005-1.178.05-1.178.05-3.054-.414-6.08-1-9.118-1.514-3.856-.65-7.71-1.32-11.57-1.95-1.59-.258-2.508-1.215-3.062-2.67-.417-1.096-.502-2.254-.636-3.403-.315-2.718-.573-5.444-.82-8.17-.2-2.202-.39-4.404-.562-6.608-.105-1.36-.167-2.717-.21-4.08V8.83c-.02-.16.045-.33-.038-.486V6.72c.337-1.626 1.28-2.627 2.88-2.956.417-.086.83-.195 1.244-.293 3.075-.728 6.15-1.465 9.224-2.2C14.92.896 16.496.527 18.068.136c.265-.066.543-.052.806-.136.476.004.95.004 1.43.004 1.11.41 2.265.682 3.408.99zm26.556 23.944c.766.686 1.535 1.22 2.43 1.56 1.084.41 2.198.543 3.343.338.174-.03.345-.082.51-.14 1.45-.523 1.81-2.018.752-3.136-.755-.8-1.746-1.227-2.71-1.69-.845-.404-1.666-.835-2.39-1.44-1.55-1.294-2.09-2.98-1.97-4.94.143-2.35 1.5-4.14 3.83-4.84 2.287-.687 4.583-.58 6.844.185.182.062.34.115.338.375-.014 1.22-.01 2.44-.01 3.66 0 .03-.017.064-.028.1-.153.014-.23-.103-.332-.165-1.543-.937-3.188-1.38-4.986-.937-.718.177-1.303.568-1.53 1.32-.208.692.018 1.286.507 1.792.643.665 1.463 1.063 2.278 1.462.758.372 1.51.75 2.217 1.217 1.95 1.29 2.762 3.106 2.607 5.408-.077 1.13-.348 2.18-1.04 3.094-.88 1.17-2.108 1.768-3.517 2.024-2.148.39-4.27.302-6.33-.48-.817-.31-.813-.322-.813-1.172V24.936zm67.577 3.012c-.302.402-.538.737-.795 1.056-1.613 1.998-4.715 1.665-5.93.274-.725-.832-1.043-1.822-1.204-2.878-.112-.733-.143-1.474-.143-2.215 0-2.566.005-5.13-.007-7.694 0-.294.07-.384.375-.377 1.023.02 2.048.022 3.07-.002.33-.01.358.125.357.392-.01 2.513-.003 5.03-.005 7.542 0 .567.038 1.13.216 1.673.247.752.707 1.256 1.544 1.356.853.104 1.508-.203 1.983-.898.438-.638.537-1.373.54-2.122.006-2.514.008-5.03-.005-7.543 0-.31.07-.406.394-.4 1.02.022 2.045.016 3.068.003.25-.002.32.07.318.32-.007 4.435-.007 8.874 0 13.31 0 .246-.068.328-.32.325-1.048-.012-2.096-.013-3.144 0-.262.004-.32-.094-.315-.33.015-.564.006-1.13.006-1.792zM79.97 24.672c0-1.634-.015-3.267.013-4.9.007-.402-.12-.488-.486-.462-.426.032-.858 0-1.288.012-.203.005-.292-.045-.29-.27.012-.88.015-1.76 0-2.64-.005-.25.1-.29.313-.282.453.012.91-.013 1.364.01.287.014.388-.06.383-.367-.013-.928-.048-1.858.135-2.78.427-2.156 2.045-3.614 4.24-3.833.75-.075 1.483-.02 2.22.11.27.05.398.16.39.473-.025.88-.02 1.76-.003 2.64.005.29-.046.38-.345.252-.448-.19-.924-.26-1.41-.182-.84.138-1.322.693-1.42 1.704-.056.586-.014 1.18-.026 1.77-.006.212.12.207.27.206.732-.002 1.464.012 2.195-.007.273-.007.34.085.336.343-.014.828-.015 1.658 0 2.487.007.274-.06.375-.354.366-.657-.02-1.315.015-1.97-.015-.367-.015-.487.064-.485.464.02 3.305.007 6.61.02 9.916 0 .304-.064.406-.39.397-1.01-.022-2.02-.022-3.028 0-.33.01-.39-.094-.39-.397.016-1.672.008-3.344.008-5.015zm9.75-1.32c0-1.386-.006-2.542.007-3.698.003-.265-.082-.35-.347-.34-.466.017-.934 0-1.4.008-.19.003-.27-.056-.27-.258.01-.892.01-1.785 0-2.676-.002-.202.072-.266.265-.257.29.012.58.003.87.003.877 0 .877 0 .877-.89 0-.602.01-1.205-.005-1.808-.005-.224.064-.332.284-.402 1.06-.332 2.115-.67 3.163-1.027.294-.1.336-.02.334.25-.01 1.17.005 2.338-.012 3.506-.004.298.082.387.382.378.68-.022 1.362.01 2.043-.014.296-.01.36.092.355.366-.018.828-.016 1.658-.002 2.487.005.256-.068.35-.337.345-.695-.018-1.39.002-2.084-.01-.25-.005-.36.052-.357.33.012 1.823.004 3.644.01 5.466 0 .213.024.427.06.637.21 1.194 1.118 1.677 2.242 1.2.46-.195.46-.195.46.31 0 .78-.01 1.558.006 2.337.007.253-.067.397-.31.48-1.34.454-2.7.533-4.03.03-1.343-.504-1.882-1.64-2.095-2.957-.216-1.337-.056-2.687-.106-3.796zm17.854-3.257c-.606-.45-1.183-.764-1.85-.904-2.105-.444-3.914.815-4.222 2.943-.133.92-.115 1.83.163 2.72.565 1.813 2.375 2.68 4.32 2.087.55-.168 1.04-.447 1.508-.762.125.05.077.154.077.23.003.97-.005 1.937.01 2.905 0 .22-.074.34-.268.44-.86.442-1.785.596-2.736.65-1.414.082-2.777-.075-3.997-.86-1.56-1-2.482-2.447-2.816-4.243-.41-2.194-.255-4.342.867-6.32 1.14-2.01 2.94-3.013 5.233-3.156.933-.058 1.867-.03 2.78.22.17.047.332.118.5.17.338.098.45.305.44.667-.027 1.042-.01 2.085-.01 3.215v-.002zm29.905.974c-.13-1.145-.45-2.233-1.06-3.232-1.28-2.098-4.275-2.37-5.995-1.748-1.043.378-2.963 1.147-2.963 2.17v-.526c0-2.64.582-5.28.593-7.92 0-.275.23-.37-.06-.363-1.036.018-1.925.015-2.96.003-.25-.002-.28.05-.28.327.008 6.665.046 13.328.04 19.993 0 .25.093.315.336.312 1.063-.013 2.133-.015 3.194 0 .263.004.323-.09.313-.324-.018-.398-.003-.8-.003-1.254.25.31.44.566.65.797 1.167 1.282 3.228 1.397 4.745.737 1.527-.665 2.386-1.935 2.932-3.432.654-1.797.73-3.66.517-5.54v.002zm-3.802 2.218c-.04.84-.166 1.673-.56 2.44-.46.896-1.167 1.426-2.197 1.39-1.06-.037-1.692-.68-2.082-1.607-.31-.727-.29-1.496-.276-2.263-.012-.64-.017-1.28.15-1.91.177-.67.503-1.246 1.035-1.713.873-.764 2.667-.758 3.41.657.497.95.568 1.972.52 3.006v.002zm-56.89-2.183c-.362-1.9-1.25-3.468-2.96-4.48-1.252-.74-2.638-.904-4.057-.798-2.612.197-4.52 1.448-5.48 3.906-.834 2.132-.827 4.335-.132 6.5.59 1.83 1.794 3.155 3.65 3.815 1.038.37 2.118.428 3.21.342 2.186-.173 3.85-1.187 4.93-3.093.76-1.338.987-2.806 1.002-4.595.013-.354-.045-.98-.16-1.598h-.002zm-4.104 4.436c-.388.99-1.116 1.542-2.185 1.58-1.1.04-2.03-.35-2.464-1.4-.71-1.718-.737-3.482.04-5.192.506-1.107 1.46-1.51 2.648-1.39 1.064.105 1.71.726 2.047 1.7.248.708.325 1.442.303 2.14.015.91-.07 1.756-.39 2.563zm78-5.656c-.796-2.928-3.23-4.505-6.23-4.002-2.222.37-3.677 1.73-4.505 3.726-.933 2.25-.942 4.59-.203 6.896.602 1.878 1.867 3.16 3.822 3.687.81.22 1.637.25 2.473.222 1.264-.044 2.48-.267 3.608-.863.14-.075.292-.123.29-.344-.01-.954-.004-1.91-.004-2.93-.116.068-.17.096-.22.13-1.138.744-2.397 1.022-3.745.947-1.65-.092-2.603-.51-2.902-2.12-.086-.465-.086-.045.378-.045h7.085c.09 0 .18-.426.266-.42.142.01.202-.254.2-.403-.008-1.432.067-3.075-.315-4.48h.004zm-3.458 1.813c-.668-.006-1.337-.003-2.006-.003-.644 0-1.288-.008-1.93.004-.23.004-.288-.08-.25-.29.145-.835.452-1.596 1.09-2.184.987-.91 2.517-.58 3.05.648.218.504.266 1.04.31 1.58.017.22-.084.245-.263.244z" fill="#2DA7E2"/><path d="M2.72 6.096c.205-.018.396.042.587.116 4.86 1.89 9.717 3.776 14.573 5.674.38.15.732.136 1.104.018L31.96 7.748c1.706-.548 3.416-1.08 5.11-1.66.896-.306 1.6.242 1.782.82.23.736-.16 1.443-.98 1.708-5.762 1.86-11.525 3.717-17.293 5.56-.317.102-.31.2-.197.46 3.045 7.084 6.088 14.17 9.134 21.25.158.368.293.73.173 1.14-.16.544-.608.93-1.14.97-.595.044-1.086-.234-1.334-.803-.686-1.572-1.36-3.15-2.037-4.724-2.515-5.847-5.03-11.692-7.537-17.54-.106-.255-.25-.4-.51-.5-4.92-1.905-9.836-3.82-14.753-5.73-.617-.24-.986-.7-.98-1.273.007-.554.273-.967.768-1.222.174-.09.36-.123.55-.11z" fill="#FEFEFE"/></g></svg>