<svg width="120" height="24" viewBox="0 0 120 24" xmlns="http://www.w3.org/2000/svg"><title>steinbeis</title><g fill="none" fill-rule="evenodd"><path fill="#000" d="M3 3h18v18H3"/><path d="M29.96 17.463c-.09-.092-.133-.226-.043-.34l1.386-1.63c.09-.112.223-.112.313-.023.985.792 2.438 1.63 4.136 1.63 1.812 0 2.863-.928 2.863-2.218 0-1.11-.67-1.835-2.77-2.13l-.807-.113c-2.928-.408-4.583-1.835-4.583-4.394 0-2.786 2.013-4.644 5.142-4.644 1.9 0 3.712.612 4.918 1.54.11.093.136.183.045.318l-1.074 1.677c-.088.113-.2.135-.312.067-1.23-.815-2.37-1.2-3.645-1.2-1.544 0-2.394.86-2.394 2.06 0 1.066.74 1.79 2.796 2.086l.805.113c2.927.408 4.537 1.81 4.537 4.462 0 2.74-1.945 4.778-5.724 4.778-2.235 0-4.404-.905-5.59-2.037l.002-.002zm17.036 1.924c-2.17 0-2.996-1.065-2.996-3.193V10.44c0-.09-.045-.134-.135-.134h-.715c-.135 0-.225-.092-.225-.227V8.562c0-.136.09-.227.223-.227h.717c.088 0 .134-.046.134-.136V5.21c0-.134.087-.225.222-.225h2.057c.134 0 .22.09.22.225V8.2c0 .09.047.135.137.135h1.43c.135 0 .225.09.225.226v1.517c0 .136-.09.228-.222.228h-1.433c-.09 0-.134.043-.134.134v5.66c0 .77.312 1.02 1.007 1.02h.555c.136 0 .226.09.226.225v1.813c0 .135-.088.226-.222.226h-1.073v.003zm3.822-2.92c-.224-.703-.38-1.54-.38-2.673s.134-1.994.357-2.695c.605-1.903 2.258-3.014 4.404-3.014 2.215 0 3.823 1.154 4.427 3.013.246.77.358 1.515.358 3.283 0 .135-.088.226-.245.226H53.1c-.09 0-.135.046-.135.136 0 .317.067.59.157.838.358 1.065 1.207 1.654 2.414 1.654 1.206 0 1.99-.453 2.526-1.04.11-.114.222-.137.334-.047l1.32 1.18c.11.09.11.203.022.318-.917 1.086-2.438 1.855-4.426 1.855-2.28 0-3.89-1.132-4.492-3.034h-.002v-.004zm6.505-4.824c-.29-.884-1.095-1.405-2.1-1.405-1.03 0-1.835.52-2.125 1.405-.088.272-.134.544-.134.927 0 .093.045.137.135.137h4.224c.09 0 .134-.045.134-.136-.002-.382-.046-.655-.135-.926v-.002zm5.567-5.367c-.134 0-.222-.09-.222-.227V4.08c0-.138.088-.227.222-.227h2.056c.136 0 .224.09.224.225v1.97c0 .136-.088.226-.222.226H62.89v.002zm0 12.976c-.134 0-.222-.09-.222-.226V8.563c0-.136.088-.226.222-.226h2.056c.136 0 .224.09.224.226v10.463c0 .136-.088.226-.222.226H62.89zm12.362 0c-.135 0-.224-.09-.224-.226V12.73c0-1.405-.694-2.38-2.035-2.38-1.297 0-2.056.975-2.056 2.38v6.296c0 .135-.09.225-.223.225h-2.058c-.134 0-.222-.09-.222-.225V8.563c0-.136.088-.227.222-.227h2.056c.136 0 .224.09.224.226v.79h.023c.467-.678 1.405-1.266 2.837-1.266 2.302 0 3.733 1.722 3.733 4.053v6.886c0 .135-.09.225-.223.225H75.25l.002.002zm7.96-1.042h-.024v.816c0 .135-.09.225-.222.225h-2.06c-.133 0-.22-.09-.22-.225V4.078c0-.136.087-.226.22-.226h2.057c.136 0 .224.09.224.226v5.3h.023c.514-.75 1.407-1.293 2.862-1.293 1.832 0 3.174.884 3.732 2.627.27.84.38 1.61.38 3.08 0 1.472-.11 2.243-.38 3.08-.56 1.744-1.9 2.627-3.733 2.627-1.453.002-2.347-.54-2.86-1.29zm4.2-2.378c.158-.498.223-1.042.223-2.04 0-.995-.065-1.538-.222-2.035-.292-.906-.984-1.404-1.99-1.404-1.028 0-1.723.497-2.013 1.404-.156.497-.222 1.042-.222 2.038 0 .995.066 1.54.222 2.038.292.905.984 1.405 2.013 1.405 1.006 0 1.7-.5 1.99-1.405zm5.254.635c-.223-.703-.38-1.54-.38-2.673 0-1.132.134-1.994.357-2.695.605-1.903 2.258-3.014 4.404-3.014 2.214 0 3.825 1.154 4.427 3.013.246.77.358 1.515.358 3.283 0 .135-.09.226-.246.226h-6.64c-.088 0-.134.046-.134.136 0 .317.066.59.156.838.358 1.065 1.207 1.654 2.414 1.654s1.99-.453 2.526-1.04c.11-.114.222-.137.334-.047l1.32 1.18c.11.09.11.203.022.318-.917 1.086-2.438 1.855-4.426 1.855-2.28 0-3.89-1.132-4.495-3.034h.003v-.003zm6.505-4.824c-.288-.884-1.094-1.405-2.1-1.405-1.027 0-1.833.52-2.123 1.405-.09.272-.134.544-.134.927 0 .093.045.137.135.137h4.226c.09 0 .134-.045.134-.136 0-.382-.044-.655-.135-.926l-.003-.002zm5.568-5.367c-.134 0-.223-.09-.223-.227V4.08c0-.138.09-.227.222-.227h2.058c.135 0 .224.09.224.225v1.97c0 .136-.09.226-.224.226h-2.057l-.002.002zm0 12.976c-.134 0-.223-.09-.223-.226V8.563c0-.136.09-.226.222-.226h2.058c.135 0 .224.09.224.226v10.463c0 .136-.09.226-.224.226H104.737zm4.896-1.47c-.09-.094-.09-.228 0-.32l1.274-1.36c.09-.09.223-.09.313 0 .784.726 2.036 1.247 3.153 1.247 1.32 0 1.99-.545 1.99-1.293 0-.655-.378-1.065-1.788-1.2l-1.162-.113c-2.19-.226-3.308-1.36-3.308-3.216 0-2.106 1.497-3.442 4.18-3.442 1.677 0 3.085.566 4.047 1.336.11.09.11.226.044.317l-1.096 1.334c-.09.113-.2.113-.313.046-.67-.476-1.744-.907-2.817-.907-1.073 0-1.632.476-1.632 1.133 0 .635.378 1.018 1.766 1.155l1.162.114c2.258.226 3.33 1.404 3.33 3.194 0 2.175-1.563 3.692-4.514 3.692-2.214 0-3.733-.882-4.628-1.72z" fill="#333"/><path d="M7.124 11.37c-.046-.048-.046-.12 0-.165l.753-.857c.046-.047.104-.047.162 0 .497.387 1.134.62 1.712.62.59 0 .868-.222.868-.54 0-.268-.15-.432-.798-.49l-.626-.07c-1.18-.12-1.828-.717-1.828-1.737 0-1.115.845-1.816 2.303-1.816.95 0 1.75.304 2.27.703.047.047.06.117.013.174l-.65.81c-.045.06-.103.06-.16.025-.383-.246-.94-.457-1.517-.457-.475 0-.707.19-.707.47 0 .258.138.41.774.47l.614.07c1.318.13 1.86.774 1.86 1.724-.01 1.16-.902 1.945-2.498 1.945-1.168.002-2.014-.408-2.546-.878zm8.673.82c-1.297 0-1.783-.586-1.783-1.888v-2.58c0-.047-.023-.07-.07-.07h-.347c-.07 0-.116-.047-.116-.118v-.972c0-.07.047-.117.117-.117h.347c.046 0 .07-.023.07-.07V4.85c0-.07.045-.118.115-.118h1.377c.07 0 .116.047.116.118v1.524c0 .047.024.07.07.07h.718c.07 0 .117.048.117.118v.973c0 .07-.046.117-.116.117h-.718c-.046 0-.07.023-.07.07v2.51c0 .42.14.562.51.562h.28c.068 0 .114.047.114.117v1.162c0 .07-.046.117-.116.117h-.614zm-2.787 7.017c-.075 0-.125-.05-.15-.126l-1.032-3.544h-.026l-1.058 3.546c-.025.075-.074.127-.15.127H9.363c-.075 0-.125-.053-.15-.128l-1.93-5.854c-.026-.077.012-.128.087-.128H8.9c.1 0 .15.038.175.127l.997 3.633h.025l1.033-3.633c.025-.09.088-.128.173-.128h1.048c.088 0 .137.038.162.126l1.06 3.633h.023l.946-3.634c.027-.09.076-.127.164-.127h1.532c.087 0 .125.05.1.126l-1.93 5.853c-.025.075-.075.126-.15.126H13.01z" fill="#FFF"/><path d="M24 24H0V0h24v24zM1 23h22V1H1v22z" fill="#1D1D1B"/></g></svg>