<svg width="146" height="48" viewBox="0 0 146 48" xmlns="http://www.w3.org/2000/svg"><title>thismo</title><g fill="none" fill-rule="evenodd"><path d="M20.79 20.074h10.393v-9.636h-20.79v16.067c0 11.515 9.306 20.87 20.785 20.87l.005-10.44h-.8c-5.3 0-9.594-4.31-9.594-9.63v-7.23zm30.64 1.26v-3.17h-3.426v-5.53H42.9v17.84c0 4.113 2.183 4.99 5.003 4.99 1.88 0 2.922-.202 3.258-.27v-4.013s-1.443.035-1.813.035c-.806 0-1.343-.27-1.343-1.45v-8.43h3.426zM69.1 35.33V23.29c0-3.743-1.948-6.036-5.575-6.036-1.007 0-3.09.236-5.003 2.36V11.52H53.35v23.81h5.172v-9.275c0-2.765.638-4.384 2.787-4.384 2.55 0 2.652 2.328 2.652 4.15v9.51H69.1zm8.905-19.796V11.52h-5.138v4.014h5.138zm0 19.795V17.725h-5.138V35.33h5.138zm17.94-15.547c-2.116-1.62-4.803-2.63-7.792-2.63-4.936 0-7.42 2.9-7.42 5.9 0 2.7 1.712 4.52 5.876 5.228l1.577.27c1.88.304 2.787.574 2.787 1.552 0 1.113-1.41 1.72-3.123 1.72-1.88 0-3.827-1.08-5.103-2.428l-3.258 2.968c1.276 1.382 4.13 3.406 8.496 3.406 3.66 0 8.294-1.754 8.294-6.138 0-3.27-2.518-4.822-6.313-5.53l-1.243-.237c-2.048-.404-2.854-.674-2.854-1.517 0-.978 1.31-1.35 2.418-1.35 1.645 0 3.324.81 4.466 1.755l3.19-2.967z" fill="#444"/><path d="M0 0h10.394v10.438H0V0zm98.503 17.726V35.33h5.104V25.144c0-1.484.27-3.642 2.586-3.642 1.612 0 2.52.843 2.52 3.305v10.52h5.137V24.775c0-2.125.806-3.305 2.653-3.305s2.418 1.348 2.418 3.71v10.15h5.14V22.412c0-3.473-2.15-5.16-5.374-5.16-2.62 0-4.232 1.248-5.206 2.058-1.074-1.28-2.552-2.056-4.902-2.056-3.023 0-4.5 1.753-4.937 2.293v-1.82h-5.137zm46.954 8.802c0-4.216-2.25-9.342-9.605-9.342-6.548 0-9.235 4.79-9.235 9.24 0 6.947 4.836 9.443 9.403 9.443 5.877 0 9.437-3.643 9.437-9.342zm-5.24.168c0 2.63-1.275 5.025-4.13 5.025-3.022 0-4.265-2.326-4.265-5.26 0-3.676 2.05-5.16 3.997-5.16 2.82 0 4.398 1.653 4.398 5.396z" fill="#2C89F3"/></g></svg>