<svg xmlns="http://www.w3.org/2000/svg" width="140" height="60" viewBox="0 0 140 60"><g fill="none" fill-rule="evenodd"><path fill="#1C1C1C" d="M40.323 43.044c-1.253 0-2.16-.345-2.724-1.034-.564-.688-.846-1.638-.846-2.85V29.146h-2.567v-1.91h2.567V22.04h2.066v5.195h4.79v1.91h-4.79v9.673c0 .604.12 1.137.36 1.596.24.46.704.688 1.392.688.5 0 1.014-.047 1.535-.14.52-.095 1.022-.215 1.502-.36l.343 1.94c-.52.167-1.122.292-1.8.376-.677.084-1.288.126-1.83.126zM52.397 26.86c.355 0 .72.032 1.096.094.377.063.72.135 1.033.22L54.12 29.3c-.376-.104-.757-.198-1.142-.282-.387-.083-.788-.125-1.206-.125-.606 0-1.132.15-1.58.453-.45.303-.815.72-1.097 1.253-.28.532-.49 1.164-.625 1.894s-.205 1.513-.205 2.35v7.792H46.2v-15.4h1.69l.126 2.098h.062c.96-1.65 2.4-2.474 4.32-2.474zm10.386 1.94c-.793 0-1.498.125-2.113.376-.616.25-1.148.6-1.596 1.05-.45.447-.804.98-1.065 1.596-.26.615-.434 1.3-.518 2.05H67.76c-.062-.73-.21-1.404-.44-2.02-.228-.615-.552-1.152-.97-1.61-.416-.46-.922-.815-1.517-1.066-.595-.25-1.277-.375-2.05-.375zm7.074 5.51c0 .23-.006.47-.016.72s-.025.49-.045.72H57.462c.082.75.27 1.455.563 2.112.293.658.684 1.22 1.175 1.69.49.47 1.058.84 1.704 1.112.648.27 1.367.407 2.16.407.835 0 1.685-.197 2.55-.594.867-.396 1.57-.918 2.114-1.565l1.472 1.41c-.793.898-1.737 1.575-2.833 2.034-1.095.46-2.238.69-3.428.69-1.148 0-2.192-.216-3.13-.643-.94-.426-1.738-1.01-2.396-1.75-.656-.743-1.163-1.603-1.518-2.584-.354-.98-.53-2.024-.53-3.13 0-1.085.165-2.118.5-3.098.333-.982.818-1.842 1.455-2.584.637-.74 1.415-1.325 2.333-1.752.918-.427 1.95-.642 3.1-.642 1.104 0 2.096.187 2.972.564.877.375 1.622.892 2.238 1.55.617.657 1.086 1.44 1.41 2.347.322.91.484 1.905.484 2.99zm10.51-7.45c.772 0 1.518.135 2.24.407.717.27 1.344.678 1.876 1.22.533.544.96 1.238 1.284 2.082.323.845.484 1.84.484 2.988v9.078h-2.064v-8.42c0-1.877-.403-3.25-1.205-4.116-.803-.866-1.85-1.3-3.145-1.3-.814 0-1.54.157-2.175.47-.637.313-1.174.736-1.613 1.27-.437.53-.772 1.14-1 1.83-.23.687-.345 1.397-.345 2.128v8.138h-2.067v-15.4h1.69l.126 2.505h.063c.668-.94 1.508-1.653 2.52-2.144 1.013-.49 2.123-.736 3.334-.736zM96.48 41.04c.836 0 1.602-.147 2.3-.44.7-.29 1.31-.71 1.832-1.25.52-.543.928-1.185 1.22-1.925.293-.74.44-1.57.44-2.49 0-.896-.147-1.72-.44-2.472-.292-.75-.7-1.397-1.22-1.94-.522-.543-1.133-.96-1.83-1.253-.7-.29-1.466-.437-2.302-.437-.814 0-1.575.146-2.285.437-.71.293-1.32.71-1.83 1.253-.512.543-.913 1.19-1.206 1.94-.293.752-.44 1.576-.44 2.473 0 .918.147 1.748.44 2.49.292.74.693 1.38 1.204 1.924.51.54 1.12.96 1.83 1.25.71.293 1.472.44 2.286.44zm7.826-21.098v22.694h-1.69l-.126-2.693h-.062c-.688.962-1.56 1.718-2.614 2.27-1.053.553-2.217.83-3.49.83-1.085 0-2.093-.203-3.02-.61-.93-.407-1.738-.97-2.427-1.69-.688-.72-1.23-1.576-1.628-2.568-.396-.99-.595-2.07-.595-3.24 0-1.168.2-2.247.594-3.24.396-.99.94-1.846 1.627-2.565.69-.72 1.497-1.28 2.426-1.676.928-.395 1.936-.594 3.02-.594 1.19 0 2.292.24 3.304.72 1.01.48 1.86 1.158 2.55 2.035h.063v-9.673h2.066zm10.135 8.86c-.793 0-1.498.123-2.112.374-.617.25-1.148.6-1.597 1.05-.448.447-.803.98-1.064 1.596-.26.615-.433 1.3-.515 2.05h10.267c-.062-.73-.208-1.404-.44-2.02-.228-.615-.552-1.152-.97-1.61-.416-.46-.922-.815-1.517-1.066-.595-.25-1.277-.375-2.05-.375zm7.074 5.508c0 .23-.006.47-.016.72s-.026.49-.046.72H109.12c.083.75.27 1.455.562 2.112.293.658.684 1.22 1.175 1.69.49.47 1.058.84 1.704 1.112.65.27 1.368.407 2.162.407.834 0 1.684-.197 2.55-.594.868-.396 1.57-.918 2.113-1.565l1.472 1.41c-.793.898-1.737 1.575-2.833 2.034-1.095.46-2.238.69-3.428.69-1.147 0-2.19-.216-3.13-.643-.938-.426-1.736-1.01-2.395-1.75-.655-.743-1.162-1.603-1.517-2.584-.353-.98-.53-2.024-.53-3.13 0-1.085.165-2.118.5-3.098.333-.982.818-1.842 1.455-2.584.636-.74 1.414-1.325 2.332-1.752.918-.427 1.95-.642 3.1-.642 1.104 0 2.096.187 2.972.564.878.375 1.622.892 2.24 1.55.615.657 1.084 1.44 1.407 2.347.322.91.484 1.905.484 2.99zm9.664 6.73c.878 0 1.676-.157 2.396-.47.72-.314 1.33-.746 1.83-1.3.5-.552.888-1.2 1.16-1.94.27-.74.406-1.54.406-2.394 0-.855-.135-1.654-.407-2.395-.27-.74-.658-1.386-1.16-1.94-.5-.552-1.11-.985-1.83-1.298-.72-.313-1.517-.47-2.395-.47-.876 0-1.668.157-2.378.47-.71.313-1.315.746-1.816 1.3-.5.552-.886 1.198-1.157 1.94-.272.74-.407 1.54-.407 2.394 0 .855.135 1.653.407 2.395.27.74.656 1.388 1.157 1.94.5.554 1.107.986 1.816 1.3.71.313 1.502.47 2.378.47zm0-14.18c1.15 0 2.203.21 3.163.626.96.417 1.79.992 2.49 1.722.7.73 1.24 1.585 1.627 2.566.385.982.58 2.035.58 3.162 0 1.126-.195 2.18-.58 3.16-.387.983-.928 1.837-1.628 2.568-.7.73-1.53 1.304-2.49 1.72-.96.418-2.013.628-3.162.628-1.147 0-2.2-.21-3.16-.627-.96-.417-1.784-.99-2.473-1.72-.688-.732-1.227-1.586-1.612-2.568-.387-.98-.58-2.035-.58-3.16 0-1.128.193-2.18.58-3.163.385-.98.924-1.836 1.612-2.566.69-.73 1.513-1.305 2.473-1.722.96-.417 2.013-.626 3.16-.626z"/><path fill="#E01F08" d="M21.586 34.77c.013.413.004.83-.025 1.245-.028.41-.08.82-.152 1.232C19.548 47.867 9.26 47.53 8.413 36.4c-.084-1.108-.084-2.22.014-3.324.094-1.06.277-2.11.56-3.146.28-1.02.647-2.002 1.102-2.936.453-.934.996-1.824 1.624-2.663l.167-.22.068-.088.093.055c.205.117.41.243.62.374.213.138.43.284.647.437l.105.075-.193.252-.116.153c-.566.757-1.054 1.556-1.462 2.392-.41.84-.74 1.715-.988 2.624-.244.897-.407 1.87-.493 2.85-.09 1.027-.093 2.063-.02 3.036.69 9.045 8.047 9.325 9.56.68.053-.297.092-.598.118-.898.026-.307.04-.612.04-.91v-.102l.1-.02c.225-.046.476-.102.745-.17.228-.056.47-.12.723-.196l.156-.047.004.162zm.07-2.805c1.46-.573 2.978-1.536 4.157-2.758 6.235-6.46-2.33-13.476-10.11-6.68l-.076.065-.08-.06c-.206-.15-.42-.302-.633-.448-.21-.144-.422-.282-.62-.41l-.135-.088.118-.108c9.575-8.763 20.455.85 12.918 8.826-1.404 1.486-3.258 2.645-5.158 3.358-.4.15-.788.276-1.18.38-.394.108-.795.197-1.22.278-1.353.256-2.756.358-4.162.336-1.52-.024-3.046-.193-4.52-.47l-.104-.022.004-.108c.005-.114.01-.224.018-.328.007-.114.014-.222.023-.32.01-.13.024-.274.04-.42.016-.147.032-.29.05-.427l.017-.13.13.024c1.28.25 2.618.414 3.95.46 1.23.044 2.46-.013 3.644-.193.435-.064.996-.182 1.55-.324.498-.13.992-.28 1.377-.43zM9.287 20.245c1.887.526 3.69 1.39 5.302 2.52 1.62 1.133 3.053 2.536 4.2 4.13.488.684.924 1.4 1.296 2.138.365.728.67 1.48.91 2.25l.036.115-.113.038c-.258.09-.51.17-.753.234-.237.064-.47.117-.697.163l-.108.022-.035-.107c-.21-.67-.48-1.33-.8-1.967-.33-.647-.71-1.275-1.14-1.874-1.032-1.436-2.325-2.702-3.785-3.724-1.455-1.018-3.08-1.798-4.775-2.27-6.645-1.844-9.722 3.734-4.37 7.88.45.347.95.663 1.488.947.57.3 1.186.568 1.827.802l.095.034-.014.1c-.035.232-.07.488-.1.758-.03.23-.056.48-.08.746l-.013.16-.15-.053c-.79-.273-1.548-.59-2.256-.957-.667-.345-1.29-.735-1.854-1.17C-3.412 25.885.762 17.88 9.288 20.246z"/></g></svg>