<svg width="100" height="44" viewBox="0 0 100 44" xmlns="http://www.w3.org/2000/svg"><title>web_summit</title><g fill="none" fill-rule="evenodd"><path d="M52.777 43.656H50.48v-8.312c0-2.22-.71-3.5-2.217-3.5-1.077 0-1.846.75-2.154 1.656-.124.344-.185.844-.185 1.22v8.936H41.37v-8.562c0-1.938-.676-3.25-2.153-3.25-1.2 0-1.908.937-2.185 1.718-.154.376-.185.813-.185 1.188v8.906h-4.554V33.25c0-1.906-.06-3.53-.123-4.875h3.94l.214 2.063h.092c.647-.97 1.97-2.407 4.555-2.407 1.94 0 3.478 1 4.124 2.595h.06c.555-.78 1.232-1.406 1.94-1.844.83-.5 1.754-.75 2.862-.75 1.695 0 3.147.71 4.06 2.215 1.34-1.218 3.52-2.214 5.182-2.214 1.94 0 3.477 1 4.185 2.595.554-.78 1.23-1.406 1.94-1.844.83-.5 1.753-.75 2.86-.75 2.893 0 5.077 2.064 5.077 6.626v9h-4.554v-8.312c0-2.22-.707-3.5-2.215-3.5-1.076 0-1.845.75-2.153 1.656-.123.344-.185.844-.185 1.22v8.936h-4.554v-8.562c0-1.938-.677-3.25-2.154-3.25-1.2 0-1.908.937-2.184 1.718-.154.376-.185.813-.185 1.188v8.906h-2.298zM0 42.906c1.14.625 2.892 1.063 4.862 1.063 4.308 0 6.523-2.095 6.523-4.94-.03-2.25-1.23-3.718-4.092-4.718-1.847-.656-2.43-1.03-2.43-1.75 0-.78.645-1.25 1.783-1.25 1.293 0 2.585.5 3.262.875l.83-3.28c-.922-.47-2.49-.876-4.245-.876-3.724 0-6.124 2.157-6.124 5-.032 1.814 1.17 3.532 4.276 4.595 1.754.594 2.216.97 2.216 1.75s-.585 1.28-2 1.28c-1.385 0-3.17-.624-4.03-1.155L0 42.906zm28.4-14.53h-4.706v9.093c0 .374-.03.75-.154 1.03-.308.75-1.047 1.656-2.34 1.656-1.63 0-2.337-1.343-2.337-3.562v-8.22h-4.708v8.97c0 4.718 2.246 6.656 5.292 6.656 2.708 0 4.123-1.563 4.708-2.5h.092v2.156h4.278c-.062-1.28-.124-2.906-.124-4.906V28.375zm53.26 15.28v-15.28h-4.676v15.28h4.677zM86.06 24v4.375h-2v3.5h2v6.25c0 2.156.432 3.625 1.294 4.53.738.782 2 1.314 3.507 1.314 1.325 0 2.432-.157 3.048-.407l-.03-3.594c-.34.06-.8.124-1.386.124-1.415 0-1.846-.844-1.846-2.688v-5.53H94v-3.5h-3.354V24H86.06zM11.485 23.393L14.64 13.25h1.416l-3.898 11.996h-1.485L8.05 15.172h-.045L5.337 25.246h-1.67L0 13.25h1.392l3.11 10.236L7.285 13.25H8.84l2.645 10.143zm15.29-4.98c0-.586-.08-1.138-.243-1.655-.162-.517-.402-.965-.72-1.343-.316-.378-.714-.68-1.194-.903-.48-.224-1.03-.336-1.647-.336-.618 0-1.163.116-1.635.348-.472.23-.874.54-1.207.926-.332.386-.6.834-.8 1.343-.2.51-.333 1.05-.395 1.62h7.843zm-7.842 1.16c0 .647.085 1.26.256 1.84.17.58.42 1.08.753 1.505.332.425.754.764 1.264 1.02.51.254 1.1.38 1.764.38.913 0 1.694-.238 2.344-.717.65-.477 1.083-1.156 1.3-2.036h1.554c-.17.57-.394 1.1-.673 1.586-.278.486-.626.91-1.044 1.274-.417.362-.912.644-1.484.845-.572.2-1.237.3-1.995.3-.958 0-1.786-.162-2.482-.486-.696-.325-1.268-.77-1.717-1.332-.448-.564-.78-1.227-.997-1.992-.216-.764-.325-1.586-.325-2.466 0-.88.128-1.706.383-2.478.257-.772.62-1.447 1.092-2.026.472-.58 1.048-1.035 1.728-1.366.68-.332 1.454-.498 2.32-.498 1.656 0 2.955.567 3.9 1.702.942 1.134 1.406 2.783 1.39 4.944h-9.327zM32.53 19.2c0 .727.09 1.402.267 2.028.178.625.437 1.165.777 1.62.34.456.766.815 1.276 1.078.51.262 1.09.393 1.74.393.588 0 1.13-.105 1.625-.313.495-.21.928-.514 1.3-.915.37-.4.66-.892.87-1.47.208-.58.313-1.247.313-2.004.03-.756-.03-1.463-.186-2.12-.155-.655-.402-1.23-.743-1.724-.34-.494-.778-.884-1.312-1.17-.533-.285-1.156-.428-1.867-.428-.634 0-1.202.135-1.705.405-.502.272-.928.634-1.276 1.09-.35.455-.616.988-.8 1.598-.187.61-.28 1.254-.28 1.933zm0 6.046h-1.392V8.572h1.392v6.6c.45-.74 1.064-1.3 1.845-1.68.78-.377 1.597-.566 2.448-.566.912 0 1.705.173 2.378.52.674.348 1.23.81 1.672 1.39.44.58.77 1.255.986 2.026.216.772.325 1.575.325 2.41 0 .88-.1 1.705-.302 2.477-.2.77-.52 1.438-.962 2.002-.44.563-1.002 1.007-1.682 1.332-.68.324-1.508.486-2.483.486-.387 0-.78-.054-1.183-.162-.402-.108-.793-.263-1.172-.463-.38-.2-.727-.452-1.044-.753-.317-.3-.576-.652-.777-1.054h-.047v2.108z" fill="#929497"/><path fill="#863A6E" d="M61 0l17 26H44"/><path fill="#F03067" d="M55 4l12 22H43"/><path fill="#00B6BA" d="M67 4l12 22H55"/></g></svg>