<svg xmlns="http://www.w3.org/2000/svg" width="66" height="120.383" viewBox="0 0 66 120.383"><path fill="#FFF" d="M2.052 20L19.757 1.48c.324-.34.324-.888 0-1.227-.324-.338-.848-.338-1.172 0L.55 19.12l-.32.335c-.145.152-.215.347-.23.545.015.198.085.394.23.545l.32.335 18.035 18.866c.324.338.848.338 1.172 0 .324-.338.324-.887 0-1.226L2.052 20zM63.948 20L46.243 38.52c-.324.34-.324.888 0 1.227.324.338.848.338 1.172 0L65.45 20.88l.32-.335c.145-.152.215-.347.23-.545-.015-.198-.085-.394-.23-.545l-.32-.335L47.414.254c-.324-.338-.848-.338-1.172 0-.324.338-.324.887 0 1.226L63.948 20z"/><path fill="#F7706F" d="M1.958 60.383l17.705-18.52c.324-.34.324-.888 0-1.227-.324-.338-.848-.338-1.172 0L.457 59.503l-.32.335c-.145.152-.215.347-.23.545.015.198.085.394.23.545l.32.335L18.49 80.13c.325.337.85.337 1.173 0 .324-.34.324-.888 0-1.227L1.958 60.383zM63.854 60.383l-17.706 18.52c-.324.34-.324.888 0 1.227.324.338.848.338 1.172 0l18.035-18.866.32-.335c.145-.153.215-.348.23-.546-.015-.198-.085-.394-.23-.545l-.32-.336L47.32 40.637c-.324-.338-.848-.338-1.172 0-.324.338-.324.887 0 1.226l17.706 18.52z"/><path fill="#363A4A" d="M1.958 100.383l17.705-18.52c.324-.34.324-.888 0-1.227-.324-.338-.848-.338-1.172 0L.457 99.503l-.32.335c-.145.152-.215.347-.23.545.015.198.085.394.23.545l.32.335L18.49 120.13c.325.337.85.337 1.173 0 .324-.34.324-.888 0-1.227l-17.705-18.52zM63.854 100.383l-17.705 18.52c-.325.34-.325.888 0 1.227.323.338.847.338 1.17 0l18.036-18.866.32-.335c.145-.153.215-.348.23-.546-.015-.198-.085-.394-.23-.545l-.32-.336L47.32 80.637c-.324-.338-.848-.338-1.172 0-.324.338-.324.887 0 1.226l17.706 18.52z"/></svg>