<svg xmlns="http://www.w3.org/2000/svg" width="768" height="400" viewBox="0 0 768 400"><circle fill="#DCA1A0" cx="518" cy="331" r="60"/><path fill="#E5A9A7" d="M458 331c0 15.14 5.62 28.957 14.87 39.514 7.814 3.728 16.56 5.82 25.797 5.82 33.137 0 60-26.863 60-60 0-15.14-5.62-28.957-14.87-39.514-7.815-3.728-16.56-5.82-25.797-5.82-33.137 0-60 26.863-60 60z"/><path opacity=".15" fill="#8C6060" d="M578 331c0-33.137-26.863-60-60-60-3.235 0-6.408.264-9.505.757-.583 1.02-.92 2.2-.92 3.46 0 3.866 3.134 7 7 7h23.543c3.866 0 7 3.134 7 7s-3.134 7-7 7h-15.876c-3.866 0-7 3.134-7 7s3.134 7 7 7h12.544c3.866 0 7 3.134 7 7s-3.134 7-7 7H495.41c-3.867 0-7 3.134-7 7s3.133 7 7 7h29.542c3.866 0 7 3.134 7 7s-3.134 7-7 7H513.91c-3.867 0-7 3.134-7 7s3.133 7 7 7h29.542c3.866 0 7 3.134 7 7s-3.134 7-7 7h-14.877c-3.866 0-7 3.134-7 7 0 1.315.37 2.54 1 3.592C553.572 388.47 578 362.595 578 331zm-27.487 21.217c-3.866 0-7-3.134-7-7s3.134-7 7-7h9.043c3.866 0 7 3.134 7 7s-3.134 7-7 7h-9.043z"/></svg>