<svg xmlns="http://www.w3.org/2000/svg" width="1920" height="410" viewBox="0 0 1920 410"><path fill="#282A32" d="M1870 291v-25h-3v-3h6v-2h-6v-34h4v-2h-4v-31h1v-2h-1v-11h2v-4h-2v-2.833c0-1.05.288-1.994.344-2.667.25-3 2.355-5.5 2.605-7.5.185-1.484-4.95-2.554-8.95-3.008V131h-3.156l-.35-26.757c1.036-.543 1.75-1.68 1.75-2.93 0-1.284-.75-2.413-1.828-2.942l-.315-23.923c.61-.374 1.02-1.048 1.02-1.814 0-.786-.432-1.47-1.067-1.836L1856.12.003l-1.068 70.73c-.698.347-1.182 1.06-1.182 1.894 0 .81.46 1.506 1.125 1.864l-.36 23.818c-1.113.515-1.89 1.636-1.89 2.944 0 1.272.738 2.487 1.803 3.02l-.4 26.728H1851v30.018c-4 .19-7.053.46-8.136.732-2 .5-.01 5.25.74 6.75.474.947.396 3.883 1.396 5.922V177h-2v4h2v11h-1v2h1v31h-4v2h4v34h-6v2h6v3h-4v9h-15v-24h-10v-8h-2.758l-3.455-43.275c.084.013.168.068.255.068.92 0 1.667-.725 1.667-1.646s-.747-1.657-1.668-1.657-1.667.752-1.667 1.672c0 .79.55 1.365 1.286 1.538l-2.2 43.3H1805v8h-10v24h-16v16h-36v-19h-16v19h-30v-13h-13v11h-16v-13h-11v11.616l-3.667 3.384H1613v-16h-6v-13h-12v11.616l-3 3V291h-31v-9.384l-47-10.667V291h-23.183c.863-6.676 1.36-14.284 1.36-22.394 0-26.314-11.47-47.646-11.47-47.646s-11.47 21.332-11.47 47.646c0 8.11.497 15.718 1.36 22.394H1467v-9h-8v-11h-5v-23h-16v13h-15v10h-22v20h-24v-6h-2.29l3.63-6.534c11.2-5.916 18.838-17.728 18.838-31.276 0-19.492-15.802-35.32-35.294-35.32-19.492 0-35.294 15.787-35.294 35.28 0 13.546 7.637 25.406 18.836 31.322l3.632 6.528H1347v6h-54v-36h-17v36h-29v-30h-14v11h-16v-13h-11v11.833l-7.944 8.167H1162v-21h-5v-13h-13v11.833l-3 3V279h-31v-14.167l-47-10.667V278h-25v-10h-8v12h-13v-14h-25v10h-35v14h-86.277l-18.86-19.25L837 285.5v5.5h-33v-15h-6v-11.833l-19 2.667V276h-20v15h-28v-49h-28v49h-33.61l-9-9h-10.25l-9.263-24h-3.333l-6.833-21h-1.166l-.167-30.105s.812.385 1.062-1.24-.063-8.37.124-8.62 1.375-2.31 1.312-3.31-.375-2.5-.375-2.5 1.563-2.06 1.94-2.936.25-1.563.25-1.563.624 0 2-1.562 1.5-8.312 1.437-9.625-1.625-2.438-3.562-2.562c-1.937-.124-4.125 1.625-4.125 1.625s-.188 2.812-.062 4.062 1.938 5.5 1.938 5.5.5 2.438.312 2.812c-.188.374-.688 2.062-1.25 2.5s-1.812 1.438-1.812 1.438l-4.125.062s-.31-1.062-.31-1.562.437-1 .437-1 1.25-4.5.625-5.625-3.125-.938-3.875-.562c-.75.376-1.062 2.375-.938 3.062s1.187 2.5 1.187 2.5l.25 1.25-.75 1.438s-1.938 0-2.562-.625-3.938-3.688-4.625-4.938c-.687-1.25-3.44-5.25-3.44-5.25L609 178.04V173h1v-.772l-.685-.177.003-18.05h-1l-.938 18H606v1h1v4.54s2.47 4.875 3.347 6.312 3.14 5.5 3.454 6.438.23 5.562.23 5.75-1.043 2.562-1.043 3.5 1.01 3.875 1.26 4.062 1.005.625 1.005.625.064 9.188.002 10.75-1.377 2.125-.377 2.625 2.123.5 2.123.5V237h-1.12l-6.937 21h-3.375l-6.2 12.38c-9.748-35.597-42.298-61.99-80.99-61.99-44.314 0-80.58 34.61-83.74 77.61h-5.595L331 282.54V279h3.377s-1.333-2.98-2.167-3.48c-.833-.5-1.333-1.405-1.333-1.405s.833-4.704-2.833-8.037-7-7.685-7-7.685-.188-6.51-.688-8.51S318 247.23 318 247.23V242h1v-1h-1v-2h1.127s.03-2.636-1.095-3.948-3.032-2.01-3.032-2.01V223h1v-1h-1v-1h-1v1h-1v1h1v9.915s-1.47 1.188-1.844 1.938-1.156 1.625-1.156 1.625v1.312l.657.188.735 1.75-.727 1.062-1.207.562.02.938 1.522 1v3.875s-2.885 3.542-3.052 5.708c-.167 2.167-.808 6.167-.808 6.167l-5.14 4.833V169h-4v-8.96L284.543 155H268v11h-15v109h-4v-8h-87v-68h-15v9h-2v-5.96L123.543 199h-9L105 201.54V204H78v87H0v119h1920V291h-50zm-538.704-43.864c0-16.894 13.694-30.588 30.588-30.588s30.588 13.694 30.588 30.588c0 14.504-10.098 26.64-23.644 29.786l-3.9-21.67c2.033-1.05 3.426-3.17 3.426-5.617 0-3.492-2.83-6.323-6.323-6.323s-6.322 2.83-6.322 6.323c0 2.286 1.217 4.282 3.034 5.393l-4.74 21.665c-13.072-3.476-22.706-15.39-22.706-29.557zm30.182 8.795l4.57 21.504c-1.363.185-2.75.29-4.164.29-2.136 0-4.22-.22-6.232-.638l5.438-21.206c.128.02.257.04.388.05zm-7.33 25.747c2.49.557 5.077.807 7.736.807 2.66 0 5.245-.222 7.736-.78l-1.773 3.296h-11.927l-1.773-3.323zm-836.27-63.823c32.547 0 59.68 27.238 66.05 63.346l-5.717 2.46-29.666-6.143-1.667-3.655.167-7.327s-.605-2.33-1.94-2.33c-1.332 0-2.104 2.336-2.104 2.336V284h-6v2h-16.456l-.772-4.063-.772-3.397v-2l1.105-.833 1.72 1-.308-1.667-1.154-3.167s-1.16-1.333-1.493-1.833-1.664-2-1.664-2l-1.83-.833s-.333-.667-.333-1.167.5-1.833.667-2.333.333-.603.333-1.77-1.166-2.937-1.166-2.937h-1.833s-1.333.334-2.5 1.5c-1.167 1.167-3.333 2.5-3.333 2.5h-1.166l.833 2.436 4.333-1.78 1 2.025-.167 1.847-2.333-.327-.5 2.503-5.167-.83.333 1.833 3.833.667.166 3.667s-3.354 1.667-3.02 3.833c.332 2.167 1.645 1.5 1.645 1.5V286h-55.93c4.613-38 32.75-68.146 66.808-68.146z"/></svg>