<svg xmlns="http://www.w3.org/2000/svg" width="42" height="42" viewBox="0 0 42 42"><g fill="#FFF"><path d="M38.04 13.103a9.92 9.92 0 0 0 .51-3.133C38.55 4.473 34.08 0 28.58 0c-3.013 0-5.713 1.35-7.542 3.47l-.433-.246L0 14.9v26.31h41.21V14.9l-3.17-1.797zM28.58 1.33c4.765 0 8.642 3.877 8.642 8.64s-3.877 8.64-8.64 8.64c-1.54 0-3.06-.418-4.398-1.21l-.246-.147-3.695 1.056 1.056-3.696-.147-.246A8.627 8.627 0 0 1 19.94 9.97c0-4.764 3.877-8.64 8.64-8.64zm-8.744 3.858A9.908 9.908 0 0 0 18.61 9.97c0 1.683.434 3.344 1.255 4.824l-1.557 5.45 5.45-1.557a9.944 9.944 0 0 0 4.823 1.254c3.93 0 7.324-2.288 8.948-5.597l1.816 1.03-18.74 14.365L1.867 15.37l17.97-10.183zM1.33 16.635l13.748 10.54L1.33 39.088V16.635zM2.447 39.88L16.155 28l4.45 3.412 4.45-3.41 13.708 11.88H2.447zm37.433-.79L26.132 27.173l13.748-10.54V39.09z"/><path d="M27.016 17.116c.52.11 1.043.165 1.563.165a7.288 7.288 0 0 0 2.926-.61l-.532-1.22a6.023 6.023 0 0 1-3.683.365 5.947 5.947 0 0 1-4.61-4.85c-.298-1.863.257-3.71 1.523-5.07a5.986 5.986 0 0 1 4.92-1.883c2.715.238 4.975 2.365 5.373 5.056.098.66.09 1.318-.027 1.958-.17.93-.993 1.603-1.96 1.603a.605.605 0 0 1-.606-.606v-2.72a3.327 3.327 0 0 0-3.323-3.322 3.327 3.327 0 0 0-3.322 3.323v1.33a3.327 3.327 0 0 0 3.323 3.323h1.995v-1.33H28.58c-1.1 0-1.994-.894-1.994-1.993v-1.33c0-1.1.895-1.994 1.994-1.994 1.1 0 1.994.896 1.994 1.995v2.72c0 1.065.868 1.933 1.934 1.933 1.612 0 2.986-1.133 3.268-2.695a7.366 7.366 0 0 0 .034-2.39c-.487-3.292-3.25-5.894-6.57-6.186a7.275 7.275 0 0 0-6.012 2.3C21.68 6.65 21 8.905 21.365 11.174a7.288 7.288 0 0 0 5.65 5.942zM19.94 33.234h1.33v1.33h-1.33zm2.66 0h1.328v1.33h-1.33zm-5.32 0h1.33v1.33h-1.33z"/></g></svg>