<svg xmlns="http://www.w3.org/2000/svg" width="41" height="41" viewBox="0 0 41 41"><path d="M22.136.845a2.57 2.57 0 0 0-1.87-.81c-.705 0-1.387.295-1.87.81a2.57 2.57 0 0 0-.686 1.92l.128 1.974c.05.78.464 1.494 1.103 1.91a2.43 2.43 0 0 0 2.65 0 2.473 2.473 0 0 0 1.104-1.91l.13-1.976a2.57 2.57 0 0 0-.688-1.92zm-.918 1.814l-.13 1.974a.858.858 0 0 1-.373.667.825.825 0 0 1-.897 0 .858.858 0 0 1-.374-.666l-.13-1.975a.945.945 0 0 1 .257-.715.944.944 0 0 1 .696-.302c.267 0 .514.108.696.302a.944.944 0 0 1 .256.714zm5.41 9.106l-.224-1.234a4.025 4.025 0 0 0-3.197-3.22 4.026 4.026 0 0 0-.742-.07h-.673a.805.805 0 0 0-.57.236 1.344 1.344 0 0 1-.956.396c-.36 0-.7-.14-.956-.396a.805.805 0 0 0-.57-.236h-.672c-.248 0-.498.024-.743.07a4.025 4.025 0 0 0-3.197 3.22l-.223 1.234a.804.804 0 0 0 .79.947h11.14a.804.804 0 0 0 .793-.947zm-10.968-.66l.05-.287a2.408 2.408 0 0 1 2.358-1.97h.37a2.94 2.94 0 0 0 1.83.633c.67 0 1.308-.223 1.828-.632h.37a2.408 2.408 0 0 1 2.356 1.97l.05.285H15.66zm6.476 17.366a2.57 2.57 0 0 0-1.87-.81c-.705 0-1.387.295-1.87.81a2.57 2.57 0 0 0-.686 1.92l.128 1.974a2.473 2.473 0 0 0 1.103 1.91 2.43 2.43 0 0 0 2.65 0 2.473 2.473 0 0 0 1.104-1.91l.13-1.975a2.57 2.57 0 0 0-.688-1.918zm-.918 1.814l-.13 1.975a.857.857 0 0 1-.373.668.824.824 0 0 1-.897 0 .858.858 0 0 1-.374-.667l-.13-1.974a.945.945 0 0 1 .257-.714.944.944 0 0 1 .696-.302c.267 0 .514.107.696.302a.944.944 0 0 1 .256.714zm5.41 9.107l-.224-1.234a4.025 4.025 0 0 0-3.197-3.22 4.023 4.023 0 0 0-.742-.07h-.673a.805.805 0 0 0-.57.235 1.354 1.354 0 0 1-1.912 0 .805.805 0 0 0-.57-.236h-.672a4.03 4.03 0 0 0-.743.07 4.025 4.025 0 0 0-3.197 3.22l-.223 1.233a.804.804 0 0 0 .79.947h11.14a.803.803 0 0 0 .793-.947zm-10.968-.66l.05-.287a2.408 2.408 0 0 1 2.358-1.968h.37c1.07.84 2.588.84 3.657 0h.37a2.408 2.408 0 0 1 2.357 1.968l.052.286H15.66zM8.323 14.658a2.57 2.57 0 0 0-1.87-.81c-.706 0-1.387.294-1.87.81a2.57 2.57 0 0 0-.687 1.917l.13 1.975c.05.78.462 1.496 1.102 1.91a2.43 2.43 0 0 0 2.65 0 2.473 2.473 0 0 0 1.103-1.91l.13-1.975a2.572 2.572 0 0 0-.687-1.918zm-.918 1.813l-.13 1.975a.857.857 0 0 1-.373.666.824.824 0 0 1-.898 0 .858.858 0 0 1-.374-.666l-.13-1.975a.944.944 0 0 1 .257-.714.944.944 0 0 1 .696-.303c.267 0 .514.107.696.302a.945.945 0 0 1 .255.713zm5.41 9.107l-.224-1.234a4.025 4.025 0 0 0-3.196-3.22 4.024 4.024 0 0 0-.743-.07H7.98a.805.805 0 0 0-.568.235 1.354 1.354 0 0 1-1.914 0 .805.805 0 0 0-.568-.234h-.673c-.25 0-.5.023-.743.07a4.025 4.025 0 0 0-3.197 3.22L.092 25.58a.804.804 0 0 0 .79.948h11.14a.804.804 0 0 0 .792-.948zm-10.97-.662l.053-.286a2.408 2.408 0 0 1 2.357-1.968h.37a2.94 2.94 0 0 0 1.828.632 2.94 2.94 0 0 0 1.83-.632h.37a2.408 2.408 0 0 1 2.356 1.968l.05.286H1.846zm34.105-10.26a2.57 2.57 0 0 0-1.87-.81c-.706 0-1.388.296-1.87.81a2.57 2.57 0 0 0-.687 1.92l.13 1.974c.05.78.462 1.496 1.102 1.91a2.43 2.43 0 0 0 2.65 0 2.473 2.473 0 0 0 1.103-1.91l.13-1.975a2.57 2.57 0 0 0-.688-1.918zm-.918 1.815l-.13 1.975a.857.857 0 0 1-.373.666.825.825 0 0 1-.9 0 .858.858 0 0 1-.373-.666l-.13-1.975a.945.945 0 0 1 .257-.715.944.944 0 0 1 .696-.3c.266 0 .514.106.696.3a.944.944 0 0 1 .256.715zm5.41 9.107l-.224-1.234a4.025 4.025 0 0 0-3.197-3.22 4.026 4.026 0 0 0-.742-.07h-.673a.805.805 0 0 0-.57.235 1.354 1.354 0 0 1-1.912 0 .805.805 0 0 0-.57-.234h-.672c-.247 0-.497.023-.74.07a4.025 4.025 0 0 0-3.198 3.22l-.224 1.233a.804.804 0 0 0 .792.947h11.14a.804.804 0 0 0 .79-.948zm-10.97-.662l.053-.286a2.408 2.408 0 0 1 2.357-1.968h.37a2.94 2.94 0 0 0 1.828.632 2.94 2.94 0 0 0 1.83-.632h.37a2.408 2.408 0 0 1 2.356 1.968l.05.286h-9.213zM16.09 5.223a.804.804 0 0 0-1.02-.505 16.357 16.357 0 0 0-7.99 5.93.804.804 0 0 0 1.307.938 14.736 14.736 0 0 1 7.198-5.344.804.804 0 0 0 .504-1.02zm17.388 5.427a16.375 16.375 0 0 0-5.284-4.73.804.804 0 0 0-.785 1.405 14.76 14.76 0 0 1 4.76 4.26.803.803 0 1 0 1.308-.936zm-7.575-5.785c-.137-.05-.276-.1-.415-.147a.804.804 0 1 0-.515 1.524c.124.042.25.087.373.132a.803.803 0 1 0 .557-1.51zm-10.318 28.43a14.735 14.735 0 0 1-7.198-5.344.804.804 0 0 0-1.308.937 16.357 16.357 0 0 0 7.99 5.93.805.805 0 1 0 .515-1.523zm17.707-5.53a.804.804 0 0 0-1.122.186 14.735 14.735 0 0 1-7.197 5.344.804.804 0 1 0 .515 1.524 16.135 16.135 0 0 0 7.99-5.93.804.804 0 0 0-.186-1.123z" fill="#FFF"/></svg>