<svg xmlns="http://www.w3.org/2000/svg" width="48" height="41" viewBox="0 0 48 41"><path fill="#FFF" d="M9.192 6.694L8.537 2.76H6.184A3.144 3.144 0 0 0 3.148.4 3.15 3.15 0 0 0 0 3.545a3.15 3.15 0 0 0 3.148 3.148 3.144 3.144 0 0 0 3.036-2.36h1.018l.394 2.36h-.022l.174.914v.002l2.014 10.524.822 4.298 1.057 5.52c-1.942.147-3.56 1.64-3.752 3.522a3.942 3.942 0 0 0 3.915 4.336h1.574a4.726 4.726 0 0 0 4.722 4.722 4.726 4.726 0 0 0 4.72-4.722h8.658a4.726 4.726 0 0 0 4.72 4.722 4.726 4.726 0 0 0 4.723-4.722h3.15a.786.786 0 1 0 0-1.574h-3.424A4.725 4.725 0 0 0 36.2 31.09a4.725 4.725 0 0 0-4.447 3.146h-9.207A4.725 4.725 0 0 0 18.1 31.09a4.725 4.725 0 0 0-4.447 3.146h-1.85c-.66 0-1.3-.284-1.75-.78a2.336 2.336 0 0 1-.598-1.824c.12-1.187 1.217-2.117 2.497-2.117h5.485l8.533-.004 5.622-.002h8.543v-.002h3.167a3.93 3.93 0 0 0 3.925-3.925V6.685l-38.035.01zM3.148 5.12a1.575 1.575 0 0 1-1.574-1.574c0-.868.706-1.574 1.574-1.574.868 0 1.574.706 1.574 1.574 0 .868-.706 1.574-1.574 1.574zM36.2 32.663a3.15 3.15 0 0 1 3.148 3.148 3.15 3.15 0 0 1-3.148 3.15 3.15 3.15 0 0 1-3.148-3.148 3.15 3.15 0 0 1 3.148-3.148zm-18.1 0a3.15 3.15 0 0 1 3.148 3.148 3.15 3.15 0 0 1-3.148 3.15 3.15 3.15 0 0 1-3.148-3.148 3.15 3.15 0 0 1 3.148-3.148zm27.554-18.887h-5.52V8.26h5.52v5.517zm-12.602 14.16v-5.502h5.51v5.5h-5.51zm0-7.077v-5.51h5.51v5.51h-5.51zm-14.165 7.08v-5.507h5.51v5.505h-5.51zm0-7.08v-5.51h5.51v5.51h-5.51zm-8.055-5.51h6.48v5.51h-5.425l-1.055-5.51zm27.73-1.574h-5.51V8.268h5.51v5.508zm-7.084 0H25.97V8.263l5.508-.002v5.516zm-7.082-5.508v5.508h-5.51V8.268h5.51zm1.574 7.082h5.508v5.51H25.97v-5.51zm14.165 0h5.51v5.51h-5.51v-5.51zM17.313 8.266v5.51H10.53L9.478 8.27l7.836-.003zm-5.125 14.167h5.125v5.506h-4.07l-1.055-5.507zm13.782 0h5.508v5.502l-5.508.002v-5.504zm17.332 5.5h-3.167v-5.5h5.52v3.148a2.354 2.354 0 0 1-2.353 2.352z"/></svg>