<?xml version="1.0" encoding="utf-8"?>
<!-- Generator: Adobe Illustrator 17.0.0, SVG Export Plug-In . SVG Version: 6.00 Build 0)  -->
<!DOCTYPE svg PUBLIC "-//W3C//DTD SVG 1.1//EN" "http://www.w3.org/Graphics/SVG/1.1/DTD/svg11.dtd">
<svg version="1.1" id="Шар_1" xmlns="http://www.w3.org/2000/svg" xmlns:xlink="http://www.w3.org/1999/xlink" x="0px" y="0px"
	 width="135px" height="40px" viewBox="0 0 135 40" enable-background="new 0 0 135 40" xml:space="preserve">
<g>
	<path d="M135,36c0,2.209-1.791,4-4,4H4c-2.209,0-4-1.791-4-4V4c0-2.209,1.791-4,4-4h127c2.209,0,4,1.791,4,4V36z"/>
	<g>
		<path fill="#FFFFFF" d="M48.872,21.451H42.45v1.866h4.555c-0.225,2.616-2.448,3.732-4.547,3.732c-2.685,0-5.028-2.068-5.028-4.967
			c0-2.824,2.233-4.999,5.034-4.999c2.161,0,3.434,1.348,3.434,1.348l1.334-1.353c0,0-1.713-1.867-4.836-1.867
			c-3.978,0-7.055,3.286-7.055,6.836c0,3.478,2.895,6.87,7.156,6.87c3.748,0,6.492-2.514,6.492-6.231
			C48.989,21.903,48.872,21.45,48.872,21.451L48.872,21.451z"/>
		<path fill="#FFFFFF" d="M54.133,20.099c-2.635,0-4.524,2.017-4.524,4.369c0,2.387,1.832,4.441,4.555,4.441
			c2.465,0,4.484-1.844,4.484-4.39C58.649,21.602,56.3,20.099,54.133,20.099z M54.154,27.181c-1.436,0-2.569-1.126-2.569-2.685
			c0-1.526,1.119-2.666,2.575-2.666c1.296,0,2.524,1.026,2.524,2.678C56.683,26.126,55.461,27.181,54.154,27.181z"/>
		<path fill="#FFFFFF" d="M63.972,20.099L63.972,20.099c-2.635,0-4.524,2.017-4.524,4.369c0,2.387,1.832,4.441,4.555,4.441
			c2.465,0,4.484-1.844,4.484-4.39C68.487,21.602,66.138,20.099,63.972,20.099z M63.992,27.181c-1.436,0-2.569-1.126-2.569-2.685
			c0-1.526,1.119-2.666,2.575-2.666c1.296,0,2.524,1.026,2.524,2.678C66.522,26.126,65.299,27.181,63.992,27.181z"/>
		<path fill="#FFFFFF" d="M76.048,21.115c-0.58-0.612-1.373-1.011-2.426-1.011v0c-2.419,0-4.32,2.074-4.32,4.402
			c0,2.652,2.204,4.41,4.278,4.41c1.283,0,1.964-0.498,2.468-1.07v0.869c0,1.52-0.943,2.43-2.365,2.43
			c-1.375,0-2.064-1.001-2.304-1.568l-1.729,0.708c0.614,1.27,1.849,2.594,4.047,2.594c2.405,0,4.238-1.483,4.238-4.593v-7.916
			h-1.887V21.115z M73.771,27.184c-1.29,0-2.489-1.025-2.489-2.653c0-1.691,1.246-2.701,2.516-2.701l0,0
			c1.186,0,2.404,0.991,2.404,2.684C76.201,26.236,74.986,27.184,73.771,27.184z"/>
		<path fill="#FFFFFF" d="M86.553,27.18c-1.265,0-1.847-0.678-2.207-1.335l6.034-2.451l-0.313-0.718
			c-0.583-1.407-1.943-2.581-3.742-2.581l0,0c-2.282,0-4.197,1.777-4.197,4.4c0,2.775,2.135,4.42,4.417,4.42
			c1.904,0,3.072-1.02,3.77-1.933l-1.556-1.013C88.354,26.58,87.679,27.18,86.553,27.18z M86.403,21.788
			c0.822,0,1.414,0.428,1.665,0.941l-4.029,1.649C83.864,23.101,85.1,21.788,86.403,21.788z"/>
		<rect x="79.25" y="15.667" fill="#FFFFFF" width="1.982" height="12.985"/>
	</g>
	<g>
		<rect x="105.438" y="15.836" fill="#FFFFFF" width="1.982" height="12.985"/>
		<path fill="#FFFFFF" d="M99.877,15.817v0.007h-2.673v-0.007h-1.982v0.007v1.982v4.052v1.982v4.962h1.982V23.84h2.722v-0.006
			c2.164-0.06,3.9-1.828,3.9-4.007C103.827,17.632,102.064,15.851,99.877,15.817z M99.877,21.84v0.018h-2.673v-4.052h2.673v0.008
			c1.004,0.127,1.784,0.974,1.784,2.013C101.661,20.865,100.882,21.713,99.877,21.84z"/>
		<polygon fill="#FFFFFF" points="117.799,19.937 120.064,19.937 122.527,25.713 124.877,19.909 127.198,19.909 121.649,32.508 
			119.469,32.508 121.479,28.148 		"/>
		<path fill="#FFFFFF" d="M113.099,19.456c-3.199,0-3.85,2.01-3.85,2.01l1.84,0.934c0,0,0.17-1.161,1.982-1.161
			c1.812,0,1.954,1.869,1.954,1.869s-1.076-0.453-2.237-0.453c-2.548,0-3.794,1.784-3.794,3.256c0,1.472,1.444,2.86,3.454,2.86
			c2.01,0,2.633-1.302,2.633-1.302v1.132l1.982-0.028c0,0,0-5.294,0-5.889S116.298,19.456,113.099,19.456z M112.759,26.959
			c-1.189,0-1.699-0.623-1.699-1.217s0.651-1.416,2.038-1.416c1.387,0,1.982,0.595,1.982,0.595
			C114.911,25.855,113.948,26.959,112.759,26.959z"/>
	</g>
	<g id="PLAY_1_">
		<defs>
			<path id="SVGID_1_" d="M25.113,20l-4.401-2.541c0,0-8.018-4.63-8.489-4.902c-0.471-0.272-0.941-0.107-0.941,0.461
				c0,0.947,0,9.885,0,9.885s0,9.659,0,10.085s0.336,0.61,0.745,0.374c0.409-0.237,8.685-5.015,8.685-5.015l4.401-2.541
				c0,0,3.734-2.156,4.23-2.442c0.496-0.287,0.449-0.68,0.03-0.906C28.954,22.234,25.113,20,25.113,20z"/>
		</defs>
		<clipPath id="SVGID_2_">
			<use xlink:href="#SVGID_1_"  overflow="visible"/>
		</clipPath>
		<linearGradient id="SVGID_3_" gradientUnits="userSpaceOnUse" x1="16.7332" y1="12.093" x2="16.7332" y2="33.7141">
			<stop  offset="0" style="stop-color:#207CB0"/>
			<stop  offset="0.3757" style="stop-color:#3CB2BF"/>
			<stop  offset="0.7961" style="stop-color:#58E9CE"/>
			<stop  offset="1" style="stop-color:#63FFD4"/>
		</linearGradient>
		<polygon clip-path="url(#SVGID_2_)" fill="url(#SVGID_3_)" points="11.282,12.093 11.282,22.904 11.282,33.714 22.184,22.904 		
			"/>
		<linearGradient id="SVGID_4_" gradientUnits="userSpaceOnUse" x1="11.2819" y1="17.459" x2="25.1128" y2="17.459">
			<stop  offset="0" style="stop-color:#4BC3AE"/>
			<stop  offset="1" style="stop-color:#DEE999"/>
		</linearGradient>
		<polygon clip-path="url(#SVGID_2_)" fill="url(#SVGID_4_)" points="25.113,20 20.712,17.459 11.282,12.014 11.282,12.093 
			22.184,22.904 		"/>
		<linearGradient id="SVGID_5_" gradientUnits="userSpaceOnUse" x1="18.1973" y1="22.9037" x2="18.1973" y2="33.7926">
			<stop  offset="0" style="stop-color:#EC403D"/>
			<stop  offset="0.384" style="stop-color:#C93B75"/>
			<stop  offset="0.7988" style="stop-color:#A636AC"/>
			<stop  offset="1" style="stop-color:#9934C2"/>
		</linearGradient>
		<polygon clip-path="url(#SVGID_2_)" fill="url(#SVGID_5_)" points="11.282,33.714 11.282,33.793 20.712,28.348 25.113,25.807 
			22.184,22.904 		"/>
		<linearGradient id="SVGID_6_" gradientUnits="userSpaceOnUse" x1="26.1633" y1="20" x2="26.1633" y2="25.8071">
			<stop  offset="0" style="stop-color:#FF8877"/>
			<stop  offset="0.6121" style="stop-color:#FFB175"/>
			<stop  offset="1" style="stop-color:#FFC774"/>
		</linearGradient>
		<polygon clip-path="url(#SVGID_2_)" fill="url(#SVGID_6_)" points="25.113,20 22.184,22.904 25.113,25.807 30.142,22.904 		"/>
	</g>
	<g>
		<path fill="#FFFFFF" d="M42.793,11.008V5.217h3.807v0.643h-3.084v1.867h3.022v0.642h-3.022v1.997h3.084v0.643H42.793z"/>
		<path fill="#FFFFFF" d="M48.733,11.008V5.859h-1.837V5.217h4.406v0.643h-1.847v5.148H48.733z"/>
		<path fill="#FFFFFF" d="M53.731,11.008V5.217h0.723v5.791H53.731z"/>
		<path fill="#FFFFFF" d="M56.924,11.008V5.859h-1.837V5.217h4.406v0.643h-1.847v5.148H56.924z"/>
		<path fill="#FFFFFF" d="M61.726,8.112c0-1.71,1.159-2.996,2.883-2.996c1.716,0,2.883,1.285,2.883,2.996s-1.167,2.995-2.883,2.995
			C62.885,11.108,61.726,9.823,61.726,8.112z M66.743,8.112c0-1.354-0.836-2.353-2.134-2.353c-1.306,0-2.134,0.999-2.134,2.353
			c0,1.346,0.828,2.353,2.134,2.353C65.907,10.465,66.743,9.458,66.743,8.112z"/>
		<path fill="#FFFFFF" d="M72.746,11.008l-3.388-4.619v4.619h-0.723V5.217h0.741l3.344,4.523V5.217h0.723v5.791H72.746z"/>
		<path fill="#FFFFFF" d="M41.929,7.826h-0.018V7.816h-2.917v0.643h2.272c-0.169,1.129-1.133,1.997-2.309,1.997
			c-1.294,0-2.344-1.049-2.344-2.344c0-1.294,1.049-2.344,2.344-2.344c0.615,0,1.171,0.242,1.589,0.63l0.464-0.464
			c-0.537-0.506-1.256-0.822-2.053-0.822c-1.657,0-3,1.343-3,3s1.343,3,3,3s3-1.343,3-3C41.958,8.014,41.939,7.921,41.929,7.826z"/>
	</g>
</g>
</svg>
